<svg width="24" height="24" xmlns="http://www.w3.org/2000/svg"><path d="M22.978 12.706a1 1 0 001.006-.994 1 1 0 00-1-1l-.006 1.994zm-21.06-1.062l-.708-.707a.994.994 0 00-.004 1.41l.711-.703zm9.788 11.203c.39.39 1.025.393 1.418.005a.992.992 0 00.005-1.41l-1.423 1.405zm1.483-20.93a.993.993 0 00.004-1.41 1.007 1.007 0 00-1.418-.005l1.414 1.415zm9.795 8.795L1.92 10.647l-.006 1.994 21.064.065.006-1.994zm-9.855 10.73l-10.5-10.5-1.423 1.405 10.5 10.5 1.423-1.405zm-10.505-9.09L13.19 1.916 11.774.502 1.21 10.937l1.414 1.414z"/></svg>