<svg width="23" height="23" xmlns="http://www.w3.org/2000/svg"><path d="M11.372 7.998a3.634 3.634 0 00-3.626 3.627 3.634 3.634 0 003.626 3.627A3.634 3.634 0 0015 11.625a3.634 3.634 0 00-3.627-3.627zm10.877 3.627c0-1.502.014-2.99-.07-4.489-.085-1.741-.482-3.286-1.755-4.56C19.148 1.3 17.605.906 15.864.822 14.362.737 12.874.75 11.375.75c-1.502 0-2.99-.014-4.489.07-1.741.085-3.286.482-4.56 1.755C1.052 3.852.657 5.395.573 7.136c-.085 1.502-.07 2.99-.07 4.489 0 1.499-.015 2.99.07 4.489.084 1.741.481 3.286 1.755 4.56 1.275 1.276 2.818 1.67 4.56 1.755 1.5.084 2.989.07 4.488.07 1.502 0 2.99.014 4.489-.07 1.741-.085 3.286-.482 4.56-1.755 1.276-1.276 1.67-2.819 1.754-4.56.087-1.5.071-2.987.071-4.489zm-10.877 5.58a5.572 5.572 0 01-5.58-5.58 5.572 5.572 0 015.58-5.58 5.572 5.572 0 015.58 5.58 5.572 5.572 0 01-5.58 5.58zM17.181 7.12a1.302 1.302 0 01-1.304-1.303c0-.721.583-1.304 1.304-1.304a1.302 1.302 0 01.922 2.226 1.301 1.301 0 01-.922.38z"/></svg>