<svg width="40" height="80" xmlns="http://www.w3.org/2000/svg"><path fill-rule="evenodd" clip-rule="evenodd" d="M19.593 2.247C17.086 9.773 15.332 18.7 14.409 28.63c-.376 4.054-.532 15.32-.269 19.496.604 9.593 2.019 18.042 4.375 26.124.727 2.497 1.864 5.751 2.008 5.751.328 0 2.417-6.88 3.36-11.068 2-8.876 2.892-17.498 2.892-27.923-.001-12.562-1.384-23.858-4.236-34.605-.7-2.636-1.806-6.156-2.01-6.399-.075-.088-.496.921-.936 2.242zM38.77 29.312c-.735 1.261-2.636 5.731-3.44 8.09-3.126 9.167-4.528 19.781-3.833 29.024.186 2.471.66 5.892.88 6.34.302.617 3.13-5.925 4.364-10.098 1.496-5.056 2.63-11.127 3.061-16.395.401-4.894.17-12.834-.487-16.766l-.147-.878-.398.683zm-38.313.34c-1.042 7.154-.26 17.78 1.922 26.134 1.394 5.335 3.634 11.1 5.83 15.002.992 1.766 1.345 2.148 1.348 1.463 0-.188.081-1.087.18-1.999.266-2.472.223-8.892-.08-11.892-.907-8.982-3.44-18.25-7.024-25.712-.971-2.022-1.896-3.726-2.02-3.726-.028 0-.098.329-.156.73z"/></svg>