<svg width="23" height="14" xmlns="http://www.w3.org/2000/svg"><path fill-rule="evenodd" clip-rule="evenodd" d="M10.898 12.98h1.325s.397-.065.596-.264c.199-.198.199-.595.199-.595s0-1.72.795-1.985c.795-.265 1.855 1.72 2.915 2.448.795.595 1.39.463 1.39.463l2.916-.066s1.524-.066.795-1.323c-.066-.066-.398-.86-2.186-2.514-1.855-1.72-1.59-1.39.596-4.367 1.325-1.786 1.855-2.845 1.723-3.374-.133-.463-1.127-.33-1.127-.33h-3.312s-.265-.067-.398.065a.711.711 0 00-.265.331s-.53 1.39-1.192 2.58c-1.458 2.448-2.054 2.58-2.253 2.448-.53-.33-.397-1.455-.397-2.183 0-2.382.397-3.374-.73-3.639-.33-.066-.595-.132-1.523-.132-1.193 0-2.186 0-2.716.265-.398.198-.663.595-.464.595s.729.132.994.463c.265.596.265 1.588.265 1.588s.198 2.845-.464 3.176c-.464.264-1.06-.265-2.385-2.514-.663-1.125-1.193-2.448-1.193-2.448s-.066-.265-.265-.397c-.198-.133-.53-.199-.53-.199H.894s-.464 0-.663.199c-.132.198 0 .529 0 .529s2.451 5.69 5.234 8.6c2.584 2.78 5.433 2.58 5.433 2.58z"/></svg>