<svg width="170" height="130" fill="none" xmlns="http://www.w3.org/2000/svg"><path d="M114.681 108.223l-1.291 3.544h-.527l1.486-3.889h.34l-.008.345zm1.082 3.544l-1.294-3.544-.008-.345h.34l1.492 3.889h-.53zm-.067-1.439v.422h-2.191v-.422h2.191zM118.801 110.242h-1.041v-.419h1.041c.202 0 .365-.032.49-.096a.599.599 0 00.273-.267.836.836 0 00.089-.39.83.83 0 00-.089-.377.652.652 0 00-.273-.283.964.964 0 00-.49-.11h-.921v3.467h-.517v-3.889h1.438c.295 0 .544.051.747.153.204.101.358.242.463.422.106.178.158.382.158.611 0 .25-.052.462-.158.639-.105.176-.259.31-.463.403a1.823 1.823 0 01-.747.136zM122.812 107.878v3.889h-.509v-3.889h.509zm1.253 0v.422h-3.012v-.422h3.012zM125.526 109.911v.406h-1.306v-.406h1.306zM127.175 107.878v3.889h-.516v-3.889h.516zm2.402 0l-1.692 2.14h-.916l-.08-.428h.688l1.36-1.712h.64zm-.519 3.889l-1.465-1.816.289-.451 1.808 2.267h-.632zM133.623 109.7v.246c0 .292-.037.553-.11.785a1.693 1.693 0 01-.316.59 1.37 1.37 0 01-.496.371 1.547 1.547 0 01-.642.129c-.23 0-.442-.043-.635-.129a1.42 1.42 0 01-.498-.371 1.74 1.74 0 01-.324-.59 2.483 2.483 0 01-.115-.785v-.246c0-.292.038-.553.113-.783a1.72 1.72 0 01.323-.59 1.4 1.4 0 01.496-.374c.193-.085.404-.128.634-.128.238 0 .452.043.643.128.193.086.358.21.495.374.14.162.246.359.319.59.075.23.113.491.113.783zm-.512.246v-.251a2.37 2.37 0 00-.072-.615 1.28 1.28 0 00-.206-.448.888.888 0 00-.335-.275 1.01 1.01 0 00-.445-.094.918.918 0 00-.768.369 1.34 1.34 0 00-.212.448c-.05.178-.075.383-.075.615v.251c0 .233.025.439.075.619.05.178.122.329.215.452a.952.952 0 00.334.275c.131.062.276.093.437.093.168 0 .317-.031.447-.093a.879.879 0 00.329-.275c.091-.123.16-.274.207-.452.046-.18.069-.386.069-.619zM137.491 109.55v.42h-2.11v-.42h2.11zm-2.029-1.672v3.889h-.517v-3.889h.517zm2.479 0v3.889h-.514v-3.889h.514zM141.826 107.878v.422h-1.88v3.467h-.514v-3.889h2.394zM144.447 110.242h-1.042v-.419h1.042c.202 0 .365-.032.49-.096a.599.599 0 00.273-.267.836.836 0 00.088-.39.83.83 0 00-.088-.377.652.652 0 00-.273-.283.964.964 0 00-.49-.11h-.921v3.467h-.517v-3.889h1.438c.294 0 .543.051.747.153.203.101.358.242.463.422.105.178.158.382.158.611 0 .25-.053.462-.158.639-.105.176-.26.31-.463.403a1.83 1.83 0 01-.747.136zM149.494 111.348v.419h-2.065v-.419h2.065zm-1.96-3.47v3.889h-.517v-3.889h.517zm1.687 1.672v.42h-1.792v-.42h1.792zm.246-1.672v.422h-2.038v-.422h2.038zM153.1 107.878v.422h-1.88v3.467h-.514v-3.889h2.394zM155.207 108.223l-1.291 3.544h-.527l1.486-3.889h.34l-.008.345zm1.082 3.544l-1.294-3.544-.008-.345h.34l1.492 3.889h-.53zm-.067-1.439v.422h-2.191v-.422h2.191zM161.271 111.335l-.048 1.37h-.463v-.938h-.383v-.432h.894zm-3.366.432v-3.889h.52v3.47h1.92v-3.47h.516v3.889h-2.956zM162.987 110.875l1.92-2.997h.517v3.889h-.517v-2.999l-1.92 2.999h-.514v-3.889h.514v2.997zM169.076 110.253h-1.096l-.254-.104c-.282-.089-.499-.226-.651-.409a1.055 1.055 0 01-.227-.689c0-.251.055-.464.166-.638a1.05 1.05 0 01.476-.398c.207-.091.452-.137.734-.137h1.248v3.889h-.517V108.3h-.731c-.286 0-.501.068-.645.203-.143.136-.215.318-.215.548 0 .15.032.283.094.401.064.117.159.21.284.277.125.068.28.102.466.102h.87l-.002.422zm-.879-.267l-.948 1.781h-.549l.975-1.781h.522z" fill="#013C55"/><path fill-rule="evenodd" clip-rule="evenodd" d="M75.137.096c-.262.047-.777.154-1.144.238-.367.084-1.16.317-1.764.517-.603.201-1.375.482-1.716.624-.341.142-1.08.491-1.642.777-.562.285-1.313.7-1.668.921-.356.222-1.076.686-1.6 1.032-.525.345-1.405.972-1.955 1.393-.551.42-1.495 1.18-2.098 1.687-.603.507-1.98 1.81-3.059 2.893-1.08 1.085-2.327 2.428-2.773 2.985a42.62 42.62 0 00-1.375 1.823c-.31.446-.607.883-.66.972l-.596.999c-.276.46-.794 1.427-1.151 2.148a43.102 43.102 0 00-1.132 2.513c-.265.66-.636 1.677-.824 2.259a62.604 62.604 0 00-1.51 5.66c-.055.271-.134.687-.175.925l-.233 1.345c-.087.503-.2 1.238-.25 1.634-.052.397-.154 1.522-.228 2.5-.1 1.319-.113 2.15-.047 3.22.048.793.135 1.81.192 2.259.057.45.167 1.206.244 1.682.076.476.18 1.06.23 1.298.051.238.18.822.288 1.297l.34 1.49c.08.344.182.733.227.866.045.132.154.5.244.817.09.317.325 1.074.524 1.682.2.608.5 1.495.67 1.97.168.476.54 1.45.825 2.163.285.714.585 1.45.667 1.634.081.185.505 1.08.94 1.988.437.907.956 1.913 1.156 2.234.199.322.409.585.466.585.058 0 .186-.09.285-.2.099-.11.616-1.506 1.149-3.1.533-1.596 1.163-3.441 1.399-4.102.236-.66.482-1.353.546-1.538.065-.185.716-1.915 1.448-3.845.731-1.93 1.48-3.92 1.663-4.422.183-.502.4-1.086.48-1.297l.222-.577.664-1.683c.325-.819.629-1.576.676-1.682.047-.105.36-.906.696-1.778a179.324 179.324 0 012.253-5.527c.094-.212.288-.665.43-1.007.142-.342.365-.828.496-1.081s.259-.46.284-.46c.024 0 .45.378.946.84.495.46 1.103.95 1.351 1.087s.652.305.898.374c.36.1.546.101.953.006.279-.065.72-.241.983-.39.262-.15.82-.552 1.24-.893.42-.341 1.235-1.111 1.811-1.711.577-.6 1.264-1.329 1.527-1.62.263-.29.713-.81 1-1.153.288-.344.547-.647.575-.673.028-.026.31-.372.624-.769.316-.396.835-1.07 1.154-1.498.32-.426 1.03-1.465 1.579-2.306.548-.842 1.14-1.79 1.315-2.108.174-.317.437-.805.582-1.084.146-.278.415-.884.598-1.345.183-.461.442-1.272.576-1.8.22-.873.242-1.141.243-2.9 0-1.067-.046-2.17-.104-2.452a60.446 60.446 0 00-.347-1.521c-.133-.555-.352-1.27-.487-1.586a14.493 14.493 0 00-.696-1.346c-.249-.423-.637-.968-.863-1.211a11.053 11.053 0 00-.945-.875 10.168 10.168 0 00-1.24-.82 10.406 10.406 0 00-1.277-.589 12.45 12.45 0 00-1.27-.347A8.415 8.415 0 0076.443 0c-.455.006-1.042.05-1.305.096zm3.792 6.428c.302.115.675.316.829.446.154.13.372.388.485.572.112.184.264.56.337.837.073.276.134.84.134 1.254 0 .444-.082 1.094-.2 1.586a15.228 15.228 0 01-.439 1.46c-.13.343-.272.71-.317.816-.044.106-.29.647-.545 1.202a20.74 20.74 0 01-1.07 1.97 23.138 23.138 0 01-1.133 1.629c-.29.367-.84.981-1.222 1.366a13.92 13.92 0 01-1.221 1.09c-.29.215-.791.548-1.115.74a8.14 8.14 0 01-1.071.525c-.316.116-.74.178-1.226.178-.55 0-.757-.035-.795-.135-.028-.074.129-.604.349-1.177.22-.574.453-1.173.518-1.332a41.15 41.15 0 01.782-1.858c.174-.386.316-.721.316-.744 0-.022.15-.368.333-.769.184-.4.334-.745.334-.766 0-.021.11-.289.245-.594l.373-.844c.07-.159.35-.83.622-1.49.273-.66.572-1.375.666-1.586.094-.212.265-.623.382-.913.116-.291.248-.615.293-.721.045-.106.152-.419.239-.696.086-.277.13-.612.097-.745-.034-.135-.234-.358-.453-.506l-.776-.518-.382-.254.515-.108c.283-.059.665-.124.849-.145.183-.021.87-.025 1.525-.01.944.024 1.307.074 1.742.24zm-9.252 1.368l-.668 1.422c-.261.555-.63 1.346-.82 1.758-.19.412-.346.765-.346.786 0 .02-.15.365-.334.766-.183.4-.333.748-.333.773 0 .025-.113.295-.25.6-.138.306-.31.692-.382.859a2.114 2.114 0 00-.131.358c0 .03-.129.338-.286.684-.158.347-.286.653-.286.681 0 .028-.082.232-.182.454-.1.222-.341.793-.536 1.269a71.263 71.263 0 01-.859 2.018c-.068.159-.24.548-.383.865a308.844 308.844 0 01-1.185 2.596c-.22.476-.713 1.557-1.095 2.403-.383.846-.792 1.754-.91 2.019-.118.264-.36.797-.536 1.184-.177.387-.321.721-.321.742 0 .021-.102.267-.227.546-.125.28-.492 1.129-.817 1.888-.324.76-.709 1.646-.854 1.97-.146.325-.49 1.153-.767 1.84-.276.688-.555 1.38-.62 1.538-.066.159-.21.527-.32.817-.108.291-.461 1.286-.783 2.211-.321.925-.692 1.985-.823 2.355-.132.37-.286.77-.343.89-.058.119-.141.216-.186.216-.045 0-.118-.097-.163-.216-.044-.12-.212-.757-.372-1.418-.16-.661-.343-1.548-.407-1.97-.064-.424-.116-1.376-.116-2.116 0-.74.051-2.016.113-2.835.062-.82.155-1.836.207-2.26.052-.422.14-1.093.197-1.49.056-.396.189-1.153.293-1.681.105-.53.229-1.135.275-1.346.046-.212.123-.536.17-.721.048-.185.152-.575.232-.865.08-.291.389-1.286.687-2.211.298-.925.671-2.029.829-2.451.157-.423.372-.964.477-1.202.105-.238.387-.843.627-1.346.239-.502.537-1.078.662-1.28.125-.201.316-.525.424-.72.108-.193.595-.915 1.083-1.603s1.137-1.532 1.442-1.876c.305-.344.877-.964 1.27-1.38.395-.414 1.233-1.187 1.862-1.717.63-.53 1.271-1.075 1.426-1.21.156-.137.95-.724 1.764-1.305.815-.581 1.759-1.22 2.096-1.42.338-.201.633-.346.656-.323.023.023-.045.228-.15.454zm72.448 1.59c-.18.09-.608.424-.949.742-.34.32-.9.864-1.244 1.21a92.678 92.678 0 00-1.721 1.825 266.302 266.302 0 00-2.097 2.304c-.026.027-.411.438-.854.914-.443.475-2.311 2.399-4.151 4.276-1.84 1.877-3.821 3.931-4.402 4.566a86.676 86.676 0 00-1.287 1.427l-.231.274-.124-.489c-.099-.39-.223-.578-.616-.935-.271-.245-.75-.631-1.065-.857-.314-.227-.688-.465-.83-.53-.215-.1-.297-.093-.491.035-.128.084-.436.49-.685.902-.249.412-.539.901-.644 1.086-.106.185-.404.747-.663 1.25-.26.502-.647 1.15-.861 1.442a66.31 66.31 0 01-1.448 1.826c-.582.714-1.441 1.795-1.91 2.403a95.935 95.935 0 01-1.522 1.923c-.369.449-.826.99-1.015 1.201-.189.212-.554.628-.81.925-.257.297-1.261 1.335-2.231 2.307s-2.201 2.167-2.734 2.656c-.823.754-1.019.889-1.288.885-.174-.002-.51-.1-.746-.216-.37-.183-.433-.259-.462-.549-.019-.185.015-.704.075-1.153.06-.45.176-1.176.256-1.613a15.34 15.34 0 01.369-1.5c.122-.388.329-.916.461-1.175.131-.259.501-.86.822-1.336.321-.476 1.074-1.6 1.673-2.5.599-.898 1.287-1.885 1.528-2.192.331-.421.491-.551.648-.528.128.018.22.109.238.236.016.114-.098.525-.254.913-.155.389-.396.98-.535 1.313-.215.514-.238.652-.151.917.07.215.264.419.628.66.29.193.714.423.943.51.39.15.438.15.758-.003.188-.09.423-.3.521-.466.099-.166.552-1.027 1.008-1.913.456-.886.913-1.855 1.015-2.154.102-.298.185-.732.185-.964 0-.236-.087-.592-.197-.811a4.522 4.522 0 00-.585-.814 8.607 8.607 0 00-1.018-.891c-.347-.258-.889-.6-1.203-.762a16.082 16.082 0 00-.95-.448 4.051 4.051 0 00-.914-.212c-.399-.042-.624-.014-.878.107-.188.09-.521.341-.741.558-.22.217-.817.917-1.326 1.555a96.048 96.048 0 00-1.803 2.345 78.298 78.298 0 00-1.931 2.788 92.582 92.582 0 01-1.167 1.748c-.061.08-.456.556-.876 1.058-.421.501-1.343 1.625-2.05 2.498-.705.872-1.926 2.342-2.712 3.266a67.316 67.316 0 01-2.96 3.22c-.844.847-1.687 1.622-1.873 1.722-.23.124-.423.161-.6.117a1.282 1.282 0 01-.49-.298c-.217-.219-.23-.297-.23-1.318.002-.598.065-1.432.14-1.855.076-.423.205-1.025.287-1.337.082-.313.221-.724.309-.913.088-.19.442-.843.788-1.451a97.631 97.631 0 011.716-2.836 89.28 89.28 0 011.703-2.62c.47-.678.668-.888.833-.888.125 0 .24.073.272.172.03.096-.093.539-.274.986-.18.447-.416.994-.525 1.216-.108.222-.196.57-.196.774 0 .295.063.43.31.66.17.158.53.404.799.547.293.155.642.259.87.259.234 0 .47-.073.621-.193.134-.106.497-.7.807-1.321.31-.622.72-1.422.914-1.78.192-.358.436-.908.541-1.223.105-.314.191-.776.191-1.025 0-.262-.083-.627-.196-.863-.108-.225-.481-.677-.829-1.005a10.559 10.559 0 00-1.257-.998 11.42 11.42 0 00-1.103-.623 8.634 8.634 0 00-.906-.352 3.325 3.325 0 00-.791-.133c-.2 0-.482.062-.628.138-.146.076-.504.398-.795.715-.291.316-1.109 1.454-1.817 2.529-.708 1.074-1.502 2.32-1.764 2.77a143.595 143.595 0 00-1.21 2.114c-.196.344-.487.863-.649 1.154-.16.29-.524.96-.807 1.49-.283.528-.72 1.393-.973 1.922-.252.529-.548 1.22-.657 1.538-.11.317-.265.858-.345 1.202-.103.443-.144 1.14-.142 2.403.002 1.33.048 2.008.18 2.691.097.503.264 1.236.371 1.63.16.59.258.77.558 1.029.2.172.723.499 1.163.726.728.375.86.412 1.478.406.511-.005.784-.06 1.107-.228.236-.122.644-.375.906-.563a60.399 60.399 0 001.812-1.42 70.844 70.844 0 001.527-1.257c.106-.098.385-.348.62-.555.235-.208 1.172-1.095 2.082-1.971.91-.877 1.708-1.606 1.773-1.622.083-.02.137.178.176.65.037.444.132.815.276 1.075.157.282.505.599 1.209 1.1.543.386 1.354.886 1.802 1.11.683.34.907.406 1.395.408.449.003.702-.057 1.106-.261.289-.146.895-.534 1.347-.862.452-.328 1.028-.77 1.279-.98.252-.212.933-.796 1.514-1.299.581-.502 1.486-1.277 2.01-1.721.525-.445 1.054-.92 1.176-1.057.122-.137.379-.422.572-.634.193-.212.496-.558.674-.769.179-.211.472-.55.651-.753.18-.203.347-.35.371-.325.024.024-.123.558-.327 1.186-.204.628-.42 1.336-.479 1.574s-.173.794-.252 1.236c-.08.443-.145.948-.145 1.123 0 .282.114.425.966 1.215.531.493 1.186 1.101 1.454 1.352.269.25.651.507.849.569.318.1.392.09.62-.08a1.55 1.55 0 00.393-.468c.073-.152.173-.45.221-.665.048-.213.191-.95.318-1.638s.272-1.444.321-1.682c.05-.238.157-.682.239-.986l.296-1.105c.081-.304.262-.92.404-1.37l.257-.817.067.385c.037.211.111.968.166 1.682.054.713.187 1.616.295 2.006.108.39.321.974.472 1.298.152.324.424.797.605 1.052.181.256.495.58.698.721.34.237.443.257 1.276.25.766-.007.991-.047 1.461-.262.306-.14.949-.532 1.43-.87a18.583 18.583 0 001.59-1.276 79.126 79.126 0 002.241-2.235c.839-.866 1.9-1.894 2.358-2.283.457-.39.871-.708.919-.708.052 0 .054.145.005.36-.046.198-.083.707-.082 1.13 0 .423.062 1.028.136 1.345.098.413.217.651.422.836.157.143.577.355.933.47.425.14.987.228 1.632.257.763.036 1.106.008 1.526-.121.452-.14.66-.288 1.261-.9.396-.404 1.083-1.247 1.526-1.874l.806-1.14.111 1.044c.062.574.144 1.152.182 1.284.039.132.213.466.386.742.177.28.495.616.724.762.225.143.795.443 1.267.667.472.224 1.26.544 1.751.712.614.21.923.275.991.206.068-.068.065-.273-.009-.657a33.01 33.01 0 01-.229-1.47c-.073-.56-.12-1.977-.119-3.653.001-1.63.05-3.11.121-3.653.066-.502.165-1.173.221-1.49.055-.317.189-.988.295-1.49.107-.502.254-1.108.327-1.346.073-.238.2-.649.283-.913.083-.264.185-.567.227-.673l.755-1.926c.373-.954.678-1.762.678-1.795 0-.034-.161-.114-.358-.179a9.785 9.785 0 01-.882-.364 12.715 12.715 0 01-1.228-.707c-.387-.253-.775-.46-.862-.46-.095 0-.298.243-.502.6-.188.331-.461.818-.605 1.082l-.55 1.01c-.157.29-.559.997-.892 1.57-.333.572-.605 1.061-.605 1.086 0 .024-.15.281-.334.57-.184.29-.334.548-.334.575 0 .027-.257.461-.572.965-.314.503-.572.933-.572.955 0 .023-.371.632-.825 1.354-.454.722-1.068 1.577-1.364 1.9-.296.324-.704.773-.906.998-.203.224-.406.408-.453.408-.046 0-.057-.162-.024-.36.033-.198.122-.62.198-.938.076-.317.292-.987.479-1.49.187-.502.685-1.821 1.105-2.931.42-1.11.818-2.149.884-2.307.067-.159.453-1.11.859-2.115a88.92 88.92 0 011.06-2.53c.177-.388.322-.768.322-.845 0-.077-.075-.163-.167-.191a44.644 44.644 0 01-1.528-.634c-1.281-.55-1.372-.574-1.536-.424-.096.088-.414.645-.705 1.238a81.459 81.459 0 00-.88 1.848 61.13 61.13 0 00-.473 1.057c-.068.159-.236.538-.373.844-.137.305-.25.575-.25.6 0 .025-.144.36-.32.743-.176.383-.63 1.216-1.009 1.85a48.077 48.077 0 01-1.605 2.452 58.723 58.723 0 01-1.334 1.826c-.231.29-1.444 1.589-2.696 2.884-1.253 1.295-2.499 2.517-2.77 2.715-.28.206-.603.36-.75.36-.172 0-.294-.071-.366-.215a3.601 3.601 0 01-.2-.601c-.052-.212-.144-.904-.205-1.538-.061-.635-.173-1.37-.249-1.634a7.649 7.649 0 00-.315-.865 3.12 3.12 0 00-.4-.638 1.908 1.908 0 00-.432-.36 1.055 1.055 0 00-.4-.108c-.105 0-.217-.043-.25-.095-.032-.053.082-.301.253-.553.171-.252.727-.976 1.236-1.61a57.012 57.012 0 011.102-1.347c.097-.105.519-.603.938-1.105a92.325 92.325 0 011.615-1.875c.47-.528 1.224-1.35 1.675-1.826.452-.476 1.058-1.125 1.347-1.442.288-.317 1.277-1.442 2.196-2.5a211.439 211.439 0 012.109-2.4c.241-.262.451-.457.467-.432.016.025.094.169.173.319.079.152.368.398.651.554.279.155.754.364 1.055.466a8.8 8.8 0 001.113.284l1.163.2c.409.07.656.07.78.003.1-.054.415-.433.7-.843a79.49 79.49 0 001.562-2.428c.574-.925 1.154-1.877 1.29-2.114a41.88 41.88 0 001.044-1.919c.201-.395.392-.857.424-1.027a1.54 1.54 0 00-.049-.636c-.059-.18-.306-.604-.548-.944-.243-.34-.832-1.008-1.309-1.487-.54-.541-1.064-.968-1.387-1.13-.286-.142-.608-.258-.716-.257-.107.001-.344.076-.525.166zm22.715 8.36c-.114.175-.168.44-.166.816l.004.557h-.755c-.477 0-1.358-.121-2.387-.328-.898-.18-2.233-.425-2.967-.545-.734-.12-1.549-.222-1.81-.226-.387-.005-.481.026-.509.17a1.14 1.14 0 00.024.407c.037.152.31.402.785.719.4.267.947.672 1.214.9.268.227.794.636 1.17.91.375.272 1.01.646 1.41.83a20.21 20.21 0 001.574.622c.465.159 1.16.334 1.545.39a6.17 6.17 0 001.271.04 8.17 8.17 0 001.097-.208 7.58 7.58 0 001.185-.493c.363-.19.917-.585 1.231-.878.314-.292.707-.748.874-1.012.166-.265.327-.579.357-.698.038-.152-.005-.259-.144-.357-.108-.076-.609-.309-1.111-.516l-2.107-.87c-.656-.27-1.288-.491-1.404-.491-.125 0-.281.107-.381.26zm-10.451 5.867c-.124.198-.533.999-.907 1.78-.375.78-.682 1.436-.682 1.458 0 .022-.144.357-.32.744-.175.387-.564 1.3-.863 2.027-.3.727-.697 1.765-.883 2.307a43.133 43.133 0 00-.571 1.801l-.369 1.298c-.075.264-.31 1.216-.524 2.114-.213.9-.425 1.83-.473 2.067-.047.238-.135.93-.195 1.538-.091.914-.085 1.234.03 1.85.077.409.207.846.288.971.081.125.333.315.56.422.226.106.721.264 1.098.35a7.556 7.556 0 001.388.156c.459 0 .905-.07 1.29-.2.506-.173.687-.306 1.3-.963.391-.42 1.068-1.27 1.504-1.89l.792-1.128.061 1.009c.033.555.101 1.16.152 1.346.05.185.161.472.246.638.085.165.347.472.582.68.235.209.784.555 1.219.77a23.08 23.08 0 001.717.736c.509.191 1.039.348 1.178.348.236 0 .25-.023.208-.36-.025-.199-.124-.945-.221-1.659-.129-.962-.176-1.919-.178-3.7-.002-1.417.048-2.838.123-3.461.069-.582.186-1.404.259-1.827.074-.422.199-1.07.278-1.44.079-.369.212-.91.294-1.201a39.79 39.79 0 01.62-1.843 62.36 62.36 0 01.9-2.346c.236-.567.429-1.092.429-1.165a.197.197 0 00-.119-.175 72.558 72.558 0 01-.658-.24c-.296-.11-.947-.457-1.446-.773-.499-.315-.989-.573-1.089-.573-.132 0-.323.258-.694.937l-.668 1.226-.466.848c-.17.308-.612 1.086-.983 1.728-.371.642-.749 1.299-.839 1.458-.091.16-.368.637-.616 1.06-.248.423-.896 1.483-1.441 2.355-.726 1.164-1.228 1.842-1.886 2.548-.494.528-.922.938-.951.91-.03-.029.012-.374.093-.767s.21-.91.286-1.15c.077-.24.176-.522.221-.628.045-.105.648-1.684 1.34-3.508a345.522 345.522 0 011.392-3.629c.073-.172.197-.46.276-.64a2.34 2.34 0 00.143-.38c0-.031.103-.284.228-.563.125-.28.328-.746.45-1.036.122-.291.294-.678.381-.861.088-.183.142-.378.12-.433-.022-.055-.264-.172-.538-.26-.274-.088-.913-.359-1.42-.601-.507-.242-.989-.44-1.072-.44-.082 0-.25.162-.374.36zM75.997 28.61c-.25.41-.81 1.48-1.244 2.38-.434.899-1.113 2.456-1.509 3.46a78.459 78.459 0 00-1.243 3.413c-.288.873-.74 2.343-1.006 3.269l-.577 2.018c-.052.185-.197.726-.32 1.202-.125.476-.28 1.124-.346 1.442-.066.317-.156.706-.202.865-.045.158-.15.754-.234 1.323-.119.818-.129 1.143-.046 1.546.08.385.193.596.46.855.194.19.736.585 1.203.88.467.293.995.582 1.173.641.289.096.366.08.698-.141.206-.137 1.096-.974 1.978-1.86.882-.885 2.473-2.513 3.535-3.616 1.062-1.103 1.952-1.985 1.977-1.96.025.026-.069.366-.208.757-.162.454-.39.865-.637 1.142-.212.238-.647.714-.968 1.058-.32.343-.967 1.056-1.438 1.583-.471.528-.937 1.047-1.035 1.154-.099.107-.682.8-1.297 1.54a75.294 75.294 0 00-2.063 2.614 48.46 48.46 0 00-1.75 2.548 40.505 40.505 0 00-1.45 2.533c-.355.691-.708 1.527-.785 1.863-.11.472-.12.73-.043 1.149.053.297.207.743.34.991.16.296.427.58.779.826.294.207.814.525 1.155.708.341.183.963.478 1.383.654.42.176 1.192.447 1.716.602.852.25 1.005.27 1.43.176.263-.057.696-.23.964-.385s.77-.57 1.117-.925c.346-.354.834-.951 1.084-1.327.25-.376.629-1.03.841-1.453.212-.423.475-.985.584-1.25.11-.264.352-.87.538-1.345.186-.476.488-1.276.67-1.779.184-.502.448-1.237.59-1.634.14-.396.292-.829.337-.961.044-.132.259-.824.476-1.538l.482-1.586c.048-.159.148-.485.223-.725.074-.24.316-1.062.536-1.826.22-.765.7-2.58 1.065-4.034.365-1.454.805-3.335.978-4.181.174-.846.432-2.079.575-2.74.143-.66.294-1.375.335-1.586.04-.211.12-.6.177-.865.056-.264.168-.784.249-1.154.08-.37.215-.997.298-1.393l.152-.721-.51-.462c-.28-.253-.848-.718-1.263-1.033-.414-.315-.83-.572-.923-.572-.093 0-.252.119-.353.264-.101.146-.313.503-.47.793-.157.291-.47.875-.695 1.298a40.95 40.95 0 01-2.087 3.413 55.742 55.742 0 01-2.968 3.797 44.316 44.316 0 01-1.813 1.946c-.541.542-1.037.985-1.102.985-.089 0-.097-.081-.032-.318.048-.175.198-.64.334-1.033.136-.394.524-1.43.863-2.302.339-.872.655-1.672.703-1.778.048-.105.341-.776.653-1.49.31-.714.725-1.644.92-2.067.195-.422.567-1.198.827-1.723.342-.69.456-1.02.414-1.19-.032-.13-.667-.846-1.412-1.593-.744-.746-1.499-1.476-1.677-1.621-.178-.146-.397-.265-.487-.265-.102 0-.337.283-.62.744zm63.597 19.117a53.232 53.232 0 00-1.955 1.652c-.445.404-1.39 1.32-2.099 2.035a83.147 83.147 0 00-1.812 1.878c-.287.317-.758.853-1.047 1.19-.288.337-.732.9-.985 1.249-.253.349-.775 1.135-1.159 1.747a57.134 57.134 0 00-.913 1.49c-.117.209-.503.963-.857 1.677a38.525 38.525 0 00-.954 2.067 28.48 28.48 0 01-.862 1.844c-.304.592-.733 1.37-.953 1.73-.221.36-.576.936-.79 1.28a53.98 53.98 0 01-1.195 1.778 74.318 74.318 0 01-1.617 2.211 71.813 71.813 0 01-1.813 2.235c-.55.648-1.036 1.178-1.08 1.178-.043 0-.052-.119-.019-.264.034-.146.18-.61.325-1.034.145-.423.465-1.288.71-1.922.246-.635.854-1.984 1.352-2.999.758-1.542.89-1.876.804-2.037-.056-.107-.413-.34-.793-.52-.38-.18-.749-.397-.821-.485a.49.49 0 01-.08-.375c.027-.12.115-.455.194-.746.079-.29.217-1.037.306-1.66l.163-1.13-.241-.367c-.132-.202-.513-.604-.846-.894-.333-.29-.97-.79-1.416-1.11-.445-.32-.902-.61-1.015-.645-.155-.049-.448.094-1.192.58-.543.354-1.287.867-1.655 1.14-.367.273-.732.558-.81.633-.079.075-.422.374-.763.664-.34.29-1.005.92-1.477 1.398a43.964 43.964 0 00-1.288 1.358c-.236.268-.516.59-.622.717-.106.126-.516.662-.912 1.19a46.094 46.094 0 00-1.008 1.395c-.16.237-.433.692-.607 1.009-.174.317-.43.793-.567 1.057-.138.265-.449.935-.692 1.49a29.236 29.236 0 00-.693 1.73c-.137.397-.308.894-.378 1.106-.07.211-.193.666-.273 1.01-.08.343-.174.808-.208 1.033-.053.34-.107.42-.317.47-.14.033-.573.142-.962.24l-.708.18-.679-.525a9.625 9.625 0 00-1.265-.817c-.323-.161-.656-.293-.741-.293a.865.865 0 01-.337-.099c-.165-.089-.095-.21.796-1.37.538-.699 1.362-1.79 1.83-2.424a38.67 38.67 0 001.416-2.057c.31-.497.688-1.18.839-1.516.152-.337.358-1.033.458-1.548.101-.514.236-1.304.3-1.754.104-.724.099-.88-.048-1.346-.091-.29-.264-.642-.385-.782a2.276 2.276 0 00-.542-.43c-.249-.134-.538-.172-1.287-.172-.531 0-1.132.05-1.335.11l-1.084.32c-.394.116-.844.276-1.002.355-.157.078-.834.473-1.503.877-.67.403-1.292.777-1.383.83-.09.053-.508.331-.928.619-.42.287-1.149.801-1.62 1.143a33.7 33.7 0 00-1.63 1.27c-.424.358-1.144.914-1.6 1.236-.457.322-.85.586-.874.586-.025 0-.044-.452-.044-1.004 0-.551-.044-1.117-.097-1.258-.052-.14-.411-.565-.797-.943-.386-.379-1.279-1.137-1.985-1.686-.706-.548-1.592-1.164-1.97-1.37-.38-.205-.822-.372-.986-.372-.164 0-.483.11-.71.242a2.55 2.55 0 00-.683.65c-.15.223-.426.731-.612 1.13-.185.398-.51 1.242-.722 1.874-.211.633-.436 1.417-.499 1.743-.067.347-.097 1.025-.072 1.634.035.843.095 1.178.313 1.753.204.536.41.86.838 1.322.311.336.99.923 1.509 1.306l.942.695v.47c0 .26-.047.65-.105.868-.059.217-.14.482-.182.588-.04.105-.129.343-.194.528-.066.185-.173.466-.239.625-.065.159-.22.524-.343.812a58.27 58.27 0 01-.939 1.963c-.393.792-.769 1.458-.834 1.48-.09.03-.12-.192-.12-.9 0-.518.05-1.202.112-1.523.062-.32.237-1.08.39-1.688.151-.608.314-1.235.36-1.393.046-.16.17-.635.275-1.058.106-.423.193-.882.195-1.022.002-.138-.05-.296-.116-.35-.065-.053-.598-.341-1.183-.64-.585-.3-1.22-.57-1.41-.601-.278-.046-.392-.013-.58.165-.13.123-.236.255-.236.295 0 .04-.143.39-.32.776-.175.387-.46 1.054-.632 1.482-.195.486-.62 1.213-1.134 1.938a38.89 38.89 0 01-1.537 2.015 50.67 50.67 0 00-1.168 1.45c-.364.48-.505.596-.72.596-.147 0-.318-.052-.381-.115-.063-.064-.114-.27-.114-.457 0-.188.063-.817.14-1.399.076-.582.206-1.382.288-1.778.083-.397.322-1.24.53-1.874.21-.635.492-1.435.628-1.779l.323-.817a88.966 88.966 0 00.836-2.317c.052-.164.067-.344.033-.4-.035-.057-.341-.209-.682-.338-.34-.13-.833-.336-1.095-.458a5.147 5.147 0 01-.825-.493c-.19-.15-.443-.271-.56-.271-.119 0-.347.142-.513.32-.164.175-.563.835-.885 1.465-.323.63-.725 1.493-.893 1.916a22.902 22.902 0 00-.512 1.441l-.206.673-.52.024a4.567 4.567 0 01-1.046-.1c-.501-.12-.523-.137-.493-.409.017-.156.152-.651.3-1.1.147-.45.354-1.034.459-1.298.105-.265.327-.784.494-1.154.166-.37.58-1.233.919-1.917.339-.685.595-1.298.57-1.364-.025-.066-.187-.161-.36-.212a43.817 43.817 0 01-1.729-.637c-.893-.343-1.523-.532-1.71-.514-.243.025-.344.116-.566.51a54.67 54.67 0 00-.97 1.923c-.386.793-.795 1.65-.91 1.906-.113.255-.511 1.207-.883 2.115a126.72 126.72 0 00-.911 2.275c-.13.344-.36 1.058-.511 1.587-.152.528-.316 1.09-.364 1.25a19.44 19.44 0 00-.242.96l-.24 1.058c-.048.211-.131.644-.186.961-.055.317-.144.88-.198 1.25-.054.37-.162 1.17-.24 1.778a21.74 21.74 0 00-.14 2.307c.002.798.042 1.25.12 1.346.063.08.289.258.5.397.213.138.793.451 1.29.695.496.243 1.13.51 1.41.594.444.133.532.135.717.013.193-.127.222-.268.33-1.616.066-.812.164-1.78.217-2.15a61.025 61.025 0 01.518-2.98c.074-.37.201-.932.283-1.25.082-.317.219-.83.304-1.14l.156-.563.39.061c.214.034.805.088 1.314.12l.924.06-.05.299a4.53 4.53 0 01-.094.434c-.023.074-.105.766-.182 1.538a30.66 30.66 0 00-.133 2.652c.004.74.056 1.387.127 1.586.073.207.296.472.578.688.252.193.8.532 1.216.754.417.222.894.446 1.06.498.166.052.602.173.969.27.569.149.71.157.964.05.164-.069.405-.27.536-.447.13-.178.452-.734.715-1.236.262-.502.811-1.562 1.22-2.355.409-.793.8-1.528.87-1.632.112-.165.128-.087.128.619 0 .444.049 1.2.108 1.68.065.526.201 1.073.344 1.382.152.33.376.615.631.804.217.16.585.376.817.478.232.102.8.314 1.263.471.463.158 1.028.313 1.256.344.266.037.617-.001.978-.106.31-.09.73-.258.932-.372.25-.14.532-.456.872-.977.277-.423.671-1.093.877-1.49.207-.396.623-1.326.927-2.066.303-.74.822-2.168 1.151-3.172.33-1.005.693-2.214.807-2.688.113-.473.286-1.035.384-1.25.104-.227.646-.853 1.304-1.507.62-.616 1.707-1.63 2.415-2.256.708-.625 1.459-1.295 1.668-1.488.21-.193.768-.673 1.24-1.067a63.079 63.079 0 011.811-1.44 46.408 46.408 0 013.552-2.406c.17-.095.387-.173.481-.173.095 0 .224.052.287.115a.514.514 0 01.115.313c0 .108-.215.63-.478 1.158-.262.529-.767 1.37-1.12 1.87-.354.499-1.158 1.446-1.788 2.103-.629.658-1.509 1.506-1.954 1.885-.446.38-1.154.949-1.574 1.266-.42.317-1.545 1.132-2.502 1.811-.958.68-1.74 1.27-1.74 1.312 0 .042.21.327.466.634.257.307.856.945 1.332 1.418l.865.86 1.028-.492c.565-.27 1.307-.576 1.648-.68a8.21 8.21 0 011.12-.252c.276-.034.5-.043.5-.02 0 .023-.353.27-.786.548-.432.278-1.415.953-2.183 1.5a20.026 20.026 0 00-2.435 2.026c-.57.568-1.23 1.25-1.464 1.514-.234.264-.645.74-.913 1.057a46.966 46.966 0 00-1.246 1.586 33.898 33.898 0 00-1.334 1.922 35.052 35.052 0 00-.862 1.442c-.159.291-.441.832-.628 1.202s-.453.932-.59 1.25c-.138.317-.526 1.269-.863 2.114-.337.846-.704 1.885-.816 2.307-.112.423-.242.964-.29 1.202-.048.238-.17.952-.27 1.586a16.732 16.732 0 00-.19 2.091c-.003.844.013.937.17.937.095 0 .556-.083 1.025-.183a50.53 50.53 0 001.953-.478 43.047 43.047 0 001.859-.544c.417-.137 1.415-.576 2.217-.976a22.718 22.718 0 002.67-1.581 40.99 40.99 0 002.079-1.574c.477-.396 1.4-1.272 2.05-1.946.65-.674 1.535-1.686 1.965-2.25.43-.563 1.079-1.494 1.442-2.068.363-.574.89-1.497 1.172-2.052.281-.554.589-1.188.683-1.41.094-.22.279-.675.411-1.009.132-.334.297-.737.368-.895.07-.159.364-1.046.653-1.97.288-.926.561-1.853.605-2.06.059-.276.157-.419.366-.532.158-.086.587-.27.954-.409a50.22 50.22 0 011.03-.377c.258-.09.382-.095.429-.021.037.057.303.253.591.435s.79.445 1.114.584c.324.14.839.281 1.144.315.333.037.665.02.83-.045.151-.058.596-.42.988-.801.392-.382 1.109-1.192 1.593-1.8a36.262 36.262 0 001.473-1.995c.326-.489.617-.889.646-.889.03 0 .028.136-.005.302a1.81 1.81 0 00.039.674c.055.205.234.527.398.715.165.189.774.69 1.355 1.114.581.425 1.259.876 1.506 1.002.248.127.571.23.719.23.196 0 .386-.122.702-.456.238-.251.627-.695.865-.985a55.28 55.28 0 001.458-1.97 62.498 62.498 0 011.743-2.334c.395-.49.739-.87.765-.844.026.026-.012.254-.084.507-.094.325-.13 1.005-.124 2.334.007 1.71.025 1.905.205 2.222.108.192.413.653.676 1.025.264.373.543.757.621.854.078.097.384.468.679.824.295.356.721.757.945.89.225.132.493.24.596.24.104 0 .383-.124.622-.277.239-.152.589-.466.779-.697.191-.23.78-1.111 1.31-1.957a162.987 162.987 0 013.692-5.6c.251-.357.581-.865.734-1.13.152-.263.391-.718.529-1.008.139-.291.364-.853.5-1.25a13.68 13.68 0 00.397-1.462 8.875 8.875 0 00.149-1.447c0-.389-.091-1.18-.201-1.759l-.28-1.484c-.044-.238-.168-.945-.276-1.572-.109-.626-.197-1.301-.197-1.5 0-.312.068-.424.505-.831a83.69 83.69 0 012.118-1.911c.419-.37.998-.888 1.286-1.151a54.42 54.42 0 001.526-1.495c.551-.558 1.14-1.186 1.309-1.396.17-.21.501-.77.737-1.247.239-.482.493-1.176.574-1.568a7.66 7.66 0 00.145-1.268c0-.367-.088-.81-.25-1.267a15.571 15.571 0 00-.584-1.376c-.184-.37-.478-.892-.653-1.16a7.264 7.264 0 00-.711-.889c-.27-.277-.47-.401-.646-.399-.176.003-.61.289-1.399.921zm-60.258 3.041c-.122.383-.327 1-.457 1.37a38.71 38.71 0 01-.59 1.538 47.973 47.973 0 01-2.442 4.858 61.601 61.601 0 01-1.332 2.112c-.403.609-.81 1.17-.902 1.248-.158.132-.165.119-.103-.193.037-.184.152-.681.256-1.104.105-.423.386-1.266.625-1.874.24-.608.737-1.711 1.107-2.452.37-.74.928-1.756 1.239-2.259a65.498 65.498 0 011.629-2.425c.584-.831 1.091-1.513 1.126-1.514.035 0-.035.312-.157.695zm-36.141.036c-.21.022-.725.13-1.144.24-.42.11-1.235.393-1.812.629s-1.485.663-2.018.95a37.53 37.53 0 00-2.003 1.178c-.568.361-1.354.889-1.748 1.171-.393.283-1.002.745-1.353 1.027-.351.282-.673.513-.715.513-.043 0-.18-.196-.306-.434-.125-.24-.48-.711-.787-1.05-.307-.337-.757-.747-1-.91a5.702 5.702 0 00-.957-.488 11.218 11.218 0 00-1.25-.357c-.545-.12-1.191-.162-2.5-.161-1.465 0-1.928.037-2.739.215-.536.118-1.35.345-1.808.505-.459.16-1.064.405-1.346.544-.281.14-.59.354-.686.477-.096.123-.282.58-.413 1.013a19.25 19.25 0 00-.389 1.569c-.086.444-.15 1.272-.15 1.929 0 .794.046 1.288.15 1.595.082.243.208.492.28.552.096.081.185.08.35-.007.121-.063.48-.365.798-.67.317-.304.94-.791 1.382-1.082.443-.29 1.042-.665 1.33-.832a41.11 41.11 0 011.666-.873c.628-.313 1.358-.633 1.621-.711.264-.078.634-.166.824-.196.19-.03.417-.028.504.006.088.034.222.184.299.334.088.17.14.55.14 1.022-.001.412-.067 1.16-.148 1.662-.08.503-.297 1.498-.483 2.211-.185.714-.49 1.774-.676 2.356-.187.581-.65 2.009-1.03 3.172a204.51 204.51 0 00-.904 2.835c-.12.397-.28.916-.355 1.154-.075.238-.31 1.038-.52 1.778-.212.74-.42 1.476-.462 1.634-.043.159-.228.786-.411 1.394-.183.608-.355 1.17-.382 1.25-.027.08-.38 1.182-.784 2.451a577.724 577.724 0 01-1.336 4.133 153.915 153.915 0 00-1.798 5.916l-.395 1.438a34.718 34.718 0 00-.303 1.154 1000.652 1000.652 0 01-2.02 8.091c-.406 1.584-.484 2.032-.484 2.749 0 .585.047.953.149 1.158.081.166.264.382.405.48.14.099.522.235.846.303.372.078.83.099 1.24.058.357-.036.907-.109 1.221-.162.315-.053 1.066-.262 1.669-.466a43.05 43.05 0 001.591-.567c.272-.109.866-.373 1.32-.586.455-.214.848-.388.874-.388.026 0 .376-.168.778-.372.403-.205 1.31-.749 2.018-1.208.707-.46 1.564-1.055 1.905-1.321.341-.267.792-.643 1.002-.835.21-.192.596-.522.858-.733.262-.21.732-.622 1.044-.913.312-.292.698-.66.858-.82.16-.158.548-.57.863-.915.314-.345.765-.858 1-1.14.237-.28.53-.626.65-.765.122-.14.62-.752 1.108-1.36a89.86 89.86 0 001.363-1.743c.263-.35.777-1.064 1.143-1.586a57.235 57.235 0 001.521-2.343c.471-.766 1.01-1.653 1.196-1.97.187-.317.495-.878.685-1.246.19-.368.344-.702.344-.742 0-.04.123-.345.273-.677.15-.332.414-.928.585-1.324.172-.397.44-1.002.598-1.346.156-.344.622-1.5 1.034-2.569.412-1.069.86-2.258.994-2.643.135-.385.408-1.197.607-1.805.2-.608.48-1.538.622-2.067a98.27 98.27 0 01.343-1.25 46.225 46.225 0 00.571-2.74c.038-.237.158-1.016.266-1.73.108-.713.243-1.73.3-2.258.056-.53.145-1.904.197-3.055.066-1.439.064-2.52-.005-3.46-.056-.752-.14-1.52-.189-1.704-.048-.185-.157-.64-.242-1.01-.085-.37-.283-.9-.44-1.178-.157-.28-.52-.699-.812-.939a7.35 7.35 0 00-1.211-.764c-.595-.289-.8-.337-1.587-.373-.496-.023-1.074-.024-1.284-.002zm96.376 1.887c.025.066.013.358-.028.648-.04.291-.146.745-.235 1.01a4.123 4.123 0 01-.526.961c-.201.264-.465.593-.587.73-.122.136-.501.454-.842.706-.341.252-.741.522-.891.6-.149.078-.291.12-.316.095-.025-.025.064-.222.199-.438.135-.215.246-.413.246-.44 0-.026.15-.284.333-.574.184-.289.334-.548.334-.576 0-.028.157-.3.349-.606.192-.305.377-.576.41-.602.033-.027.266-.321.518-.654.252-.334.548-.69.658-.794.109-.102.229-.186.266-.186.037 0 .087.054.112.12zm6.389 4.181c-.364.516-.915 1.33-1.225 1.81-.31.478-.616.954-.68 1.056a212.142 212.142 0 00-1.909 3.214l-.474.865c-.16.291-.636 1.221-1.059 2.067-.423.846-.957 1.949-1.187 2.451a90.72 90.72 0 00-1.16 2.74 411.913 411.913 0 01-.863 2.115c-.067.158-.324.829-.571 1.49-.248.66-.485 1.288-.527 1.393a80.362 80.362 0 00-.905 2.404 94.43 94.43 0 01-.589 1.586c-.133.343-.277.71-.32.817a32.36 32.36 0 00-.317.865c-.132.37-.396 1.127-.587 1.682-.191.555-.448 1.29-.571 1.634-.123.344-.359 1.014-.523 1.49-.165.476-.614 1.817-.998 2.98a294.94 294.94 0 00-1.031 3.172 87.658 87.658 0 00-.498 1.634c-.091.317-.2.685-.243.817a11.13 11.13 0 00-.195.764l-.117.524.532.5c.292.274.846.733 1.23 1.02.383.286.888.659 1.122.827.233.169.496.306.584.306a.383.383 0 00.26-.12c.055-.067.186-.36.29-.65.105-.29.346-.981.537-1.537.191-.555.382-1.095.425-1.201l.196-.48c.064-.16.195-.527.29-.818.095-.29.308-.918.474-1.394a200.066 200.066 0 011.118-3.124 133.555 133.555 0 011.356-3.508c.044-.106.192-.443.329-.748.136-.305.248-.576.248-.6 0-.025.15-.373.334-.774.183-.4.334-.742.334-.758 0-.017.218-.5.486-1.075.267-.574.692-1.476.944-2.005.253-.529.736-1.545 1.073-2.26.338-.713.818-1.719 1.067-2.234.249-.515.482-.937.518-.937.036 0 .225.517.42 1.149.195.632.354 1.214.354 1.294 0 .08.09.385.199.679.109.293.305.663.437.82.201.24.309.287.67.287.303 0 .672-.114 1.246-.385a16.405 16.405 0 001.444-.783 20.246 20.246 0 001.456-1.059c.455-.364 1.351-1.211 1.991-1.883a33.885 33.885 0 002.231-2.665 49.46 49.46 0 001.671-2.405 66.66 66.66 0 001.4-2.388 75.401 75.401 0 001.445-2.74c.357-.722.707-1.464.777-1.649a31.277 31.277 0 01.49-1.201c.047-.106.216-.56.377-1.01.16-.449.374-1.064.477-1.366.102-.303.185-.636.185-.74 0-.105-.139-.297-.31-.427-.17-.13-.717-.446-1.216-.702-.498-.256-1.12-.56-1.382-.674a22.561 22.561 0 00-1.154-.449 9.574 9.574 0 00-1.449-.36l-.772-.12-.458.376c-.252.206-.608.504-.792.662-.183.157-.698.656-1.144 1.108a56.406 56.406 0 00-1.244 1.3c-.238.264-.84.977-1.338 1.585a109.7 109.7 0 00-1.571 1.97 60.749 60.749 0 00-1.146 1.538c-.264.37-.889 1.3-1.391 2.067a196.3 196.3 0 00-1.592 2.478c-.374.596-.681 1.105-.681 1.13 0 .025-.128.25-.284.502-.156.25-.285.396-.286.324-.001-.073.359-.873.8-1.779a86.285 86.285 0 011.296-2.559l.808-1.49.549-1.01 1.3-2.364c.595-1.083 1.377-2.346 1.777-2.872.481-.63.714-1.021.712-1.191a.813.813 0 00-.119-.405c-.064-.084-.331-.274-.593-.423a73.483 73.483 0 00-1.258-.69c-.429-.229-.8-.417-.825-.417-.025 0-.342.422-.705.937zm-105.09.217c.282.053.628.143.769.2.14.058.36.264.487.459.128.194.272.59.322.88.06.352.052.975-.024 1.873-.063.74-.228 1.995-.367 2.788-.14.793-.294 1.68-.343 1.97-.05.29-.195.94-.324 1.442-.128.502-.263 1.021-.299 1.154-.036.132-.27.954-.518 1.826a183.99 183.99 0 00-.502 1.778c-.027.106-.35 1.187-.72 2.403a104.357 104.357 0 01-1.008 3.173l-.49 1.387c-.083.234-.235.61-.337.836-.102.225-.185.434-.185.464 0 .03-.083.238-.185.462-.101.224-.428.97-.726 1.657-.297.687-.628 1.444-.734 1.682a97.671 97.671 0 01-.977 2.019 54.864 54.864 0 01-1.41 2.662 69.368 69.368 0 01-.98 1.634c-.194.307-.572.84-.839 1.183-.267.344-.967 1.213-1.555 1.931-.618.756-1.463 1.652-2.004 2.124-.515.45-1.3 1.096-1.746 1.436-.446.34-1.143.822-1.55 1.07-.406.249-.738.416-.738.372 0-.044.085-.638.19-1.32.104-.681.233-1.488.286-1.792l.184-1.058.237-1.321c.082-.45.26-1.336.398-1.97.138-.635.284-1.306.326-1.49.041-.186.233-.943.425-1.683.193-.74.386-1.475.429-1.634l.226-.817c.08-.29.297-1.026.48-1.634.183-.608.447-1.473.586-1.923.14-.45.404-1.314.588-1.922a105.033 105.033 0 00.635-2.163c.078-.264.256-.849.396-1.298.14-.45.333-1.076.428-1.394.095-.317.603-1.874 1.128-3.46.525-1.586 1.046-3.217 1.158-3.625.111-.407.308-1.143.438-1.634.129-.491.3-1.207.38-1.59.082-.383.203-1.24.27-1.904.109-1.06.152-1.236.354-1.437.127-.125.639-.558 1.137-.962a28.213 28.213 0 011.712-1.272 17.198 17.198 0 011.454-.865c.357-.18.788-.37.958-.425.17-.054.567-.154.882-.222.314-.068.62-.129.678-.135.058-.006.337.032.62.085zm112.973 5.444a37.245 37.245 0 01-1.076 1.91c-.16.263-.589.934-.954 1.489a36.15 36.15 0 01-1.578 2.16 44.257 44.257 0 01-1.487 1.775c-.315.344-.787.838-1.049 1.097-.262.26-.832.775-1.267 1.145-.434.37-.814.649-.845.618-.031-.031.231-.48.582-.999.351-.518.967-1.42 1.37-2.004a100.42 100.42 0 011.352-1.912c.341-.467.85-1.135 1.132-1.484.282-.35.711-.874.954-1.164.242-.29.697-.81 1.01-1.154a58.6 58.6 0 011.315-1.382c.41-.416.768-.735.794-.708.027.027-.087.302-.253.612zM117.04 64.61a6.2 6.2 0 01-.129.65c-.07.29-.268.874-.44 1.297a36.02 36.02 0 01-.975 2.067 32.802 32.802 0 01-1.476 2.545 46.942 46.942 0 01-1.396 2.019c-.319.424-.668.858-.774.965-.107.107-.472.428-.813.713-.341.285-.843.663-1.116.84-.273.175-.52.32-.548.32-.029 0-.053-.106-.053-.236 0-.129.147-.685.326-1.236.179-.55.581-1.5.893-2.109.313-.61.795-1.448 1.071-1.864.277-.416.899-1.253 1.383-1.861a52.218 52.218 0 011.481-1.779c.331-.37 1-1.073 1.487-1.562.487-.489.93-.889.984-.889.054 0 .097.054.095.12zm14.772 2.067c.051.198.142.62.203.937.06.317.179.815.263 1.106.084.29.147.693.14.894-.007.2-.116.59-.241.865-.126.275-.6 1.121-1.054 1.881-.454.76-.826 1.404-.826 1.43 0 .028-.356.531-.792 1.119-.436.587-.922 1.251-1.082 1.475-.159.225-.31.387-.336.36-.026-.025.007-.403.072-.84.065-.435.168-.987.229-1.224.061-.238.193-.822.293-1.298.101-.476.231-1.06.29-1.298.059-.238.213-.8.341-1.25a23.3 23.3 0 01.488-1.49c.14-.37.442-1.062.671-1.537.228-.476.521-1.006.65-1.178.129-.172.317-.312.417-.312.13 0 .208.102.274.36zm-80.893.832c-.13.131-.507.793-.837 1.47-.33.677-.843 1.771-1.139 2.432-.296.661-.799 1.838-1.118 2.614a48.018 48.018 0 00-.998 2.692c-.23.703-.55 1.733-.708 2.288-.159.555-.46 1.723-.67 2.596-.208.872-.429 1.888-.49 2.258-.06.37-.15.908-.198 1.194-.048.287-.088.88-.088 1.32 0 .44.048 1.006.108 1.258s.156.563.215.691c.058.128.256.323.439.433.183.11.483.252.667.318.184.065.778.191 1.319.28.938.156 1.015.156 1.668-.012.377-.096.795-.23.93-.298.134-.068.526-.425.871-.794.345-.368 1.002-1.193 1.46-1.832.456-.639.869-1.138.915-1.109.047.03.085.364.086.744.001.38.059.936.129 1.234.07.299.243.744.386.99.143.245.439.578.658.74.22.16.644.418.944.572.3.153.878.414 1.287.58.408.166.956.383 1.218.481.261.099.578.18.703.18.218 0 .225-.023.176-.505a62.307 62.307 0 00-.22-1.706c-.127-.898-.17-1.834-.173-3.701-.002-1.473.048-2.933.121-3.557.07-.581.184-1.403.256-1.826.072-.423.173-.985.224-1.25a27.998 27.998 0 01.825-3.028c.137-.396.546-1.469.91-2.383.362-.914.66-1.726.66-1.804 0-.079-.097-.182-.215-.23-.118-.048-.415-.16-.66-.248-.244-.089-.884-.438-1.422-.776-.538-.338-1.033-.615-1.099-.615-.066 0-.201.12-.302.265-.1.145-.34.557-.534.916-.194.358-.43.79-.526.961l-.985 1.751c-.445.793-.97 1.724-1.165 2.067-.196.344-.389.668-.43.721-.04.053-.182.29-.313.529a96.497 96.497 0 01-1.164 1.963c-.509.842-1.118 1.803-1.354 2.136-.236.334-.81 1.007-1.276 1.498-.776.816-.848.87-.852.628a3.745 3.745 0 01.107-.72c.061-.253.229-.826.372-1.276.144-.45.827-2.287 1.518-4.085a302.3 302.3 0 011.928-4.903c.37-.898.798-1.91.952-2.248.153-.338.258-.667.234-.731-.025-.065-.171-.143-.325-.174-.155-.03-.555-.183-.89-.337-.336-.155-.825-.378-1.087-.497a17.691 17.691 0 01-.644-.305c-.126-.067-.226-.03-.404.15zm91.202 17.565c-.813.048-1.836.113-2.274.143l-.795.055-.144.351c-.079.193-.22.524-.312.736-.093.211-.364.903-.602 1.538-.239.634-.545 1.457-.681 1.828-.135.372-.246.75-.246.841 0 .092.054.166.119.166.066 0 .978-.065 2.027-.143 1.048-.078 2.336-.186 2.86-.24a208.2 208.2 0 012.002-.193c.577-.052 1.2-.117 1.383-.144.184-.028 1.256-.093 2.384-.145a300.54 300.54 0 003.623-.19 133.18 133.18 0 012.956-.143c.76-.026 2.391-.068 3.623-.093 1.233-.025 2.584-.01 3.004.033.557.057.814.046.953-.04.105-.066.414-.568.686-1.117a56.19 56.19 0 00.784-1.642 8.35 8.35 0 00.348-.881c.041-.167 0-.294-.141-.436-.186-.188-.317-.202-2.034-.224-1.01-.012-2.265-.03-2.789-.04-.525-.01-4.172-.038-8.105-.063-3.933-.025-7.816-.006-8.629.043zm-43.957.348c0 .04-.292.613-.65 1.274-.357.66-.941 1.655-1.298 2.21a31.824 31.824 0 01-1.28 1.826 23.717 23.717 0 01-1.537 1.74c-.5.508-1.198 1.166-1.552 1.462-.354.297-1.17.902-1.812 1.347a51.925 51.925 0 01-2.153 1.405c-.543.329-1.004.58-1.025.558-.022-.021.223-.533.544-1.136.32-.604.897-1.574 1.28-2.155a38.86 38.86 0 011.694-2.307 30.695 30.695 0 012.08-2.311c.597-.584 1.385-1.3 1.752-1.59.367-.29 1.011-.747 1.43-1.013.42-.267.828-.514.906-.55.08-.035.444-.233.81-.44.368-.206.7-.379.74-.384a.063.063 0 01.071.064zm31.514.323l-3.099.228c-1.128.082-2.565.194-3.195.248a566.936 566.936 0 00-5.101.472l-1.954.195-2.956.302a698.81 698.81 0 01-2.718.276c-.446.044-1.432.15-2.193.235l-2.193.248c-.446.05-1.239.136-1.764.19-.524.053-1.041.116-1.148.14-.118.027-.264.206-.371.456-.097.226-.406.887-.686 1.469-.281.581-.608 1.23-.727 1.442L101 92.67c-.196.352-.7 1.123-1.12 1.714-.419.591-.762 1.119-.762 1.173 0 .054.097.074.214.045.118-.03.644-.138 1.168-.242a196.77 196.77 0 017.962-1.412c.498-.08 1.163-.185 1.478-.234l1.478-.233c.498-.079 1.249-.189 1.669-.245.419-.055 1.47-.191 2.336-.301l2.24-.285a684.52 684.52 0 011.907-.236 96.94 96.94 0 014.339-.43c.603-.05 1.74-.16 2.527-.243.786-.084 1.901-.193 2.478-.241.812-.07 1.075-.126 1.168-.255a.635.635 0 00.12-.295c0-.072.365-1.233.811-2.582.445-1.348.81-2.514.81-2.591 0-.108-.126-.137-.548-.127-.302.008-1.021.05-1.597.094zM84.052 90.93a322.89 322.89 0 01-4.91.847c-.315.05-1.087.183-1.716.294-.63.111-2.153.398-3.385.637-1.233.239-2.606.501-3.051.583-.446.082-1.111.209-1.478.282-.368.074-.968.201-1.335.282-.367.082-.796.173-.954.202a141.485 141.485 0 00-2.86.618c-.21.05-1.173.266-2.14.482-.967.216-2.426.57-3.242.784-.816.215-1.634.423-1.817.462a33.04 33.04 0 00-1.24.317 1989.026 1989.026 0 00-3.337.912c-.393.108-1.488.42-2.431.693-.944.274-2.081.605-2.527.737-.446.133-.94.277-1.097.32l-1.096.32c-.446.132-1.175.356-1.621.497-.446.141-1.068.337-1.383.434a323.252 323.252 0 00-2.908.913l-1.502.472c-.406.127-1.21.384-1.788.57-.576.186-2.4.792-4.052 1.346a300.187 300.187 0 00-4.386 1.504c-.76.274-1.49.533-1.621.576a65.88 65.88 0 00-1.192.433c-.524.194-1.318.485-1.764.647-.446.162-1.604.615-2.574 1.006-.97.392-1.893.771-2.05.841-.158.07-.801.334-1.43.585-.63.251-1.402.575-1.717.719l-1.123.516a7.22 7.22 0 01-.59.253c-.02 0-.309.125-.64.278-.332.154-1.053.472-1.604.708-.55.236-1.452.639-2.002.896a130.9 130.9 0 00-2.86 1.404 186.774 186.774 0 00-3.052 1.575c-.656.35-1.45.796-1.764.99-.315.195-.823.483-1.13.64-.306.157-.596.361-.645.452-.056.104-.05.336.015.625l.189.843c.047.212.199.86.337 1.442a73.555 73.555 0 001.531 5.287c.184.529.37 1.048.414 1.153.045.106.202.496.35.866.147.37.397.932.557 1.249l.289.577.524-.014c.322-.008.931-.152 1.574-.371.577-.196 1.735-.663 2.574-1.037a69.057 69.057 0 002.908-1.394c.76-.393 1.705-.889 2.098-1.103.393-.214 1.252-.69 1.907-1.058a82.07 82.07 0 001.74-1c.345-.21.57-.417.605-.56.038-.153-.042-.407-.247-.786-.167-.308-.37-.635-.453-.728a.627.627 0 00-.412-.168c-.145 0-.471.091-.724.203-.254.111-.569.237-.7.28-.13.043-.795.276-1.476.518-.68.243-1.325.44-1.43.439-.106-.001.3-.261.904-.578.603-.317 1.762-.905 2.575-1.308.812-.403 1.842-.904 2.288-1.115.446-.21 1.03-.484 1.3-.609.268-.126 1.577-.709 2.908-1.296 1.33-.588 2.998-1.306 3.706-1.595a89.23 89.23 0 001.573-.657c.157-.072.522-.222.81-.335.29-.112.654-.263.811-.335.158-.073.866-.355 1.573-.627.708-.273 1.931-.734 2.718-1.024.787-.291 1.602-.596 1.812-.677.21-.082 1.11-.406 2.002-.721.892-.315 2.887-.997 4.434-1.516 1.547-.518 3.82-1.27 5.053-1.67 1.233-.4 2.541-.821 2.909-.936a98.4 98.4 0 001.334-.43 227.782 227.782 0 013.91-1.247c.629-.195 1.83-.57 2.67-.833.839-.263 1.632-.516 1.764-.563a195.25 195.25 0 013.003-.9c1.52-.448 3.32-.971 3.997-1.162.677-.192 1.9-.522 2.717-.735l2.392-.626c.498-.131 1.4-.363 2.002-.515.603-.152 1.376-.341 1.717-.421.34-.079 1.284-.302 2.097-.495l2.241-.53c.42-.098 1.074-.249 1.454-.335.525-.12.691-.197.691-.32 0-.09.108-.509.239-.93.13-.422.31-.983.396-1.247.087-.265.28-.752.43-1.084.148-.332.27-.625.27-.65 0-.026.28-.613.621-1.304.342-.69.814-1.615 1.049-2.054.235-.439.428-.846.428-.905 0-.06-.118-.102-.262-.096a6.357 6.357 0 00-.692.09z" fill="#013C55"/></svg>