<svg width="930" height="713" fill="none" xmlns="http://www.w3.org/2000/svg"><path d="M627.371 593.562L620.311 613h-2.886l8.13-21.328h1.86l-.044 1.89zM633.289 613l-7.075-19.438-.044-1.89h1.86L636.189 613h-2.9zm-.366-7.896v2.315H620.94v-2.315h11.983zM649.912 604.636h-5.698v-2.3h5.698c1.104 0 1.997-.176 2.681-.527.683-.352 1.181-.84 1.494-1.465.322-.625.483-1.338.483-2.139 0-.732-.161-1.421-.483-2.065-.313-.645-.811-1.162-1.494-1.553-.684-.4-1.577-.601-2.681-.601h-5.039V613h-2.827v-21.328h7.866c1.611 0 2.974.278 4.087.835 1.113.556 1.958 1.328 2.534 2.314.576.977.864 2.095.864 3.355 0 1.367-.288 2.534-.864 3.501-.576.967-1.421 1.704-2.534 2.212-1.113.498-2.476.747-4.087.747zM671.853 591.672V613h-2.784v-21.328h2.784zm6.855 0v2.314h-16.479v-2.314h16.479zM686.703 602.819v2.227h-7.148v-2.227h7.148zM695.724 591.672V613h-2.828v-21.328h2.828zm13.139 0l-9.258 11.733h-5.009l-.44-2.343h3.765l7.441-9.39h3.501zM706.021 613l-8.012-9.961 1.582-2.476L709.479 613h-3.458zM730.994 601.662v1.348c0 1.601-.2 3.037-.6 4.306-.401 1.27-.977 2.349-1.729 3.238a7.505 7.505 0 01-2.71 2.036c-1.045.469-2.217.703-3.516.703-1.259 0-2.417-.234-3.471-.703a7.822 7.822 0 01-2.725-2.036c-.762-.889-1.352-1.968-1.772-3.238-.42-1.269-.63-2.705-.63-4.306v-1.348c0-1.601.205-3.032.615-4.292.42-1.269 1.011-2.349 1.773-3.237a7.588 7.588 0 012.709-2.051c1.055-.469 2.212-.703 3.472-.703 1.299 0 2.471.234 3.516.703a7.43 7.43 0 012.71 2.051c.761.888 1.343 1.968 1.743 3.237.41 1.26.615 2.691.615 4.292zm-2.798 1.348v-1.377c0-1.27-.132-2.393-.395-3.369-.254-.977-.63-1.797-1.128-2.461a4.873 4.873 0 00-1.831-1.509c-.713-.342-1.524-.513-2.432-.513-.879 0-1.675.171-2.388.513a5.06 5.06 0 00-1.816 1.509c-.498.664-.884 1.484-1.157 2.461-.274.976-.41 2.099-.41 3.369v1.377c0 1.279.136 2.412.41 3.398.273.977.664 1.802 1.172 2.476a5.183 5.183 0 001.831 1.509c.713.341 1.509.512 2.387.512.918 0 1.734-.171 2.447-.512a4.786 4.786 0 001.802-1.509c.498-.674.874-1.499 1.127-2.476.254-.986.381-2.119.381-3.398zM752.158 600.842v2.3h-11.543v-2.3h11.543zm-11.103-9.17V613h-2.827v-21.328h2.827zm13.564 0V613h-2.812v-21.328h2.812zM775.871 591.672v2.314h-10.283V613h-2.813v-21.328h13.096zM790.209 604.636h-5.698v-2.3h5.698c1.103 0 1.997-.176 2.681-.527.683-.352 1.181-.84 1.494-1.465.322-.625.483-1.338.483-2.139 0-.732-.161-1.421-.483-2.065-.313-.645-.811-1.162-1.494-1.553-.684-.4-1.578-.601-2.681-.601h-5.039V613h-2.827v-21.328h7.866c1.611 0 2.974.278 4.087.835 1.113.556 1.958 1.328 2.534 2.314.576.977.864 2.095.864 3.355 0 1.367-.288 2.534-.864 3.501-.576.967-1.421 1.704-2.534 2.212-1.113.498-2.476.747-4.087.747zM817.818 610.7v2.3h-11.294v-2.3h11.294zm-10.722-19.028V613h-2.827v-21.328h2.827zm9.228 9.17v2.3h-9.8v-2.3h9.8zm1.348-9.17v2.314h-11.148v-2.314h11.148zM837.547 591.672v2.314h-10.283V613h-2.813v-21.328h13.096zM849.072 593.562L842.012 613h-2.886l8.13-21.328h1.86l-.044 1.89zM854.99 613l-7.075-19.438-.044-1.89h1.86l8.16 21.328h-2.901zm-.366-7.896v2.315h-11.982v-2.315h11.982zM882.248 610.627l-.264 7.515h-2.534V613h-2.095v-2.373h4.893zM863.835 613v-21.328h2.842V610.7h10.503v-19.028h2.827V613h-16.172zM891.635 608.107l10.503-16.435h2.827V613h-2.827v-16.45L891.635 613h-2.813v-21.328h2.813v16.435zM924.942 604.694h-5.991l-1.391-.571c-1.543-.488-2.73-1.235-3.56-2.241-.83-1.016-1.245-2.276-1.245-3.779 0-1.377.303-2.544.908-3.501.615-.957 1.484-1.685 2.608-2.183 1.132-.498 2.47-.747 4.013-.747h6.826V613h-2.827v-19.014h-3.999c-1.562 0-2.739.371-3.53 1.114-.781.742-1.172 1.743-1.172 3.003 0 .82.171 1.552.513 2.197.351.644.869 1.152 1.552 1.523.684.371 1.534.557 2.549.557h4.761l-.015 2.314zm-4.804-1.465L914.952 613h-3.003l5.332-9.771h2.857z" fill="#013C55"/><path fill-rule="evenodd" clip-rule="evenodd" d="M411.045.527c-1.434.257-4.251.843-6.259 1.303-2.008.46-6.351 1.738-9.65 2.84-3.299 1.101-7.525 2.64-9.389 3.419-1.865.778-5.906 2.695-8.981 4.26-3.074 1.564-7.182 3.84-9.128 5.055-1.946 1.216-5.886 3.762-8.755 5.658-2.869 1.895-7.681 5.333-10.693 7.639-3.013 2.305-8.177 6.47-11.476 9.253-3.299 2.783-10.83 9.925-16.734 15.871-5.905 5.946-12.731 13.312-15.171 16.37-2.439 3.058-5.823 7.557-7.521 10-1.697 2.442-3.321 4.84-3.608 5.327-.287.488-1.756 2.954-3.265 5.48-1.51 2.527-4.342 7.829-6.295 11.784-1.953 3.955-4.739 10.156-6.192 13.78-1.452 3.625-3.481 9.2-4.509 12.39-1.028 3.189-2.677 8.765-3.665 12.389-.988 3.625-2.3 8.7-2.916 11.278-.616 2.578-1.369 5.899-1.675 7.381a189.482 189.482 0 00-.962 5.066c-.224 1.305-.798 4.626-1.275 7.381-.477 2.755-1.094 6.788-1.371 8.963-.278 2.174-.837 8.343-1.243 13.707-.549 7.236-.615 11.795-.259 17.662.265 4.349.739 9.925 1.052 12.389.314 2.465.914 6.617 1.333 9.227.42 2.609.989 5.812 1.264 7.117.276 1.305.982 4.508 1.572 7.117.589 2.61 1.428 6.287 1.864 8.172.436 1.885.993 4.02 1.237 4.745.245.725.845 2.742 1.335 4.481.49 1.74 1.781 5.892 2.869 9.227a556.348 556.348 0 003.66 10.808c.925 2.609 2.958 7.947 4.518 11.862 1.559 3.914 3.2 7.948 3.647 8.963.446 1.014 2.762 5.919 5.147 10.898 2.385 4.98 5.227 10.495 6.318 12.258 1.09 1.762 2.239 3.204 2.554 3.204.315 0 1.015-.494 1.556-1.098.541-.604 3.37-8.256 6.287-17.003 2.916-8.747 6.36-18.87 7.652-22.494 1.293-3.625 2.638-7.421 2.99-8.436.351-1.015 3.914-10.504 7.917-21.088 4.003-10.584 8.097-21.497 9.098-24.252a630.08 630.08 0 012.629-7.117l1.215-3.164c.223-.58 1.858-4.732 3.633-9.226 1.774-4.494 3.438-8.646 3.696-9.226.257-.58 1.971-4.969 3.808-9.754 1.838-4.784 5.151-13.088 7.364-18.452 2.212-5.365 4.444-10.703 4.96-11.863a291.604 291.604 0 002.35-5.519c.777-1.876 2-4.545 2.717-5.931.718-1.386 1.415-2.521 1.55-2.521s2.464 2.07 5.176 4.6c2.711 2.53 6.038 5.215 7.393 5.966 1.355.751 3.565 1.674 4.911 2.05 1.968.55 2.99.557 5.216.034 1.523-.357 3.943-1.321 5.377-2.141 1.435-.82 4.486-3.023 6.781-4.894 2.295-1.873 6.755-6.096 9.911-9.387 3.156-3.29 6.914-7.287 8.351-8.881a272.62 272.62 0 005.474-6.326c1.573-1.885 2.988-3.546 3.143-3.691.156-.145 1.693-2.043 3.416-4.218a434.166 434.166 0 006.313-8.213c1.75-2.341 5.635-8.035 8.636-12.653 3-4.616 6.236-9.817 7.192-11.557.955-1.74 2.39-4.415 3.188-5.944s2.27-4.85 3.271-7.381c1-2.53 2.416-6.973 3.146-9.873 1.204-4.784 1.327-6.256 1.332-15.908.002-5.85-.253-11.899-.568-13.444-.314-1.544-1.169-5.299-1.898-8.343-.73-3.045-1.929-6.96-2.665-8.7-.736-1.74-2.45-5.06-3.809-7.38-1.359-2.32-3.483-5.309-4.719-6.642-1.235-1.334-3.562-3.492-5.169-4.797-1.608-1.306-4.659-3.331-6.781-4.502-2.122-1.17-5.267-2.622-6.988-3.226-1.721-.604-4.847-1.461-6.945-1.905-2.099-.445-5.855-.781-8.346-.749-2.492.032-5.704.27-7.139.525zm20.743 35.252c1.654.633 3.695 1.735 4.535 2.45.84.715 2.033 2.126 2.651 3.136.618 1.01 1.449 3.076 1.848 4.59.399 1.516.729 4.611.732 6.88.004 2.434-.447 5.998-1.1 8.699-.608 2.516-1.687 6.117-2.396 8.001-.708 1.885-1.489 3.902-1.733 4.482-.245.58-1.589 3.545-2.986 6.59-1.397 3.044-4.032 7.908-5.855 10.808-1.823 2.9-4.612 6.918-6.196 8.93-1.584 2.012-4.593 5.383-6.685 7.491-2.093 2.108-5.099 4.799-6.68 5.98-1.582 1.181-4.325 3.005-6.096 4.055-1.772 1.049-4.409 2.346-5.862 2.883-1.725.638-4.049.976-6.706.976-3.004 0-4.14-.193-4.347-.739-.154-.405.704-3.311 1.907-6.458 1.203-3.146 2.478-6.432 2.833-7.302.356-.87 1.077-2.649 1.601-3.954.524-1.305 1.73-4.11 2.678-6.233.95-2.124 1.726-3.961 1.726-4.084 0-.122.822-2.02 1.826-4.218 1.004-2.197 1.826-4.089 1.826-4.204 0-.115.604-1.58 1.343-3.256.739-1.676 1.656-3.76 2.038-4.63.383-.87 1.915-4.546 3.404-8.171 1.49-3.625 3.128-7.54 3.641-8.7.513-1.159 1.452-3.413 2.088-5.008a281.12 281.12 0 011.603-3.954c.247-.58.835-2.297 1.309-3.816.473-1.52.712-3.358.531-4.086-.183-.74-1.277-1.963-2.48-2.773a1179.74 1179.74 0 00-4.242-2.845l-2.092-1.393 2.819-.588c1.549-.324 3.639-.682 4.643-.797 1.004-.116 4.76-.14 8.346-.051 5.162.126 7.147.399 9.528 1.31zm-50.613 7.507c-.58 1.244-2.225 4.752-3.655 7.797-1.43 3.045-3.45 7.384-4.489 9.642-1.04 2.258-1.89 4.198-1.89 4.31 0 .113-.821 2.004-1.825 4.2-1.005 2.198-1.826 4.106-1.826 4.242 0 .136-.615 1.618-1.367 3.293a540.45 540.45 0 00-2.086 4.707c-.396.914-.72 1.798-.72 1.964 0 .167-.704 1.856-1.565 3.756-.861 1.9-1.565 3.58-1.565 3.733 0 .153-.447 1.274-.994 2.49-.547 1.217-1.866 4.348-2.932 6.957-1.065 2.61-2.405 5.813-2.978 7.118a559.27 559.27 0 00-1.718 3.954c-.373.87-1.316 3.005-2.096 4.745-.781 1.74-2.067 4.587-2.859 6.326-.79 1.74-2.423 5.299-3.627 7.909-1.204 2.609-3.9 8.54-5.991 13.18-2.091 4.639-4.33 9.622-4.976 11.071-.645 1.45-1.965 4.374-2.932 6.497-.968 2.124-1.759 3.955-1.759 4.07 0 .116-.558 1.463-1.24 2.993-.683 1.531-2.693 6.191-4.467 10.356-1.775 4.165-3.878 9.028-4.674 10.808-.796 1.78-2.684 6.32-4.194 10.09a1647.11 1647.11 0 01-3.398 8.435c-.359.87-1.142 2.887-1.741 4.481-.599 1.595-2.528 7.052-4.286 12.126a2728.748 2728.748 0 01-4.507 12.917c-.72 2.03-1.565 4.224-1.877 4.877-.312.652-.769 1.186-1.015 1.186-.245 0-.646-.534-.89-1.186-.244-.653-1.161-4.152-2.036-7.777-.876-3.624-1.879-8.488-2.228-10.808-.35-2.319-.634-7.539-.633-11.598.002-4.06.28-11.059.619-15.553.339-4.495.848-10.07 1.131-12.39.283-2.319.768-5.997 1.077-8.171.31-2.175 1.031-6.327 1.605-9.227a532.639 532.639 0 011.503-7.381c.253-1.16.673-2.939.933-3.954.261-1.015.83-3.15 1.265-4.745.436-1.594 2.127-7.051 3.76-12.126 1.632-5.074 3.672-11.124 4.532-13.444.861-2.319 2.036-5.285 2.612-6.59.576-1.305 2.118-4.626 3.428-7.381 1.31-2.754 2.94-5.913 3.623-7.02a118.462 118.462 0 002.318-3.945c.591-1.064 3.259-5.022 5.928-8.797 2.669-3.774 6.217-8.404 7.885-10.289a368.41 368.41 0 016.954-7.565c2.157-2.277 6.739-6.516 10.182-9.422 3.443-2.905 6.954-5.893 7.804-6.64.849-.747 5.192-3.966 9.65-7.153 4.458-3.188 9.618-6.694 11.466-7.792 1.847-1.099 3.462-1.894 3.587-1.767.126.127-.246 1.248-.826 2.491zm396.335 8.717c-.99.493-3.326 2.326-5.192 4.074a297.782 297.782 0 00-6.806 6.638c-1.879 1.904-6.115 6.406-9.414 10.004a1523.29 1523.29 0 00-8.607 9.456 377.818 377.818 0 01-2.869 3.184c-.143.149-2.245 2.403-4.67 5.009-2.425 2.605-12.645 13.159-22.711 23.453-10.065 10.294-20.901 21.563-24.08 25.043-3.179 3.48-6.347 7.003-7.041 7.83l-1.26 1.503-.68-2.683c-.544-2.144-1.221-3.174-3.372-5.129-1.481-1.345-4.101-3.462-5.822-4.703-1.722-1.241-3.766-2.55-4.543-2.907-1.176-.542-1.626-.51-2.686.192-.7.464-2.386 2.692-3.748 4.952a378.753 378.753 0 00-3.524 5.954c-.577 1.014-2.209 4.099-3.628 6.853-1.419 2.755-3.537 6.314-4.708 7.909-1.171 1.594-4.735 6.102-7.92 10.017-3.185 3.914-7.887 9.845-10.449 13.18-2.561 3.335-6.309 8.079-8.328 10.544-2.02 2.465-4.518 5.431-5.552 6.59a499.008 499.008 0 00-4.434 5.071c-1.404 1.628-6.896 7.322-12.203 12.653-5.308 5.33-12.039 11.886-14.958 14.568-4.499 4.134-5.571 4.874-7.042 4.855-.954-.012-2.79-.545-4.081-1.186-2.026-1.005-2.373-1.417-2.532-3.01-.101-1.015.085-3.862.413-6.326.329-2.465.96-6.446 1.403-8.847.442-2.401 1.35-6.103 2.017-8.228.667-2.124 1.8-5.023 2.519-6.442.717-1.419 2.742-4.716 4.499-7.325 1.756-2.61 5.875-8.778 9.152-13.708 3.278-4.929 7.04-10.341 8.36-12.026 1.811-2.31 2.683-3.024 3.543-2.9.703.101 1.202.599 1.301 1.299.088.624-.535 2.878-1.385 5.009-.85 2.13-2.169 5.368-2.931 7.196-1.176 2.823-1.301 3.578-.827 5.03.387 1.183 1.445 2.299 3.44 3.627 1.584 1.055 3.905 2.312 5.157 2.796 2.131.822 2.395.821 4.147-.019 1.03-.494 2.313-1.644 2.852-2.555.538-.912 3.02-5.634 5.515-10.493 2.494-4.86 4.991-10.176 5.549-11.813.557-1.638 1.013-4.018 1.013-5.288 0-1.297-.474-3.251-1.08-4.452-.594-1.177-2.032-3.184-3.196-4.46-1.163-1.276-3.67-3.476-5.57-4.89-1.9-1.414-4.864-3.295-6.585-4.179-1.721-.884-4.06-1.99-5.196-2.457-1.137-.468-3.387-.99-5-1.161-2.181-.23-3.412-.08-4.802.587-1.027.492-2.851 1.87-4.053 3.061-1.202 1.191-4.467 5.028-7.256 8.528a518.558 518.558 0 00-9.861 12.86c-2.634 3.574-7.387 10.454-10.562 15.289-3.175 4.836-6.048 9.152-6.385 9.591-.337.44-2.495 3.049-4.795 5.799-2.302 2.751-7.345 8.915-11.209 13.7-3.864 4.784-10.541 12.846-14.838 17.916-4.297 5.069-11.587 13.017-16.201 17.661-4.612 4.645-9.221 8.895-10.241 9.445-1.257.678-2.313.883-3.281.638-.785-.2-1.994-.936-2.686-1.635-1.185-1.197-1.259-1.629-1.25-7.228.005-3.275.348-7.853.762-10.173.414-2.32 1.121-5.619 1.57-7.333.45-1.714 1.211-3.968 1.69-5.009.48-1.041 2.42-4.621 4.313-7.956 1.893-3.334 6.115-10.333 9.383-15.552 3.268-5.22 7.46-11.685 9.317-14.367 2.575-3.721 3.656-4.877 4.561-4.877.684 0 1.312.402 1.484.948.164.522-.51 2.953-1.497 5.404-.987 2.451-2.279 5.453-2.871 6.672-.591 1.218-1.076 3.129-1.076 4.246 0 1.615.347 2.354 1.696 3.613.932.87 2.9 2.221 4.373 3.003 1.606.851 3.511 1.421 4.755 1.421 1.287 0 2.581-.402 3.404-1.056.73-.581 2.716-3.843 4.411-7.249 1.696-3.407 3.945-7.799 4.999-9.76 1.054-1.962 2.387-4.979 2.962-6.706.575-1.726 1.046-4.257 1.046-5.625 0-1.433-.455-3.437-1.075-4.731-.591-1.235-2.631-3.716-4.532-5.514-1.901-1.798-4.997-4.261-6.88-5.473-1.882-1.213-4.596-2.751-6.03-3.417-1.435-.667-3.665-1.536-4.956-1.932-1.291-.396-3.239-.723-4.329-.726-1.09-.003-2.637.337-3.437.755-.8.418-2.757 2.182-4.349 3.919-1.591 1.738-6.064 7.98-9.938 13.87-3.875 5.891-8.216 12.727-9.649 15.192a761.673 761.673 0 00-3.643 6.327c-.572 1.015-1.914 3.387-2.981 5.272a917.281 917.281 0 00-3.546 6.326 798.849 798.849 0 00-4.417 8.172 309.118 309.118 0 00-5.321 10.544c-1.379 2.9-2.998 6.696-3.598 8.436-.599 1.74-1.447 4.705-1.883 6.59-.563 2.433-.789 6.256-.778 13.18.012 7.294.26 11.017.983 14.762.532 2.755 1.446 6.776 2.031 8.936.878 3.242 1.409 4.225 3.052 5.644 1.093.946 3.956 2.737 6.361 3.982 3.982 2.061 4.704 2.26 8.085 2.228 2.799-.026 4.29-.334 6.06-1.249 1.291-.668 3.521-2.057 4.955-3.086 1.435-1.03 5.895-4.535 9.911-7.79 4.017-3.255 7.777-6.359 8.357-6.896.579-.538 2.104-1.908 3.39-3.046 1.285-1.137 6.41-6.001 11.387-10.808 4.978-4.807 9.344-8.81 9.703-8.895.454-.108.746.976.961 3.565.203 2.437.724 4.471 1.512 5.896.857 1.549 2.759 3.284 6.611 6.031 2.974 2.121 7.41 4.859 9.858 6.085 3.738 1.871 4.961 2.231 7.633 2.245 2.454.012 3.84-.317 6.052-1.436 1.578-.799 4.893-2.925 7.367-4.724 2.474-1.8 5.623-4.221 6.998-5.381a1104.08 1104.08 0 008.282-7.119c3.18-2.755 8.128-7.005 10.997-9.443 2.869-2.437 5.763-5.046 6.43-5.797.668-.751 2.076-2.314 3.13-3.475a180.328 180.328 0 003.69-4.217 264.58 264.58 0 013.561-4.133c.983-1.113 1.895-1.915 2.027-1.782.131.132-.675 3.06-1.79 6.505-1.116 3.445-2.294 7.332-2.619 8.636-.325 1.305-.946 4.356-1.381 6.78-.434 2.425-.79 5.196-.79 6.159 0 1.543.624 2.33 5.285 6.663 2.906 2.703 6.486 6.039 7.955 7.413 1.468 1.375 3.558 2.78 4.644 3.121 1.739.547 2.144.494 3.391-.438.779-.583 1.745-1.738 2.147-2.569.402-.83.947-2.469 1.211-3.643.263-1.173 1.047-5.218 1.742-8.987.695-3.77 1.485-7.922 1.755-9.226.271-1.305.859-3.737 1.308-5.404.449-1.668 1.177-4.396 1.618-6.063.441-1.668 1.435-5.048 2.209-7.513l1.409-4.481.366 2.108c.201 1.16.608 5.312.904 9.227.297 3.914 1.025 8.866 1.617 11.003.593 2.137 1.756 5.34 2.583 7.117.828 1.778 2.316 4.376 3.308 5.775.991 1.399 2.711 3.179 3.821 3.954 1.858 1.298 2.419 1.408 6.976 1.368 4.191-.036 5.424-.258 7.995-1.438 1.671-.768 5.192-2.914 7.824-4.77 2.632-1.855 6.546-5.004 8.697-6.997 2.152-1.992 7.668-7.509 12.258-12.26 4.591-4.751 10.395-10.385 12.899-12.522 2.503-2.136 4.767-3.884 5.031-3.884.285 0 .295.796.024 1.978-.25 1.087-.452 3.875-.449 6.194.004 2.32.341 5.641.749 7.381.531 2.263 1.187 3.568 2.306 4.585.859.782 3.158 1.943 5.107 2.58 2.324.76 5.397 1.244 8.926 1.407 4.171.194 6.048.043 8.346-.667 2.474-.765 3.615-1.58 6.902-4.938 2.167-2.212 5.922-6.835 8.346-10.273l4.408-6.253.611 5.725c.336 3.149.784 6.319.996 7.043.211.725 1.161 2.556 2.11 4.068.966 1.542 2.707 3.378 3.959 4.179 1.229.786 4.347 2.433 6.929 3.659s6.893 2.984 9.58 3.906c3.359 1.152 5.053 1.506 5.424 1.132.37-.375.355-1.5-.051-3.604-.324-1.682-.887-5.313-1.25-8.067-.404-3.065-.657-10.842-.652-20.035.006-8.941.273-17.053.661-20.034.359-2.754.902-6.432 1.207-8.171.305-1.74 1.033-5.418 1.617-8.172.585-2.755 1.389-6.076 1.788-7.381.399-1.305 1.095-3.559 1.547-5.009.452-1.45 1.011-3.11 1.243-3.69.231-.58 2.089-5.335 4.128-10.567 2.04-5.231 3.708-9.661 3.708-9.844 0-.183-.88-.623-1.956-.978-1.075-.355-3.247-1.254-4.825-1.997-1.578-.744-4.6-2.489-6.717-3.877-2.117-1.389-4.239-2.525-4.717-2.525-.517 0-1.627 1.333-2.743 3.295a467.54 467.54 0 00-3.314 5.931c-.792 1.45-2.144 3.941-3.006 5.536-.862 1.595-3.058 5.47-4.88 8.611-1.821 3.142-3.312 5.822-3.312 5.957 0 .135-.821 1.543-1.826 3.129-1.004 1.587-1.825 3.006-1.825 3.153 0 .148-1.409 2.528-3.13 5.29-1.721 2.761-3.13 5.121-3.13 5.243 0 .122-2.031 3.462-4.515 7.422-2.484 3.961-5.841 8.652-7.462 10.427-1.62 1.774-3.851 4.234-4.957 5.467-1.106 1.232-2.219 2.24-2.473 2.24s-.314-.89-.134-1.977c.181-1.087.668-3.4 1.084-5.14.415-1.74 1.594-5.417 2.62-8.172 1.025-2.755 3.745-9.991 6.043-16.08 2.298-6.089 4.475-11.783 4.84-12.653.364-.87 2.478-6.089 4.697-11.599 2.22-5.509 4.828-11.754 5.797-13.878.97-2.123 1.763-4.206 1.763-4.629 0-.424-.41-.896-.913-1.05-.502-.155-4.264-1.721-8.359-3.48-7.006-3.009-7.504-3.146-8.404-2.323-.527.482-2.262 3.538-3.858 6.792-1.594 3.253-3.761 7.813-4.815 10.133a377.56 377.56 0 00-2.587 5.799c-.369.87-1.286 2.952-2.038 4.627-.752 1.676-1.366 3.157-1.366 3.293 0 .136-.788 1.969-1.75 4.072-.963 2.104-3.449 6.671-5.524 10.151-2.076 3.48-6.027 9.529-8.78 13.444-2.754 3.915-6.038 8.422-7.298 10.017-1.261 1.595-7.898 8.712-14.749 15.816-6.851 7.105-13.669 13.807-15.151 14.894-1.534 1.126-3.301 1.977-4.105 1.977-.941 0-1.606-.395-1.998-1.186-.324-.653-.818-2.135-1.099-3.295-.281-1.16-.784-4.956-1.118-8.435-.333-3.48-.948-7.513-1.366-8.963-.418-1.45-1.193-3.585-1.722-4.745-.528-1.16-1.512-2.732-2.186-3.494-.675-.762-1.739-1.652-2.365-1.977-.627-.326-1.611-.592-2.186-.592-.576 0-1.191-.235-1.367-.523-.176-.287.446-1.651 1.382-3.031.936-1.38 3.98-5.356 6.763-8.835 2.783-3.48 5.495-6.802 6.026-7.381.531-.58 2.839-3.309 5.13-6.063a519.854 519.854 0 018.837-10.281c2.57-2.9 6.695-7.407 9.166-10.017a652.367 652.367 0 007.364-7.908c1.579-1.74 6.986-7.909 12.015-13.708 5.029-5.799 10.222-11.724 11.54-13.165 1.318-1.442 2.468-2.51 2.555-2.373.088.137.512.925.942 1.75.435.835 2.017 2.185 3.562 3.04 1.529.846 4.126 1.997 5.772 2.557 1.646.561 4.385 1.259 6.088 1.552 1.703.294 4.567.786 6.366 1.095 2.237.384 3.585.392 4.266.023.548-.297 2.271-2.378 3.828-4.626s5.402-8.239 8.544-13.314c3.142-5.074 6.317-10.294 7.057-11.599.739-1.304 1.876-3.321 2.526-4.481.65-1.16 2.084-3.88 3.186-6.042 1.103-2.164 2.147-4.699 2.32-5.634.174-.934.053-2.504-.269-3.489-.321-.983-1.669-3.312-2.996-5.174-1.327-1.862-4.549-5.532-7.162-8.155-2.955-2.969-5.822-5.308-7.589-6.195-1.563-.784-3.324-1.42-3.912-1.413-.59.006-1.882.415-2.872.908zm124.263 45.849c-.624.964-.919 2.422-.907 4.481l.018 3.053h-4.13c-2.606 0-7.428-.663-13.059-1.797-4.911-.988-12.214-2.335-16.231-2.992-4.016-.658-8.471-1.213-9.9-1.235-2.119-.032-2.632.139-2.785.925-.103.531-.044 1.538.13 2.239.206.832 1.699 2.2 4.297 3.939 2.189 1.466 5.178 3.686 6.641 4.934 1.463 1.248 4.342 3.494 6.397 4.991 2.055 1.497 5.528 3.547 7.718 4.556 2.189 1.008 6.063 2.544 8.608 3.413 2.545.869 6.349 1.831 8.453 2.138 2.104.307 5.233.407 6.955.222 1.721-.185 4.42-.698 5.998-1.141 1.578-.442 4.495-1.659 6.483-2.704 1.987-1.045 5.019-3.213 6.737-4.818 1.718-1.604 3.868-4.103 4.779-5.553.911-1.45 1.79-3.171 1.953-3.826.207-.835-.027-1.418-.786-1.956-.594-.421-3.331-1.696-6.081-2.832l-11.526-4.766c-3.589-1.485-7.046-2.7-7.681-2.7-.682 0-1.536.587-2.081 1.429zm-57.177 32.181c-.678 1.088-2.911 5.479-4.962 9.759-2.05 4.281-3.728 7.882-3.728 8.002 0 .121-.787 1.956-1.749 4.08-.962 2.124-3.088 7.126-4.725 11.116-1.637 3.991-3.809 9.685-4.827 12.654-1.019 2.968-2.425 7.414-3.125 9.878-.7 2.465-1.608 5.668-2.018 7.118-.41 1.45-1.699 6.669-2.865 11.599-1.165 4.929-2.33 10.03-2.588 11.335-.258 1.304-.739 5.1-1.068 8.435-.496 5.014-.468 6.768.165 10.143.42 2.244 1.129 4.642 1.574 5.329.445.686 1.823 1.726 3.063 2.311 1.24.586 3.943 1.45 6.008 1.921 2.065.471 5.481.857 7.593.857 2.512 0 4.95-.379 7.055-1.098 2.772-.946 3.759-1.679 7.112-5.282 2.142-2.301 5.845-6.967 8.229-10.369l4.335-6.184.331 5.535c.182 3.045.555 6.366.83 7.381.274 1.015.881 2.589 1.347 3.498.466.91 1.9 2.59 3.185 3.734 1.287 1.144 4.287 3.042 6.669 4.217 2.382 1.175 6.608 2.995 9.393 4.044 2.785 1.048 5.685 1.905 6.444 1.905 1.293 0 1.367-.127 1.136-1.977-.136-1.087-.678-5.18-1.205-9.094-.71-5.277-.963-10.525-.976-20.298-.011-7.768.264-15.562.671-18.98.379-3.189 1.018-7.697 1.42-10.017a249.933 249.933 0 011.52-7.897c.434-2.024 1.157-4.99 1.606-6.59.449-1.601 1.976-6.15 3.392-10.11 1.417-3.959 3.632-9.747 4.923-12.863 1.292-3.115 2.348-5.992 2.348-6.393 0-.401-.293-.832-.652-.958-.359-.126-1.978-.72-3.598-1.319-1.621-.6-5.18-2.506-7.909-4.236-2.73-1.73-5.413-3.146-5.961-3.146-.722 0-1.767 1.416-3.793 5.141a7134.987 7134.987 0 01-3.658 6.722c-.474.869-1.621 2.963-2.549 4.653-.929 1.689-3.349 5.955-5.377 9.478a2031.51 2031.51 0 00-4.59 7.999c-.496.877-2.011 3.492-3.368 5.812-1.357 2.32-4.903 8.132-7.881 12.917-3.972 6.381-6.722 10.103-10.323 13.971-2.7 2.899-5.04 5.145-5.201 4.99-.161-.155.069-2.047.51-4.204.442-2.156 1.147-4.996 1.566-6.308.42-1.313.963-2.861 1.208-3.441.245-.58 3.544-9.239 7.333-19.243 3.788-10.004 7.215-18.96 7.614-19.903.4-.942 1.078-2.52 1.509-3.506.43-.986.782-1.928.782-2.093 0-.166.561-1.553 1.247-3.084a311.56 311.56 0 002.461-5.683c.669-1.595 1.608-3.72 2.087-4.722.479-1.002.773-2.07.654-2.372-.119-.303-1.443-.946-2.942-1.429-1.498-.482-4.995-1.965-7.769-3.295-2.774-1.329-5.412-2.417-5.862-2.417-.449 0-1.372.89-2.051 1.977zm-428.849 26.883c-1.371 2.244-4.434 8.116-6.806 13.048-2.374 4.933-6.087 13.476-8.252 18.985-2.165 5.51-5.225 13.932-6.8 18.716-1.575 4.785-4.052 12.851-5.504 17.926a5196.853 5196.853 0 00-3.158 11.071 516.903 516.903 0 00-1.753 6.59c-.679 2.61-1.528 6.169-1.888 7.909-.36 1.739-.857 3.875-1.106 4.745-.248.869-.823 4.136-1.279 7.258-.653 4.483-.706 6.267-.252 8.479.434 2.113 1.052 3.266 2.513 4.69 1.066 1.039 4.027 3.207 6.582 4.82 2.555 1.611 5.443 3.197 6.419 3.523 1.579.526 1.999.441 3.818-.776 1.124-.752 5.993-5.341 10.819-10.199 4.827-4.858 13.53-13.783 19.34-19.835 5.81-6.051 10.676-10.887 10.814-10.749.137.14-.373 2.006-1.134 4.149-.887 2.495-2.14 4.747-3.489 6.267a414.148 414.148 0 01-5.291 5.799 701.373 701.373 0 00-7.871 8.686 1374.052 1374.052 0 01-5.662 6.327c-.537.587-3.73 4.389-7.095 8.448-3.366 4.06-8.442 10.512-11.282 14.339-2.84 3.826-7.147 10.113-9.572 13.971-2.425 3.857-5.996 10.109-7.936 13.892-1.945 3.793-3.873 8.376-4.298 10.218-.598 2.589-.65 4.005-.234 6.302.295 1.629 1.133 4.076 1.863 5.438.869 1.623 2.336 3.184 4.258 4.531 1.612 1.13 4.457 2.877 6.322 3.881 1.865 1.005 5.268 2.619 7.564 3.587 2.295.967 6.52 2.453 9.389 3.3 4.659 1.378 5.495 1.481 7.824.968 1.435-.315 3.808-1.266 5.274-2.114 1.466-.847 4.214-3.129 6.107-5.071 1.894-1.942 4.563-5.218 5.933-7.28 1.369-2.063 3.439-5.648 4.599-7.968 1.161-2.32 2.6-5.404 3.198-6.854.598-1.45 1.921-4.771 2.94-7.381 1.02-2.61 2.671-6.999 3.67-9.753 1-2.755 2.448-6.788 3.218-8.963a585.902 585.902 0 001.847-5.272c.246-.725 1.419-4.521 2.607-8.435 1.188-3.915 2.374-7.83 2.636-8.7.261-.869.809-2.658 1.218-3.975.409-1.316 1.729-5.824 2.933-10.017 1.205-4.193 3.825-14.148 5.824-22.122 1.999-7.974 4.409-18.294 5.356-22.933.947-4.64 2.362-11.401 3.145-15.026.783-3.625 1.606-7.539 1.83-8.699.223-1.16.658-3.295.966-4.745.308-1.45.921-4.297 1.363-6.327.442-2.029 1.177-5.469 1.634-7.644l.83-3.954-2.788-2.53c-1.534-1.392-4.643-3.942-6.91-5.668-2.267-1.726-4.539-3.137-5.05-3.137-.511 0-1.381.652-1.934 1.449-.553.798-1.708 2.755-2.568 4.35-.859 1.595-2.571 4.798-3.805 7.117-1.234 2.32-3.773 6.709-5.643 9.754-1.871 3.044-4.468 7.078-5.772 8.962-1.305 1.885-4.472 6.156-7.038 9.49-2.566 3.335-6.706 8.436-9.201 11.335-2.495 2.9-6.957 7.705-9.916 10.676-2.96 2.972-5.674 5.404-6.03 5.404-.483 0-.528-.446-.173-1.745.262-.96 1.084-3.51 1.826-5.667.742-2.158 2.866-7.837 4.72-12.622 1.855-4.784 3.586-9.173 3.847-9.753.262-.58 1.868-4.257 3.571-8.172 1.702-3.915 3.968-9.015 5.035-11.335a463.03 463.03 0 014.524-9.452c1.869-3.782 2.497-5.592 2.265-6.526-.177-.71-3.652-4.642-7.724-8.737-4.071-4.095-8.2-8.098-9.173-8.895-.974-.797-2.174-1.45-2.666-1.45-.555 0-1.845 1.553-3.388 4.081zm347.914 104.851c-3.442 2.768-8.254 6.844-10.693 9.058-2.438 2.213-7.607 7.236-11.486 11.16-3.878 3.924-8.338 8.559-9.911 10.3a369.487 369.487 0 00-5.727 6.528c-1.578 1.851-4.003 4.932-5.389 6.848-1.386 1.916-4.24 6.228-6.343 9.583-2.103 3.355-4.349 7.034-4.991 8.177-.641 1.142-2.751 5.28-4.688 9.194-1.937 3.915-4.286 9.015-5.22 11.335-.935 2.32-3.058 6.872-4.719 10.116-1.661 3.244-4.006 7.514-5.212 9.49a1302.573 1302.573 0 01-4.322 7.019c-1.172 1.884-4.113 6.273-6.535 9.753-2.423 3.48-6.405 8.936-8.849 12.126-2.445 3.19-6.908 8.706-9.918 12.258-3.009 3.551-5.666 6.458-5.905 6.458-.239 0-.285-.652-.103-1.45.183-.798.982-3.348 1.777-5.667.793-2.32 2.542-7.065 3.884-10.545 1.342-3.479 4.671-10.879 7.398-16.443 4.145-8.462 4.864-10.291 4.395-11.177-.308-.583-2.26-1.865-4.338-2.849-2.078-.984-4.098-2.181-4.491-2.659-.392-.479-.59-1.406-.44-2.06.15-.654.629-2.494 1.062-4.089.434-1.595 1.189-5.691 1.678-9.103l.888-6.203-1.315-2.01c-.724-1.105-2.807-3.313-4.628-4.906-1.822-1.593-5.308-4.33-7.746-6.084-2.439-1.753-4.939-3.346-5.556-3.539-.845-.266-2.451.517-6.52 3.18-2.969 1.942-7.042 4.756-9.052 6.253-2.009 1.496-4.004 3.058-4.433 3.472-.43.413-2.307 2.052-4.172 3.643-1.865 1.59-5.503 5.04-8.085 7.666-2.582 2.626-5.751 5.977-7.042 7.447a310.277 310.277 0 00-3.403 3.932c-.582.693-2.826 3.633-4.989 6.533-2.162 2.899-4.645 6.339-5.517 7.644-.872 1.305-2.365 3.796-3.32 5.536a355.854 355.854 0 00-3.102 5.799c-.752 1.45-2.456 5.127-3.786 8.172-1.331 3.045-3.036 7.315-3.789 9.49a657.578 657.578 0 00-2.069 6.063c-.385 1.16-1.057 3.651-1.494 5.536-.437 1.884-.95 4.436-1.14 5.669-.287 1.863-.58 2.299-1.733 2.577-.764.184-3.132.777-5.262 1.318l-3.873.984-3.715-2.875c-2.043-1.581-5.157-3.599-6.921-4.484-1.763-.884-3.588-1.608-4.053-1.608-.465 0-1.293-.242-1.841-.538-.907-.491-.521-1.156 4.355-7.513 2.943-3.836 7.448-9.82 10.011-13.297 2.563-3.477 6.049-8.554 7.745-11.283 1.696-2.728 3.762-6.471 4.59-8.316.828-1.847 1.956-5.666 2.507-8.489.549-2.821 1.288-7.151 1.642-9.62.568-3.971.537-4.825-.264-7.381-.497-1.59-1.446-3.522-2.107-4.293-.662-.772-1.995-1.83-2.964-2.353-1.366-.737-2.945-.949-7.042-.944-2.905.003-6.191.273-7.303.601l-5.933 1.755c-2.152.638-4.616 1.513-5.477 1.945-.861.432-4.562 2.597-8.225 4.809a1564.098 1564.098 0 01-7.564 4.554c-.497.292-2.781 1.819-5.076 3.394a506.06 506.06 0 00-8.868 6.27c-2.582 1.872-6.592 5.01-8.911 6.971-2.32 1.961-6.26 5.011-8.757 6.776-2.497 1.766-4.649 3.211-4.781 3.211-.133 0-.241-2.476-.241-5.502s-.237-6.131-.526-6.901c-.29-.769-2.253-3.098-4.363-5.174-2.11-2.077-6.995-6.237-10.857-9.244-3.861-3.009-8.713-6.389-10.782-7.513-2.076-1.128-4.492-2.044-5.393-2.044-.897 0-2.643.599-3.878 1.33-1.236.732-2.919 2.333-3.742 3.559-.823 1.225-2.328 4.015-3.345 6.2-1.016 2.184-2.794 6.811-3.951 10.281-1.156 3.47-2.385 7.772-2.73 9.559-.367 1.9-.53 5.623-.392 8.963.19 4.621.517 6.457 1.713 9.611 1.115 2.943 2.237 4.719 4.579 7.25 1.707 1.844 5.423 5.067 8.258 7.163l5.155 3.811v2.585c0 1.422-.261 3.561-.579 4.755-.319 1.193-.764 2.644-.991 3.224-.226.58-.705 1.885-1.064 2.9a88.454 88.454 0 01-1.304 3.427c-.359.87-1.204 2.873-1.878 4.452-.674 1.578-2.986 6.425-5.138 10.769-2.152 4.344-4.206 7.995-4.564 8.113-.492.162-.652-1.053-.652-4.938 0-2.834.274-6.59.611-8.348.336-1.757 1.294-5.923 2.127-9.258.834-3.334 1.722-6.774 1.973-7.644.251-.87.929-3.48 1.506-5.799.577-2.32 1.058-4.841 1.067-5.604.01-.762-.275-1.625-.634-1.918-.358-.292-3.272-1.875-6.474-3.516-3.202-1.642-6.673-3.124-7.714-3.295-1.521-.25-2.145-.071-3.176.908-.706.67-1.284 1.397-1.284 1.615 0 .219-.787 2.135-1.749 4.258a245.962 245.962 0 00-3.459 8.128c-1.07 2.667-3.397 6.653-6.206 10.628-2.472 3.499-6.256 8.472-8.407 11.052-2.152 2.58-5.027 6.161-6.39 7.957-1.994 2.628-2.762 3.265-3.938 3.265-.804 0-1.743-.285-2.087-.633-.344-.348-.624-1.475-.622-2.504.003-1.03.346-4.483.763-7.674.417-3.191 1.128-7.58 1.58-9.753.453-2.174 1.758-6.799 2.901-10.278 1.143-3.48 2.687-7.869 3.431-9.754.745-1.885 1.54-3.901 1.768-4.481.228-.58 1.233-3.308 2.233-6.063s2.053-5.746 2.34-6.646c.287-.901.368-1.89.18-2.198-.188-.307-1.866-1.14-3.728-1.851-1.863-.711-4.56-1.841-5.995-2.511-1.434-.669-3.463-1.887-4.509-2.705-1.045-.818-2.426-1.487-3.068-1.487-.647 0-1.897.782-2.803 1.752-.899.964-3.079 4.582-4.844 8.04-1.766 3.458-3.963 8.186-4.883 10.506-.92 2.319-2.18 5.878-2.8 7.908l-1.128 3.69-2.848.13c-1.567.072-4.14-.177-5.718-.551-2.744-.651-2.862-.749-2.7-2.239.094-.856.832-3.574 1.641-6.039.808-2.464 1.939-5.667 2.512-7.117.573-1.45 1.789-4.297 2.702-6.327.912-2.03 3.175-6.762 5.028-10.516 1.853-3.754 3.257-7.12 3.12-7.48-.136-.36-1.024-.883-1.972-1.163-.949-.28-5.204-1.851-9.457-3.49-4.887-1.885-8.329-2.922-9.353-2.819-1.331.133-1.883.632-3.098 2.798-.813 1.45-3.202 6.195-5.31 10.544-2.108 4.35-4.344 9.054-4.97 10.453-.625 1.399-2.801 6.619-4.836 11.599-2.033 4.98-4.277 10.596-4.985 12.481-.709 1.885-1.966 5.799-2.795 8.699-.829 2.9-1.724 5.984-1.989 6.854-.265.87-.86 3.242-1.323 5.272-.463 2.03-1.055 4.639-1.315 5.799-.261 1.16-.718 3.532-1.017 5.272-.299 1.74-.786 4.824-1.084 6.854-.297 2.03-.887 6.419-1.312 9.754-.426 3.334-.768 9.028-.761 12.653.008 4.378.225 6.856.648 7.381.349.435 1.584 1.414 2.744 2.175 1.159.762 4.331 2.478 7.047 3.813 2.717 1.336 6.188 2.804 7.714 3.262 2.434.73 2.916.739 3.928.069 1.054-.698 1.211-1.469 1.807-8.864.359-4.455.893-9.761 1.186-11.79.293-2.03.886-5.708 1.318-8.172a452.328 452.328 0 011.516-8.172 152.63 152.63 0 011.547-6.854c.449-1.74 1.197-4.553 1.664-6.253l.849-3.089 2.132.334c1.173.184 4.408.481 7.19.66l5.058.327-.278 1.638c-.153.901-.382 1.972-.509 2.379-.127.409-.575 4.204-.997 8.436-.421 4.232-.749 10.778-.728 14.548.023 4.059.305 7.606.693 8.699.401 1.133 1.621 2.588 3.162 3.771 1.379 1.059 4.375 2.92 6.656 4.136 2.281 1.216 4.889 2.445 5.796 2.73.907.286 3.291.953 5.3 1.481 3.114.819 3.89.86 5.277.277.895-.377 2.213-1.481 2.929-2.454.717-.973 2.477-4.023 3.913-6.778a3385.14 3385.14 0 006.675-12.917c2.235-4.349 4.379-8.376 4.763-8.948.609-.907.698-.476.698 3.392 0 2.436.265 6.582.589 9.211.356 2.888 1.101 5.892 1.881 7.586.834 1.81 2.059 3.374 3.454 4.408 1.188.882 3.199 2.061 4.468 2.619 1.268.559 4.378 1.723 6.909 2.587 2.532.865 5.625 1.713 6.873 1.886 1.455.202 3.376-.008 5.349-.584 1.693-.494 3.989-1.412 5.101-2.038 1.37-.772 2.908-2.498 4.771-5.357 1.511-2.319 3.67-5.997 4.797-8.171 1.128-2.175 3.408-7.276 5.069-11.336 1.66-4.059 4.494-11.888 6.299-17.398 1.804-5.509 3.789-12.141 4.411-14.738.622-2.596 1.567-5.681 2.102-6.854.567-1.245 3.534-4.683 7.136-8.269 3.391-3.376 9.334-8.943 13.207-12.372 3.873-3.428 7.981-7.101 9.129-8.162 1.147-1.061 4.199-3.694 6.781-5.85 2.582-2.157 7.042-5.711 9.911-7.898 2.868-2.186 8.033-5.837 11.475-8.113 3.443-2.276 7.022-4.564 7.953-5.086.932-.522 2.117-.949 2.634-.949.518 0 1.223.285 1.567.633.344.348.627 1.119.628 1.713.001.594-1.174 3.453-2.611 6.353-1.438 2.9-4.197 7.514-6.131 10.253-1.935 2.74-6.335 7.933-9.778 11.54-3.442 3.607-8.254 8.259-10.693 10.339-2.438 2.079-6.312 5.202-8.607 6.941-2.295 1.738-8.457 6.209-13.692 9.934-5.236 3.727-9.52 6.964-9.52 7.195 0 .23 1.15 1.795 2.555 3.478 1.405 1.682 4.683 5.181 7.285 7.775l4.73 4.716 5.625-2.696c3.094-1.483 7.151-3.162 9.016-3.732 1.865-.57 4.623-1.191 6.129-1.38 1.507-.188 2.739-.239 2.739-.112s-1.937 1.48-4.304 3.006c-2.366 1.526-7.742 5.227-11.945 8.224-4.907 3.5-9.673 7.478-13.318 11.116-3.121 3.116-6.726 6.852-8.009 8.302a363.812 363.812 0 00-4.994 5.799c-1.463 1.74-4.531 5.654-6.818 8.699s-5.571 7.79-7.299 10.544c-1.727 2.755-3.849 6.314-4.716 7.909a294.838 294.838 0 00-3.435 6.59c-1.023 2.03-2.476 5.114-3.229 6.854-.753 1.739-2.876 6.959-4.719 11.598-1.844 4.64-3.852 10.334-4.463 12.653-.611 2.32-1.325 5.286-1.586 6.591-.261 1.304-.929 5.219-1.483 8.699-.554 3.479-1.018 8.64-1.031 11.467-.022 4.628.07 5.14.926 5.14.522 0 3.045-.453 5.607-1.007 2.562-.553 7.368-1.733 10.682-2.62 3.313-.888 7.89-2.23 10.171-2.982 2.281-.753 7.74-3.161 12.13-5.353 4.738-2.365 10.674-5.888 14.605-8.67 3.643-2.577 8.761-6.463 11.374-8.635 2.612-2.172 7.661-6.974 11.218-10.67 3.557-3.697 8.393-9.25 10.746-12.341 2.354-3.091 5.904-8.196 7.889-11.344 1.985-3.149 4.87-8.212 6.411-11.252 1.541-3.039 3.223-6.519 3.737-7.732a293.007 293.007 0 002.248-5.536c.721-1.831 1.627-4.042 2.013-4.911.387-.87 1.994-5.734 3.572-10.808 1.578-5.075 3.068-10.157 3.31-11.295.323-1.514.86-2.296 2.006-2.92.86-.469 3.208-1.475 5.216-2.238a272.67 272.67 0 015.636-2.072c1.409-.488 2.09-.521 2.347-.114.2.315 1.654 1.39 3.232 2.389 1.578.998 4.32 2.44 6.094 3.203 1.775.764 4.592 1.54 6.26 1.727 1.818.203 3.637.104 4.537-.247.828-.323 3.26-2.301 5.405-4.395 2.146-2.095 6.069-6.537 8.718-9.872 2.649-3.334 6.275-8.258 8.057-10.939 1.782-2.682 3.373-4.877 3.536-4.877.163 0 .149.744-.031 1.653s-.082 2.573.218 3.697c.299 1.124 1.279 2.891 2.177 3.924.898 1.034 4.233 3.784 7.411 6.11 3.178 2.328 6.886 4.8 8.239 5.495 1.353.695 3.122 1.264 3.931 1.264 1.076 0 2.11-.675 3.841-2.505 1.303-1.377 3.432-3.809 4.731-5.403 1.299-1.595 4.889-6.459 7.977-10.808 3.088-4.35 7.381-10.109 9.538-12.798 2.158-2.689 4.039-4.772 4.181-4.628.142.144-.065 1.395-.461 2.78-.51 1.785-.706 5.516-.676 12.8.04 9.382.138 10.448 1.122 12.19.594 1.05 2.259 3.579 3.701 5.622 1.442 2.042 2.97 4.148 3.396 4.681.427.532 2.098 2.567 3.713 4.521 1.616 1.955 3.943 4.149 5.172 4.877 1.23.728 2.697 1.324 3.261 1.324.564 0 2.094-.685 3.4-1.522 1.305-.836 3.224-2.557 4.264-3.822 1.041-1.265 4.265-6.097 7.166-10.736 2.901-4.64 8.071-12.647 11.489-17.795 3.417-5.148 7.336-10.96 8.708-12.917 1.372-1.956 3.178-4.743 4.013-6.193a96.086 96.086 0 002.897-5.536c.759-1.595 1.989-4.679 2.735-6.854.746-2.174 1.722-5.783 2.169-8.017.447-2.235.813-5.808.813-7.939 0-2.131-.493-6.471-1.095-9.644s-1.292-6.836-1.532-8.141c-.241-1.305-.921-5.184-1.513-8.62-.592-3.436-1.076-7.138-1.076-8.227 0-1.714.371-2.327 2.76-4.561 1.518-1.419 3.81-3.53 5.093-4.689 1.283-1.16 4.208-3.767 6.499-5.793a689.387 689.387 0 007.035-6.312c1.578-1.445 5.333-5.132 8.346-8.195 3.012-3.062 6.235-6.509 7.162-7.659.927-1.151 2.741-4.228 4.031-6.838 1.306-2.644 2.697-6.452 3.139-8.601.437-2.122.795-5.251.795-6.954 0-2.014-.48-4.447-1.37-6.951-.753-2.12-2.191-5.515-3.196-7.545-1.004-2.03-2.611-4.892-3.572-6.36-.96-1.469-2.709-3.663-3.886-4.877-1.478-1.523-2.572-2.201-3.535-2.189-.961.013-3.339 1.582-7.654 5.053zm-329.649 16.677a324.12 324.12 0 01-2.497 7.513c-.709 2.029-2.161 5.825-3.228 8.435-1.067 2.61-3.773 8.431-6.013 12.936-2.241 4.504-5.547 10.673-7.345 13.707-1.799 3.035-5.078 8.248-7.286 11.586-2.208 3.338-4.43 6.417-4.938 6.844-.862.722-.899.651-.56-1.061.2-1.009.83-3.733 1.401-6.052.571-2.32 2.108-6.947 3.416-10.281 1.309-3.335 4.035-9.385 6.059-13.444 2.022-4.06 5.072-9.635 6.775-12.39 1.704-2.754 5.713-8.74 8.91-13.301s5.97-8.298 6.163-8.304c.193-.006-.193 1.71-.857 3.812zm-197.71.196c-1.148.12-3.964.712-6.259 1.315-2.296.603-6.755 2.156-9.911 3.452-3.156 1.295-8.125 3.638-11.042 5.207-2.918 1.569-7.848 4.476-10.955 6.461-3.107 1.985-7.41 4.877-9.561 6.427a212.091 212.091 0 00-7.406 5.631c-1.921 1.547-3.682 2.812-3.913 2.812-.231 0-.982-1.072-1.67-2.382-.687-1.309-2.625-3.897-4.305-5.751-1.68-1.854-4.145-4.1-5.475-4.99-1.331-.891-3.685-2.099-5.23-2.683-1.546-.585-4.622-1.465-6.836-1.955-2.986-.663-6.52-.892-13.676-.887-8.019.006-10.553.205-14.987 1.181-2.936.647-7.389 1.894-9.896 2.771-2.506.878-5.818 2.22-7.358 2.983-1.541.762-3.232 1.939-3.757 2.614-.526.676-1.542 3.178-2.258 5.559-.717 2.382-1.674 6.252-2.128 8.601-.47 2.437-.824 6.98-.824 10.582 0 4.358.254 7.066.82 8.746.451 1.338 1.14 2.702 1.532 3.03.53.445 1.017.436 1.918-.038.664-.349 2.628-2.001 4.364-3.671 1.737-1.67 5.141-4.342 7.564-5.937 2.423-1.595 5.697-3.65 7.275-4.565 1.578-.917 5.68-3.071 9.116-4.79 3.436-1.717 7.426-3.471 8.868-3.897 1.441-.426 3.468-.911 4.506-1.077 1.037-.166 2.278-.15 2.758.036.479.186 1.215 1.009 1.634 1.83.48.936.763 3.021.762 5.603-.002 2.262-.362 6.366-.803 9.121-.44 2.755-1.629 8.211-2.643 12.126-1.013 3.915-2.679 9.727-3.702 12.917a7208.47 7208.47 0 01-5.627 17.398c-2.072 6.379-4.301 13.378-4.953 15.553a552.045 552.045 0 01-1.939 6.326c-.413 1.305-1.696 5.694-2.851 9.754-1.154 4.059-2.29 8.092-2.525 8.962-.235.87-1.246 4.31-2.248 7.645-1.001 3.334-1.941 6.419-2.089 6.854-.147.435-2.077 6.484-4.289 13.444a3150.765 3150.765 0 01-7.305 22.67c-1.806 5.509-4.583 14.416-6.17 19.792-1.588 5.377-3.24 11.071-3.67 12.654-.43 1.582-1.403 5.131-2.16 7.886-.759 2.754-1.505 5.601-1.658 6.326-.154.725-2.107 8.673-4.342 17.662a5535.998 5535.998 0 01-6.71 26.719c-2.216 8.687-2.647 11.14-2.647 15.076 0 3.205.26 5.227.814 6.351.448.908 1.446 2.093 2.217 2.634.772.542 2.855 1.289 4.63 1.66 2.037.426 4.538.543 6.781.318 1.955-.197 4.963-.596 6.684-.887 1.721-.291 5.829-1.441 9.128-2.557 3.3-1.116 7.216-2.517 8.705-3.113 1.488-.596 4.739-2.041 7.224-3.213 2.485-1.171 4.634-2.129 4.776-2.129.141 0 2.059-.918 4.26-2.04 2.201-1.122 7.168-4.103 11.036-6.625 3.868-2.522 8.559-5.783 10.424-7.245 1.864-1.463 4.33-3.524 5.478-4.579 1.148-1.055 3.26-2.863 4.694-4.019 1.434-1.156 4.004-3.41 5.711-5.009 1.707-1.599 3.82-3.621 4.695-4.493.875-.872 2.999-3.133 4.72-5.024a244.24 244.24 0 005.477-6.246 425.166 425.166 0 013.556-4.202c.665-.767 3.39-4.122 6.056-7.457 2.665-3.335 6.021-7.636 7.459-9.557 1.437-1.923 4.251-5.837 6.251-8.7 2.002-2.862 5.747-8.644 8.322-12.849 2.576-4.204 5.521-9.068 6.544-10.808a164.25 164.25 0 003.744-6.833c1.037-2.018 1.884-3.851 1.884-4.073 0-.221.673-1.891 1.494-3.711a574.022 574.022 0 003.201-7.262 501.09 501.09 0 013.267-7.381c.858-1.885 3.405-8.225 5.659-14.088 2.253-5.864 4.7-12.388 5.437-14.499.737-2.11 2.232-6.565 3.323-9.9 1.09-3.334 2.62-8.435 3.399-11.335a546.788 546.788 0 011.876-6.854c.254-.869.975-4.072 1.604-7.117.628-3.045 1.313-6.603 1.522-7.908.209-1.305.864-5.575 1.456-9.49.592-3.914 1.329-9.49 1.637-12.39.309-2.899.796-10.438 1.082-16.752.359-7.893.349-13.823-.03-18.979-.303-4.125-.767-8.33-1.03-9.345-.263-1.015-.86-3.506-1.326-5.536-.466-2.03-1.549-4.938-2.405-6.463-.863-1.535-2.847-3.834-4.444-5.149-1.588-1.307-4.569-3.194-6.626-4.194-3.255-1.583-4.38-1.848-8.679-2.046-2.717-.125-5.878-.129-7.026-.009zm527.235 10.348c.137.363.068 1.964-.154 3.559-.221 1.595-.801 4.086-1.289 5.536-.487 1.449-1.782 3.822-2.877 5.272-1.096 1.45-2.539 3.25-3.207 3.999-.669.75-2.742 2.495-4.607 3.877-1.864 1.383-4.057 2.862-4.873 3.289-.816.426-1.596.661-1.733.522-.138-.139.354-1.219 1.092-2.401.738-1.181 1.341-2.266 1.341-2.412 0-.145.822-1.561 1.826-3.148 1.004-1.587 1.826-3.01 1.826-3.164 0-.153.86-1.647 1.911-3.32 1.051-1.673 2.06-3.16 2.241-3.305.182-.145 1.458-1.76 2.836-3.588s2.996-3.785 3.595-4.349c.599-.565 1.254-1.026 1.457-1.026.202 0 .479.297.615.659zm34.948 22.934a368.624 368.624 0 00-6.699 9.921 811.976 811.976 0 00-3.72 5.799c-.349.561-2.613 4.34-5.032 8.4-2.418 4.06-4.853 8.211-5.41 9.226-.557 1.015-1.725 3.15-2.597 4.745-.872 1.595-3.478 6.696-5.791 11.335-2.314 4.64-5.238 10.69-6.496 13.444-1.258 2.755-4.114 9.516-6.345 15.026a2600.313 2600.313 0 01-4.72 11.599c-.365.869-1.772 4.547-3.126 8.171a891.913 891.913 0 01-2.883 7.645 561.79 561.79 0 00-1.734 4.481 597.74 597.74 0 00-3.215 8.699 548.926 548.926 0 01-3.222 8.699 410.011 410.011 0 01-1.749 4.482c-.236.58-1.018 2.715-1.737 4.745-.719 2.029-2.163 6.181-3.21 9.226a1000.66 1000.66 0 01-3.125 8.962c-.673 1.885-1.96 5.563-2.861 8.172-.901 2.61-3.357 9.965-5.459 16.344-2.102 6.379-4.641 14.208-5.641 17.398-1.001 3.19-2.226 7.223-2.722 8.963a188.419 188.419 0 01-1.331 4.481c-.236.725-.716 2.611-1.067 4.191l-.638 2.874 2.908 2.736c1.6 1.505 4.628 4.023 6.728 5.596 2.1 1.573 4.863 3.615 6.139 4.539 1.276.924 2.714 1.68 3.196 1.68.482 0 1.122-.3 1.423-.666.301-.366 1.015-1.967 1.587-3.558a802.893 802.893 0 002.938-8.429c1.043-3.045 2.089-6.011 2.324-6.591l1.07-2.636c.353-.87 1.067-2.886 1.586-4.481.52-1.595 1.688-5.035 2.595-7.645a1520.73 1520.73 0 012.965-8.435c.723-2.03 2.14-5.944 3.15-8.699a734.17 734.17 0 014.406-11.599c1.414-3.624 2.77-7.064 3.013-7.644.243-.58 1.053-2.426 1.8-4.1.747-1.676 1.358-3.157 1.358-3.294 0-.136.822-2.044 1.826-4.241 1.004-2.197 1.826-4.07 1.826-4.161 0-.091 1.196-2.743 2.658-5.892 1.462-3.15 3.788-8.1 5.169-11a4992.48 4992.48 0 005.869-12.389c1.848-3.915 4.475-9.431 5.838-12.258 1.362-2.827 2.637-5.14 2.833-5.14.195 0 1.228 2.836 2.295 6.302 1.067 3.466 1.94 6.66 1.94 7.097 0 .438.488 2.114 1.084 3.724.596 1.61 1.673 3.635 2.394 4.501 1.097 1.318 1.691 1.573 3.664 1.573 1.657 0 3.674-.625 6.814-2.112 2.453-1.162 6.008-3.094 7.901-4.294 1.893-1.2 5.477-3.814 7.965-5.81 2.488-1.995 7.39-6.643 10.893-10.328 3.504-3.685 8.995-10.262 12.204-14.616 3.21-4.354 7.323-10.289 9.142-13.189 1.818-2.899 5.265-8.794 7.659-13.098s5.951-11.066 7.904-15.026c1.954-3.959 3.867-8.029 4.251-9.044a146.088 146.088 0 012.68-6.59c.257-.58 1.185-3.072 2.062-5.536a594.95 594.95 0 002.609-7.496c.558-1.659 1.015-3.485 1.015-4.06 0-.574-.763-1.627-1.695-2.339-.933-.713-3.926-2.446-6.651-3.852-2.726-1.405-6.129-3.067-7.564-3.694-1.434-.626-4.275-1.735-6.314-2.463-2.038-.729-5.605-1.619-7.926-1.978l-4.221-.652-2.506 2.057a304.363 304.363 0 00-4.331 3.63c-1.004.865-3.821 3.601-6.26 6.081-2.438 2.48-5.501 5.69-6.805 7.133-1.304 1.443-4.598 5.353-7.319 8.687-2.722 3.335-6.59 8.198-8.599 10.808-2.007 2.61-4.829 6.406-6.268 8.435-1.441 2.03-4.864 7.131-7.607 11.336a1068.003 1068.003 0 00-8.711 13.59c-2.048 3.269-3.723 6.058-3.723 6.196 0 .138-.7 1.377-1.555 2.754-.856 1.376-1.56 2.176-1.565 1.777-.005-.398 1.963-4.787 4.375-9.753s5.603-11.282 7.092-14.037c1.488-2.755 3.477-6.432 4.419-8.172.943-1.74 2.296-4.231 3.007-5.536.711-1.305 3.909-7.142 7.108-12.972 3.257-5.938 7.534-12.865 9.724-15.748 2.627-3.46 3.903-5.602 3.892-6.534-.009-.763-.303-1.763-.652-2.223-.35-.459-1.809-1.503-3.244-2.32a399.08 399.08 0 00-6.877-3.778c-2.349-1.261-4.381-2.292-4.516-2.292-.135 0-1.871 2.313-3.859 5.14zm-574.903 1.188c1.545.291 3.438.787 4.206 1.102.768.316 1.968 1.446 2.666 2.512s1.49 3.24 1.761 4.829c.328 1.929.284 5.345-.132 10.271-.344 4.06-1.247 10.94-2.008 15.289-.76 4.35-1.605 9.214-1.876 10.808-.272 1.595-1.069 5.154-1.771 7.909a739.606 739.606 0 01-1.636 6.326c-.197.725-1.473 5.233-2.835 10.017-1.362 4.785-2.596 9.174-2.744 9.754-.147.58-1.919 6.511-3.936 13.18s-4.501 14.498-5.519 17.398c-1.019 2.9-2.225 6.324-2.681 7.608a72.06 72.06 0 01-1.841 4.584c-.558 1.237-1.014 2.383-1.014 2.547 0 .164-.455 1.304-1.01 2.533-.556 1.229-2.343 5.319-3.971 9.089a1368.676 1368.676 0 01-4.017 9.226c-.58 1.305-2.986 6.287-5.345 11.072-2.36 4.784-5.833 11.355-7.719 14.601-1.886 3.246-4.296 7.279-5.357 8.962-1.061 1.684-3.125 4.603-4.588 6.488-1.463 1.885-5.291 6.652-8.507 10.594-3.382 4.144-8.006 9.056-10.965 11.647-2.814 2.464-7.112 6.008-9.55 7.874-2.439 1.867-6.254 4.509-8.477 5.871-2.223 1.363-4.042 2.28-4.042 2.039 0-.242.468-3.499 1.04-7.238.572-3.74 1.276-8.163 1.565-9.831.288-1.667.742-4.276 1.009-5.799.266-1.522.85-4.784 1.296-7.249.447-2.465 1.426-7.328 2.177-10.808.752-3.48 1.552-7.157 1.78-8.172.228-1.015 1.276-5.166 2.329-9.226 1.052-4.06 2.108-8.093 2.344-8.963.237-.87.794-2.886 1.237-4.481.443-1.595 1.625-5.628 2.627-8.963 1.002-3.334 2.444-8.079 3.205-10.544.761-2.465 2.209-7.21 3.217-10.544 1.008-3.335 2.028-6.775 2.268-7.645.24-.87.783-2.768 1.208-4.217.424-1.45 1.399-4.653 2.165-7.118.767-2.465 1.82-5.905 2.341-7.644.521-1.74 3.297-10.281 6.17-18.98 2.872-8.699 5.723-17.645 6.334-19.879.611-2.235 1.688-6.268 2.395-8.963.706-2.695 1.645-6.62 2.087-8.722.441-2.102 1.105-6.802 1.476-10.444.591-5.812.828-6.776 1.935-7.877.693-.69 3.491-3.065 6.216-5.278 2.726-2.213 6.94-5.352 9.366-6.975 2.427-1.624 6.007-3.759 7.957-4.745 1.95-.986 4.307-2.035 5.239-2.333.932-.296 3.102-.845 4.823-1.218 1.722-.372 3.391-.705 3.711-.74.319-.035 1.845.175 3.391.466zm618.029 29.856a425.248 425.248 0 01-2.974 5.466 215.16 215.16 0 01-2.912 5.008c-.875 1.45-3.222 5.127-5.218 8.172-1.995 3.045-5.88 8.373-8.634 11.842-2.753 3.468-6.414 7.851-8.136 9.739-1.721 1.889-4.303 4.598-5.738 6.02-1.434 1.421-4.552 4.247-6.928 6.279-2.376 2.032-4.457 3.555-4.625 3.386-.167-.17 1.265-2.633 3.184-5.475 1.919-2.842 5.292-7.79 7.494-10.996a569.413 569.413 0 017.396-10.484c1.864-2.561 4.652-6.225 6.194-8.142 1.542-1.918 3.89-4.79 5.217-6.382a241.083 241.083 0 015.526-6.326c1.713-1.888 4.95-5.3 7.194-7.583 2.245-2.283 4.201-4.031 4.346-3.884.146.148-.478 1.66-1.386 3.36zm-201.332 11.397c-.01.362-.329 1.964-.709 3.558-.379 1.595-1.463 4.798-2.408 7.118-.945 2.32-3.343 7.42-5.33 11.335-1.987 3.914-5.621 10.198-8.075 13.963-2.454 3.764-5.892 8.747-7.639 11.071-1.746 2.325-3.652 4.707-4.234 5.293-.581.587-2.583 2.347-4.448 3.912-1.865 1.564-4.612 3.634-6.104 4.6-1.493.966-2.843 1.756-3 1.756-.157 0-.285-.579-.285-1.288 0-.708.801-3.759 1.779-6.779.979-3.021 3.179-8.227 4.889-11.568 1.709-3.342 4.346-7.943 5.859-10.223 1.513-2.281 4.918-6.875 7.566-10.21 2.648-3.335 6.294-7.724 8.102-9.753 1.808-2.03 5.468-5.886 8.133-8.568 2.664-2.682 5.087-4.876 5.384-4.876.296 0 .531.297.52.659zm80.812 11.335c.279 1.087.777 3.4 1.108 5.14.332 1.74.979 4.468 1.439 6.063.461 1.595.805 3.801.766 4.903-.039 1.101-.633 3.236-1.319 4.745-.686 1.507-3.28 6.151-5.765 10.318-2.484 4.167-4.517 7.699-4.517 7.847 0 .149-1.95 2.908-4.334 6.131-2.384 3.224-5.047 6.866-5.918 8.095-.871 1.228-1.7 2.117-1.84 1.975-.141-.142.036-2.215.394-4.607.358-2.391.922-5.415 1.253-6.72.332-1.304 1.054-4.507 1.604-7.117.55-2.61 1.264-5.813 1.587-7.117.323-1.305 1.162-4.389 1.865-6.854.704-2.465 1.905-6.142 2.67-8.172.764-2.03 2.414-5.826 3.667-8.435 1.252-2.61 2.854-5.516 3.56-6.459.706-.942 1.731-1.713 2.279-1.713.713 0 1.139.561 1.501 1.977zm-442.536 4.563c-.712.72-2.773 4.347-4.579 8.06a548.276 548.276 0 00-6.228 13.342c-1.62 3.625-4.372 10.077-6.116 14.338-1.743 4.262-4.202 10.905-5.462 14.762-1.261 3.858-3.003 9.505-3.871 12.55-.869 3.045-2.516 9.45-3.661 14.235-1.145 4.784-2.352 10.36-2.682 12.389-.331 2.03-.819 4.976-1.085 6.547-.266 1.57-.484 4.829-.484 7.241s.266 5.516.592 6.898c.325 1.381.853 3.087 1.173 3.79.321.703 1.402 1.771 2.404 2.372 1.001.602 2.645 1.387 3.651 1.744 1.007.357 4.253 1.051 7.213 1.542 5.135.852 5.555.849 9.128-.069 2.06-.529 4.347-1.265 5.082-1.636.734-.37 2.88-2.329 4.768-4.352 1.889-2.023 5.481-6.545 7.982-10.049 2.503-3.505 4.757-6.242 5.012-6.083.255.159.466 1.995.471 4.08.004 2.086.32 5.131.701 6.769.382 1.638 1.333 4.079 2.114 5.427.781 1.346 2.401 3.172 3.602 4.057 1.2.885 3.523 2.298 5.161 3.138 1.639.842 4.808 2.275 7.042 3.185 2.234.91 5.233 2.097 6.663 2.638 1.43.541 3.161.984 3.846.984 1.191 0 1.234-.122.965-2.768-.154-1.522-.698-5.733-1.208-9.358-.693-4.923-.932-10.057-.944-20.297-.01-8.08.263-16.089.665-19.507.375-3.19 1.003-7.698 1.398-10.017.394-2.32.945-5.404 1.224-6.854.28-1.45 1.104-4.89 1.831-7.645.729-2.754 1.937-6.788 2.686-8.962.749-2.175 2.987-8.057 4.973-13.071 1.986-5.013 3.611-9.467 3.611-9.896 0-.43-.529-.996-1.174-1.26-.645-.264-2.269-.877-3.607-1.361-1.338-.485-4.841-2.4-7.785-4.254-2.943-1.855-5.647-3.373-6.008-3.373-.36 0-1.105.652-1.654 1.45-.549.798-1.864 3.058-2.922 5.025a459.604 459.604 0 01-2.877 5.272l-5.386 9.605a3850.58 3850.58 0 01-6.377 11.335c-1.069 1.885-2.127 3.665-2.35 3.955-.224.29-.995 1.594-1.712 2.899-.718 1.305-3.583 6.151-6.368 10.768-2.785 4.618-6.118 9.891-7.408 11.718s-4.432 5.522-6.982 8.211c-4.246 4.478-4.638 4.769-4.658 3.448-.012-.793.252-2.573.586-3.954.333-1.382 1.249-4.529 2.035-6.993.785-2.465 4.521-12.548 8.301-22.407 3.78-9.859 8.528-21.958 10.55-26.888 2.023-4.929 4.364-10.479 5.203-12.332.84-1.853 1.417-3.658 1.283-4.011-.134-.353-.935-.781-1.78-.952-.845-.17-3.036-1.003-4.87-1.85-1.834-.847-4.507-2.074-5.942-2.727-1.434-.653-3.021-1.405-3.524-1.672-.688-.365-1.239-.159-2.212.824zm498.929 96.336c-4.446.266-10.043.62-12.436.786l-4.351.302-.789 1.925a237.507 237.507 0 01-1.708 4.035c-.507 1.16-1.989 4.956-3.294 8.435a1394.85 1394.85 0 00-3.721 10.028c-.74 2.037-1.346 4.112-1.346 4.614 0 .501.293.909.652.907.358-.002 5.346-.355 11.084-.784 5.738-.429 12.78-1.021 15.649-1.317 2.869-.294 7.798-.77 10.954-1.056 3.155-.286 6.559-.643 7.563-.793 1.004-.15 6.873-.507 13.041-.792 6.168-.286 15.088-.756 19.821-1.045 4.734-.289 12.011-.642 16.171-.783 4.16-.142 13.079-.37 19.821-.507 6.742-.138 14.136-.058 16.431.178 3.048.314 4.455.254 5.217-.222.573-.359 2.262-3.113 3.753-6.122 1.49-3.008 3.419-7.062 4.288-9.008.868-1.947 1.723-4.121 1.9-4.832.227-.913.002-1.613-.768-2.391-1.018-1.03-1.735-1.108-11.13-1.227-5.522-.069-12.388-.17-15.257-.223-2.869-.053-22.821-.208-44.338-.344-21.517-.137-42.76-.03-47.207.236zm-240.467 1.911c0 .22-1.599 3.363-3.554 6.986-1.955 3.622-5.153 9.077-7.107 12.122-1.953 3.045-5.103 7.552-6.999 10.017s-5.681 6.76-8.412 9.544c-2.731 2.785-6.55 6.392-8.488 8.016-1.937 1.625-6.397 4.948-9.91 7.386-3.514 2.437-8.816 5.906-11.782 7.708-2.967 1.802-5.49 3.179-5.608 3.061-.117-.119 1.223-2.924 2.977-6.235 1.755-3.31 4.907-8.629 7.005-11.818 2.098-3.19 6.268-8.884 9.266-12.653 2.998-3.77 8.12-9.474 11.382-12.677 3.262-3.202 7.574-7.126 9.583-8.719 2.008-1.594 5.529-4.094 7.824-5.557 2.295-1.462 4.525-2.817 4.955-3.011.431-.194 2.426-1.279 4.434-2.412 2.008-1.132 3.828-2.08 4.043-2.108a.342.342 0 01.391.35zm172.396 1.767c-3.156.24-10.785.805-16.953 1.255-6.168.45-14.032 1.063-17.474 1.361-3.443.299-10.015.891-14.606 1.316-4.59.425-10.575.996-13.301 1.27l-10.693 1.072c-3.156.316-10.433 1.06-16.17 1.655-5.738.595-12.428 1.277-14.867 1.516-2.438.239-7.837.818-11.997 1.287-4.16.47-9.559 1.081-11.997 1.359-2.439.278-6.781.745-9.65 1.038-2.869.293-5.696.641-6.282.773-.645.146-1.446 1.131-2.029 2.499-.53 1.242-2.219 4.868-3.754 8.057-1.535 3.19-3.323 6.749-3.974 7.909-.65 1.159-2.061 3.689-3.134 5.62-1.074 1.931-3.83 6.163-6.125 9.405-2.296 3.24-4.174 6.134-4.174 6.43 0 .296.528.408 1.174.247.645-.159 3.521-.756 6.39-1.326 2.869-.57 7.798-1.526 10.954-2.125 3.155-.599 8.554-1.582 11.997-2.186 3.443-.604 8.372-1.446 10.954-1.87a2643.878 2643.878 0 0117.735-2.848c1.722-.268 5.36-.842 8.085-1.274a458.07 458.07 0 019.129-1.344c2.295-.306 8.046-1.051 12.779-1.654l12.258-1.562c2.009-.255 6.703-.839 10.433-1.297 3.73-.457 9.246-1.063 12.258-1.345 3.012-.282 8.176-.738 11.476-1.012 3.299-.275 9.519-.875 13.823-1.334a783.883 783.883 0 0113.556-1.321c4.442-.377 5.88-.692 6.39-1.397.361-.499.658-1.229.658-1.621 0-.391 1.995-6.762 4.434-14.158 2.438-7.395 4.433-13.79 4.433-14.212 0-.591-.688-.75-2.999-.693-1.649.041-5.581.271-8.737.51zM459.817 498.72c-1.291.24-5.868 1.057-10.172 1.815-4.303.759-9.115 1.594-10.693 1.856-1.578.262-4.277.702-5.999.978-1.721.276-5.946 1-9.389 1.61-3.443.61-11.775 2.182-18.517 3.493-6.742 1.311-14.254 2.75-16.692 3.198a595.319 595.319 0 00-8.085 1.549 449.83 449.83 0 00-7.303 1.547c-2.008.448-4.356.946-5.216 1.108-.861.162-4.265.881-7.564 1.597a781.943 781.943 0 00-8.085 1.792c-1.148.268-6.415 1.458-11.706 2.644-5.291 1.185-13.271 3.12-17.735 4.299-4.464 1.179-8.937 2.318-9.941 2.531-1.005.213-4.056.997-6.782 1.742a12083.85 12083.85 0 00-18.256 5.002c-2.152.591-8.138 2.301-13.302 3.8a3035.728 3035.728 0 00-13.823 4.044 628.104 628.104 0 01-5.998 1.757 555.59 555.59 0 00-14.866 4.476c-2.439.776-5.843 1.846-7.564 2.378s-5.066 1.58-7.433 2.329l-8.476 2.68a8628.04 8628.04 0 01-8.216 2.588c-2.224.699-6.625 2.106-9.78 3.127-3.156 1.021-13.132 4.343-22.169 7.382-9.037 3.038-19.835 6.752-23.995 8.252-4.16 1.5-8.15 2.922-8.867 3.159-.718.238-3.652 1.305-6.521 2.371a1719.463 1719.463 0 01-9.65 3.55c-2.438.887-8.776 3.371-14.083 5.521-5.308 2.149-10.355 4.224-11.215 4.61-.861.386-4.382 1.829-7.825 3.206-3.442 1.378-7.668 3.154-9.389 3.945l-6.145 2.83c-1.657.764-3.108 1.389-3.223 1.389-.115 0-1.692.687-3.505 1.527-1.814.839-5.762 2.586-8.774 3.881a470.088 470.088 0 00-10.954 4.912c-3.013 1.407-10.054 4.873-15.649 7.703-5.594 2.829-13.106 6.715-16.692 8.635-3.586 1.921-7.928 4.366-9.65 5.434-1.721 1.068-4.501 2.647-6.177 3.509-1.677.862-3.266 1.977-3.532 2.477-.305.571-.275 1.843.08 3.427.311 1.385.776 3.467 1.033 4.626.257 1.16 1.088 4.719 1.846 7.909.758 3.189 2.543 9.832 3.967 14.762 1.424 4.929 3.409 11.335 4.41 14.234 1.003 2.9 2.022 5.747 2.264 6.327.243.58 1.102 2.715 1.909 4.745.807 2.03 2.179 5.114 3.05 6.854L20.35 713l2.869-.076c1.757-.047 5.092-.834 8.606-2.033 3.156-1.077 9.494-3.637 14.084-5.69 4.59-2.053 11.75-5.494 15.91-7.647 4.16-2.153 9.324-4.875 11.475-6.049 2.152-1.174 6.846-3.784 10.433-5.8 3.586-2.015 7.87-4.486 9.519-5.489 1.886-1.147 3.113-2.285 3.307-3.068.21-.842-.226-2.232-1.35-4.311-.913-1.688-2.027-3.483-2.476-3.991-.449-.508-1.464-.923-2.257-.923-.792 0-2.575.501-3.962 1.112-1.386.611-3.107 1.303-3.825 1.537-.717.234-4.351 1.513-8.076 2.843-3.725 1.329-7.246 2.412-7.825 2.405-.578-.006 1.648-1.432 4.947-3.169 3.3-1.737 9.637-4.966 14.084-7.175 4.447-2.208 10.08-4.959 12.52-6.113a1790.33 1790.33 0 017.108-3.345c1.471-.686 8.631-3.884 15.909-7.108 7.279-3.223 16.404-7.16 20.277-8.748 3.873-1.589 7.746-3.209 8.606-3.602.861-.393 2.856-1.219 4.434-1.834 1.578-.616 3.573-1.444 4.434-1.841.861-.397 4.734-1.945 8.607-3.44a1417.773 1417.773 0 0114.866-5.616c4.303-1.594 8.763-3.264 9.911-3.712 1.147-.448 6.077-2.227 10.954-3.955 4.877-1.727 15.792-5.468 24.255-8.312a3740.68 3740.68 0 0127.646-9.16c6.742-2.193 13.901-4.503 15.91-5.133 2.008-.63 5.294-1.69 7.302-2.357a1252.97 1252.97 0 019.39-3.054c3.155-1.013 8.554-2.717 11.997-3.787a5686.372 5686.372 0 0014.605-4.567c4.59-1.442 8.933-2.833 9.65-3.09.717-.257 8.111-2.478 16.431-4.936 8.32-2.458 18.159-5.327 21.865-6.375a922.427 922.427 0 0114.866-4.031 6947.71 6947.71 0 0013.084-3.432 1388.72 1388.72 0 0110.954-2.823 670.07 670.07 0 019.389-2.308 3580.99 3580.99 0 0011.476-2.716c4.447-1.059 9.963-2.366 12.258-2.905 2.295-.539 5.875-1.368 7.955-1.843 2.874-.656 3.782-1.077 3.782-1.757 0-.493.587-2.787 1.303-5.099a537.655 537.655 0 012.17-6.839c.476-1.449 1.533-4.125 2.348-5.944s1.481-3.425 1.481-3.567c0-.142 1.529-3.358 3.397-7.147 1.868-3.789 4.45-8.859 5.738-11.267 1.287-2.407 2.341-4.642 2.341-4.965 0-.323-.645-.56-1.434-.525-.79.033-2.491.257-3.782.497z" fill="#013C55"/></svg>