<svg width="56" height="56" fill="none" xmlns="http://www.w3.org/2000/svg"><rect width="56" height="56" rx="8" fill="#013C55"/><path fill-rule="evenodd" clip-rule="evenodd" d="M9.42 5.708c-.548.2-1.113.716-1.396 1.274l-.184.361.02 21.529.019 21.528 7.05-18.974c3.879-10.435 7.065-19.045 7.081-19.133.026-.14-.675-.579-5.31-3.329-2.936-1.742-5.466-3.213-5.622-3.269-.373-.133-1.28-.126-1.658.013zm12.104 20.568l-3.913 11.196 1.347.048c.741.026 4.036.052 7.32.057l5.974.01-.035-.172c-.09-.435-6.69-22.335-6.732-22.335-.026 0-1.808 5.038-3.96 11.196zm9.864-8.995c-.005.17 6.343 18.773 6.407 18.774.042 0 2.331-1.228 5.088-2.73 4.696-2.56 5.026-2.753 5.248-3.074.577-.838.685-1.772.298-2.578-.121-.252-.337-.566-.48-.696-.225-.207-16.387-9.753-16.511-9.753-.026 0-.049.025-.05.057zM16.072 41.93c-.81 1.904-2.91 7.216-2.853 7.216.079 0 13.63-7.328 13.757-7.439.04-.035-2.37-.064-5.355-.064h-5.427l-.122.287z" fill="#FCFCFC"/></svg>