<svg width="56" height="56" fill="none" xmlns="http://www.w3.org/2000/svg"><rect width="56" height="56" rx="10" fill="#013C55"/><path fill-rule="evenodd" clip-rule="evenodd" d="M35.67 23.772l-2.459 1.37v5.561l.09-.049c.37-.203 4.832-2.583 4.843-2.582.008 0 1.108.585 2.444 1.3 1.335.715 2.439 1.304 2.452 1.31.022.007.023-.202.02-2.77l-.004-2.778-2.456-1.368a464.175 464.175 0 00-2.463-1.366c-.004 0-1.114.618-2.466 1.372zm-20.28.036l-2.452 1.365v2.778c0 1.528.001 2.779.004 2.779s1.087-.58 2.41-1.287c1.322-.707 2.43-1.298 2.46-1.313l.058-.028 2.404 1.286 2.459 1.314.056.028v-5.557l-2.455-1.366a201.11 201.11 0 00-2.474-1.365c-.01 0-1.122.615-2.47 1.366zm27.959 4.25v2.78l2.445 1.362c1.344.749 2.458 1.361 2.475 1.361.017 0 1.134-.613 2.481-1.362l2.45-1.363v-2.778c0-1.528-.002-2.778-.005-2.778s-1.087.578-2.41 1.286c-1.321.707-2.43 1.299-2.462 1.314l-.059.029-2.368-1.267c-1.303-.696-2.409-1.289-2.458-1.316l-.09-.049v2.781zM2.8 28.1v2.779l2.458 1.367c2.1 1.169 2.462 1.365 2.487 1.353.017-.007 1.126-.624 2.465-1.37l2.434-1.356.004-2.777c.003-2.641.002-2.776-.021-2.768-.02.008-4.747 2.53-4.873 2.601-.034.02-.135-.033-2.49-1.293a933.896 933.896 0 00-2.46-1.314c-.002 0-.004 1.25-.004 2.778zm20.264-.004l.003 2.777 2.434 1.356c1.34.746 2.448 1.363 2.465 1.37.026.012.39-.185 2.488-1.353l2.457-1.367V28.1c0-1.528-.001-2.778-.004-2.778-.002 0-1.109.591-2.459 1.314-2.355 1.26-2.457 1.312-2.49 1.293-.125-.07-4.853-2.593-4.873-2.6-.024-.01-.025.126-.021 2.767z" fill="#FCFCFC"/></svg>