<svg width="56" height="56" fill="none" xmlns="http://www.w3.org/2000/svg"><rect width="56" height="56" rx="10" fill="#013C55"/><path d="M20.024 49.755c.34 0 .587.075.742.225.158.146.237.35.237.608 0 .118-.017.23-.052.337a.741.741 0 01-.174.284.805.805 0 01-.314.194c-.13.047-.292.071-.484.071h-.24v.949h-.558v-2.668h.843zm-.03.464h-.255v.792h.185a.804.804 0 00.273-.042.355.355 0 00.178-.13.395.395 0 00.063-.232c0-.132-.036-.229-.108-.291-.071-.065-.183-.097-.336-.097zm3.612-.464v2.197h.35V53.2h-.539v-.777h-1.652v.777h-.539v-1.248h.203c.07-.14.136-.286.2-.44.064-.155.123-.32.177-.498.057-.176.107-.368.152-.575.044-.21.081-.437.11-.684h1.538zm-1.094.471c-.017.13-.042.268-.074.415-.032.144-.07.292-.114.445a6.747 6.747 0 01-.14.448 5.483 5.483 0 01-.167.418h1.03v-1.726h-.535zm4.998 2.197h-.635l-.957-1.352v1.352h-.559v-2.668h.558v1.293l.946-1.293h.595l-.96 1.282 1.012 1.386zm.59-2.668h.503v1.29c0 .062 0 .131-.003.208l-.008.228a17.593 17.593 0 01-.014.3h.01l1.22-2.026h.67v2.668h-.5v-1.282a78.615 78.615 0 01.011-.456c.005-.074.009-.139.011-.194.005-.057.009-.094.012-.112h-.015l-1.224 2.044h-.672v-2.668zm5.464 2.668h-.558v-1.15H31.96v1.15h-.558v-2.668h.558v1.046h1.046v-1.046h.558v2.668zm3.317-1.337c0 .206-.026.394-.078.563-.05.167-.125.312-.229.434a.966.966 0 01-.392.28 1.466 1.466 0 01-.558.097c-.214 0-.401-.032-.561-.097a1.06 1.06 0 01-.392-.28 1.248 1.248 0 01-.23-.437 2.015 2.015 0 01-.073-.565 1.8 1.8 0 01.133-.72c.091-.205.23-.363.414-.475.187-.114.425-.172.713-.172.286 0 .521.058.706.172.185.112.321.272.41.479.091.204.137.444.137.72zm-1.925 0c0 .186.023.347.07.481.046.135.12.238.218.31a.628.628 0 00.38.109c.16 0 .289-.036.385-.108a.607.607 0 00.214-.31 1.47 1.47 0 00.07-.482c0-.282-.051-.502-.155-.662-.103-.16-.273-.24-.51-.24a.636.636 0 00-.384.11.626.626 0 00-.218.31c-.047.134-.07.295-.07.482z" fill="#FCFCFC"/><path fill-rule="evenodd" clip-rule="evenodd" d="M27.82 3.265c-2.72 7.502-3.918 17.52-3.29 27.483.36 5.705 1.334 11.144 2.812 15.685.258.794.637 1.858.661 1.858.017 0 .307-.8.533-1.476 2.472-7.374 3.537-16.968 2.938-26.472-.36-5.705-1.335-11.144-2.812-15.685C28.403 3.864 28.025 2.8 28 2.8c-.007 0-.088.21-.18.465zm-11.433 18.03c-.006.041-.024.216-.04.388-.343 3.749.144 8.292 1.372 12.81.943 3.468 2.26 6.666 3.837 9.31.29.488.878 1.383.895 1.364.014-.015.06-.495.095-.973.08-1.12.08-2.658 0-3.95-.24-3.842-1.148-8.08-2.547-11.882-.86-2.333-1.86-4.415-3.001-6.239-.18-.287-.546-.843-.585-.887-.008-.009-.02.017-.026.059zm23.042.188c-.238.35-.518.793-.781 1.237-3.534 5.949-5.663 14.799-5.18 21.522.034.466.078.919.092.932.011.012.416-.597.685-1.029 2.192-3.525 3.978-8.39 4.869-13.26.324-1.772.498-3.203.612-5.036.034-.537.046-2.338.02-2.904-.035-.776-.111-1.702-.139-1.702-.008 0-.088.108-.178.24z" fill="#FCFCFC"/></svg>