<svg width="56" height="56" fill="none" xmlns="http://www.w3.org/2000/svg"><rect width="56" height="56" rx="10" fill="#013C55"/><path fill-rule="evenodd" clip-rule="evenodd" d="M28.04 3.46c-2.765 7.443-3.985 17.382-3.346 27.266.366 5.66 1.358 11.056 2.86 15.561.263.788.649 1.843.673 1.843.018 0 .312-.795.543-1.465 2.514-7.315 3.597-16.833 2.988-26.26-.366-5.66-1.358-11.057-2.86-15.562C28.634 4.056 28.248 3 28.224 3c-.008 0-.09.207-.185.46zM16.41 21.349a11.83 11.83 0 00-.04.385c-.349 3.719.146 8.226 1.396 12.709.96 3.44 2.3 6.612 3.903 9.235.295.484.893 1.373.91 1.354.014-.015.062-.491.097-.965a31.335 31.335 0 000-3.92c-.243-3.81-1.168-8.015-2.591-11.787-.874-2.315-1.893-4.38-3.053-6.19a21.724 21.724 0 00-.595-.88c-.008-.008-.02.018-.026.06zm23.441.186c-.243.349-.527.788-.795 1.228-3.595 5.902-5.761 14.681-5.269 21.351.034.462.08.912.093.925.011.012.424-.592.697-1.021 2.23-3.497 4.047-8.323 4.953-13.155.33-1.758.507-3.177.623-4.996.034-.533.047-2.319.02-2.881-.036-.77-.113-1.688-.141-1.688-.008 0-.09.107-.181.237z" fill="#FCFCFC"/><path d="M12.857 49.583c.346 0 .598.074.756.222.16.146.24.347.24.604 0 .117-.017.228-.052.334a.73.73 0 01-.177.281.821.821 0 01-.32.193c-.132.047-.296.07-.492.07h-.244v.942H12v-2.646h.857zm-.03.46h-.26v.785h.189c.107 0 .2-.013.278-.04a.36.36 0 00.18-.13.385.385 0 00.064-.23c0-.131-.036-.227-.109-.29-.073-.063-.187-.096-.342-.096zm3.674-.46v2.18h.357V53h-.549v-.77h-1.68V53h-.549v-1.238h.207c.07-.138.138-.284.203-.437.065-.153.125-.318.18-.493.058-.176.11-.366.155-.571.045-.208.082-.434.112-.678h1.564zm-1.113.467a4.968 4.968 0 01-.075.41 6.81 6.81 0 01-.116.442c-.043.151-.09.3-.143.445a5.306 5.306 0 01-.17.415h1.05V50.05h-.546zm5.021 2.18h-.568v-2.18h-.658l-.048.37c-.015.134-.033.27-.053.408-.018.136-.036.266-.056.389-.02.121-.04.229-.06.323a1.615 1.615 0 01-.132.393.57.57 0 01-.222.248.688.688 0 01-.364.085.871.871 0 01-.271-.04v-.46c.032.01.064.018.094.026.032.007.067.01.105.01.05 0 .091-.015.124-.047a.41.41 0 00.087-.163c.025-.08.05-.188.075-.327.012-.059.027-.143.045-.252l.06-.389a22.08 22.08 0 00.147-1.041h1.695v2.646zm.94-2.647h.511v1.278c0 .062 0 .132-.003.208a206.356 206.356 0 01-.015.415 1.722 1.722 0 01-.008.108h.011l1.241-2.01h.68v2.647h-.507v-1.271a41.654 41.654 0 01.011-.452c.005-.075.009-.139.011-.193.005-.057.01-.094.012-.111h-.015l-1.245 2.027h-.684v-2.646zm4.392 2.646h-.568v-2.18h-.73v-.466h2.027v.467h-.73v2.18zm2.023-1.375l-.902-1.271h.586l.868 1.282v-1.282h.53v1.282l.869-1.282h.586l-.902 1.27.955 1.376h-.61l-.898-1.342v1.342h-.53v-1.342l-.898 1.342h-.61l.956-1.375zm4.516.6a2.73 2.73 0 01-.24.438.819.819 0 01-.32.278c-.13.064-.301.096-.512.096a1.687 1.687 0 01-.428-.056v-.482c.06.025.126.043.2.052.072.01.14.015.202.015a.42.42 0 00.2-.04.314.314 0 00.123-.111.719.719 0 00.08-.16l-.93-1.901h.602l.5 1.145a6.528 6.528 0 01.098.219c.018.042.031.079.041.11h.02l.037-.107.052-.133.053-.122.466-1.112h.587l-.831 1.871zm2.29-1.871c.345 0 .597.074.755.222.16.146.24.347.24.604 0 .117-.017.228-.052.334a.732.732 0 01-.177.281.823.823 0 01-.32.193c-.132.047-.296.07-.492.07h-.244v.942h-.568v-2.646h.857zm-.03.46h-.26v.785h.188c.108 0 .2-.013.278-.04a.36.36 0 00.18-.13.385.385 0 00.064-.23c0-.131-.036-.227-.108-.29-.073-.063-.187-.096-.343-.096zm3.995 2.186h-.567v-1.142h-1.064v1.142h-.568v-2.646h.568v1.038h1.063v-1.038h.568v2.646zm2.581 0l-.195-.63h-.977l-.196.63h-.613l.948-2.658h.695l.951 2.658h-.613zm-.526-1.716a18.559 18.559 0 01-.158-.53 10.66 10.66 0 01-.154.53l-.192.615h.7l-.196-.615zm3.866 1.716h-.568v-2.18h-.657l-.05.371c-.014.134-.032.27-.052.408-.017.136-.036.266-.056.389-.02.121-.04.229-.06.323a1.607 1.607 0 01-.132.393.568.568 0 01-.222.248.688.688 0 01-.364.085.871.871 0 01-.271-.04v-.46c.032.01.064.018.094.026.032.007.068.01.105.01.05 0 .092-.015.124-.047a.41.41 0 00.087-.163c.025-.08.05-.188.075-.327.012-.059.027-.143.045-.252l.06-.389a20.956 20.956 0 00.147-1.041h1.695v2.646z" fill="#FCFCFC"/></svg>