<svg width="56" height="56" fill="none" xmlns="http://www.w3.org/2000/svg"><rect width="56" height="56" rx="10" fill="#013C55"/><path fill-rule="evenodd" clip-rule="evenodd" d="M51.787 6.6c-.277.238-.54.411-.584.384-.044-.028-.056.011-.028.086.047.122-.048.178-.248.146-.036-.005-.056.023-.044.063.012.04-.738.716-1.667 1.503a86.121 86.121 0 00-2.005 1.734c-.198.19-.358.279-.425.237-.064-.04-.086-.032-.055.02.03.048-.203.3-.517.561-.314.26-.615.515-.668.565-.053.05-.35.302-.66.56-.31.258-.582.496-.606.527a3.502 3.502 0 01-.355.295l-.311.236-.165-.187c-.157-.179-1.365-1.282-1.901-1.737-1.006-.852-3.374-2.242-5.064-2.97-1.865-.804-4.404-1.367-6.753-1.497-6.188-.345-12.07 1.481-16.357 5.076-.706.592-2.114 2.002-2.559 2.563-.181.229-.37.39-.42.36-.051-.033-.064-.015-.031.04.032.053-.112.325-.32.605a21.544 21.544 0 00-1.172 1.78c-.101.168-.384.72-.628 1.226-1.42 2.945-2.072 5.844-2.068 9.204.003 2.849.352 4.931 1.227 7.32.337.918 1.233 2.843 1.368 2.936.035.024.133.181.217.35.195.393 1.292 1.958 1.664 2.374l.284.319-.497.398a15.91 15.91 0 00-.67.562c-.096.09-.563.49-1.04.888-.476.398-.944.793-1.039.878-.095.084-.426.369-.736.632-.31.264-.582.5-.606.524-.024.025-.258.22-.52.435-.262.214-.634.53-.827.7-.604.534-.844.7-.933.644-.047-.03-.06-.013-.03.037.03.05-.236.335-.593.633-.356.298-.647.59-.645.646.003.122.791 1.024.894 1.024.039 0 .603-.464 1.254-1.03a87.097 87.097 0 011.798-1.528c.339-.273.67-.55.736-.615.108-.106.561-.494 2.104-1.804.244-.206.715-.597 1.049-.868.333-.27.749-.63.924-.797l.317-.304.852.738c1.508 1.309 2.515 1.973 4.402 2.906 3.217 1.59 6.393 2.275 10.522 2.271 4.272-.004 7.664-.797 11.132-2.602 2.455-1.278 4.715-3.173 6.345-5.322 2.005-2.642 3.322-5.924 3.793-9.452.207-1.55.208-4.408.002-5.96-.468-3.54-1.862-6.997-3.93-9.753-.312-.416-.359-.525-.265-.619.15-.15.959-.843 2.972-2.544a225.81 225.81 0 001.905-1.622c.143-.128.591-.505.996-.839.405-.334.756-.631.78-.661.023-.03.393-.348.822-.706.9-.751.996-.84.996-.923 0-.078-.809-1.093-.866-1.086-.024.003-.27.2-.547.44zM30.209 8.601c.658.098 1.451.284 1.905.446.428.153.914.318 1.08.368.652.193 1.832.863 3.205 1.82 1.262.88 3.058 2.894 3.94 4.42l.248.428-.301.272c-.42.38-1.11.967-1.419 1.205-.143.11-.28.223-.303.25-.024.027-.276.245-.562.485-.285.24-.655.56-.822.712a24.74 24.74 0 01-.833.7c-.29.235-.764.635-1.052.89-.288.255-.678.59-.867.745-.189.155-.684.578-1.102.94-.417.361-.883.756-1.034.876-.151.12-.62.515-1.04.877-.422.361-.934.795-1.139.964-.864.712-2.25 1.886-2.331 1.974a7.659 7.659 0 01-.52.436c-.238.187-.61.5-.827.696-.842.76-1.054.924-1.132.875-.044-.027-.07-.015-.056.028.023.077-.992.97-3.57 3.14-.5.42-1.05.888-1.221 1.037-.171.15-.386.332-.477.404-.209.165-1.189.993-1.247 1.052-.086.09-2.129 1.812-2.895 2.443-.432.356-.931.787-1.109.959-.178.171-.34.294-.362.273-.131-.134-.652-1.26-1.049-2.273-.515-1.313-.986-3.047-1.226-4.514-.226-1.382-.225-5.402.001-6.969.207-1.432.442-2.61.712-3.565 1.247-4.42 3.39-7.805 6.274-9.916 1.714-1.254 3.899-2.174 5.89-2.478 1.42-.218 3.78-.218 5.24 0zm11.239 9.145c.309.665.778 1.962 1.057 2.922.625 2.148.893 4.022.967 6.741.163 6.06-1.073 10.854-3.68 14.264-.212.276-.424.477-.473.447-.053-.034-.062-.012-.022.053.082.136-1.128 1.338-1.989 1.975-1.836 1.36-4.026 2.245-6.495 2.627-4.397.678-7.701.081-10.782-1.95-.758-.5-2.156-1.689-2.801-2.38-.49-.526-1.83-2.265-2.086-2.706-.044-.074-.002-.163.116-.246.1-.072.504-.408.897-.748.895-.775 1.087-.939 2.817-2.396 3.74-3.153 6.734-5.689 6.773-5.738.024-.03.394-.347.823-.705a67.376 67.376 0 001.137-.964c.232-.191 1.163-.977 1.417-1.197 1.21-1.045 2.701-2.31 2.945-2.499.167-.129.405-.326.53-.438.126-.112.416-.361.647-.554.23-.193.927-.785 1.548-1.316 2.014-1.72 3.181-2.712 3.457-2.933.148-.12.662-.553 1.142-.965.48-.41 1.04-.885 1.243-1.053a7.96 7.96 0 00.47-.413c.151-.162.198-.138.342.172z" fill="#FCFCFC"/></svg>