<svg width="56" height="56" fill="none" xmlns="http://www.w3.org/2000/svg"><path d="M4 5l48.5-1L51 50.5 5 52 4 5z" fill="#FCFCFC"/><path fill-rule="evenodd" clip-rule="evenodd" d="M7.539.24c-2.626.643-5.356 2.806-6.49 5.145C-.063 7.673-.035 7.045.02 28.47l.05 19.587.431 1.21c1.15 3.229 3.79 5.672 6.934 6.413 1.805.426 39.543.427 41.176.002 3.368-.878 6.193-3.705 7.07-7.074.418-1.607.426-39.644.009-41.214-.842-3.166-3.19-5.736-6.327-6.928L48.248.042 28.438.008C11.804-.02 8.453.018 7.539.241zm30.385 9.773c3.63 1.642 3.835 5.855.452 9.244l-1.161 1.163h2.843c2.186 0 2.892.06 3.055.256.149.18.198 1.505.163 4.42l-.05 4.164-2.047.186-.047 7.445c-.042 6.734-.077 7.466-.36 7.677-.245.18-3.135.232-12.96.232-11.505 0-12.675-.027-12.985-.308-.318-.288-.34-.776-.34-7.723v-7.416h-.893c-.49 0-.993-.1-1.116-.223-.316-.316-.316-8.17 0-8.486.155-.155 1.11-.224 3.097-.224h2.874l-.74-.537c-1.62-1.173-2.393-2.6-2.605-4.804-.19-1.979.85-3.567 2.963-4.527 1.946-.884 4.401-.196 6.238 1.747.882.933 2.535 3.863 3.102 5.5l.22.636.596-1.473c1.483-3.671 3.432-6.16 5.423-6.924 1.366-.524 3.152-.535 4.278-.025zm-3.723 2.934c-.38.2-.886.735-1.222 1.29-.616 1.016-2.196 4.87-2.055 5.011.123.122 2.463-.747 4.084-1.516.768-.365 1.637-.944 1.947-1.297 1.014-1.155.93-2.758-.187-3.54-.559-.392-1.775-.367-2.567.052zm-15.024.31a1.69 1.69 0 00-.883.917c-.36.862-.345 1.14.115 2.091.322.666.581.892 1.535 1.34 1.42.666 4.201 1.589 4.348 1.443.146-.147-1.374-3.937-1.937-4.829-.71-1.127-1.943-1.5-3.178-.962zM14.86 26.934h10.603v-3.908H14.859v3.908zm15.253 0h10.789v-3.908H30.111v3.908zm-13.02 15.26h8.37v-12.84h-8.37v12.84zm13.02 0h8.556v-12.84h-8.556v12.84z" fill="#013C55"/></svg>