<svg width="930" height="713" viewBox="0 0 930 713" fill="none" xmlns="http://www.w3.org/2000/svg">
<path d="M627.371 593.562L620.311 613H617.425L625.555 591.672H627.415L627.371 593.562ZM633.289 613L626.214 593.562L626.17 591.672H628.03L636.189 613H633.289ZM632.923 605.104V607.419H620.94V605.104H632.923Z" fill="#013C55"/>
<path d="M649.912 604.636H644.214V602.336H649.912C651.016 602.336 651.909 602.16 652.593 601.809C653.276 601.457 653.774 600.969 654.087 600.344C654.409 599.719 654.57 599.006 654.57 598.205C654.57 597.473 654.409 596.784 654.087 596.14C653.774 595.495 653.276 594.978 652.593 594.587C651.909 594.187 651.016 593.986 649.912 593.986H644.873V613H642.046V591.672H649.912C651.523 591.672 652.886 591.95 653.999 592.507C655.112 593.063 655.957 593.835 656.533 594.821C657.109 595.798 657.397 596.916 657.397 598.176C657.397 599.543 657.109 600.71 656.533 601.677C655.957 602.644 655.112 603.381 653.999 603.889C652.886 604.387 651.523 604.636 649.912 604.636Z" fill="#013C55"/>
<path d="M671.853 591.672V613H669.069V591.672H671.853ZM678.708 591.672V593.986H662.229V591.672H678.708Z" fill="#013C55"/>
<path d="M686.703 602.819V605.046H679.555V602.819H686.703Z" fill="#013C55"/>
<path d="M695.724 591.672V613H692.896V591.672H695.724ZM708.863 591.672L699.605 603.405H694.596L694.156 601.062H697.921L705.362 591.672H708.863ZM706.021 613L698.009 603.039L699.591 600.563L709.479 613H706.021Z" fill="#013C55"/>
<path d="M730.994 601.662V603.01C730.994 604.611 730.794 606.047 730.394 607.316C729.993 608.586 729.417 609.665 728.665 610.554C727.913 611.442 727.01 612.121 725.955 612.59C724.91 613.059 723.738 613.293 722.439 613.293C721.18 613.293 720.022 613.059 718.968 612.59C717.923 612.121 717.015 611.442 716.243 610.554C715.481 609.665 714.891 608.586 714.471 607.316C714.051 606.047 713.841 604.611 713.841 603.01V601.662C713.841 600.061 714.046 598.63 714.456 597.37C714.876 596.101 715.467 595.021 716.229 594.133C716.99 593.234 717.894 592.551 718.938 592.082C719.993 591.613 721.15 591.379 722.41 591.379C723.709 591.379 724.881 591.613 725.926 592.082C726.98 592.551 727.884 593.234 728.636 594.133C729.397 595.021 729.979 596.101 730.379 597.37C730.789 598.63 730.994 600.061 730.994 601.662ZM728.196 603.01V601.633C728.196 600.363 728.064 599.24 727.801 598.264C727.547 597.287 727.171 596.467 726.673 595.803C726.175 595.139 725.564 594.636 724.842 594.294C724.129 593.952 723.318 593.781 722.41 593.781C721.531 593.781 720.735 593.952 720.022 594.294C719.319 594.636 718.714 595.139 718.206 595.803C717.708 596.467 717.322 597.287 717.049 598.264C716.775 599.24 716.639 600.363 716.639 601.633V603.01C716.639 604.289 716.775 605.422 717.049 606.408C717.322 607.385 717.713 608.21 718.221 608.884C718.738 609.548 719.349 610.051 720.052 610.393C720.765 610.734 721.561 610.905 722.439 610.905C723.357 610.905 724.173 610.734 724.886 610.393C725.599 610.051 726.199 609.548 726.688 608.884C727.186 608.21 727.562 607.385 727.815 606.408C728.069 605.422 728.196 604.289 728.196 603.01Z" fill="#013C55"/>
<path d="M752.158 600.842V603.142H740.615V600.842H752.158ZM741.055 591.672V613H738.228V591.672H741.055ZM754.619 591.672V613H751.807V591.672H754.619Z" fill="#013C55"/>
<path d="M775.871 591.672V593.986H765.588V613H762.775V591.672H775.871Z" fill="#013C55"/>
<path d="M790.209 604.636H784.511V602.336H790.209C791.312 602.336 792.206 602.16 792.89 601.809C793.573 601.457 794.071 600.969 794.384 600.344C794.706 599.719 794.867 599.006 794.867 598.205C794.867 597.473 794.706 596.784 794.384 596.14C794.071 595.495 793.573 594.978 792.89 594.587C792.206 594.187 791.312 593.986 790.209 593.986H785.17V613H782.343V591.672H790.209C791.82 591.672 793.183 591.95 794.296 592.507C795.409 593.063 796.254 593.835 796.83 594.821C797.406 595.798 797.694 596.916 797.694 598.176C797.694 599.543 797.406 600.71 796.83 601.677C796.254 602.644 795.409 603.381 794.296 603.889C793.183 604.387 791.82 604.636 790.209 604.636Z" fill="#013C55"/>
<path d="M817.818 610.7V613H806.524V610.7H817.818ZM807.096 591.672V613H804.269V591.672H807.096ZM816.324 600.842V603.142H806.524V600.842H816.324ZM817.672 591.672V593.986H806.524V591.672H817.672Z" fill="#013C55"/>
<path d="M837.547 591.672V593.986H827.264V613H824.451V591.672H837.547Z" fill="#013C55"/>
<path d="M849.072 593.562L842.012 613H839.126L847.256 591.672H849.116L849.072 593.562ZM854.99 613L847.915 593.562L847.871 591.672H849.731L857.891 613H854.99ZM854.624 605.104V607.419H842.642V605.104H854.624Z" fill="#013C55"/>
<path d="M882.248 610.627L881.984 618.142H879.45V613H877.355V610.627H882.248ZM863.835 613V591.672H866.677V610.7H877.18V591.672H880.007V613H863.835Z" fill="#013C55"/>
<path d="M891.635 608.107L902.138 591.672H904.965V613H902.138V596.55L891.635 613H888.822V591.672H891.635V608.107Z" fill="#013C55"/>
<path d="M924.942 604.694H918.951L917.56 604.123C916.017 603.635 914.83 602.888 914 601.882C913.17 600.866 912.755 599.606 912.755 598.103C912.755 596.726 913.058 595.559 913.663 594.602C914.278 593.645 915.147 592.917 916.271 592.419C917.403 591.921 918.741 591.672 920.284 591.672H927.11V613H924.283V593.986H920.284C918.722 593.986 917.545 594.357 916.754 595.1C915.973 595.842 915.582 596.843 915.582 598.103C915.582 598.923 915.753 599.655 916.095 600.3C916.446 600.944 916.964 601.452 917.647 601.823C918.331 602.194 919.181 602.38 920.196 602.38H924.957L924.942 604.694ZM920.138 603.229L914.952 613H911.949L917.281 603.229H920.138Z" fill="#013C55"/>
<path fill-rule="evenodd" clip-rule="evenodd" d="M411.045 0.527298C409.611 0.784051 406.794 1.37031 404.786 1.83004C402.778 2.2903 398.435 3.56827 395.136 4.66962C391.837 5.77149 387.611 7.3099 385.747 8.0886C383.882 8.86729 379.841 10.7842 376.766 12.349C373.692 13.9133 369.584 16.1882 367.638 17.4045C365.692 18.6202 361.752 21.1661 358.883 23.062C356.014 24.9573 351.202 28.3948 348.19 30.7008C345.177 33.0063 340.013 37.1702 336.714 39.9539C333.415 42.7371 325.884 49.8793 319.98 55.8252C314.075 61.7711 307.249 69.1373 304.809 72.1946C302.37 75.2525 298.986 79.7523 297.288 82.1948C295.591 84.6374 293.967 87.0352 293.68 87.5223C293.393 88.01 291.924 90.4763 290.415 93.0027C288.905 95.5291 286.073 100.831 284.12 104.786C282.167 108.741 279.381 114.942 277.928 118.566C276.476 122.191 274.447 127.766 273.419 130.956C272.391 134.145 270.742 139.721 269.754 143.345C268.766 146.97 267.454 152.045 266.838 154.623C266.222 157.201 265.469 160.522 265.163 162.004C264.858 163.485 264.425 165.765 264.201 167.07C263.977 168.375 263.403 171.696 262.926 174.451C262.449 177.206 261.832 181.239 261.555 183.414C261.277 185.588 260.718 191.757 260.312 197.121C259.763 204.357 259.697 208.916 260.053 214.783C260.318 219.132 260.792 224.708 261.105 227.172C261.419 229.637 262.019 233.789 262.438 236.399C262.858 239.008 263.427 242.211 263.702 243.516C263.978 244.821 264.684 248.024 265.274 250.633C265.863 253.243 266.702 256.92 267.138 258.805C267.574 260.69 268.131 262.825 268.375 263.55C268.62 264.275 269.22 266.292 269.71 268.031C270.2 269.771 271.491 273.923 272.579 277.258C273.667 280.592 275.314 285.456 276.239 288.066C277.164 290.675 279.197 296.013 280.757 299.928C282.316 303.842 283.957 307.876 284.404 308.891C284.85 309.905 287.166 314.81 289.551 319.789C291.936 324.769 294.778 330.284 295.869 332.047C296.959 333.809 298.108 335.251 298.423 335.251C298.738 335.251 299.438 334.757 299.979 334.153C300.52 333.549 303.349 325.897 306.266 317.15C309.182 308.403 312.626 298.28 313.918 294.656C315.211 291.031 316.556 287.235 316.908 286.22C317.259 285.205 320.822 275.716 324.825 265.132C328.828 254.548 332.922 243.635 333.923 240.88C334.925 238.125 336.108 234.922 336.552 233.763C336.997 232.603 337.544 231.179 337.767 230.599C337.99 230.019 339.625 225.867 341.4 221.373C343.174 216.879 344.838 212.727 345.096 212.147C345.353 211.567 347.067 207.178 348.904 202.393C350.742 197.609 354.055 189.305 356.268 183.941C358.48 178.576 360.712 173.238 361.228 172.078C361.744 170.919 362.801 168.435 363.578 166.559C364.355 164.683 365.578 162.014 366.295 160.628C367.013 159.242 367.71 158.107 367.845 158.107C367.98 158.107 370.309 160.177 373.021 162.707C375.732 165.237 379.059 167.922 380.414 168.673C381.769 169.424 383.979 170.347 385.325 170.723C387.293 171.273 388.315 171.28 390.541 170.757C392.064 170.4 394.484 169.436 395.918 168.616C397.353 167.796 400.404 165.593 402.699 163.722C404.994 161.849 409.454 157.626 412.61 154.335C415.766 151.045 419.524 147.048 420.961 145.454C422.398 143.859 424.861 141.012 426.435 139.128C428.008 137.243 429.423 135.582 429.578 135.437C429.734 135.292 431.271 133.394 432.994 131.219C434.717 129.045 437.558 125.349 439.307 123.006C441.057 120.665 444.942 114.971 447.943 110.353C450.943 105.737 454.179 100.536 455.135 98.7958C456.09 97.0559 457.525 94.3814 458.323 92.8519C459.121 91.323 460.593 88.0016 461.594 85.4709C462.594 82.9408 464.01 78.498 464.74 75.5983C465.944 70.8139 466.067 69.3419 466.072 59.6902C466.074 53.8408 465.819 47.791 465.504 46.2462C465.19 44.702 464.335 40.9472 463.606 37.9025C462.876 34.8579 461.677 30.9433 460.941 29.2035C460.205 27.4637 458.491 24.1423 457.132 21.8225C455.773 19.5028 453.649 16.514 452.413 15.1807C451.178 13.8474 448.851 11.6889 447.244 10.3836C445.636 9.07818 442.585 7.05262 440.463 5.88221C438.341 4.71179 435.196 3.25985 433.475 2.65619C431.754 2.052 428.628 1.19475 426.53 0.750836C424.431 0.306395 420.675 -0.0304958 418.184 0.00219148C415.692 0.0343515 412.48 0.271072 411.045 0.527298ZM431.788 35.7795C433.442 36.4121 435.483 37.5145 436.323 38.2294C437.163 38.9438 438.356 40.3551 438.974 41.3648C439.592 42.3749 440.423 44.441 440.822 45.9557C441.221 47.4709 441.551 50.5662 441.554 52.8348C441.558 55.269 441.107 58.8335 440.454 61.5339C439.846 64.0497 438.767 67.6506 438.058 69.5354C437.35 71.4202 436.569 73.4368 436.325 74.0167C436.08 74.5966 434.736 77.5622 433.339 80.6069C431.942 83.6515 429.307 88.5151 427.484 91.4148C425.661 94.3144 422.872 98.3329 421.288 100.345C419.704 102.357 416.695 105.728 414.603 107.836C412.51 109.944 409.504 112.635 407.923 113.816C406.341 114.997 403.598 116.821 401.827 117.871C400.055 118.92 397.418 120.217 395.965 120.754C394.24 121.392 391.916 121.73 389.259 121.73C386.255 121.73 385.119 121.537 384.912 120.991C384.758 120.586 385.616 117.68 386.819 114.533C388.022 111.387 389.297 108.101 389.652 107.231C390.008 106.361 390.729 104.582 391.253 103.277C391.777 101.972 392.983 99.1674 393.931 97.0438C394.881 94.9202 395.657 93.0829 395.657 92.96C395.657 92.8377 396.479 90.9397 397.483 88.7423C398.487 86.5454 399.309 84.6532 399.309 84.5383C399.309 84.4228 399.913 82.9572 400.652 81.2817C401.391 79.6057 402.308 77.5227 402.69 76.6528C403.073 75.7829 404.605 72.1055 406.094 68.4809C407.584 64.8564 409.222 60.9418 409.735 59.7819C410.248 58.6221 411.187 56.3682 411.823 54.7734C412.458 53.1786 413.18 51.3992 413.426 50.8193C413.673 50.2393 414.261 48.5222 414.735 47.0033C415.208 45.4839 415.447 43.6455 415.266 42.9174C415.083 42.1777 413.989 40.9541 412.786 40.1437C411.603 39.3461 409.694 38.066 408.544 37.2994L406.452 35.9055L409.271 35.3176C410.82 34.9944 412.91 34.6359 413.914 34.5205C414.918 34.405 418.674 34.3818 422.26 34.4699C427.422 34.5959 429.407 34.869 431.788 35.7795ZM381.175 43.2865C380.595 44.5296 378.95 48.0382 377.52 51.0829C376.09 54.1276 374.07 58.4665 373.031 60.7246C371.991 62.9832 371.141 64.9228 371.141 65.0356C371.141 65.1484 370.32 67.0385 369.316 69.2354C368.311 71.4328 367.49 73.3413 367.49 73.4774C367.49 73.6134 366.875 75.0949 366.123 76.7703C365.372 78.4453 364.433 80.5636 364.037 81.4773C363.641 82.391 363.317 83.2746 363.317 83.4412C363.317 83.6078 362.613 85.2975 361.752 87.197C360.891 89.0966 360.187 90.7763 360.187 90.9297C360.187 91.0831 359.74 92.2045 359.193 93.4208C358.646 94.6371 357.327 97.7677 356.261 100.377C355.196 102.987 353.856 106.19 353.283 107.495C352.71 108.8 351.937 110.579 351.565 111.449C351.192 112.319 350.249 114.454 349.469 116.194C348.688 117.934 347.402 120.781 346.61 122.52C345.82 124.26 344.187 127.819 342.983 130.429C341.779 133.038 339.083 138.969 336.992 143.609C334.901 148.248 332.662 153.231 332.016 154.68C331.371 156.13 330.051 159.054 329.084 161.177C328.116 163.301 327.325 165.132 327.325 165.247C327.325 165.363 326.767 166.71 326.085 168.24C325.402 169.771 323.392 174.431 321.618 178.596C319.843 182.761 317.74 187.624 316.944 189.404C316.148 191.184 314.26 195.724 312.75 199.494C311.24 203.263 309.711 207.059 309.352 207.929C308.993 208.799 308.21 210.816 307.611 212.41C307.012 214.005 305.083 219.462 303.325 224.536C301.566 229.611 299.538 235.423 298.818 237.453C298.098 239.483 297.253 241.677 296.941 242.33C296.629 242.982 296.172 243.516 295.926 243.516C295.681 243.516 295.28 242.982 295.036 242.33C294.792 241.677 293.875 238.178 293 234.553C292.124 230.929 291.121 226.065 290.772 223.745C290.422 221.426 290.138 216.206 290.139 212.147C290.141 208.087 290.419 201.088 290.758 196.594C291.097 192.099 291.606 186.524 291.889 184.204C292.172 181.885 292.657 178.207 292.966 176.033C293.276 173.858 293.997 169.706 294.571 166.806C295.144 163.907 295.82 160.585 296.074 159.425C296.327 158.265 296.747 156.486 297.007 155.471C297.268 154.456 297.837 152.321 298.272 150.726C298.708 149.132 300.399 143.675 302.032 138.6C303.664 133.526 305.704 127.476 306.564 125.156C307.425 122.837 308.6 119.871 309.176 118.566C309.752 117.261 311.294 113.94 312.604 111.185C313.914 108.431 315.544 105.272 316.227 104.165C316.911 103.059 317.954 101.284 318.545 100.22C319.136 99.1564 321.804 95.1975 324.473 91.4232C327.142 87.6489 330.69 83.0189 332.358 81.1341C334.026 79.2493 337.155 75.8445 339.312 73.5686C341.469 71.292 346.051 67.0527 349.494 64.1473C352.937 61.2423 356.448 58.2541 357.298 57.507C358.147 56.7599 362.49 53.5408 366.948 50.3538C371.406 47.1662 376.566 43.6602 378.414 42.5615C380.261 41.4633 381.876 40.6683 382.001 40.7948C382.127 40.9219 381.755 42.0428 381.175 43.2865ZM777.51 52.0029C776.52 52.4958 774.184 54.3289 772.318 56.0767C770.453 57.8249 767.391 60.8121 765.512 62.7153C763.633 64.6191 759.397 69.1205 756.098 72.7192C752.799 76.3175 748.926 80.5731 747.491 82.1753C746.057 83.7775 744.766 85.21 744.622 85.3592C744.479 85.5079 742.377 87.7617 739.952 90.3677C737.527 92.9732 727.307 103.527 717.241 113.821C707.176 124.115 696.34 135.384 693.161 138.864C689.982 142.344 686.814 145.867 686.12 146.694L684.86 148.197L684.18 145.514C683.636 143.37 682.959 142.34 680.808 140.385C679.327 139.04 676.707 136.923 674.986 135.682C673.264 134.441 671.22 133.132 670.443 132.775C669.267 132.233 668.817 132.265 667.757 132.967C667.057 133.431 665.371 135.659 664.009 137.919C662.648 140.178 661.062 142.858 660.485 143.873C659.908 144.887 658.276 147.972 656.857 150.726C655.438 153.481 653.32 157.04 652.149 158.635C650.978 160.229 647.414 164.737 644.229 168.652C641.044 172.566 636.342 178.497 633.78 181.832C631.219 185.167 627.471 189.911 625.452 192.376C623.432 194.841 620.934 197.807 619.9 198.966C618.866 200.126 616.87 202.408 615.466 204.037C614.062 205.665 608.57 211.359 603.263 216.69C597.955 222.02 591.224 228.576 588.305 231.258C583.806 235.392 582.734 236.132 581.263 236.113C580.309 236.101 578.473 235.568 577.182 234.927C575.156 233.922 574.809 233.51 574.65 231.917C574.549 230.902 574.735 228.055 575.063 225.591C575.392 223.126 576.023 219.145 576.466 216.744C576.908 214.343 577.816 210.641 578.483 208.516C579.15 206.392 580.283 203.493 581.002 202.074C581.719 200.655 583.744 197.358 585.501 194.749C587.257 192.139 591.376 185.971 594.653 181.041C597.931 176.112 601.693 170.7 603.013 169.015C604.824 166.705 605.696 165.991 606.556 166.115C607.259 166.216 607.758 166.714 607.857 167.414C607.945 168.038 607.322 170.292 606.472 172.423C605.622 174.553 604.303 177.791 603.541 179.619C602.365 182.442 602.24 183.197 602.714 184.649C603.101 185.832 604.159 186.948 606.154 188.276C607.738 189.331 610.059 190.588 611.311 191.072C613.442 191.894 613.706 191.893 615.458 191.053C616.488 190.559 617.771 189.409 618.31 188.498C618.848 187.586 621.33 182.864 623.825 178.005C626.319 173.145 628.816 167.829 629.374 166.192C629.931 164.554 630.387 162.174 630.387 160.904C630.387 159.607 629.913 157.653 629.307 156.452C628.713 155.275 627.275 153.268 626.111 151.992C624.948 150.716 622.441 148.516 620.541 147.102C618.641 145.688 615.677 143.807 613.956 142.923C612.235 142.039 609.896 140.933 608.76 140.466C607.623 139.998 605.373 139.476 603.76 139.305C601.579 139.075 600.348 139.225 598.958 139.892C597.931 140.384 596.107 141.762 594.905 142.953C593.703 144.144 590.438 147.981 587.649 151.481C584.859 154.98 580.422 160.768 577.788 164.341C575.154 167.915 570.401 174.795 567.226 179.63C564.051 184.466 561.178 188.782 560.841 189.221C560.504 189.661 558.346 192.27 556.046 195.02C553.744 197.771 548.701 203.935 544.837 208.72C540.973 213.504 534.296 221.566 529.999 226.636C525.702 231.705 518.412 239.653 513.798 244.297C509.186 248.942 504.577 253.192 503.557 253.742C502.3 254.42 501.244 254.625 500.276 254.38C499.491 254.18 498.282 253.444 497.59 252.745C496.405 251.548 496.331 251.116 496.34 245.517C496.345 242.242 496.688 237.664 497.102 235.344C497.516 233.024 498.223 229.725 498.672 228.011C499.122 226.297 499.883 224.043 500.362 223.002C500.842 221.961 502.782 218.381 504.675 215.046C506.568 211.712 510.79 204.713 514.058 199.494C517.326 194.274 521.518 187.809 523.375 185.127C525.95 181.406 527.031 180.25 527.936 180.25C528.62 180.25 529.248 180.652 529.42 181.198C529.584 181.72 528.91 184.151 527.923 186.602C526.936 189.053 525.644 192.055 525.052 193.274C524.461 194.492 523.976 196.403 523.976 197.52C523.976 199.135 524.323 199.874 525.672 201.133C526.604 202.003 528.572 203.354 530.045 204.136C531.651 204.987 533.556 205.557 534.8 205.557C536.087 205.557 537.381 205.155 538.204 204.501C538.934 203.92 540.92 200.658 542.615 197.252C544.311 193.845 546.56 189.453 547.614 187.492C548.668 185.53 550.001 182.513 550.576 180.786C551.151 179.06 551.622 176.529 551.622 175.161C551.622 173.728 551.167 171.724 550.547 170.43C549.956 169.195 547.916 166.714 546.015 164.916C544.114 163.118 541.018 160.655 539.135 159.443C537.253 158.23 534.539 156.692 533.105 156.026C531.67 155.359 529.44 154.49 528.149 154.094C526.858 153.698 524.91 153.371 523.82 153.368C522.73 153.365 521.183 153.705 520.383 154.123C519.583 154.541 517.626 156.305 516.034 158.042C514.443 159.78 509.97 166.022 506.096 171.912C502.221 177.803 497.88 184.639 496.447 187.104C495.015 189.569 493.375 192.416 492.804 193.431C492.232 194.446 490.89 196.818 489.823 198.703C488.755 200.588 487.16 203.435 486.277 205.029C485.395 206.624 483.407 210.301 481.86 213.201C480.312 216.101 477.918 220.846 476.539 223.745C475.16 226.645 473.541 230.441 472.941 232.181C472.342 233.921 471.494 236.886 471.058 238.771C470.495 241.204 470.269 245.027 470.28 251.951C470.292 259.245 470.54 262.968 471.263 266.713C471.795 269.468 472.709 273.489 473.294 275.649C474.172 278.891 474.703 279.874 476.346 281.293C477.439 282.239 480.302 284.03 482.707 285.275C486.689 287.336 487.411 287.535 490.792 287.503C493.591 287.477 495.082 287.169 496.852 286.254C498.143 285.586 500.373 284.197 501.807 283.168C503.242 282.138 507.702 278.633 511.718 275.378C515.735 272.123 519.495 269.019 520.075 268.482C520.654 267.944 522.179 266.574 523.465 265.436C524.75 264.299 529.875 259.435 534.852 254.628C539.83 249.821 544.196 245.818 544.555 245.733C545.009 245.625 545.301 246.709 545.516 249.298C545.719 251.735 546.24 253.769 547.028 255.194C547.885 256.743 549.787 258.478 553.639 261.225C556.613 263.346 561.049 266.084 563.497 267.31C567.235 269.181 568.458 269.541 571.13 269.555C573.584 269.567 574.97 269.238 577.182 268.119C578.76 267.32 582.075 265.194 584.549 263.395C587.023 261.595 590.172 259.174 591.547 258.014C592.923 256.854 596.65 253.651 599.829 250.895C603.009 248.14 607.957 243.89 610.826 241.452C613.695 239.015 616.589 236.406 617.256 235.655C617.924 234.904 619.332 233.341 620.386 232.18C621.44 231.02 623.1 229.122 624.076 227.963C625.051 226.803 626.653 224.943 627.637 223.83C628.62 222.717 629.532 221.915 629.664 222.048C629.795 222.18 628.989 225.108 627.874 228.553C626.758 231.998 625.58 235.885 625.255 237.189C624.93 238.494 624.309 241.545 623.874 243.969C623.44 246.394 623.084 249.165 623.084 250.128C623.084 251.671 623.708 252.458 628.369 256.791C631.275 259.494 634.855 262.83 636.324 264.204C637.792 265.579 639.882 266.984 640.968 267.325C642.707 267.872 643.112 267.819 644.359 266.887C645.138 266.304 646.104 265.149 646.506 264.318C646.908 263.488 647.453 261.849 647.717 260.675C647.98 259.502 648.764 255.457 649.459 251.688C650.154 247.918 650.944 243.766 651.214 242.462C651.485 241.157 652.073 238.725 652.522 237.058C652.971 235.39 653.699 232.662 654.14 230.995C654.581 229.327 655.575 225.947 656.349 223.482L657.758 219.001L658.124 221.109C658.325 222.269 658.732 226.421 659.028 230.336C659.325 234.25 660.053 239.202 660.645 241.339C661.238 243.476 662.401 246.679 663.228 248.456C664.056 250.234 665.544 252.832 666.536 254.231C667.527 255.63 669.247 257.41 670.357 258.185C672.215 259.483 672.776 259.593 677.333 259.553C681.524 259.517 682.757 259.295 685.328 258.115C686.999 257.347 690.52 255.201 693.152 253.345C695.784 251.49 699.698 248.341 701.849 246.348C704.001 244.356 709.517 238.839 714.107 234.088C718.698 229.337 724.502 223.703 727.006 221.566C729.509 219.43 731.773 217.682 732.037 217.682C732.322 217.682 732.332 218.478 732.061 219.66C731.811 220.747 731.609 223.535 731.612 225.854C731.616 228.174 731.953 231.495 732.361 233.235C732.892 235.498 733.548 236.803 734.667 237.82C735.526 238.602 737.825 239.763 739.774 240.4C742.098 241.16 745.171 241.644 748.7 241.807C752.871 242.001 754.748 241.85 757.046 241.14C759.52 240.375 760.661 239.56 763.948 236.202C766.115 233.99 769.87 229.367 772.294 225.929L776.702 219.676L777.313 225.401C777.649 228.55 778.097 231.72 778.309 232.444C778.52 233.169 779.47 235 780.419 236.512C781.385 238.054 783.126 239.89 784.378 240.691C785.607 241.477 788.725 243.124 791.307 244.35C793.889 245.576 798.2 247.334 800.887 248.256C804.246 249.408 805.94 249.762 806.311 249.388C806.681 249.013 806.666 247.888 806.26 245.784C805.936 244.102 805.373 240.471 805.01 237.717C804.606 234.652 804.353 226.875 804.358 217.682C804.364 208.741 804.631 200.629 805.019 197.648C805.378 194.894 805.921 191.216 806.226 189.477C806.531 187.737 807.259 184.059 807.843 181.305C808.428 178.55 809.232 175.229 809.631 173.924C810.03 172.619 810.726 170.365 811.178 168.915C811.63 167.465 812.189 165.805 812.421 165.225C812.652 164.645 814.51 159.89 816.549 154.658C818.589 149.427 820.257 144.997 820.257 144.814C820.257 144.631 819.377 144.191 818.301 143.836C817.226 143.481 815.054 142.582 813.476 141.839C811.898 141.095 808.876 139.35 806.759 137.962C804.642 136.573 802.52 135.437 802.042 135.437C801.525 135.437 800.415 136.77 799.299 138.732C798.267 140.545 796.776 143.214 795.985 144.663C795.193 146.113 793.841 148.604 792.979 150.199C792.117 151.794 789.921 155.669 788.099 158.81C786.278 161.952 784.787 164.632 784.787 164.767C784.787 164.902 783.966 166.31 782.961 167.896C781.957 169.483 781.136 170.902 781.136 171.049C781.136 171.197 779.727 173.577 778.006 176.339C776.285 179.1 774.876 181.46 774.876 181.582C774.876 181.704 772.845 185.044 770.361 189.004C767.877 192.965 764.52 197.656 762.899 199.431C761.279 201.205 759.048 203.665 757.942 204.898C756.836 206.13 755.723 207.138 755.469 207.138C755.215 207.138 755.155 206.248 755.335 205.161C755.516 204.074 756.003 201.761 756.419 200.021C756.834 198.281 758.013 194.604 759.039 191.849C760.064 189.094 762.784 181.858 765.082 175.769C767.38 169.68 769.557 163.986 769.922 163.116C770.286 162.246 772.4 157.027 774.619 151.517C776.839 146.008 779.447 139.763 780.416 137.639C781.386 135.516 782.179 133.433 782.179 133.01C782.179 132.586 781.769 132.114 781.266 131.96C780.764 131.805 777.002 130.239 772.907 128.48C765.901 125.471 765.403 125.334 764.503 126.157C763.976 126.639 762.241 129.695 760.645 132.949C759.051 136.202 756.884 140.762 755.83 143.082C754.777 145.401 753.612 148.011 753.243 148.881C752.874 149.751 751.957 151.833 751.205 153.508C750.453 155.184 749.839 156.665 749.839 156.801C749.839 156.937 749.051 158.77 748.089 160.873C747.126 162.977 744.64 167.544 742.565 171.024C740.489 174.504 736.538 180.553 733.785 184.468C731.031 188.383 727.747 192.89 726.487 194.485C725.226 196.08 718.589 203.197 711.738 210.301C704.887 217.406 698.069 224.108 696.587 225.195C695.053 226.321 693.286 227.172 692.482 227.172C691.541 227.172 690.876 226.777 690.484 225.986C690.16 225.333 689.666 223.851 689.385 222.691C689.104 221.531 688.601 217.735 688.267 214.256C687.934 210.776 687.319 206.743 686.901 205.293C686.483 203.843 685.708 201.708 685.179 200.548C684.651 199.388 683.667 197.816 682.993 197.054C682.318 196.292 681.254 195.402 680.628 195.077C680.001 194.751 679.017 194.485 678.442 194.485C677.866 194.485 677.251 194.25 677.075 193.962C676.899 193.675 677.521 192.311 678.457 190.931C679.393 189.551 682.437 185.575 685.22 182.096C688.003 178.616 690.715 175.294 691.246 174.715C691.777 174.135 694.085 171.406 696.376 168.652C698.666 165.897 702.643 161.271 705.213 158.371C707.783 155.471 711.908 150.964 714.379 148.354C716.85 145.744 720.164 142.185 721.743 140.446C723.322 138.706 728.729 132.537 733.758 126.738C738.787 120.939 743.98 115.014 745.298 113.573C746.616 112.131 747.766 111.063 747.853 111.2C747.941 111.337 748.365 112.125 748.795 112.95C749.23 113.785 750.812 115.135 752.357 115.99C753.886 116.836 756.483 117.987 758.129 118.547C759.775 119.108 762.514 119.806 764.217 120.099C765.92 120.393 768.784 120.885 770.583 121.194C772.82 121.578 774.168 121.586 774.849 121.217C775.397 120.92 777.12 118.839 778.677 116.591C780.234 114.343 784.079 108.352 787.221 103.277C790.363 98.2026 793.538 92.9832 794.278 91.6784C795.017 90.3735 796.154 88.3569 796.804 87.197C797.454 86.0372 798.888 83.3178 799.99 81.1546C801.093 78.991 802.137 76.4561 802.31 75.5214C802.484 74.5866 802.363 73.0166 802.041 72.0323C801.72 71.0485 800.372 68.7198 799.045 66.8577C797.718 64.9961 794.496 61.3261 791.883 58.7027C788.928 55.7345 786.061 53.3953 784.294 52.508C782.731 51.724 780.97 51.0882 780.382 51.095C779.792 51.1013 778.5 51.5099 777.51 52.0029ZM901.773 97.852C901.149 98.8158 900.854 100.274 900.866 102.333L900.884 105.386H896.754C894.148 105.386 889.326 104.723 883.695 103.589C878.784 102.601 871.481 101.254 867.464 100.597C863.448 99.9393 858.993 99.3836 857.564 99.362C855.445 99.3303 854.932 99.5006 854.779 100.287C854.676 100.818 854.735 101.825 854.909 102.526C855.115 103.358 856.608 104.726 859.206 106.465C861.395 107.931 864.384 110.151 865.847 111.399C867.31 112.647 870.189 114.893 872.244 116.39C874.299 117.887 877.772 119.937 879.962 120.946C882.151 121.954 886.025 123.49 888.57 124.359C891.115 125.228 894.919 126.19 897.023 126.497C899.127 126.804 902.256 126.904 903.978 126.719C905.699 126.534 908.398 126.021 909.976 125.578C911.554 125.136 914.471 123.919 916.459 122.874C918.446 121.829 921.478 119.661 923.196 118.056C924.914 116.452 927.064 113.953 927.975 112.503C928.886 111.053 929.765 109.332 929.928 108.677C930.135 107.842 929.901 107.259 929.142 106.721C928.548 106.3 925.811 105.025 923.061 103.889C920.311 102.752 915.125 100.607 911.535 99.1226C907.946 97.638 904.489 96.4233 903.854 96.4233C903.172 96.4233 902.318 97.0095 901.773 97.852ZM844.596 130.033C843.918 131.121 841.685 135.512 839.634 139.792C837.584 144.073 835.906 147.674 835.906 147.794C835.906 147.915 835.119 149.75 834.157 151.874C833.195 153.998 831.069 159 829.432 162.99C827.795 166.981 825.623 172.675 824.605 175.644C823.586 178.612 822.18 183.058 821.48 185.522C820.78 187.987 819.872 191.19 819.462 192.64C819.052 194.09 817.763 199.309 816.597 204.239C815.432 209.168 814.267 214.269 814.009 215.574C813.751 216.878 813.27 220.674 812.941 224.009C812.445 229.023 812.473 230.777 813.106 234.152C813.526 236.396 814.235 238.794 814.68 239.481C815.125 240.167 816.503 241.207 817.743 241.792C818.983 242.378 821.686 243.242 823.751 243.713C825.816 244.184 829.232 244.57 831.344 244.57C833.856 244.57 836.294 244.191 838.399 243.472C841.171 242.526 842.158 241.793 845.511 238.19C847.653 235.889 851.356 231.223 853.74 227.821L858.075 221.637L858.406 227.172C858.588 230.217 858.961 233.538 859.236 234.553C859.51 235.568 860.117 237.142 860.583 238.051C861.049 238.961 862.483 240.641 863.768 241.785C865.055 242.929 868.055 244.827 870.437 246.002C872.819 247.177 877.045 248.997 879.83 250.046C882.615 251.094 885.515 251.951 886.274 251.951C887.567 251.951 887.641 251.824 887.41 249.974C887.274 248.887 886.732 244.794 886.205 240.88C885.495 235.603 885.242 230.355 885.229 220.582C885.218 212.814 885.493 205.02 885.9 201.602C886.279 198.413 886.918 193.905 887.32 191.585C887.722 189.266 888.407 185.712 888.84 183.688C889.274 181.664 889.997 178.698 890.446 177.098C890.895 175.497 892.422 170.948 893.838 166.988C895.255 163.029 897.47 157.241 898.761 154.125C900.053 151.01 901.109 148.133 901.109 147.732C901.109 147.331 900.816 146.9 900.457 146.774C900.098 146.648 898.479 146.054 896.859 145.455C895.238 144.855 891.679 142.949 888.95 141.219C886.22 139.489 883.537 138.073 882.989 138.073C882.267 138.073 881.222 139.489 879.196 143.214C877.659 146.041 876.013 149.066 875.538 149.936C875.064 150.805 873.917 152.899 872.989 154.589C872.06 156.278 869.64 160.544 867.612 164.067C865.583 167.59 863.517 171.19 863.022 172.066C862.526 172.943 861.011 175.558 859.654 177.878C858.297 180.198 854.751 186.01 851.773 190.795C847.801 197.176 845.051 200.898 841.45 204.766C838.75 207.665 836.41 209.911 836.249 209.756C836.088 209.601 836.318 207.709 836.759 205.552C837.201 203.396 837.906 200.556 838.325 199.244C838.745 197.931 839.288 196.383 839.533 195.803C839.778 195.223 843.077 186.564 846.866 176.56C850.654 166.556 854.081 157.6 854.48 156.657C854.88 155.715 855.558 154.137 855.989 153.151C856.419 152.165 856.771 151.223 856.771 151.058C856.771 150.892 857.332 149.505 858.018 147.974C858.703 146.443 859.811 143.886 860.479 142.291C861.148 140.696 862.087 138.571 862.566 137.569C863.045 136.567 863.339 135.499 863.22 135.197C863.101 134.894 861.777 134.251 860.278 133.768C858.78 133.286 855.283 131.803 852.509 130.473C849.735 129.144 847.097 128.056 846.647 128.056C846.198 128.056 845.275 128.946 844.596 130.033ZM415.747 156.916C414.376 159.16 411.313 165.032 408.941 169.964C406.567 174.897 402.854 183.44 400.689 188.949C398.524 194.459 395.464 202.881 393.889 207.665C392.314 212.45 389.837 220.516 388.385 225.591C386.934 230.665 385.512 235.647 385.227 236.662C384.942 237.677 384.153 240.643 383.474 243.252C382.795 245.862 381.946 249.421 381.586 251.161C381.226 252.9 380.729 255.036 380.48 255.906C380.232 256.775 379.657 260.042 379.201 263.164C378.548 267.647 378.495 269.431 378.949 271.643C379.383 273.756 380.001 274.909 381.462 276.333C382.528 277.372 385.489 279.54 388.044 281.153C390.599 282.764 393.487 284.35 394.463 284.676C396.042 285.202 396.462 285.117 398.281 283.9C399.405 283.148 404.274 278.559 409.1 273.701C413.927 268.843 422.63 259.918 428.44 253.866C434.25 247.815 439.116 242.979 439.254 243.117C439.391 243.257 438.881 245.123 438.12 247.266C437.233 249.761 435.98 252.013 434.631 253.533C433.473 254.838 431.093 257.448 429.34 259.332C427.588 261.217 424.046 265.126 421.469 268.018C418.891 270.911 416.344 273.757 415.807 274.345C415.27 274.932 412.077 278.734 408.712 282.793C405.346 286.853 400.27 293.305 397.43 297.132C394.59 300.958 390.283 307.245 387.858 311.103C385.433 314.96 381.862 321.212 379.922 324.995C377.977 328.788 376.049 333.371 375.624 335.213C375.026 337.802 374.974 339.218 375.39 341.515C375.685 343.144 376.523 345.591 377.253 346.953C378.122 348.576 379.589 350.137 381.511 351.484C383.123 352.614 385.968 354.361 387.833 355.365C389.698 356.37 393.101 357.984 395.397 358.952C397.692 359.919 401.917 361.405 404.786 362.252C409.445 363.63 410.281 363.733 412.61 363.22C414.045 362.905 416.418 361.954 417.884 361.106C419.35 360.259 422.098 357.977 423.991 356.035C425.885 354.093 428.554 350.817 429.924 348.755C431.293 346.692 433.363 343.107 434.523 340.787C435.684 338.467 437.123 335.383 437.721 333.933C438.319 332.483 439.642 329.162 440.661 326.552C441.681 323.942 443.332 319.553 444.331 316.799C445.331 314.044 446.779 310.011 447.549 307.836C448.32 305.661 449.151 303.289 449.396 302.564C449.642 301.839 450.815 298.043 452.003 294.129C453.191 290.214 454.377 286.299 454.639 285.429C454.9 284.56 455.448 282.771 455.857 281.454C456.266 280.138 457.586 275.63 458.79 271.437C459.995 267.244 462.615 257.289 464.614 249.315C466.613 241.341 469.023 231.021 469.97 226.382C470.917 221.742 472.332 214.981 473.115 211.356C473.898 207.731 474.721 203.817 474.945 202.657C475.168 201.497 475.603 199.362 475.911 197.912C476.219 196.462 476.832 193.615 477.274 191.585C477.716 189.556 478.451 186.116 478.908 183.941L479.738 179.987L476.95 177.457C475.416 176.065 472.307 173.515 470.04 171.789C467.773 170.063 465.501 168.652 464.99 168.652C464.479 168.652 463.609 169.304 463.056 170.101C462.503 170.899 461.348 172.856 460.488 174.451C459.629 176.046 457.917 179.249 456.683 181.568C455.449 183.888 452.91 188.277 451.04 191.322C449.169 194.366 446.572 198.4 445.268 200.284C443.963 202.169 440.796 206.44 438.23 209.774C435.664 213.109 431.524 218.21 429.029 221.109C426.534 224.009 422.072 228.814 419.113 231.785C416.153 234.757 413.439 237.189 413.083 237.189C412.6 237.189 412.555 236.743 412.91 235.444C413.172 234.484 413.994 231.934 414.736 229.777C415.478 227.619 417.602 221.94 419.456 217.155C421.311 212.371 423.042 207.982 423.303 207.402C423.565 206.822 425.171 203.145 426.874 199.23C428.576 195.315 430.842 190.215 431.909 187.895C432.975 185.575 435.012 181.322 436.433 178.443C438.302 174.661 438.93 172.851 438.698 171.917C438.521 171.207 435.046 167.275 430.974 163.18C426.903 159.085 422.774 155.082 421.801 154.285C420.827 153.488 419.627 152.835 419.135 152.835C418.58 152.835 417.29 154.388 415.747 156.916ZM763.661 261.767C760.219 264.535 755.407 268.611 752.968 270.825C750.53 273.038 745.361 278.061 741.482 281.985C737.604 285.909 733.144 290.544 731.571 292.285C729.999 294.025 727.422 296.963 725.844 298.813C724.266 300.664 721.841 303.745 720.455 305.661C719.069 307.577 716.215 311.889 714.112 315.244C712.009 318.599 709.763 322.278 709.121 323.421C708.48 324.563 706.37 328.701 704.433 332.615C702.496 336.53 700.147 341.63 699.213 343.95C698.278 346.27 696.155 350.822 694.494 354.066C692.833 357.31 690.488 361.58 689.282 363.556C688.076 365.531 686.131 368.69 684.96 370.575C683.788 372.459 680.847 376.848 678.425 380.328C676.002 383.808 672.02 389.264 669.576 392.454C667.131 395.644 662.668 401.16 659.658 404.712C656.649 408.263 653.992 411.17 653.753 411.17C653.514 411.17 653.468 410.518 653.65 409.72C653.833 408.922 654.632 406.372 655.427 404.053C656.22 401.733 657.969 396.988 659.311 393.508C660.653 390.029 663.982 382.629 666.709 377.065C670.854 368.603 671.573 366.774 671.104 365.888C670.796 365.305 668.844 364.023 666.766 363.039C664.688 362.055 662.668 360.858 662.275 360.38C661.883 359.901 661.685 358.974 661.835 358.32C661.985 357.666 662.464 355.826 662.897 354.231C663.331 352.636 664.086 348.54 664.575 345.128L665.463 338.925L664.148 336.915C663.424 335.81 661.341 333.602 659.52 332.009C657.698 330.416 654.212 327.679 651.774 325.925C649.335 324.172 646.835 322.579 646.218 322.386C645.373 322.12 643.767 322.903 639.698 325.566C636.729 327.508 632.656 330.322 630.646 331.819C628.637 333.315 626.642 334.877 626.213 335.291C625.783 335.704 623.906 337.343 622.041 338.934C620.176 340.524 616.538 343.974 613.956 346.6C611.374 349.226 608.205 352.577 606.914 354.047C605.623 355.517 604.092 357.286 603.511 357.979C602.929 358.672 600.685 361.612 598.522 364.512C596.36 367.411 593.877 370.851 593.005 372.156C592.133 373.461 590.64 375.952 589.685 377.692C588.731 379.432 587.336 382.041 586.583 383.491C585.831 384.941 584.127 388.618 582.797 391.663C581.466 394.708 579.761 398.978 579.008 401.153C578.255 403.328 577.324 406.056 576.939 407.216C576.554 408.376 575.882 410.867 575.445 412.752C575.008 414.636 574.495 417.188 574.305 418.421C574.018 420.284 573.725 420.72 572.572 420.998C571.808 421.182 569.44 421.775 567.31 422.316L563.437 423.3L559.722 420.425C557.679 418.844 554.565 416.826 552.801 415.941C551.038 415.057 549.213 414.333 548.748 414.333C548.283 414.333 547.455 414.091 546.907 413.795C546 413.304 546.386 412.639 551.262 406.282C554.205 402.446 558.71 396.462 561.273 392.985C563.836 389.508 567.322 384.431 569.018 381.702C570.714 378.974 572.78 375.231 573.608 373.386C574.436 371.539 575.564 367.72 576.115 364.897C576.664 362.076 577.403 357.746 577.757 355.277C578.325 351.306 578.294 350.452 577.493 347.896C576.996 346.306 576.047 344.374 575.386 343.603C574.724 342.831 573.391 341.773 572.422 341.25C571.056 340.513 569.477 340.301 565.38 340.306C562.475 340.309 559.189 340.579 558.077 340.907C556.966 341.235 554.296 342.025 552.144 342.662C549.992 343.3 547.528 344.175 546.667 344.607C545.806 345.039 542.105 347.204 538.442 349.416C534.779 351.63 531.376 353.679 530.878 353.97C530.381 354.262 528.097 355.789 525.802 357.364C523.507 358.939 519.516 361.761 516.934 363.634C514.352 365.506 510.342 368.644 508.023 370.605C505.703 372.566 501.763 375.616 499.266 377.381C496.769 379.147 494.617 380.592 494.485 380.592C494.352 380.592 494.244 378.116 494.244 375.09C494.244 372.064 494.007 368.959 493.718 368.189C493.428 367.42 491.465 365.091 489.355 363.015C487.245 360.938 482.36 356.778 478.498 353.771C474.637 350.762 469.785 347.382 467.716 346.258C465.64 345.13 463.224 344.214 462.323 344.214C461.426 344.214 459.68 344.813 458.445 345.544C457.209 346.276 455.526 347.877 454.703 349.103C453.88 350.328 452.375 353.118 451.358 355.303C450.342 357.487 448.564 362.114 447.407 365.584C446.251 369.054 445.022 373.356 444.677 375.143C444.31 377.043 444.147 380.766 444.285 384.106C444.475 388.727 444.802 390.563 445.998 393.717C447.113 396.66 448.235 398.436 450.577 400.967C452.284 402.811 456 406.034 458.835 408.13L463.99 411.941V414.526C463.99 415.948 463.729 418.087 463.411 419.281C463.092 420.474 462.647 421.925 462.42 422.505C462.194 423.085 461.715 424.39 461.356 425.405C460.997 426.42 460.41 427.962 460.052 428.832C459.693 429.702 458.848 431.705 458.174 433.284C457.5 434.862 455.188 439.709 453.036 444.053C450.884 448.397 448.83 452.048 448.472 452.166C447.98 452.328 447.82 451.113 447.82 447.228C447.82 444.394 448.094 440.638 448.431 438.88C448.767 437.123 449.725 432.957 450.558 429.622C451.392 426.288 452.28 422.848 452.531 421.978C452.782 421.108 453.46 418.498 454.037 416.179C454.614 413.859 455.095 411.338 455.104 410.575C455.114 409.813 454.829 408.95 454.47 408.657C454.112 408.365 451.198 406.782 447.996 405.141C444.794 403.499 441.323 402.017 440.282 401.846C438.761 401.596 438.137 401.775 437.106 402.754C436.4 403.424 435.822 404.151 435.822 404.369C435.822 404.588 435.035 406.504 434.073 408.627C433.112 410.751 431.555 414.408 430.614 416.755C429.544 419.422 427.217 423.408 424.408 427.383C421.936 430.882 418.152 435.855 416.001 438.435C413.849 441.015 410.974 444.596 409.611 446.392C407.617 449.02 406.849 449.657 405.673 449.657C404.869 449.657 403.93 449.372 403.586 449.024C403.242 448.676 402.962 447.549 402.964 446.52C402.967 445.49 403.31 442.037 403.727 438.846C404.144 435.655 404.855 431.266 405.307 429.093C405.76 426.919 407.065 422.294 408.208 418.815C409.351 415.335 410.895 410.946 411.639 409.061C412.384 407.176 413.179 405.16 413.407 404.58C413.635 404 414.64 401.272 415.64 398.517C416.64 395.762 417.693 392.771 417.98 391.871C418.267 390.97 418.348 389.981 418.16 389.673C417.972 389.366 416.294 388.533 414.432 387.822C412.569 387.111 409.872 385.981 408.437 385.311C407.003 384.642 404.974 383.424 403.928 382.606C402.883 381.788 401.502 381.119 400.86 381.119C400.213 381.119 398.963 381.901 398.057 382.871C397.158 383.835 394.978 387.453 393.213 390.911C391.447 394.369 389.25 399.097 388.33 401.417C387.41 403.736 386.15 407.295 385.53 409.325L384.402 413.015L381.554 413.145C379.987 413.217 377.414 412.968 375.836 412.594C373.092 411.943 372.974 411.845 373.136 410.355C373.23 409.499 373.968 406.781 374.777 404.316C375.585 401.852 376.716 398.649 377.289 397.199C377.862 395.749 379.078 392.902 379.991 390.872C380.903 388.842 383.166 384.11 385.019 380.356C386.872 376.602 388.276 373.236 388.139 372.876C388.003 372.516 387.115 371.993 386.167 371.713C385.218 371.433 380.963 369.862 376.71 368.223C371.823 366.338 368.381 365.301 367.357 365.404C366.026 365.537 365.474 366.036 364.259 368.202C363.446 369.652 361.057 374.397 358.949 378.746C356.841 383.096 354.605 387.8 353.979 389.199C353.354 390.598 351.178 395.818 349.143 400.798C347.11 405.778 344.866 411.394 344.158 413.279C343.449 415.164 342.192 419.078 341.363 421.978C340.534 424.878 339.639 427.962 339.374 428.832C339.109 429.702 338.514 432.074 338.051 434.104C337.588 436.134 336.996 438.743 336.736 439.903C336.475 441.063 336.018 443.435 335.719 445.175C335.42 446.915 334.933 449.999 334.635 452.029C334.338 454.059 333.748 458.448 333.323 461.783C332.897 465.117 332.555 470.811 332.562 474.436C332.57 478.814 332.787 481.292 333.21 481.817C333.559 482.252 334.794 483.231 335.954 483.992C337.113 484.754 340.285 486.47 343.001 487.805C345.718 489.141 349.189 490.609 350.715 491.067C353.149 491.797 353.631 491.806 354.643 491.136C355.697 490.438 355.854 489.667 356.45 482.272C356.809 477.817 357.343 472.511 357.636 470.482C357.929 468.452 358.522 464.774 358.954 462.31C359.385 459.845 360.068 456.168 360.47 454.138C360.873 452.108 361.569 449.024 362.017 447.284C362.466 445.544 363.214 442.731 363.681 441.031L364.53 437.942L366.662 438.276C367.835 438.46 371.07 438.757 373.852 438.936L378.91 439.263L378.632 440.901C378.479 441.802 378.25 442.873 378.123 443.28C377.996 443.689 377.548 447.484 377.126 451.716C376.705 455.948 376.377 462.494 376.398 466.264C376.421 470.323 376.703 473.87 377.091 474.963C377.492 476.096 378.712 477.551 380.253 478.734C381.632 479.793 384.628 481.654 386.909 482.87C389.19 484.086 391.798 485.315 392.705 485.6C393.612 485.886 395.996 486.553 398.005 487.081C401.119 487.9 401.895 487.941 403.282 487.358C404.177 486.981 405.495 485.877 406.211 484.904C406.928 483.931 408.688 480.881 410.124 478.126C411.559 475.371 414.563 469.559 416.799 465.209C419.034 460.86 421.178 456.833 421.562 456.261C422.171 455.354 422.26 455.785 422.26 459.653C422.26 462.089 422.525 466.235 422.849 468.864C423.205 471.752 423.95 474.756 424.73 476.45C425.564 478.26 426.789 479.824 428.184 480.858C429.372 481.74 431.383 482.919 432.652 483.477C433.92 484.036 437.03 485.2 439.561 486.064C442.093 486.929 445.186 487.777 446.434 487.95C447.889 488.152 449.81 487.942 451.783 487.366C453.476 486.872 455.772 485.954 456.884 485.328C458.254 484.556 459.792 482.83 461.655 479.971C463.166 477.652 465.325 473.974 466.452 471.8C467.58 469.625 469.86 464.524 471.521 460.464C473.181 456.405 476.015 448.576 477.82 443.066C479.624 437.557 481.609 430.925 482.231 428.328C482.853 425.732 483.798 422.647 484.333 421.474C484.9 420.229 487.867 416.791 491.469 413.205C494.86 409.829 500.803 404.262 504.676 400.833C508.549 397.405 512.657 393.732 513.805 392.671C514.952 391.61 518.004 388.977 520.586 386.821C523.168 384.664 527.628 381.11 530.497 378.923C533.365 376.737 538.53 373.086 541.972 370.81C545.415 368.534 548.994 366.246 549.925 365.724C550.857 365.202 552.042 364.775 552.559 364.775C553.077 364.775 553.782 365.06 554.126 365.408C554.47 365.756 554.753 366.527 554.754 367.121C554.755 367.715 553.58 370.574 552.143 373.474C550.705 376.374 547.946 380.988 546.012 383.727C544.077 386.467 539.677 391.66 536.234 395.267C532.792 398.874 527.98 403.526 525.541 405.606C523.103 407.685 519.229 410.808 516.934 412.547C514.639 414.285 508.477 418.756 503.242 422.481C498.006 426.208 493.722 429.445 493.722 429.676C493.722 429.906 494.872 431.471 496.277 433.154C497.682 434.836 500.96 438.335 503.562 440.929L508.292 445.645L513.917 442.949C517.011 441.466 521.068 439.787 522.933 439.217C524.798 438.647 527.556 438.026 529.062 437.837C530.569 437.649 531.801 437.598 531.801 437.725C531.801 437.852 529.864 439.205 527.497 440.731C525.131 442.257 519.755 445.958 515.552 448.955C510.645 452.455 505.879 456.433 502.234 460.071C499.113 463.187 495.508 466.923 494.225 468.373C492.941 469.823 490.694 472.432 489.231 474.172C487.768 475.912 484.7 479.826 482.413 482.871C480.126 485.916 476.842 490.661 475.114 493.415C473.387 496.17 471.265 499.729 470.398 501.324C469.532 502.918 467.986 505.884 466.963 507.914C465.94 509.944 464.487 513.028 463.734 514.768C462.981 516.507 460.858 521.727 459.015 526.366C457.171 531.006 455.163 536.7 454.552 539.019C453.941 541.339 453.227 544.305 452.966 545.61C452.705 546.914 452.037 550.829 451.483 554.309C450.929 557.788 450.465 562.949 450.452 565.776C450.43 570.404 450.522 570.916 451.378 570.916C451.9 570.916 454.423 570.463 456.985 569.909C459.547 569.356 464.353 568.176 467.667 567.289C470.98 566.401 475.557 565.059 477.838 564.307C480.119 563.554 485.578 561.146 489.968 558.954C494.706 556.589 500.642 553.066 504.573 550.284C508.216 547.707 513.334 543.821 515.947 541.649C518.559 539.477 523.608 534.675 527.165 530.979C530.722 527.282 535.558 521.729 537.911 518.638C540.265 515.547 543.815 510.442 545.8 507.294C547.785 504.145 550.67 499.082 552.211 496.042C553.752 493.003 555.434 489.523 555.948 488.31C556.463 487.096 557.474 484.605 558.196 482.774C558.917 480.943 559.823 478.732 560.209 477.863C560.596 476.993 562.203 472.129 563.781 467.055C565.359 461.98 566.849 456.898 567.091 455.76C567.414 454.246 567.951 453.464 569.097 452.84C569.957 452.371 572.305 451.365 574.313 450.602C576.321 449.841 578.857 448.908 579.949 448.53C581.358 448.042 582.039 448.009 582.296 448.416C582.496 448.731 583.95 449.806 585.528 450.805C587.106 451.803 589.848 453.245 591.622 454.008C593.397 454.772 596.214 455.548 597.882 455.735C599.7 455.938 601.519 455.839 602.419 455.488C603.247 455.165 605.679 453.187 607.824 451.093C609.97 448.998 613.893 444.556 616.542 441.221C619.191 437.887 622.817 432.963 624.599 430.282C626.381 427.6 627.972 425.405 628.135 425.405C628.298 425.405 628.284 426.149 628.104 427.058C627.924 427.967 628.022 429.631 628.322 430.755C628.621 431.879 629.601 433.646 630.499 434.679C631.397 435.713 634.732 438.463 637.91 440.789C641.088 443.117 644.796 445.589 646.149 446.284C647.502 446.979 649.271 447.548 650.08 447.548C651.156 447.548 652.19 446.873 653.921 445.043C655.224 443.666 657.353 441.234 658.652 439.64C659.951 438.045 663.541 433.181 666.629 428.832C669.717 424.482 674.01 418.723 676.167 416.034C678.325 413.345 680.206 411.262 680.348 411.406C680.49 411.55 680.283 412.801 679.887 414.186C679.377 415.971 679.181 419.702 679.211 426.986C679.251 436.368 679.349 437.434 680.333 439.176C680.927 440.226 682.592 442.755 684.034 444.798C685.476 446.84 687.004 448.946 687.43 449.479C687.857 450.011 689.528 452.046 691.143 454C692.759 455.955 695.086 458.149 696.315 458.877C697.545 459.605 699.012 460.201 699.576 460.201C700.14 460.201 701.67 459.516 702.976 458.679C704.281 457.843 706.2 456.122 707.24 454.857C708.281 453.592 711.505 448.76 714.406 444.121C717.307 439.481 722.477 431.474 725.895 426.326C729.312 421.178 733.231 415.366 734.603 413.409C735.975 411.453 737.781 408.666 738.616 407.216C739.451 405.766 740.755 403.275 741.513 401.68C742.272 400.085 743.502 397.001 744.248 394.826C744.994 392.652 745.97 389.043 746.417 386.809C746.864 384.574 747.23 381.001 747.23 378.87C747.23 376.739 746.737 372.399 746.135 369.226C745.533 366.053 744.843 362.39 744.603 361.085C744.362 359.78 743.682 355.901 743.09 352.465C742.498 349.029 742.014 345.327 742.014 344.238C742.014 342.524 742.385 341.911 744.774 339.677C746.292 338.258 748.584 336.147 749.867 334.988C751.15 333.828 754.075 331.221 756.366 329.195C758.657 327.168 761.823 324.328 763.401 322.883C764.979 321.438 768.734 317.751 771.747 314.688C774.759 311.626 777.982 308.179 778.909 307.029C779.836 305.878 781.65 302.801 782.94 300.191C784.246 297.547 785.637 293.739 786.079 291.59C786.516 289.468 786.874 286.339 786.874 284.636C786.874 282.622 786.394 280.189 785.504 277.685C784.751 275.565 783.313 272.17 782.308 270.14C781.304 268.11 779.697 265.248 778.736 263.78C777.776 262.311 776.027 260.117 774.85 258.903C773.372 257.38 772.278 256.702 771.315 256.714C770.354 256.727 767.976 258.296 763.661 261.767ZM434.012 278.444C433.347 280.546 432.224 283.927 431.515 285.957C430.806 287.986 429.354 291.782 428.287 294.392C427.22 297.002 424.514 302.823 422.274 307.328C420.033 311.832 416.727 318.001 414.929 321.035C413.13 324.07 409.851 329.283 407.643 332.621C405.435 335.959 403.213 339.038 402.705 339.465C401.843 340.187 401.806 340.116 402.145 338.404C402.345 337.395 402.975 334.671 403.546 332.352C404.117 330.032 405.654 325.405 406.962 322.071C408.271 318.736 410.997 312.686 413.021 308.627C415.043 304.567 418.093 298.992 419.796 296.237C421.5 293.483 425.509 287.497 428.706 282.936C431.903 278.375 434.676 274.638 434.869 274.632C435.062 274.626 434.676 276.342 434.012 278.444ZM236.302 278.64C235.154 278.76 232.338 279.352 230.043 279.955C227.747 280.558 223.288 282.111 220.132 283.407C216.976 284.702 212.007 287.045 209.09 288.614C206.172 290.183 201.242 293.09 198.135 295.075C195.028 297.06 190.725 299.952 188.574 301.502C186.422 303.053 183.09 305.586 181.168 307.133C179.247 308.68 177.486 309.945 177.255 309.945C177.024 309.945 176.273 308.873 175.585 307.563C174.898 306.254 172.96 303.666 171.28 301.812C169.6 299.958 167.135 297.712 165.805 296.822C164.474 295.931 162.12 294.723 160.575 294.139C159.029 293.554 155.953 292.674 153.739 292.184C150.753 291.521 147.219 291.292 140.063 291.297C132.044 291.303 129.51 291.502 125.076 292.478C122.14 293.125 117.687 294.372 115.18 295.249C112.674 296.127 109.362 297.469 107.822 298.232C106.281 298.994 104.59 300.171 104.065 300.846C103.539 301.522 102.523 304.024 101.807 306.405C101.09 308.787 100.133 312.657 99.6794 315.006C99.2089 317.443 98.8547 321.986 98.8547 325.588C98.8547 329.946 99.1087 332.654 99.6752 334.334C100.126 335.672 100.815 337.036 101.207 337.364C101.737 337.809 102.224 337.8 103.125 337.326C103.789 336.977 105.753 335.325 107.489 333.655C109.226 331.985 112.63 329.313 115.053 327.718C117.476 326.123 120.75 324.068 122.328 323.153C123.906 322.236 128.008 320.082 131.444 318.363C134.88 316.646 138.87 314.892 140.312 314.466C141.753 314.04 143.78 313.555 144.818 313.389C145.855 313.223 147.096 313.239 147.576 313.425C148.055 313.611 148.791 314.434 149.21 315.255C149.69 316.191 149.973 318.276 149.972 320.858C149.97 323.12 149.61 327.224 149.169 329.979C148.729 332.734 147.54 338.19 146.526 342.105C145.513 346.02 143.847 351.832 142.824 355.022C141.801 358.211 139.268 366.04 137.197 372.42C135.125 378.799 132.896 385.798 132.244 387.973C131.591 390.147 130.719 392.994 130.305 394.299C129.892 395.604 128.609 399.993 127.454 404.053C126.3 408.112 125.164 412.145 124.929 413.015C124.694 413.885 123.683 417.325 122.681 420.66C121.68 423.994 120.74 427.079 120.592 427.514C120.445 427.949 118.515 433.998 116.303 440.958C114.092 447.917 110.805 458.118 108.998 463.628C107.192 469.137 104.415 478.044 102.828 483.42C101.24 488.797 99.5886 494.491 99.1583 496.074C98.7274 497.656 97.7551 501.205 96.9972 503.96C96.2393 506.714 95.4934 509.561 95.34 510.286C95.1861 511.011 93.2327 518.959 90.998 527.948C88.7639 536.937 85.7448 548.961 84.2884 554.667C82.0721 563.354 81.6412 565.807 81.6412 569.743C81.6412 572.948 81.9005 574.97 82.4555 576.094C82.903 577.002 83.9009 578.187 84.6723 578.728C85.4438 579.27 87.5272 580.017 89.3023 580.388C91.3392 580.814 93.8404 580.931 96.0834 580.706C98.0379 580.509 101.046 580.11 102.767 579.819C104.488 579.528 108.596 578.378 111.895 577.262C115.195 576.146 119.111 574.745 120.6 574.149C122.088 573.553 125.339 572.108 127.824 570.936C130.309 569.765 132.458 568.807 132.6 568.807C132.741 568.807 134.659 567.889 136.86 566.767C139.061 565.645 144.028 562.664 147.896 560.142C151.764 557.62 156.455 554.359 158.32 552.897C160.184 551.434 162.65 549.373 163.798 548.318C164.946 547.263 167.058 545.455 168.492 544.299C169.926 543.143 172.496 540.889 174.203 539.29C175.91 537.691 178.023 535.669 178.898 534.797C179.773 533.925 181.897 531.664 183.618 529.773C185.34 527.881 187.804 525.07 189.095 523.527C190.386 521.983 191.987 520.092 192.651 519.325C193.316 518.558 196.041 515.203 198.707 511.868C201.372 508.533 204.728 504.232 206.166 502.311C207.603 500.388 210.417 496.474 212.417 493.611C214.419 490.749 218.164 484.967 220.739 480.762C223.315 476.558 226.26 471.694 227.283 469.954C228.306 468.215 229.991 465.14 231.027 463.121C232.064 461.103 232.911 459.27 232.911 459.048C232.911 458.827 233.584 457.157 234.405 455.337C235.227 453.518 236.667 450.25 237.606 448.075C238.545 445.9 240.015 442.579 240.873 440.694C241.731 438.809 244.278 432.469 246.532 426.606C248.785 420.742 251.232 414.218 251.969 412.107C252.706 409.997 254.201 405.542 255.292 402.207C256.382 398.873 257.912 393.772 258.691 390.872C259.469 387.973 260.314 384.888 260.567 384.018C260.821 383.149 261.542 379.946 262.171 376.901C262.799 373.856 263.484 370.298 263.693 368.993C263.902 367.688 264.557 363.418 265.149 359.503C265.741 355.589 266.478 350.013 266.786 347.113C267.095 344.214 267.582 336.675 267.868 330.361C268.227 322.468 268.217 316.538 267.838 311.382C267.535 307.257 267.071 303.052 266.808 302.037C266.545 301.022 265.948 298.531 265.482 296.501C265.016 294.471 263.933 291.563 263.077 290.038C262.214 288.503 260.23 286.204 258.633 284.889C257.045 283.582 254.064 281.695 252.007 280.695C248.752 279.112 247.627 278.847 243.328 278.649C240.611 278.524 237.45 278.52 236.302 278.64ZM763.537 288.988C763.674 289.351 763.605 290.952 763.383 292.547C763.162 294.142 762.582 296.633 762.094 298.083C761.607 299.532 760.312 301.905 759.217 303.355C758.121 304.805 756.678 306.605 756.01 307.354C755.341 308.104 753.268 309.849 751.403 311.231C749.539 312.614 747.346 314.093 746.53 314.52C745.714 314.946 744.934 315.181 744.797 315.042C744.659 314.903 745.151 313.823 745.889 312.641C746.627 311.46 747.23 310.375 747.23 310.229C747.23 310.084 748.052 308.668 749.056 307.081C750.06 305.494 750.882 304.071 750.882 303.917C750.882 303.764 751.742 302.27 752.793 300.597C753.844 298.924 754.853 297.437 755.034 297.292C755.216 297.147 756.492 295.532 757.87 293.704C759.248 291.876 760.866 289.919 761.465 289.355C762.064 288.79 762.719 288.329 762.922 288.329C763.124 288.329 763.401 288.626 763.537 288.988ZM798.485 311.922C796.498 314.749 793.483 319.214 791.786 321.843C790.088 324.473 788.414 327.083 788.066 327.642C787.717 328.203 785.453 331.982 783.034 336.042C780.616 340.102 778.181 344.253 777.624 345.268C777.067 346.283 775.899 348.418 775.027 350.013C774.155 351.608 771.549 356.709 769.236 361.348C766.922 365.988 763.998 372.038 762.74 374.792C761.482 377.547 758.626 384.308 756.395 389.818C754.163 395.327 752.039 400.547 751.675 401.417C751.31 402.286 749.903 405.964 748.549 409.588C747.194 413.213 745.897 416.653 745.666 417.233C745.434 417.813 744.655 419.829 743.932 421.714C743.21 423.599 741.763 427.514 740.717 430.413C739.67 433.313 738.221 437.228 737.495 439.112C736.769 440.997 735.982 443.014 735.746 443.594C735.51 444.174 734.728 446.309 734.009 448.339C733.29 450.368 731.846 454.52 730.799 457.565C729.753 460.609 728.347 464.643 727.674 466.527C727.001 468.412 725.714 472.09 724.813 474.699C723.912 477.309 721.456 484.664 719.354 491.043C717.252 497.422 714.713 505.251 713.713 508.441C712.712 511.631 711.487 515.664 710.991 517.404C710.494 519.143 709.895 521.16 709.66 521.885C709.424 522.61 708.944 524.496 708.593 526.076L707.955 528.95L710.863 531.686C712.463 533.191 715.491 535.709 717.591 537.282C719.691 538.855 722.454 540.897 723.73 541.821C725.006 542.745 726.444 543.501 726.926 543.501C727.408 543.501 728.048 543.201 728.349 542.835C728.65 542.469 729.364 540.868 729.936 539.277C730.508 537.686 731.83 533.892 732.874 530.848C733.917 527.803 734.963 524.837 735.198 524.257C735.433 523.677 735.914 522.491 736.268 521.621C736.621 520.751 737.335 518.735 737.854 517.14C738.374 515.545 739.542 512.105 740.449 509.495C741.357 506.886 742.691 503.09 743.414 501.06C744.137 499.03 745.554 495.116 746.564 492.361C747.573 489.606 749.556 484.387 750.97 480.762C752.384 477.138 753.74 473.698 753.983 473.118C754.226 472.538 755.036 470.692 755.783 469.018C756.53 467.342 757.141 465.861 757.141 465.724C757.141 465.588 757.963 463.68 758.967 461.483C759.971 459.286 760.793 457.413 760.793 457.322C760.793 457.231 761.989 454.579 763.451 451.43C764.913 448.28 767.239 443.33 768.62 440.43C770 437.531 772.642 431.955 774.489 428.041C776.337 424.126 778.964 418.61 780.327 415.783C781.689 412.956 782.964 410.643 783.16 410.643C783.355 410.643 784.388 413.479 785.455 416.945C786.522 420.411 787.395 423.605 787.395 424.042C787.395 424.48 787.883 426.156 788.479 427.766C789.075 429.376 790.152 431.401 790.873 432.267C791.97 433.585 792.564 433.84 794.537 433.84C796.194 433.84 798.211 433.215 801.351 431.728C803.804 430.566 807.359 428.634 809.252 427.434C811.145 426.234 814.729 423.62 817.217 421.624C819.705 419.629 824.607 414.981 828.11 411.296C831.614 407.611 837.105 401.034 840.314 396.68C843.524 392.326 847.637 386.391 849.456 383.491C851.274 380.592 854.721 374.697 857.115 370.393C859.509 366.089 863.066 359.327 865.019 355.367C866.973 351.408 868.886 347.338 869.27 346.323C869.654 345.308 870.309 343.647 870.725 342.632C871.142 341.617 871.693 340.312 871.95 339.733C872.207 339.153 873.135 336.661 874.012 334.197C874.888 331.732 876.063 328.359 876.621 326.701C877.179 325.042 877.636 323.216 877.636 322.641C877.636 322.067 876.873 321.014 875.941 320.302C875.008 319.589 872.015 317.856 869.29 316.45C866.564 315.045 863.161 313.383 861.726 312.756C860.292 312.13 857.451 311.021 855.412 310.293C853.374 309.564 849.807 308.674 847.486 308.315L843.265 307.663L840.759 309.72C839.381 310.852 837.432 312.486 836.428 313.35C835.424 314.215 832.607 316.951 830.168 319.431C827.73 321.911 824.667 325.121 823.363 326.564C822.059 328.007 818.765 331.917 816.044 335.251C813.322 338.586 809.454 343.449 807.445 346.059C805.438 348.669 802.616 352.465 801.177 354.494C799.736 356.524 796.313 361.625 793.57 365.83C790.827 370.034 786.907 376.15 784.859 379.42C782.811 382.689 781.136 385.478 781.136 385.616C781.136 385.754 780.436 386.993 779.581 388.37C778.725 389.746 778.021 390.546 778.016 390.147C778.011 389.749 779.979 385.36 782.391 380.394C784.803 375.428 787.994 369.112 789.483 366.357C790.971 363.602 792.96 359.925 793.902 358.185C794.845 356.445 796.198 353.954 796.909 352.649C797.62 351.344 800.818 345.507 804.017 339.677C807.274 333.739 811.551 326.812 813.741 323.929C816.368 320.469 817.644 318.327 817.633 317.395C817.624 316.632 817.33 315.632 816.981 315.172C816.631 314.713 815.172 313.669 813.737 312.852C812.303 312.035 809.208 310.335 806.86 309.074C804.511 307.813 802.479 306.782 802.344 306.782C802.209 306.782 800.473 309.095 798.485 311.922ZM223.582 313.11C225.127 313.401 227.02 313.897 227.788 314.212C228.556 314.528 229.756 315.658 230.454 316.724C231.152 317.79 231.944 319.964 232.215 321.553C232.543 323.482 232.499 326.898 232.083 331.824C231.739 335.884 230.836 342.764 230.075 347.113C229.315 351.463 228.47 356.327 228.199 357.921C227.927 359.516 227.13 363.075 226.428 365.83C225.725 368.584 224.989 371.431 224.792 372.156C224.595 372.881 223.319 377.389 221.957 382.173C220.595 386.958 219.361 391.347 219.213 391.927C219.066 392.507 217.294 398.438 215.277 405.107C213.26 411.776 210.776 419.605 209.758 422.505C208.739 425.405 207.533 428.829 207.077 430.113C206.622 431.398 205.793 433.461 205.236 434.697C204.678 435.934 204.222 437.08 204.222 437.244C204.222 437.408 203.767 438.548 203.212 439.777C202.656 441.006 200.869 445.096 199.241 448.866C197.613 452.635 195.805 456.787 195.224 458.092C194.644 459.397 192.238 464.379 189.879 469.164C187.519 473.948 184.046 480.519 182.16 483.765C180.274 487.011 177.864 491.044 176.803 492.727C175.742 494.411 173.678 497.33 172.215 499.215C170.752 501.1 166.924 505.867 163.708 509.809C160.326 513.953 155.702 518.865 152.743 521.456C149.929 523.92 145.631 527.464 143.193 529.33C140.754 531.197 136.939 533.839 134.716 535.201C132.493 536.564 130.674 537.481 130.674 537.24C130.674 536.998 131.142 533.741 131.714 530.002C132.286 526.262 132.99 521.839 133.279 520.171C133.567 518.504 134.021 515.895 134.288 514.372C134.554 512.85 135.138 509.588 135.584 507.123C136.031 504.658 137.01 499.795 137.761 496.315C138.513 492.835 139.313 489.158 139.541 488.143C139.769 487.128 140.817 482.977 141.87 478.917C142.922 474.857 143.978 470.824 144.214 469.954C144.451 469.084 145.008 467.068 145.451 465.473C145.894 463.878 147.076 459.845 148.078 456.51C149.08 453.176 150.522 448.431 151.283 445.966C152.044 443.501 153.492 438.756 154.5 435.422C155.508 432.087 156.528 428.647 156.768 427.777C157.008 426.907 157.551 425.009 157.976 423.56C158.4 422.11 159.375 418.907 160.141 416.442C160.908 413.977 161.961 410.537 162.482 408.798C163.003 407.058 165.779 398.517 168.652 389.818C171.524 381.119 174.375 372.173 174.986 369.939C175.597 367.704 176.674 363.671 177.381 360.976C178.087 358.281 179.026 354.356 179.468 352.254C179.909 350.152 180.573 345.452 180.944 341.81C181.535 335.998 181.772 335.034 182.879 333.933C183.572 333.243 186.37 330.868 189.095 328.655C191.821 326.442 196.035 323.303 198.461 321.68C200.888 320.056 204.468 317.921 206.418 316.935C208.368 315.949 210.725 314.9 211.657 314.602C212.589 314.306 214.759 313.757 216.48 313.384C218.202 313.012 219.871 312.679 220.191 312.644C220.51 312.609 222.036 312.819 223.582 313.11ZM841.611 342.966C840.703 344.667 839.364 347.127 838.637 348.432C837.909 349.736 836.598 351.99 835.725 353.44C834.85 354.89 832.503 358.567 830.507 361.612C828.512 364.657 824.627 369.985 821.873 373.454C819.12 376.922 815.459 381.305 813.737 383.193C812.016 385.082 809.434 387.791 807.999 389.213C806.565 390.634 803.447 393.46 801.071 395.492C798.695 397.524 796.614 399.047 796.446 398.878C796.279 398.708 797.711 396.245 799.63 393.403C801.549 390.561 804.922 385.613 807.124 382.407C809.327 379.201 812.655 374.483 814.52 371.923C816.384 369.362 819.172 365.698 820.714 363.781C822.256 361.863 824.604 358.991 825.931 357.399C827.257 355.807 829.744 352.96 831.457 351.073C833.17 349.185 836.407 345.773 838.651 343.49C840.896 341.207 842.852 339.459 842.997 339.606C843.143 339.754 842.519 341.266 841.611 342.966ZM640.279 354.363C640.269 354.725 639.95 356.327 639.57 357.921C639.191 359.516 638.107 362.719 637.162 365.039C636.217 367.359 633.819 372.459 631.832 376.374C629.845 380.288 626.211 386.572 623.757 390.337C621.303 394.101 617.865 399.084 616.118 401.408C614.372 403.733 612.466 406.115 611.884 406.701C611.303 407.288 609.301 409.048 607.436 410.613C605.571 412.177 602.824 414.247 601.332 415.213C599.839 416.179 598.489 416.969 598.332 416.969C598.175 416.969 598.047 416.39 598.047 415.681C598.047 414.973 598.848 411.922 599.826 408.902C600.805 405.881 603.005 400.675 604.715 397.334C606.424 393.992 609.061 389.391 610.574 387.111C612.087 384.83 615.492 380.236 618.14 376.901C620.788 373.566 624.434 369.177 626.242 367.148C628.05 365.118 631.71 361.262 634.375 358.58C637.039 355.898 639.462 353.704 639.759 353.704C640.055 353.704 640.29 354.001 640.279 354.363ZM721.091 365.698C721.37 366.785 721.868 369.098 722.199 370.838C722.531 372.578 723.178 375.306 723.638 376.901C724.099 378.496 724.443 380.702 724.404 381.804C724.365 382.905 723.771 385.04 723.085 386.549C722.399 388.056 719.805 392.7 717.32 396.867C714.836 401.034 712.803 404.566 712.803 404.714C712.803 404.863 710.853 407.622 708.469 410.845C706.085 414.069 703.422 417.711 702.551 418.94C701.68 420.168 700.851 421.057 700.711 420.915C700.57 420.773 700.747 418.7 701.105 416.308C701.463 413.917 702.027 410.893 702.358 409.588C702.69 408.284 703.412 405.081 703.962 402.471C704.512 399.861 705.226 396.658 705.549 395.354C705.872 394.049 706.711 390.965 707.414 388.5C708.118 386.035 709.319 382.358 710.084 380.328C710.848 378.298 712.498 374.502 713.751 371.893C715.003 369.283 716.605 366.377 717.311 365.434C718.017 364.492 719.042 363.721 719.59 363.721C720.303 363.721 720.729 364.282 721.091 365.698ZM278.555 370.261C277.843 370.981 275.782 374.608 273.976 378.321C272.17 382.035 269.367 388.038 267.748 391.663C266.128 395.288 263.376 401.74 261.632 406.001C259.889 410.263 257.43 416.906 256.17 420.763C254.909 424.621 253.167 430.268 252.299 433.313C251.43 436.358 249.783 442.763 248.638 447.548C247.493 452.332 246.286 457.908 245.956 459.937C245.625 461.967 245.137 464.913 244.871 466.484C244.605 468.054 244.387 471.313 244.387 473.725C244.387 476.137 244.653 479.241 244.979 480.623C245.304 482.004 245.832 483.71 246.152 484.413C246.473 485.116 247.554 486.184 248.556 486.785C249.557 487.387 251.201 488.172 252.207 488.529C253.214 488.886 256.46 489.58 259.42 490.071C264.555 490.923 264.975 490.92 268.548 490.002C270.608 489.473 272.895 488.737 273.63 488.366C274.364 487.996 276.51 486.037 278.398 484.014C280.287 481.991 283.879 477.469 286.38 473.965C288.883 470.46 291.137 467.723 291.392 467.882C291.647 468.041 291.858 469.877 291.863 471.962C291.867 474.048 292.183 477.093 292.564 478.731C292.946 480.369 293.897 482.81 294.678 484.158C295.459 485.504 297.079 487.33 298.28 488.215C299.48 489.1 301.803 490.513 303.441 491.353C305.08 492.195 308.249 493.628 310.483 494.538C312.717 495.448 315.716 496.635 317.146 497.176C318.576 497.717 320.307 498.16 320.992 498.16C322.183 498.16 322.226 498.038 321.957 495.392C321.803 493.87 321.259 489.659 320.749 486.034C320.056 481.111 319.817 475.977 319.805 465.737C319.795 457.657 320.068 449.648 320.47 446.23C320.845 443.04 321.473 438.532 321.868 436.213C322.262 433.893 322.813 430.809 323.092 429.359C323.372 427.909 324.196 424.469 324.923 421.714C325.652 418.96 326.86 414.926 327.609 412.752C328.358 410.577 330.596 404.695 332.582 399.681C334.568 394.668 336.193 390.214 336.193 389.785C336.193 389.355 335.664 388.789 335.019 388.525C334.374 388.261 332.75 387.648 331.412 387.164C330.074 386.679 326.571 384.764 323.627 382.91C320.684 381.055 317.98 379.537 317.619 379.537C317.259 379.537 316.514 380.189 315.965 380.987C315.416 381.785 314.101 384.045 313.043 386.012C311.985 387.978 310.69 390.35 310.166 391.284C309.643 392.217 307.219 396.54 304.78 400.889C302.341 405.239 299.471 410.34 298.403 412.224C297.334 414.109 296.276 415.889 296.053 416.179C295.829 416.469 295.058 417.773 294.341 419.078C293.623 420.383 290.758 425.229 287.973 429.846C285.188 434.464 281.855 439.737 280.565 441.564C279.275 443.391 276.133 447.086 273.583 449.775C269.337 454.253 268.945 454.544 268.925 453.223C268.913 452.43 269.177 450.65 269.511 449.269C269.844 447.887 270.76 444.74 271.546 442.276C272.331 439.811 276.067 429.728 279.847 419.869C283.627 410.01 288.375 397.911 290.397 392.981C292.42 388.052 294.761 382.502 295.6 380.649C296.44 378.796 297.017 376.991 296.883 376.638C296.749 376.285 295.948 375.857 295.103 375.686C294.258 375.516 292.067 374.683 290.233 373.836C288.399 372.989 285.726 371.762 284.291 371.109C282.857 370.456 281.27 369.704 280.767 369.437C280.079 369.072 279.528 369.278 278.555 370.261ZM777.484 466.597C773.038 466.863 767.441 467.217 765.048 467.383L760.697 467.685L759.908 469.61C759.474 470.669 758.706 472.485 758.2 473.645C757.693 474.805 756.211 478.601 754.906 482.08C753.6 485.56 751.926 490.073 751.185 492.108C750.445 494.145 749.839 496.22 749.839 496.722C749.839 497.223 750.132 497.631 750.491 497.629C750.849 497.627 755.837 497.274 761.575 496.845C767.313 496.416 774.355 495.824 777.224 495.528C780.093 495.234 785.022 494.758 788.178 494.472C791.333 494.186 794.737 493.829 795.741 493.679C796.745 493.529 802.614 493.172 808.782 492.887C814.95 492.601 823.87 492.131 828.603 491.842C833.337 491.553 840.614 491.2 844.774 491.059C848.934 490.917 857.853 490.689 864.595 490.552C871.337 490.414 878.731 490.494 881.026 490.73C884.074 491.044 885.481 490.984 886.243 490.508C886.816 490.149 888.505 487.395 889.996 484.386C891.486 481.378 893.415 477.324 894.284 475.378C895.152 473.431 896.007 471.257 896.184 470.546C896.411 469.633 896.186 468.933 895.416 468.155C894.398 467.125 893.681 467.047 884.286 466.928C878.764 466.859 871.898 466.758 869.029 466.705C866.16 466.652 846.208 466.497 824.691 466.361C803.174 466.224 781.931 466.331 777.484 466.597ZM537.017 468.508C537.017 468.728 535.418 471.871 533.463 475.494C531.508 479.116 528.31 484.571 526.356 487.616C524.403 490.661 521.253 495.168 519.357 497.633C517.461 500.098 513.676 504.393 510.945 507.177C508.214 509.962 504.395 513.569 502.457 515.193C500.52 516.818 496.06 520.141 492.547 522.579C489.033 525.016 483.731 528.485 480.765 530.287C477.798 532.089 475.275 533.466 475.157 533.348C475.04 533.229 476.38 530.424 478.134 527.113C479.889 523.803 483.041 518.484 485.139 515.295C487.237 512.105 491.407 506.411 494.405 502.642C497.403 498.872 502.525 493.168 505.787 489.965C509.049 486.763 513.361 482.839 515.37 481.246C517.378 479.652 520.899 477.152 523.194 475.689C525.489 474.227 527.719 472.872 528.149 472.678C528.58 472.484 530.575 471.399 532.583 470.266C534.591 469.134 536.411 468.186 536.626 468.158C536.841 468.131 537.017 468.289 537.017 468.508ZM709.413 470.275C706.257 470.515 698.628 471.08 692.46 471.53C686.292 471.98 678.428 472.593 674.986 472.891C671.543 473.19 664.971 473.782 660.38 474.207C655.79 474.632 649.805 475.203 647.079 475.477C644.354 475.751 639.542 476.233 636.386 476.549C633.23 476.865 625.953 477.609 620.216 478.204C614.478 478.799 607.788 479.481 605.349 479.72C602.911 479.959 597.512 480.538 593.352 481.007C589.192 481.477 583.793 482.088 581.355 482.366C578.916 482.644 574.574 483.111 571.705 483.404C568.836 483.697 566.009 484.045 565.423 484.177C564.778 484.323 563.977 485.308 563.394 486.676C562.864 487.918 561.175 491.544 559.64 494.733C558.105 497.923 556.317 501.482 555.666 502.642C555.016 503.801 553.605 506.331 552.532 508.262C551.458 510.193 548.702 514.425 546.407 517.667C544.111 520.907 542.233 523.801 542.233 524.097C542.233 524.393 542.761 524.505 543.407 524.344C544.052 524.185 546.928 523.588 549.797 523.018C552.666 522.448 557.595 521.492 560.751 520.893C563.906 520.294 569.305 519.311 572.748 518.707C576.191 518.103 581.12 517.261 583.702 516.837C586.284 516.412 590.627 515.707 593.352 515.271C596.077 514.835 599.716 514.258 601.437 513.989C603.159 513.721 606.797 513.147 609.522 512.715C612.248 512.282 616.356 511.678 618.651 511.371C620.946 511.065 626.697 510.32 631.43 509.717C636.164 509.113 641.68 508.41 643.688 508.155C645.697 507.9 650.391 507.316 654.121 506.858C657.851 506.401 663.367 505.795 666.379 505.513C669.391 505.231 674.555 504.775 677.855 504.501C681.154 504.226 687.374 503.626 691.678 503.167C695.981 502.708 702.081 502.114 705.234 501.846C709.676 501.469 711.114 501.154 711.624 500.449C711.985 499.95 712.282 499.22 712.282 498.828C712.282 498.437 714.277 492.066 716.716 484.67C719.154 477.275 721.149 470.88 721.149 470.458C721.149 469.867 720.461 469.708 718.15 469.765C716.501 469.806 712.569 470.036 709.413 470.275ZM459.817 498.72C458.526 498.96 453.949 499.777 449.645 500.535C445.342 501.294 440.53 502.129 438.952 502.391C437.374 502.653 434.675 503.093 432.953 503.369C431.232 503.645 427.007 504.369 423.564 504.979C420.121 505.589 411.789 507.161 405.047 508.472C398.305 509.783 390.793 511.222 388.355 511.67C385.916 512.118 382.278 512.815 380.27 513.219C378.261 513.623 374.975 514.32 372.967 514.766C370.959 515.214 368.611 515.712 367.751 515.874C366.89 516.036 363.486 516.755 360.187 517.471C356.888 518.188 353.25 518.994 352.102 519.263C350.954 519.531 345.687 520.721 340.396 521.907C335.105 523.092 327.125 525.027 322.661 526.206C318.197 527.385 313.724 528.524 312.72 528.737C311.715 528.95 308.664 529.734 305.938 530.479C303.213 531.223 298.871 532.412 296.288 533.12C293.706 533.828 289.833 534.89 287.682 535.481C285.53 536.072 279.544 537.782 274.38 539.281C269.216 540.78 262.996 542.6 260.557 543.325C258.119 544.05 255.419 544.84 254.559 545.082C253.698 545.324 250.999 546.113 248.56 546.835C246.122 547.557 242.131 548.782 239.693 549.558C237.254 550.334 233.85 551.404 232.129 551.936C230.408 552.468 227.063 553.516 224.696 554.265C222.329 555.014 218.515 556.22 216.22 556.945C213.924 557.67 210.227 558.834 208.004 559.533C205.78 560.232 201.379 561.639 198.224 562.66C195.068 563.681 185.092 567.003 176.055 570.042C167.018 573.08 156.22 576.794 152.06 578.294C147.9 579.794 143.91 581.216 143.193 581.453C142.475 581.691 139.541 582.758 136.672 583.824C133.803 584.89 129.461 586.488 127.022 587.374C124.584 588.261 118.246 590.745 112.939 592.895C107.631 595.044 102.584 597.119 101.724 597.505C100.863 597.891 97.342 599.334 93.8993 600.711C90.4566 602.089 86.2315 603.865 84.5101 604.656C82.7888 605.449 80.0237 606.722 78.3654 607.486C76.7077 608.25 75.2566 608.875 75.1418 608.875C75.0271 608.875 73.4497 609.562 71.6365 610.402C69.8233 611.241 65.8752 612.988 62.8628 614.283C59.8505 615.578 54.9211 617.788 51.9088 619.195C48.8964 620.602 41.8545 624.068 36.2601 626.898C30.6657 629.727 23.1544 633.613 19.5682 635.533C15.9821 637.454 11.6396 639.899 9.91824 640.967C8.19688 642.035 5.41664 643.614 3.74067 644.476C2.06418 645.338 0.474799 646.453 0.208772 646.953C-0.095855 647.524 -0.0656016 648.796 0.289623 650.38C0.599988 651.765 1.06475 653.847 1.32191 655.006C1.57907 656.166 2.41002 659.725 3.16793 662.915C3.92637 666.104 5.71136 672.747 7.13486 677.677C8.55889 682.606 10.5437 689.012 11.5457 691.911C12.5482 694.811 13.567 697.658 13.8095 698.238C14.0521 698.818 14.9107 700.953 15.7176 702.983C16.5246 705.013 17.897 708.097 18.7675 709.837L20.3507 713L23.2196 712.924C24.9769 712.877 28.3117 712.09 31.8263 710.891C34.9822 709.814 41.3199 707.254 45.9101 705.201C50.5004 703.148 57.6597 699.707 61.8196 697.554C65.9795 695.401 71.1436 692.679 73.2953 691.505C75.4469 690.331 80.1415 687.721 83.7277 685.705C87.3138 683.69 91.5974 681.219 93.2468 680.216C95.1329 679.069 96.3598 677.931 96.5544 677.148C96.7635 676.306 96.328 674.916 95.2039 672.837C94.2911 671.149 93.1774 669.354 92.7283 668.846C92.2792 668.338 91.2636 667.923 90.4712 667.923C89.6789 667.923 87.896 668.424 86.5095 669.035C85.123 669.646 83.4017 670.338 82.6844 670.572C81.9672 670.806 78.3326 672.085 74.6077 673.415C70.8828 674.744 67.3618 675.827 66.7833 675.82C66.2049 675.814 68.4311 674.388 71.7304 672.651C75.0296 670.914 81.3674 667.685 85.8142 665.476C90.261 663.268 95.8945 660.517 98.3331 659.363C100.772 658.209 103.971 656.704 105.442 656.018C106.913 655.332 114.073 652.134 121.351 648.91C128.63 645.687 137.755 641.75 141.628 640.162C145.501 638.573 149.374 636.953 150.234 636.56C151.095 636.167 153.09 635.341 154.668 634.726C156.246 634.11 158.241 633.282 159.102 632.885C159.963 632.488 163.836 630.94 167.709 629.445C171.582 627.95 178.272 625.423 182.575 623.829C186.878 622.235 191.338 620.565 192.486 620.117C193.633 619.669 198.563 617.89 203.44 616.162C208.317 614.435 219.232 610.694 227.695 607.85C236.159 605.006 248.599 600.884 255.341 598.69C262.083 596.497 269.242 594.187 271.251 593.557C273.259 592.927 276.545 591.867 278.553 591.2C280.562 590.533 284.787 589.159 287.943 588.146C291.098 587.133 296.497 585.429 299.94 584.359C303.383 583.29 309.955 581.234 314.545 579.792C319.135 578.35 323.478 576.959 324.195 576.702C324.912 576.445 332.306 574.224 340.626 571.766C348.946 569.308 358.785 566.439 362.491 565.391C366.196 564.342 372.886 562.528 377.357 561.36C381.828 560.191 387.716 558.648 390.441 557.928C393.167 557.21 398.096 555.939 401.395 555.105C404.694 554.27 408.92 553.232 410.784 552.797C412.649 552.362 417.813 551.14 422.26 550.081C426.707 549.022 432.223 547.715 434.518 547.176C436.813 546.637 440.393 545.808 442.473 545.333C445.347 544.677 446.255 544.256 446.255 543.576C446.255 543.083 446.842 540.789 447.558 538.477C448.275 536.166 449.251 533.088 449.728 531.638C450.204 530.189 451.261 527.513 452.076 525.694C452.891 523.875 453.557 522.269 453.557 522.127C453.557 521.985 455.086 518.769 456.954 514.98C458.822 511.191 461.404 506.121 462.692 503.713C463.979 501.306 465.033 499.071 465.033 498.748C465.033 498.425 464.388 498.188 463.599 498.223C462.809 498.256 461.108 498.48 459.817 498.72Z" fill="#013C55"/>
</svg>
