<svg width="170" height="130" viewBox="0 0 170 130" fill="none" xmlns="http://www.w3.org/2000/svg">
<path d="M114.681 108.223L113.39 111.767H112.863L114.349 107.878H114.689L114.681 108.223ZM115.763 111.767L114.469 108.223L114.461 107.878H114.801L116.293 111.767H115.763ZM115.696 110.328V110.75H113.505V110.328H115.696Z" fill="#013C55"/>
<path d="M118.801 110.242H117.76V109.823H118.801C119.003 109.823 119.166 109.791 119.291 109.727C119.416 109.663 119.507 109.574 119.564 109.46C119.623 109.346 119.653 109.216 119.653 109.07C119.653 108.936 119.623 108.811 119.564 108.693C119.507 108.576 119.416 108.481 119.291 108.41C119.166 108.337 119.003 108.3 118.801 108.3H117.88V111.767H117.363V107.878H118.801C119.096 107.878 119.345 107.929 119.548 108.031C119.752 108.132 119.906 108.273 120.011 108.453C120.117 108.631 120.169 108.835 120.169 109.064C120.169 109.314 120.117 109.526 120.011 109.703C119.906 109.879 119.752 110.013 119.548 110.106C119.345 110.197 119.096 110.242 118.801 110.242Z" fill="#013C55"/>
<path d="M122.812 107.878V111.767H122.303V107.878H122.812ZM124.065 107.878V108.3H121.053V107.878H124.065Z" fill="#013C55"/>
<path d="M125.526 109.911V110.317H124.22V109.911H125.526Z" fill="#013C55"/>
<path d="M127.175 107.878V111.767H126.659V107.878H127.175ZM129.577 107.878L127.885 110.018H126.969L126.889 109.59H127.577L128.937 107.878H129.577ZM129.058 111.767L127.593 109.951L127.882 109.5L129.69 111.767H129.058Z" fill="#013C55"/>
<path d="M133.623 109.7V109.946C133.623 110.238 133.586 110.499 133.513 110.731C133.44 110.962 133.334 111.159 133.197 111.321C133.059 111.483 132.894 111.607 132.701 111.692C132.51 111.778 132.296 111.821 132.059 111.821C131.829 111.821 131.617 111.778 131.424 111.692C131.233 111.607 131.067 111.483 130.926 111.321C130.787 111.159 130.679 110.962 130.602 110.731C130.525 110.499 130.487 110.238 130.487 109.946V109.7C130.487 109.408 130.525 109.147 130.6 108.917C130.676 108.686 130.784 108.489 130.923 108.327C131.063 108.163 131.228 108.039 131.419 107.953C131.612 107.868 131.823 107.825 132.053 107.825C132.291 107.825 132.505 107.868 132.696 107.953C132.889 108.039 133.054 108.163 133.191 108.327C133.331 108.489 133.437 108.686 133.51 108.917C133.585 109.147 133.623 109.408 133.623 109.7ZM133.111 109.946V109.695C133.111 109.463 133.087 109.258 133.039 109.08C132.992 108.902 132.924 108.753 132.833 108.632C132.742 108.511 132.63 108.419 132.498 108.357C132.368 108.294 132.219 108.263 132.053 108.263C131.893 108.263 131.747 108.294 131.617 108.357C131.488 108.419 131.378 108.511 131.285 108.632C131.194 108.753 131.123 108.902 131.073 109.08C131.023 109.258 130.998 109.463 130.998 109.695V109.946C130.998 110.179 131.023 110.385 131.073 110.565C131.123 110.743 131.195 110.894 131.288 111.017C131.382 111.138 131.494 111.229 131.622 111.292C131.753 111.354 131.898 111.385 132.059 111.385C132.227 111.385 132.376 111.354 132.506 111.292C132.636 111.229 132.746 111.138 132.835 111.017C132.926 110.894 132.995 110.743 133.042 110.565C133.088 110.385 133.111 110.179 133.111 109.946Z" fill="#013C55"/>
<path d="M137.491 109.55V109.97H135.381V109.55H137.491ZM135.462 107.878V111.767H134.945V107.878H135.462ZM137.941 107.878V111.767H137.427V107.878H137.941Z" fill="#013C55"/>
<path d="M141.826 107.878V108.3H139.946V111.767H139.432V107.878H141.826Z" fill="#013C55"/>
<path d="M144.447 110.242H143.405V109.823H144.447C144.649 109.823 144.812 109.791 144.937 109.727C145.062 109.663 145.153 109.574 145.21 109.46C145.269 109.346 145.298 109.216 145.298 109.07C145.298 108.936 145.269 108.811 145.21 108.693C145.153 108.576 145.062 108.481 144.937 108.41C144.812 108.337 144.649 108.3 144.447 108.3H143.526V111.767H143.009V107.878H144.447C144.741 107.878 144.99 107.929 145.194 108.031C145.397 108.132 145.552 108.273 145.657 108.453C145.762 108.631 145.815 108.835 145.815 109.064C145.815 109.314 145.762 109.526 145.657 109.703C145.552 109.879 145.397 110.013 145.194 110.106C144.99 110.197 144.741 110.242 144.447 110.242Z" fill="#013C55"/>
<path d="M149.494 111.348V111.767H147.429V111.348H149.494ZM147.534 107.878V111.767H147.017V107.878H147.534ZM149.221 109.55V109.97H147.429V109.55H149.221ZM149.467 107.878V108.3H147.429V107.878H149.467Z" fill="#013C55"/>
<path d="M153.1 107.878V108.3H151.22V111.767H150.706V107.878H153.1Z" fill="#013C55"/>
<path d="M155.207 108.223L153.916 111.767H153.389L154.875 107.878H155.215L155.207 108.223ZM156.289 111.767L154.995 108.223L154.987 107.878H155.327L156.819 111.767H156.289ZM156.222 110.328V110.75H154.031V110.328H156.222Z" fill="#013C55"/>
<path d="M161.271 111.335L161.223 112.705H160.76V111.767H160.377V111.335H161.271ZM157.905 111.767V107.878H158.425V111.348H160.345V107.878H160.861V111.767H157.905Z" fill="#013C55"/>
<path d="M162.987 110.875L164.907 107.878H165.424V111.767H164.907V108.768L162.987 111.767H162.473V107.878H162.987V110.875Z" fill="#013C55"/>
<path d="M169.076 110.253H167.98L167.726 110.149C167.444 110.06 167.227 109.923 167.075 109.74C166.924 109.555 166.848 109.325 166.848 109.051C166.848 108.8 166.903 108.587 167.014 108.413C167.126 108.238 167.285 108.105 167.49 108.015C167.697 107.924 167.942 107.878 168.224 107.878H169.472V111.767H168.955V108.3H168.224C167.938 108.3 167.723 108.368 167.579 108.503C167.436 108.639 167.364 108.821 167.364 109.051C167.364 109.201 167.396 109.334 167.458 109.452C167.522 109.569 167.617 109.662 167.742 109.729C167.867 109.797 168.022 109.831 168.208 109.831H169.078L169.076 110.253ZM168.197 109.986L167.249 111.767H166.7L167.675 109.986H168.197Z" fill="#013C55"/>
<path fill-rule="evenodd" clip-rule="evenodd" d="M75.1373 0.0961412C74.8751 0.142955 74.3602 0.249846 73.9931 0.333668C73.626 0.417586 72.8322 0.650596 72.2291 0.851403C71.626 1.05231 70.8537 1.3328 70.5128 1.47478C70.1719 1.61676 69.4333 1.96627 68.8713 2.25157C68.3093 2.53678 67.5584 2.95156 67.2026 3.17333C66.8469 3.39499 66.1267 3.85918 65.6023 4.20485C65.0779 4.55043 64.1983 5.17717 63.6476 5.59762C63.097 6.01798 62.153 6.77718 61.5499 7.28473C60.9468 7.79218 59.5702 9.0944 58.491 10.1785C57.4116 11.2626 56.1638 12.6057 55.7178 13.1631C55.2719 13.7207 54.6533 14.5411 54.343 14.9864C54.0327 15.4318 53.736 15.869 53.6835 15.9578C53.6311 16.0467 53.3625 16.4964 53.0865 16.957C52.8107 17.4177 52.2928 18.3844 51.9358 19.1054C51.5788 19.8265 51.0696 20.9571 50.8041 21.618C50.5387 22.2788 50.1678 23.2954 49.9798 23.8769C49.7919 24.4585 49.4904 25.475 49.3098 26.1359C49.1292 26.7968 48.8894 27.7221 48.7769 28.1921C48.6643 28.6622 48.5266 29.2678 48.4707 29.5379C48.4148 29.808 48.3357 30.2237 48.2948 30.4616C48.2538 30.6995 48.149 31.3051 48.0618 31.8073C47.9746 32.3096 47.8618 33.0449 47.8111 33.4415C47.7604 33.838 47.6581 34.9627 47.5839 35.9407C47.4837 37.26 47.4714 38.0913 47.5367 39.161C47.585 39.954 47.6716 40.9705 47.7289 41.4199C47.7862 41.8693 47.8959 42.6263 47.9726 43.1021C48.0494 43.5779 48.1533 44.1619 48.2036 44.3998C48.254 44.6377 48.3832 45.2217 48.4909 45.6975C48.5986 46.1734 48.752 46.8438 48.8317 47.1875C48.9114 47.5311 49.0133 47.9204 49.0579 48.0526C49.1026 48.1848 49.2123 48.5525 49.3019 48.8697C49.3914 49.1869 49.6273 49.9439 49.8263 50.5519C50.0252 51.1599 50.3262 52.0466 50.4954 52.5225C50.6644 52.9983 51.036 53.9716 51.3211 54.6853C51.6061 55.399 51.9062 56.1344 51.9878 56.3194C52.0694 56.5045 52.4928 57.3987 52.9287 58.3066C53.3646 59.2145 53.8842 60.2201 54.0835 60.5415C54.2828 60.8628 54.4928 61.1257 54.5504 61.1257C54.608 61.1257 54.736 61.0357 54.8349 60.9255C54.9337 60.8153 55.4509 59.4203 55.984 57.8255C56.5171 56.2305 57.1467 54.3849 57.3829 53.724C57.6192 53.0632 57.865 52.3711 57.9294 52.186C57.9936 52.001 58.6449 50.2707 59.3766 48.341C60.1083 46.4113 60.8567 44.4215 61.0398 43.9192C61.2229 43.4169 61.4391 42.833 61.5203 42.6215C61.6016 42.41 61.7015 42.1505 61.7423 42.0447C61.7831 41.939 62.082 41.182 62.4064 40.3625C62.7308 39.5431 63.0349 38.7861 63.082 38.6803C63.1291 38.5746 63.4424 37.7743 63.7782 36.902C64.1141 36.0297 64.7197 34.5157 65.1242 33.5376C65.5287 32.5595 65.9367 31.5862 66.0309 31.3748C66.1252 31.1633 66.3186 30.7104 66.4605 30.3684C66.6026 30.0264 66.8261 29.5398 66.9572 29.287C67.0883 29.0343 67.2158 28.8274 67.2405 28.8274C67.2652 28.8274 67.6909 29.2048 68.1866 29.6661C68.6822 30.1274 69.2904 30.6169 69.538 30.7539C69.7858 30.8908 70.1897 31.059 70.4358 31.1276C70.7955 31.228 70.9823 31.2292 71.3893 31.1339C71.6676 31.0687 72.1099 30.893 72.3721 30.7434C72.6344 30.5939 73.1922 30.1923 73.6117 29.8511C74.0312 29.5097 74.8465 28.7397 75.4234 28.1396C76.0002 27.5397 76.6871 26.811 76.9499 26.5203C77.2126 26.2295 77.6628 25.7105 77.9504 25.3669C78.2381 25.0232 78.4967 24.7204 78.5251 24.694C78.5535 24.6676 78.8345 24.3215 79.1495 23.925C79.4645 23.5285 79.9838 22.8546 80.3035 22.4275C80.6233 22.0006 81.3335 20.9624 81.882 20.1205C82.4304 19.2787 83.022 18.3305 83.1967 18.0133C83.3714 17.696 83.6336 17.2084 83.7795 16.9295C83.9253 16.6508 84.1944 16.0452 84.3773 15.5838C84.5602 15.1225 84.8191 14.3124 84.9525 13.7837C85.1725 12.9114 85.1951 12.643 85.1959 10.8832C85.1964 9.81669 85.1497 8.71364 85.0921 8.43199C85.0347 8.15044 84.8785 7.46583 84.7452 6.9107C84.6118 6.35558 84.3926 5.64184 84.2581 5.32462C84.1236 5.00741 83.8102 4.40182 83.5618 3.97886C83.3133 3.55591 82.9251 3.01097 82.6992 2.76787C82.4734 2.52476 82.0481 2.13122 81.7542 1.89322C81.4604 1.65521 80.9026 1.28589 80.5147 1.07249C80.1268 0.859093 79.552 0.594362 79.2374 0.484298C78.9227 0.374137 78.3514 0.217837 77.9678 0.136899C77.5841 0.0558644 76.8976 -0.00556024 76.4422 0.000399568C75.9867 0.00626325 75.3995 0.049424 75.1373 0.0961412ZM78.929 6.5236C79.2314 6.63896 79.6044 6.83995 79.758 6.9703C79.9116 7.10055 80.1296 7.35788 80.2425 7.54196C80.3554 7.72614 80.5074 8.10286 80.5804 8.37903C80.6533 8.65529 80.7136 9.21965 80.7141 9.63328C80.7148 10.0771 80.6324 10.727 80.5131 11.2194C80.4019 11.6781 80.2048 12.3346 80.0752 12.6783C79.9456 13.0219 79.803 13.3896 79.7583 13.4953C79.7135 13.6011 79.4679 14.1418 79.2126 14.6969C78.9571 15.252 78.4755 16.1388 78.1423 16.6675C77.8089 17.1962 77.2993 17.9289 77.0097 18.2957C76.7201 18.6625 76.1701 19.2771 75.7876 19.6615C75.405 20.0459 74.8555 20.5366 74.5665 20.7519C74.2774 20.9671 73.776 21.2998 73.4522 21.4912C73.1284 21.6825 72.6463 21.919 72.3807 22.0169C72.0653 22.1331 71.6405 22.1947 71.1548 22.1947C70.6057 22.1947 70.3981 22.1595 70.3603 22.0602C70.3321 21.9861 70.489 21.4563 70.7089 20.8826C70.9287 20.309 71.1618 19.7099 71.2268 19.5513C71.2918 19.3927 71.4235 19.0682 71.5193 18.8303C71.6151 18.5924 71.8355 18.081 72.009 17.6938C72.1825 17.3066 72.3245 16.9716 72.3245 16.9492C72.3245 16.9269 72.4747 16.5809 72.6582 16.1802C72.8418 15.7797 72.9919 15.4347 72.9919 15.4137C72.9919 15.3927 73.1024 15.1254 73.2375 14.8199C73.3725 14.5144 73.5401 14.1346 73.6101 13.976C73.68 13.8174 73.96 13.1469 74.2322 12.486C74.5046 11.8251 74.8041 11.1114 74.8978 10.8999C74.9915 10.6885 75.1632 10.2775 75.2795 9.98673C75.3956 9.69595 75.5276 9.37153 75.5726 9.26579C75.6176 9.16005 75.7251 8.84697 75.8117 8.57003C75.8982 8.29299 75.942 7.9578 75.9089 7.82505C75.8753 7.69019 75.6754 7.46708 75.4556 7.31933C75.2393 7.1739 74.8904 6.9405 74.68 6.80073L74.2977 6.54658L74.8129 6.4394C75.0962 6.38047 75.4782 6.31511 75.6617 6.29405C75.8453 6.273 76.5318 6.26877 77.1873 6.28483C78.1308 6.3078 78.4937 6.35759 78.929 6.5236ZM69.6771 7.89234C69.571 8.11901 69.2704 8.75872 69.0091 9.31385C68.7477 9.86898 68.3784 10.6601 68.1884 11.0718C67.9984 11.4836 67.843 11.8373 67.843 11.8578C67.843 11.8784 67.6928 12.223 67.5093 12.6236C67.3257 13.0242 67.1756 13.3722 67.1756 13.397C67.1756 13.4218 67.0631 13.6919 66.9258 13.9974C66.7883 14.3028 66.6167 14.689 66.5443 14.8556C66.472 15.0222 66.4128 15.1833 66.4128 15.2137C66.4128 15.2441 66.284 15.5521 66.1267 15.8985C65.9694 16.2448 65.8407 16.5511 65.8407 16.5791C65.8407 16.607 65.7589 16.8115 65.6589 17.0332C65.5589 17.255 65.3179 17.8258 65.1231 18.3016C64.9284 18.7775 64.6833 19.3614 64.5786 19.5993C64.4739 19.8372 64.3326 20.1617 64.2645 20.3203C64.1964 20.4789 64.0241 20.8682 63.8814 21.1854C63.7387 21.5026 63.5035 22.0217 63.3589 22.3389C63.2143 22.6561 62.9159 23.305 62.6958 23.7808C62.4757 24.2566 61.9829 25.338 61.6007 26.184C61.2185 27.0299 60.8092 27.9383 60.6912 28.2026C60.5731 28.467 60.3319 29 60.1551 29.3872C59.9782 29.7744 59.8336 30.1083 59.8336 30.1293C59.8336 30.1503 59.7316 30.3959 59.6069 30.675C59.482 30.9541 59.1147 31.8038 58.7904 32.5632C58.466 33.3225 58.0815 34.2092 57.9359 34.5337C57.7904 34.8582 57.4455 35.686 57.1694 36.3733C56.8934 37.0606 56.6138 37.7527 56.5482 37.9113C56.4826 38.0699 56.3394 38.4376 56.2299 38.7284C56.1205 39.0192 55.7679 40.0141 55.4464 40.9393C55.125 41.8645 54.7543 42.9243 54.6227 43.2944C54.491 43.6645 54.3367 44.0645 54.2795 44.1835C54.2224 44.3025 54.139 44.3998 54.0941 44.3998C54.0493 44.3998 53.9759 44.3025 53.9313 44.1835C53.8867 44.0645 53.7192 43.4266 53.5591 42.7657C53.399 42.1048 53.2157 41.2181 53.1518 40.7951C53.088 40.3722 53.0359 39.4205 53.0362 38.6803C53.0365 37.9402 53.0874 36.6641 53.1493 35.8446C53.2112 35.0251 53.3043 34.0086 53.3561 33.5857C53.4078 33.1627 53.4965 32.4922 53.553 32.0957C53.6095 31.6992 53.7415 30.9422 53.8463 30.4135C53.9511 29.8848 54.0746 29.2792 54.121 29.0677C54.1673 28.8563 54.2441 28.5318 54.2917 28.3468C54.3392 28.1618 54.4433 27.7724 54.5229 27.4817C54.6025 27.1909 54.9117 26.196 55.2101 25.2708C55.5085 24.3455 55.8813 23.2425 56.0386 22.8195C56.1959 22.3966 56.4107 21.8559 56.516 21.618C56.6213 21.3801 56.9033 20.7745 57.1426 20.2722C57.382 19.77 57.6801 19.194 57.805 18.9923C57.9299 18.7905 58.1206 18.4669 58.2287 18.2729C58.3367 18.079 58.8243 17.3572 59.3122 16.669C59.8002 15.9809 60.4488 15.1367 60.7536 14.793C61.0585 14.4494 61.6306 13.8286 62.0248 13.4136C62.4191 12.9986 63.2567 12.2256 63.886 11.6959C64.5153 11.1662 65.1572 10.6214 65.3125 10.4851C65.4678 10.3489 66.2615 9.76199 67.0765 9.18091C67.8914 8.59973 68.8346 7.96049 69.1724 7.76017C69.5101 7.55994 69.8053 7.41498 69.8282 7.43805C69.8511 7.46122 69.7831 7.66558 69.6771 7.89234ZM142.125 9.48159C141.945 9.57147 141.517 9.9057 141.176 10.2244C140.836 10.5431 140.276 11.0878 139.932 11.4348C139.589 11.7819 138.815 12.6026 138.211 13.2588C137.608 13.9148 136.9 14.6908 136.638 14.9829C136.376 15.275 136.14 15.5362 136.114 15.5634C136.088 15.5905 135.703 16.0014 135.26 16.4766C134.817 16.9516 132.949 18.876 131.109 20.7528C129.269 22.6297 127.288 24.6844 126.707 25.3188C126.126 25.9533 125.547 26.5957 125.42 26.7464L125.189 27.0204L125.065 26.5313C124.966 26.1404 124.842 25.9526 124.449 25.5961C124.178 25.3508 123.699 24.9649 123.384 24.7386C123.07 24.5123 122.696 24.2737 122.554 24.2086C122.339 24.1098 122.257 24.1157 122.063 24.2437C121.935 24.3282 121.627 24.7345 121.378 25.1465C121.129 25.5585 120.839 26.047 120.734 26.232C120.628 26.4171 120.33 26.9794 120.071 27.4817C119.811 27.9839 119.424 28.6328 119.21 28.9235C118.996 29.2143 118.345 30.0362 117.762 30.7499C117.18 31.4637 116.321 32.5451 115.852 33.1531C115.384 33.7611 114.699 34.6262 114.33 35.0756C113.961 35.525 113.504 36.0657 113.315 36.2772C113.126 36.4887 112.761 36.9047 112.505 37.2016C112.248 37.4986 111.244 38.5367 110.274 39.5087C109.304 40.4806 108.073 41.6759 107.54 42.1649C106.717 42.9186 106.521 43.0535 106.252 43.0501C106.078 43.0479 105.742 42.9506 105.506 42.8338C105.136 42.6506 105.073 42.5755 105.044 42.2851C105.025 42.1 105.059 41.5809 105.119 41.1315C105.179 40.6822 105.295 39.9563 105.375 39.5186C105.456 39.0808 105.622 38.4057 105.744 38.0184C105.866 37.6311 106.073 37.1025 106.205 36.8438C106.336 36.585 106.706 35.984 107.027 35.5082C107.348 35.0324 108.101 33.9077 108.7 33.0089C109.299 32.1101 109.987 31.1234 110.228 30.8162C110.559 30.3949 110.719 30.2649 110.876 30.2875C111.004 30.3059 111.096 30.3967 111.114 30.5243C111.13 30.6381 111.016 31.0491 110.86 31.4375C110.705 31.826 110.464 32.4164 110.325 32.7496C110.11 33.2643 110.087 33.4021 110.174 33.6668C110.244 33.8824 110.438 34.0859 110.802 34.3279C111.092 34.5203 111.516 34.7496 111.745 34.8378C112.135 34.9878 112.183 34.9876 112.503 34.8343C112.691 34.7443 112.926 34.5346 113.024 34.3685C113.123 34.2023 113.576 33.3413 114.032 32.4553C114.488 31.5692 114.945 30.6 115.047 30.3014C115.149 30.0029 115.232 29.5689 115.232 29.3373C115.232 29.1008 115.145 28.7447 115.035 28.5257C114.926 28.311 114.663 27.9451 114.45 27.7125C114.238 27.4798 113.78 27.0786 113.432 26.8208C113.085 26.563 112.543 26.2201 112.229 26.0589C111.914 25.8977 111.486 25.6961 111.279 25.6109C111.071 25.5256 110.66 25.4304 110.365 25.3993C109.966 25.3573 109.741 25.3847 109.487 25.5062C109.299 25.5961 108.966 25.8472 108.746 26.0644C108.526 26.2814 107.929 26.9811 107.42 27.6192C106.91 28.2573 106.099 29.3125 105.617 29.964C105.136 30.6156 104.267 31.87 103.686 32.7517C103.106 33.6333 102.581 34.4202 102.519 34.5003C102.458 34.5805 102.063 35.0563 101.643 35.5577C101.222 36.0592 100.3 37.1832 99.5939 38.0555C98.8876 38.9279 97.667 40.3978 96.8815 41.3221C96.096 42.2463 94.7634 43.6954 93.9202 44.5423C93.077 45.3892 92.2345 46.164 92.0481 46.2643C91.8183 46.3879 91.6253 46.4253 91.4484 46.3806C91.3048 46.3443 91.0839 46.2101 90.9572 46.0825C90.7408 45.8643 90.7271 45.7855 90.7288 44.7646C90.7298 44.1675 90.7925 43.3328 90.8682 42.9099C90.9438 42.4869 91.073 41.8853 91.1552 41.5728C91.2374 41.2604 91.3764 40.8494 91.464 40.6596C91.5517 40.4698 91.9065 39.817 92.2525 39.209C92.5985 38.601 93.3703 37.325 93.9676 36.3733C94.565 35.4217 95.3313 34.2429 95.6707 33.7539C96.1414 33.0754 96.339 32.8647 96.5044 32.8647C96.6294 32.8647 96.7443 32.938 96.7757 33.0375C96.8056 33.1326 96.6825 33.5759 96.5021 34.0228C96.3217 34.4696 96.0855 35.0171 95.9773 35.2392C95.8692 35.4614 95.7806 35.8097 95.7806 36.0134C95.7806 36.3078 95.844 36.4427 96.0905 36.6722C96.2609 36.8308 96.6207 37.0771 96.89 37.2197C97.1835 37.3749 97.5317 37.4788 97.7591 37.4788C97.9945 37.4788 98.2309 37.4056 98.3814 37.2863C98.5149 37.1804 98.8778 36.5856 99.1878 35.9646C99.4978 35.3434 99.9089 34.5427 100.102 34.1851C100.294 33.8274 100.538 33.2773 100.643 32.9625C100.748 32.6477 100.834 32.1862 100.834 31.9368C100.834 31.6754 100.751 31.3102 100.638 31.0742C100.53 30.8489 100.157 30.3966 99.8092 30.0689C99.4616 29.7411 98.8957 29.292 98.5516 29.0709C98.2076 28.8497 97.7115 28.5694 97.4492 28.4479C97.187 28.3264 96.7794 28.1679 96.5434 28.0957C96.3074 28.0234 95.9513 27.9639 95.752 27.9633C95.5528 27.9628 95.27 28.0247 95.1237 28.1009C94.9775 28.1772 94.6197 28.4988 94.3288 28.8156C94.0379 29.1324 93.2204 30.2705 92.5121 31.3445C91.8038 32.4185 91.0103 33.665 90.7484 34.1143C90.4867 34.5637 90.1869 35.0828 90.0824 35.2679C89.9778 35.4529 89.7326 35.8855 89.5375 36.2291C89.3424 36.5728 89.0507 37.0919 88.8894 37.3826C88.7281 37.6734 88.3647 38.3439 88.0819 38.8726C87.799 39.4013 87.3613 40.2664 87.1093 40.7951C86.8572 41.3238 86.5612 42.0159 86.4517 42.3331C86.3421 42.6503 86.1872 43.191 86.1073 43.5347C86.0045 43.9782 85.9632 44.6754 85.9652 45.9378C85.9674 47.2677 86.0127 47.9465 86.1449 48.6294C86.2421 49.1316 86.4091 49.8647 86.5161 50.2585C86.6766 50.8497 86.7737 51.029 87.074 51.2877C87.2739 51.4601 87.7971 51.7867 88.2367 52.0137C88.9646 52.3894 89.0967 52.4258 89.7146 52.4199C90.2263 52.4151 90.4989 52.3591 90.8224 52.1922C91.0584 52.0704 91.466 51.8172 91.7282 51.6295C91.9904 51.4417 92.8057 50.8026 93.5399 50.2091C94.2741 49.6156 94.9615 49.0498 95.0674 48.9518C95.1732 48.8537 95.4521 48.6039 95.6872 48.3965C95.9221 48.1891 96.8588 47.3024 97.7687 46.4259C98.6786 45.5495 99.4768 44.8196 99.5424 44.804C99.6253 44.7843 99.6787 44.982 99.718 45.454C99.755 45.8984 99.8503 46.2692 99.9944 46.529C100.151 46.8114 100.499 47.1278 101.203 47.6287C101.746 48.0154 102.557 48.5147 103.005 48.7382C103.688 49.0793 103.912 49.1449 104.4 49.1474C104.849 49.1497 105.102 49.0897 105.506 48.8856C105.795 48.7399 106.401 48.3523 106.853 48.0243C107.305 47.6962 107.881 47.2548 108.132 47.0433C108.384 46.8318 109.065 46.2477 109.646 45.7453C110.227 45.2429 111.132 44.4681 111.656 44.0236C112.181 43.5791 112.71 43.1035 112.832 42.9666C112.954 42.8296 113.211 42.5446 113.404 42.333C113.597 42.1214 113.9 41.7754 114.078 41.564C114.257 41.3526 114.55 41.0135 114.729 40.8106C114.909 40.6077 115.076 40.4614 115.1 40.4856C115.124 40.5097 114.977 41.0435 114.773 41.6716C114.569 42.2998 114.353 43.0084 114.294 43.2463C114.235 43.4842 114.121 44.0405 114.042 44.4825C113.962 44.9246 113.897 45.4298 113.897 45.6053C113.897 45.8868 114.011 46.0302 114.863 46.8203C115.394 47.313 116.049 47.9213 116.317 48.1719C116.586 48.4226 116.968 48.6787 117.166 48.7409C117.484 48.8406 117.558 48.831 117.786 48.661C117.928 48.5548 118.105 48.3441 118.179 48.1927C118.252 48.0413 118.352 47.7424 118.4 47.5284C118.448 47.3145 118.591 46.5771 118.718 45.8898C118.845 45.2025 118.99 44.4455 119.039 44.2076C119.089 43.9697 119.196 43.5263 119.278 43.2223C119.36 42.9182 119.493 42.4209 119.574 42.1168C119.655 41.8128 119.836 41.1964 119.978 40.747L120.235 39.93L120.302 40.3145C120.339 40.526 120.413 41.2829 120.468 41.9967C120.522 42.7104 120.655 43.6132 120.763 44.0029C120.871 44.3926 121.084 44.9766 121.235 45.3006C121.387 45.6247 121.659 46.0985 121.84 46.3535C122.021 46.6086 122.335 46.933 122.538 47.0744C122.878 47.311 122.981 47.3311 123.814 47.3239C124.58 47.3173 124.805 47.2769 125.275 47.0616C125.581 46.9216 126.224 46.5303 126.705 46.192C127.186 45.8536 127.902 45.2796 128.295 44.9162C128.688 44.553 129.697 43.547 130.536 42.6808C131.375 41.8146 132.436 40.7873 132.894 40.3978C133.351 40.0083 133.765 39.6897 133.813 39.6897C133.865 39.6897 133.867 39.8346 133.818 40.0501C133.772 40.2484 133.735 40.7567 133.736 41.1796C133.736 41.6026 133.798 42.2082 133.872 42.5254C133.97 42.9378 134.089 43.176 134.294 43.3613C134.451 43.5038 134.871 43.7155 135.227 43.8317C135.652 43.9702 136.214 44.0586 136.859 44.0883C137.622 44.1236 137.965 44.0962 138.385 43.9666C138.837 43.8271 139.045 43.6785 139.646 43.0664C140.042 42.663 140.729 41.8201 141.172 41.1932L141.978 40.0532L142.089 41.097C142.151 41.6711 142.233 42.249 142.271 42.3812C142.31 42.5134 142.484 42.8471 142.657 43.1229C142.834 43.4039 143.152 43.7388 143.381 43.8848C143.606 44.0281 144.176 44.3283 144.648 44.5519C145.12 44.7755 145.908 45.0959 146.399 45.264C147.013 45.4741 147.322 45.5386 147.39 45.4704C147.458 45.4021 147.455 45.1969 147.381 44.8134C147.322 44.5066 147.219 43.8447 147.152 43.3424C147.079 42.7838 147.032 41.3657 147.033 39.6897C147.034 38.0595 147.083 36.5803 147.154 36.0369C147.22 35.5346 147.319 34.8641 147.375 34.5469C147.43 34.2297 147.564 33.5592 147.67 33.057C147.777 32.5547 147.924 31.9491 147.997 31.7112C148.07 31.4733 148.197 31.0623 148.28 30.798C148.363 30.5337 148.465 30.2309 148.507 30.1251C148.549 30.0194 148.889 29.1524 149.262 28.1986C149.635 27.2447 149.94 26.437 149.94 26.4036C149.94 26.3703 149.779 26.2901 149.582 26.2254C149.385 26.1607 148.988 25.9968 148.7 25.8612C148.412 25.7255 147.859 25.4075 147.472 25.1544C147.085 24.9012 146.697 24.694 146.61 24.694C146.515 24.694 146.312 24.937 146.108 25.2948C145.92 25.6253 145.647 26.1119 145.503 26.3762C145.358 26.6406 145.111 27.0948 144.953 27.3855C144.796 27.6763 144.394 28.3828 144.061 28.9556C143.728 29.5284 143.456 30.0171 143.456 30.0416C143.456 30.0662 143.306 30.323 143.122 30.6122C142.938 30.9015 142.788 31.1602 142.788 31.1871C142.788 31.214 142.531 31.648 142.216 32.1516C141.902 32.6551 141.644 33.0852 141.644 33.1074C141.644 33.1297 141.273 33.7387 140.819 34.4608C140.365 35.1829 139.751 36.0383 139.455 36.3619C139.159 36.6853 138.751 37.134 138.549 37.3586C138.346 37.5833 138.143 37.7671 138.096 37.7671C138.05 37.7671 138.039 37.6049 138.072 37.4067C138.105 37.2085 138.194 36.7867 138.27 36.4694C138.346 36.1522 138.562 35.4817 138.749 34.9795C138.936 34.4772 139.434 33.1579 139.854 32.0476C140.274 30.9374 140.672 29.8992 140.738 29.7406C140.805 29.582 141.191 28.6304 141.597 27.6258C142.003 26.6213 142.48 25.4827 142.657 25.0955C142.834 24.7083 142.979 24.3285 142.979 24.2514C142.979 24.1743 142.904 24.0881 142.812 24.06C142.72 24.0318 142.033 23.7463 141.284 23.4255C140.003 22.8768 139.912 22.8518 139.748 23.002C139.652 23.0899 139.334 23.647 139.043 24.2403C138.751 24.8335 138.355 25.6649 138.163 26.0878C137.97 26.5108 137.757 26.9866 137.69 27.1452C137.622 27.3038 137.454 27.6835 137.317 27.9889C137.18 28.2944 137.067 28.5645 137.067 28.5893C137.067 28.6141 136.923 28.9482 136.747 29.3317C136.571 29.7152 136.117 30.5481 135.738 31.1825C135.358 31.8169 134.636 32.92 134.133 33.6337C133.629 34.3475 133.029 35.1693 132.799 35.4601C132.568 35.7509 131.355 37.0486 130.103 38.3439C128.85 39.6392 127.604 40.8612 127.333 41.0595C127.053 41.2648 126.73 41.4199 126.583 41.4199C126.411 41.4199 126.289 41.3479 126.217 41.2036C126.158 41.0846 126.068 40.8143 126.017 40.6028C125.965 40.3914 125.873 39.6993 125.812 39.0648C125.751 38.4304 125.639 37.695 125.563 37.4307C125.486 37.1663 125.345 36.777 125.248 36.5656C125.151 36.3541 124.971 36.0674 124.848 35.9284C124.725 35.7895 124.53 35.6274 124.416 35.568C124.301 35.5087 124.121 35.4601 124.016 35.4601C123.911 35.4601 123.799 35.4172 123.766 35.3648C123.734 35.3124 123.848 35.0637 124.019 34.812C124.19 34.5605 124.746 33.8356 125.255 33.2011C125.764 32.5667 126.26 31.9611 126.357 31.8554C126.454 31.7497 126.876 31.2522 127.295 30.7499C127.713 30.2477 128.44 29.4042 128.91 28.8755C129.38 28.3468 130.134 27.5249 130.585 27.0491C131.037 26.5733 131.643 25.9244 131.932 25.6072C132.22 25.29 133.209 24.1653 134.128 23.1079C135.047 22.0505 135.996 20.9703 136.237 20.7075C136.478 20.4446 136.688 20.2499 136.704 20.2749C136.72 20.2998 136.798 20.4435 136.877 20.594C136.956 20.7463 137.245 20.9924 137.528 21.1483C137.807 21.3026 138.282 21.5123 138.583 21.6145C138.884 21.7167 139.384 21.8441 139.696 21.8975C140.007 21.951 140.53 22.0408 140.859 22.0972C141.268 22.1671 141.515 22.1685 141.639 22.1013C141.739 22.0472 142.054 21.6677 142.339 21.2578C142.623 20.8479 143.326 19.7555 143.901 18.8303C144.475 17.9051 145.055 16.9535 145.191 16.7155C145.326 16.4776 145.534 16.11 145.652 15.8985C145.771 15.687 146.033 15.1912 146.235 14.7968C146.436 14.4023 146.627 13.9401 146.659 13.7697C146.691 13.5992 146.668 13.313 146.61 13.1335C146.551 12.9541 146.304 12.5296 146.062 12.19C145.819 11.8506 145.23 11.1815 144.753 10.7032C144.213 10.162 143.689 9.73546 143.366 9.57368C143.08 9.43074 142.758 9.31481 142.65 9.31606C142.543 9.31722 142.306 9.39171 142.125 9.48159ZM164.84 17.8412C164.726 18.0169 164.672 18.2827 164.674 18.6583L164.678 19.2148H163.923C163.446 19.2148 162.565 19.0939 161.536 18.8872C160.638 18.707 159.303 18.4615 158.569 18.3416C157.835 18.2217 157.02 18.1204 156.759 18.1165C156.372 18.1107 156.278 18.1418 156.25 18.2852C156.231 18.3819 156.242 18.5656 156.274 18.6934C156.311 18.845 156.584 19.0946 157.059 19.4116C157.459 19.6788 158.006 20.0836 158.273 20.3111C158.541 20.5387 159.067 20.9482 159.443 21.2212C159.818 21.4942 160.453 21.8679 160.853 22.0518C161.254 22.2357 161.962 22.5157 162.427 22.6741C162.892 22.8325 163.587 23.008 163.972 23.0639C164.356 23.1199 164.929 23.1381 165.243 23.1044C165.558 23.0706 166.051 22.9771 166.34 22.8964C166.628 22.8158 167.161 22.5938 167.525 22.4033C167.888 22.2128 168.442 21.8175 168.756 21.525C169.07 21.2325 169.463 20.7769 169.63 20.5125C169.796 20.2482 169.957 19.9342 169.987 19.8149C170.025 19.6626 169.982 19.5563 169.843 19.4583C169.735 19.3815 169.234 19.1491 168.732 18.9418C168.229 18.7346 167.281 18.3435 166.625 18.0728C165.969 17.8022 165.337 17.5807 165.221 17.5807C165.096 17.5807 164.94 17.6876 164.84 17.8412ZM154.389 23.7087C154.265 23.907 153.856 24.7077 153.482 25.4881C153.107 26.2685 152.8 26.9251 152.8 26.947C152.8 26.969 152.656 27.3037 152.48 27.6909C152.305 28.0781 151.916 28.9902 151.617 29.7177C151.317 30.4453 150.92 31.4835 150.734 32.0248C150.548 32.566 150.291 33.3766 150.163 33.826C150.035 34.2754 149.869 34.8593 149.794 35.1237C149.719 35.388 149.484 36.3397 149.27 37.2384C149.057 38.1372 148.845 39.0672 148.797 39.3052C148.75 39.5431 148.662 40.2352 148.602 40.8432C148.511 41.7574 148.517 42.0772 148.632 42.6925C148.709 43.1016 148.839 43.5388 148.92 43.6641C149.001 43.7892 149.253 43.9789 149.48 44.0856C149.706 44.1923 150.201 44.3498 150.578 44.4358C150.956 44.5217 151.58 44.5921 151.966 44.5921C152.425 44.5921 152.871 44.5229 153.256 44.3918C153.762 44.2194 153.943 44.0857 154.556 43.4288C154.947 43.0092 155.624 42.1585 156.06 41.5383L156.852 40.4106L156.913 41.4199C156.946 41.9751 157.014 42.5806 157.065 42.7657C157.115 42.9507 157.226 43.2378 157.311 43.4035C157.396 43.5693 157.658 43.8757 157.893 44.0842C158.128 44.2928 158.677 44.6388 159.112 44.8532C159.547 45.0674 160.32 45.3992 160.829 45.5903C161.338 45.7814 161.868 45.9378 162.007 45.9378C162.243 45.9378 162.257 45.9146 162.215 45.5774C162.19 45.3792 162.091 44.6329 161.994 43.9192C161.865 42.9571 161.818 42.0001 161.816 40.2183C161.814 38.8019 161.864 37.381 161.939 36.7578C162.008 36.1763 162.125 35.3544 162.198 34.9314C162.272 34.5085 162.397 33.8605 162.476 33.4915C162.555 33.1224 162.688 32.5817 162.77 32.2899C162.852 31.998 163.131 31.1686 163.39 30.4467C163.649 29.7248 164.054 28.6694 164.29 28.1014C164.526 27.5335 164.719 27.0089 164.719 26.9358C164.719 26.8626 164.665 26.784 164.6 26.761C164.534 26.738 164.238 26.6298 163.942 26.5205C163.646 26.4112 162.995 26.0636 162.496 25.7482C161.997 25.4327 161.507 25.1746 161.407 25.1746C161.275 25.1746 161.084 25.4328 160.713 26.1119C160.432 26.6274 160.131 27.1789 160.045 27.3375C159.958 27.4961 159.748 27.8779 159.579 28.186C159.409 28.494 158.967 29.2716 158.596 29.914C158.225 30.5564 157.847 31.2128 157.757 31.3725C157.666 31.5324 157.389 32.0092 157.141 32.4321C156.893 32.8551 156.245 33.9149 155.7 34.7872C154.974 35.9508 154.472 36.6294 153.814 37.3346C153.32 37.8633 152.892 38.2727 152.863 38.2444C152.833 38.2161 152.875 37.8712 152.956 37.478C153.037 37.0847 153.166 36.5671 153.242 36.3278C153.319 36.0885 153.418 35.8062 153.463 35.7004C153.508 35.5947 154.111 34.0158 154.803 32.1918C155.496 30.3678 156.122 28.7349 156.195 28.5631C156.268 28.3912 156.392 28.1035 156.471 27.9237C156.55 27.7439 156.614 27.5722 156.614 27.5421C156.614 27.5119 156.717 27.2589 156.842 26.9799C156.967 26.7007 157.17 26.2344 157.292 25.9436C157.414 25.6529 157.586 25.2655 157.673 25.0827C157.761 24.9 157.815 24.7053 157.793 24.6502C157.771 24.595 157.529 24.4778 157.255 24.3898C156.981 24.3017 156.342 24.0314 155.835 23.789C155.328 23.5466 154.846 23.3482 154.763 23.3482C154.681 23.3482 154.513 23.5105 154.389 23.7087ZM75.9968 28.6102C75.7462 29.0194 75.1863 30.09 74.7526 30.9893C74.3187 31.8886 73.64 33.4463 73.2442 34.4508C72.8485 35.4553 72.2892 36.9909 72.0012 37.8633C71.7133 38.7356 71.2606 40.2063 70.9952 41.1315C70.7298 42.0568 70.47 42.9651 70.4179 43.1502C70.3658 43.3352 70.2215 43.8759 70.0974 44.3518C69.9733 44.8276 69.818 45.4764 69.7522 45.7937C69.6865 46.1109 69.5956 46.5002 69.5502 46.6588C69.5048 46.8174 69.3996 47.413 69.3164 47.9823C69.197 48.7996 69.1873 49.1249 69.2703 49.5281C69.3496 49.9134 69.4625 50.1236 69.7296 50.3834C69.9244 50.5728 70.4658 50.9681 70.9328 51.2621C71.3999 51.5559 71.9278 51.845 72.1062 51.9044C72.3947 52.0003 72.4716 51.9848 72.804 51.763C73.0095 51.6259 73.8995 50.7891 74.7817 49.9033C75.6641 49.0176 77.2549 47.3903 78.317 46.287C79.379 45.1837 80.2685 44.3019 80.2937 44.3272C80.3187 44.3525 80.2255 44.6928 80.0864 45.0835C79.9244 45.5384 79.6952 45.9491 79.4488 46.2262C79.2371 46.4641 78.8019 46.94 78.4815 47.2836C78.1612 47.6273 77.5137 48.3399 77.0427 48.8673C76.5716 49.3946 76.1059 49.9137 76.0078 50.0208C75.9095 50.1279 75.3259 50.821 74.7107 51.5612C74.0955 52.3014 73.1676 53.4778 72.6485 54.1754C72.1294 54.8731 71.342 56.0194 70.8987 56.7228C70.4554 57.4261 69.8027 58.566 69.448 59.2557C69.0925 59.9473 68.7402 60.7829 68.6625 61.1187C68.5532 61.5909 68.5436 61.849 68.6196 62.2678C68.6735 62.5648 68.8267 63.0111 68.9601 63.2594C69.1191 63.5552 69.3872 63.8398 69.7386 64.0855C70.0333 64.2915 70.5533 64.6099 70.8942 64.7931C71.2351 64.9764 71.8573 65.2706 72.2768 65.447C72.6963 65.6234 73.4687 65.8943 73.9931 66.0488C74.8448 66.2999 74.9975 66.3188 75.4234 66.2253C75.6856 66.1678 76.1194 65.9943 76.3873 65.8399C76.6554 65.6854 77.1578 65.2694 77.5038 64.9152C77.8499 64.5612 78.3378 63.9638 78.5882 63.5878C78.8385 63.2118 79.217 62.558 79.429 62.1351C79.6412 61.7121 79.9042 61.1498 80.0135 60.8854C80.1228 60.6211 80.3647 60.0155 80.551 59.5397C80.7373 59.0638 81.0392 58.2636 81.2219 57.7613C81.4047 57.2591 81.6694 56.5237 81.8101 56.1272C81.9509 55.7307 82.1028 55.2981 82.1477 55.1659C82.1925 55.0338 82.407 54.3417 82.6242 53.6279C82.8414 52.9142 83.0582 52.2004 83.106 52.0418C83.1538 51.8832 83.254 51.5571 83.3288 51.3171C83.4034 51.077 83.6447 50.2551 83.8649 49.4907C84.0851 48.7262 84.5641 46.9111 84.9295 45.4572C85.2949 44.0033 85.7354 42.1216 85.9085 41.2757C86.0816 40.4298 86.3403 39.197 86.4834 38.5361C86.6265 37.8753 86.777 37.1615 86.8179 36.9501C86.8587 36.7386 86.9382 36.3493 86.9945 36.0849C87.0507 35.8206 87.1629 35.3015 87.2436 34.9314C87.3244 34.5613 87.4588 33.9341 87.5423 33.5376L87.6941 32.8167L87.1843 32.3553C86.904 32.1017 86.3357 31.6367 85.9213 31.322C85.5069 31.0074 85.0916 30.7499 84.9981 30.7499C84.9048 30.7499 84.7456 30.8689 84.6447 31.0143C84.5436 31.1596 84.3324 31.5165 84.1753 31.8073C84.0182 32.0981 83.7052 32.6821 83.4797 33.105C83.2542 33.528 82.79 34.3282 82.4482 34.8834C82.1063 35.4385 81.6314 36.1739 81.393 36.5175C81.1546 36.8611 80.5757 37.6398 80.1066 38.2478C79.6376 38.8558 78.8807 39.7858 78.4246 40.3145C77.9686 40.8432 77.1529 41.7192 76.612 42.261C76.071 42.8029 75.575 43.2463 75.5097 43.2463C75.4214 43.2463 75.4133 43.1649 75.4782 42.9281C75.5261 42.7531 75.6763 42.2881 75.8119 41.8948C75.9476 41.5014 76.3359 40.4659 76.6748 39.5935C77.0138 38.7212 77.3303 37.9209 77.378 37.8152C77.4258 37.7095 77.7195 37.039 78.0307 36.3252C78.3419 35.6115 78.756 34.6815 78.951 34.2585C79.146 33.8356 79.5183 33.0601 79.7781 32.5352C80.1196 31.8457 80.2344 31.5156 80.1921 31.3453C80.1598 31.2159 79.5245 30.499 78.7803 29.7523C78.0359 29.0057 77.2813 28.2759 77.1033 28.1305C76.9253 27.9852 76.706 27.8662 76.616 27.8662C76.5145 27.8662 76.2788 28.1493 75.9968 28.6102ZM139.594 47.7274C138.965 48.2322 138.085 48.9754 137.639 49.3791C137.194 49.7826 136.249 50.6983 135.54 51.4138C134.831 52.1293 134.016 52.9744 133.728 53.2918C133.441 53.6091 132.97 54.1448 132.681 54.4821C132.393 54.8195 131.949 55.3814 131.696 55.7307C131.443 56.08 130.921 56.8662 130.537 57.4779C130.152 58.0895 129.742 58.7604 129.624 58.9687C129.507 59.177 129.121 59.9314 128.767 60.6451C128.413 61.3588 127.984 62.2889 127.813 62.7118C127.642 63.1348 127.254 63.9647 126.951 64.5562C126.647 65.1477 126.218 65.9263 125.998 66.2865C125.777 66.6467 125.422 67.2225 125.208 67.5662C124.994 67.9098 124.456 68.7101 124.013 69.3445C123.57 69.9789 122.842 70.9739 122.396 71.5554C121.949 72.137 121.133 73.1427 120.583 73.7903C120.033 74.4379 119.547 74.9679 119.503 74.9679C119.46 74.9679 119.451 74.849 119.484 74.7035C119.518 74.5581 119.664 74.0931 119.809 73.6702C119.954 73.2472 120.274 72.3821 120.519 71.7477C120.765 71.1132 121.373 69.764 121.871 68.7495C122.629 67.2068 122.761 66.8732 122.675 66.7116C122.619 66.6054 122.262 66.3716 121.882 66.1923C121.502 66.0129 121.133 65.7947 121.061 65.7074C120.989 65.6201 120.953 65.451 120.981 65.3318C121.008 65.2125 121.096 64.8771 121.175 64.5863C121.254 64.2955 121.392 63.5486 121.481 62.9266L121.644 61.7956L121.403 61.4291C121.271 61.2275 120.89 60.8251 120.557 60.5347C120.224 60.2442 119.587 59.7451 119.141 59.4254C118.696 59.1057 118.239 58.8153 118.126 58.78C117.971 58.7315 117.678 58.8744 116.934 59.3598C116.391 59.7139 115.647 60.227 115.279 60.4999C114.912 60.7727 114.547 61.0576 114.469 61.133C114.39 61.2083 114.047 61.5072 113.706 61.7972C113.366 62.0871 112.701 62.7161 112.229 63.195C111.757 63.6738 111.177 64.2847 110.941 64.5527C110.705 64.8207 110.425 65.1433 110.319 65.2697C110.213 65.396 109.803 65.932 109.407 66.4607C109.012 66.9894 108.558 67.6167 108.399 67.8546C108.239 68.0925 107.966 68.5467 107.792 68.8639C107.618 69.1811 107.362 69.6569 107.225 69.9213C107.087 70.1856 106.776 70.8561 106.533 71.4112C106.289 71.9664 105.978 72.745 105.84 73.1415C105.703 73.538 105.532 74.0355 105.462 74.2469C105.392 74.4584 105.269 74.9126 105.189 75.2563C105.109 75.5999 105.015 76.0651 104.981 76.2899C104.928 76.6297 104.874 76.7091 104.664 76.7598C104.524 76.7933 104.091 76.9016 103.702 77.0002L102.994 77.1795L102.315 76.6553C101.941 76.367 101.372 75.9991 101.05 75.8378C100.727 75.6766 100.394 75.5446 100.309 75.5446C100.224 75.5446 100.072 75.5005 99.9723 75.4465C99.8065 75.357 99.877 75.2357 100.768 74.0767C101.306 73.3773 102.13 72.2863 102.598 71.6523C103.067 71.0183 103.704 70.0926 104.014 69.5951C104.324 69.0977 104.702 68.4153 104.853 68.0787C105.005 67.7421 105.211 67.0457 105.311 66.5311C105.412 66.0166 105.547 65.2272 105.611 64.777C105.715 64.0531 105.71 63.8973 105.563 63.4312C105.472 63.1413 105.299 62.789 105.178 62.6485C105.057 62.5078 104.813 62.3149 104.636 62.2196C104.387 62.0852 104.098 62.0465 103.349 62.0473C102.818 62.0479 102.217 62.0972 102.014 62.157C101.811 62.2168 101.323 62.3608 100.93 62.477C100.536 62.5932 100.086 62.7528 99.9284 62.8316C99.771 62.9104 99.0944 63.305 98.4249 63.7085C97.7553 64.112 97.1332 64.4856 97.0423 64.5388C96.9514 64.5919 96.5339 64.8704 96.1143 65.1576C95.6948 65.4448 94.9654 65.9592 94.4934 66.3007C94.0214 66.6421 93.2884 67.2142 92.8643 67.5718C92.4403 67.9293 91.72 68.4853 91.2636 68.8073C90.8072 69.1292 90.4139 69.3926 90.3897 69.3926C90.3655 69.3926 90.3457 68.9412 90.3457 68.3895C90.3457 67.8378 90.3024 67.2717 90.2495 67.1313C90.1965 66.991 89.8377 66.5664 89.452 66.1878C89.0664 65.8092 88.1733 65.0508 87.4674 64.5024C86.7615 63.9539 85.8746 63.3375 85.4964 63.1326C85.117 62.9269 84.6753 62.7599 84.5106 62.7599C84.3466 62.7599 84.0276 62.8691 83.8018 63.0024C83.5759 63.1358 83.2681 63.4279 83.1177 63.6513C82.9673 63.8748 82.6922 64.3835 82.5064 64.7818C82.3206 65.1801 81.9956 66.0236 81.7842 66.6563C81.5727 67.2889 81.3481 68.0732 81.285 68.3992C81.218 68.7457 81.1882 69.4244 81.2134 70.0333C81.2482 70.8758 81.308 71.2106 81.5264 71.7856C81.7303 72.3223 81.9354 72.6462 82.3636 73.1076C82.6755 73.4438 83.3548 74.0315 83.873 74.4136L84.8153 75.1085V75.5797C84.8153 75.839 84.7677 76.229 84.7095 76.4467C84.6513 76.6643 84.5698 76.9289 84.5284 77.0346C84.4871 77.1403 84.3995 77.3782 84.3339 77.5633C84.2683 77.7483 84.161 78.0295 84.0955 78.1881C84.0299 78.3467 83.8755 78.712 83.7522 78.9999C83.629 79.2877 83.2063 80.1713 82.813 80.9634C82.4197 81.7554 82.0443 82.4211 81.9787 82.4426C81.8889 82.4721 81.8595 82.2506 81.8595 81.5423C81.8595 81.0255 81.9097 80.3407 81.9712 80.0203C82.0326 79.6999 82.2077 78.9403 82.3601 78.3323C82.5125 77.7243 82.6748 77.0971 82.7208 76.9385C82.7666 76.7799 82.8905 76.304 82.9961 75.8811C83.1015 75.4581 83.1893 74.9985 83.1911 74.8595C83.193 74.7206 83.1408 74.5632 83.0752 74.5097C83.0097 74.4564 82.4771 74.1678 81.8918 73.8686C81.3065 73.5693 80.6719 73.2989 80.4816 73.2678C80.2035 73.2223 80.0896 73.2548 79.9011 73.4334C79.772 73.5556 79.6664 73.6882 79.6664 73.728C79.6664 73.7678 79.5226 74.1171 79.3467 74.5043C79.171 74.8915 78.8864 75.5583 78.7144 75.9862C78.5188 76.4725 78.0934 77.1992 77.5799 77.924C77.128 78.5618 76.4364 79.4686 76.0431 79.939C75.6498 80.4095 75.1242 81.0624 74.8752 81.3898C74.5106 81.8691 74.3703 81.9851 74.1553 81.9851C74.0084 81.9851 73.8367 81.9332 73.7738 81.8697C73.7109 81.8063 73.6598 81.6008 73.6601 81.4131C73.6606 81.2254 73.7233 80.5959 73.7995 80.014C73.8758 79.4323 74.0058 78.632 74.0885 78.2357C74.1711 77.8395 74.4097 76.9961 74.6186 76.3617C74.8276 75.7273 75.1098 74.927 75.2459 74.5834C75.382 74.2397 75.5274 73.872 75.5691 73.7663C75.6106 73.6606 75.7944 73.1631 75.9771 72.6609C76.1599 72.1586 76.3524 71.6133 76.405 71.4491C76.4574 71.2848 76.4723 71.1046 76.4379 71.0484C76.4035 70.9924 76.0968 70.8404 75.7563 70.7109C75.4158 70.5812 74.9228 70.3753 74.6606 70.2531C74.3983 70.131 74.0274 69.9091 73.8363 69.7599C73.6453 69.6107 73.3929 69.4887 73.2755 69.4887C73.1573 69.4887 72.9288 69.6313 72.7632 69.8082C72.5988 69.9839 72.2002 70.6436 71.8776 71.2741C71.5548 71.9046 71.1532 72.7666 70.985 73.1896C70.8168 73.6125 70.5865 74.2614 70.4732 74.6314L70.2671 75.3043L69.7464 75.328C69.46 75.341 68.9896 75.2958 68.7012 75.2275C68.1995 75.1088 68.1781 75.091 68.2077 74.8194C68.2248 74.6632 68.3597 74.1676 68.5076 73.7182C68.6554 73.2689 68.8621 72.6849 68.9668 72.4205C69.0716 72.1562 69.2938 71.6371 69.4606 71.267C69.6274 70.8969 70.041 70.0341 70.3798 69.3497C70.7185 68.6652 70.9752 68.0515 70.9502 67.9859C70.9252 67.9202 70.7629 67.8248 70.5896 67.7737C70.4162 67.7227 69.6384 67.4363 68.861 67.1374C67.9676 66.7938 67.3385 66.6047 67.1513 66.6234C66.9079 66.6477 66.807 66.7386 66.5851 67.1336C66.4364 67.398 65.9996 68.2631 65.6144 69.0561C65.2291 69.8492 64.8202 70.7068 64.7059 70.9619C64.5916 71.217 64.1938 72.1687 63.8219 73.0767C63.4501 73.9847 63.04 75.0087 62.9106 75.3524C62.7811 75.696 62.5512 76.4098 62.3997 76.9385C62.2481 77.4672 62.0845 78.0295 62.0361 78.1881C61.9877 78.3467 61.8789 78.7793 61.7942 79.1494C61.7096 79.5194 61.6015 79.9953 61.5539 80.2067C61.5062 80.4182 61.4226 80.8508 61.368 81.168C61.3133 81.4852 61.2243 82.0476 61.1699 82.4176C61.1156 82.7877 61.0076 83.588 60.9299 84.196C60.8522 84.804 60.7897 85.8421 60.7909 86.503C60.7924 87.3013 60.8321 87.753 60.9093 87.8489C60.9732 87.9282 61.1989 88.1067 61.4109 88.2455C61.6228 88.3843 62.2026 88.6972 62.6992 88.9407C63.1957 89.1842 63.8303 89.4519 64.1092 89.5353C64.5542 89.6685 64.6422 89.6701 64.8273 89.5479C65.0198 89.4207 65.0485 89.2802 65.1575 87.9318C65.2232 87.1196 65.3208 86.1521 65.3744 85.7821C65.4279 85.412 65.5363 84.7415 65.6152 84.2921C65.6941 83.8427 65.8188 83.1722 65.8924 82.8021C65.966 82.4321 66.0932 81.8697 66.1752 81.5525C66.2571 81.2353 66.394 80.7223 66.4793 80.4125L66.6345 79.8492L67.0242 79.9101C67.2386 79.9437 67.83 79.9978 68.3386 80.0305L69.2631 80.09L69.2122 80.3886C69.1843 80.553 69.1424 80.7482 69.1193 80.8225C69.0961 80.8969 69.0141 81.589 68.9371 82.3605C68.86 83.1321 68.8001 84.3257 68.804 85.013C68.8082 85.7531 68.8597 86.3998 68.9306 86.5991C69.004 86.8058 69.2269 87.071 69.5086 87.2867C69.7607 87.4797 70.3083 87.8192 70.7253 88.0408C71.1423 88.2625 71.6191 88.4866 71.7848 88.5387C71.9505 88.5908 72.3865 88.7123 72.7535 88.8086C73.3228 88.958 73.4648 88.9655 73.7183 88.859C73.8818 88.7904 74.1228 88.5891 74.2537 88.4117C74.3846 88.2342 74.7064 87.6781 74.9688 87.1759C75.2312 86.6736 75.7803 85.6138 76.189 84.8208C76.5977 84.0278 76.9895 83.2935 77.0597 83.1892C77.1711 83.0238 77.1873 83.1024 77.1873 83.8076C77.1873 84.2519 77.2358 85.0078 77.295 85.4871C77.3601 86.0136 77.4962 86.5613 77.6388 86.8702C77.7912 87.2002 78.0152 87.4854 78.2701 87.674C78.4874 87.8348 78.855 88.0498 79.0869 88.1516C79.3188 88.2535 79.8872 88.4657 80.3499 88.6232C80.8126 88.7808 81.3781 88.9356 81.6062 88.9671C81.8723 89.0038 82.2233 88.9656 82.584 88.8605C82.8935 88.7704 83.3131 88.6032 83.5164 88.489C83.7669 88.3482 84.048 88.0335 84.3885 87.5123C84.6648 87.0894 85.0594 86.4189 85.2655 86.0224C85.4715 85.6258 85.8884 84.6958 86.1919 83.9557C86.4954 83.2155 87.0135 81.788 87.3434 80.7835C87.6733 79.779 88.0361 78.5697 88.1497 78.0963C88.2634 77.6229 88.4363 77.0605 88.5339 76.8467C88.6377 76.6195 89.1799 75.9927 89.8384 75.3388C90.4583 74.7234 91.5447 73.7084 92.2527 73.0832C92.9606 72.4581 93.7115 71.7884 93.9213 71.595C94.1311 71.4016 94.6889 70.9216 95.1608 70.5283C95.6328 70.1351 96.4481 69.4871 96.9725 69.0884C97.4969 68.6897 98.4409 68.024 99.0702 67.6092C99.6995 67.1942 100.354 66.7769 100.524 66.6817C100.694 66.5867 100.911 66.5088 101.005 66.5088C101.1 66.5088 101.229 66.5607 101.292 66.6242C101.355 66.6876 101.406 66.8281 101.407 66.9366C101.407 67.0449 101.192 67.5662 100.929 68.0949C100.667 68.6236 100.162 69.4649 99.8086 69.9643C99.4549 70.4638 98.6507 71.4106 98.0214 72.0682C97.392 72.7259 96.5124 73.5742 96.0667 73.9534C95.6209 74.3325 94.9129 74.9019 94.4934 75.2189C94.0738 75.5358 92.9475 76.3509 91.9905 77.0303C91.0334 77.7097 90.2503 78.2999 90.2503 78.342C90.2503 78.384 90.4605 78.6694 90.7172 78.9761C90.9741 79.2829 91.5733 79.9208 92.0489 80.3937L92.9136 81.2536L93.9419 80.7621C94.5074 80.4918 95.249 80.1856 95.5899 80.0817C95.9308 79.9778 96.4349 79.8645 96.7103 79.8301C96.9857 79.7957 97.2109 79.7865 97.2109 79.8096C97.2109 79.8328 96.8568 80.0795 96.4242 80.3577C95.9916 80.636 95.0089 81.3108 94.2407 81.8572C93.3437 82.4953 92.4725 83.2206 91.8062 83.884C91.2357 84.4521 90.5768 85.1332 90.3422 85.3976C90.1076 85.6619 89.6968 86.1377 89.4293 86.4549C89.1619 86.7721 88.601 87.4859 88.183 88.041C87.765 88.5961 87.1647 89.4613 86.8489 89.9635C86.5332 90.4658 86.1452 91.1146 85.9868 91.4054C85.8284 91.6962 85.5458 92.2369 85.3588 92.607C85.1718 92.9771 84.9062 93.5394 84.7685 93.8566C84.6309 94.1739 84.2428 95.1255 83.9059 95.9714C83.5689 96.8173 83.2019 97.8555 83.0902 98.2784C82.9785 98.7014 82.848 99.2421 82.8002 99.48C82.7524 99.7179 82.6305 100.432 82.5291 101.066C82.4279 101.701 82.343 102.641 82.3406 103.157C82.3367 104.001 82.3535 104.094 82.5099 104.094C82.6053 104.094 83.0665 104.011 83.5349 103.911C84.0032 103.81 84.8818 103.595 85.4875 103.433C86.093 103.271 86.9297 103.026 87.3468 102.889C87.7638 102.752 88.7615 102.313 89.564 101.913C90.4301 101.482 91.5151 100.84 92.2338 100.332C92.8997 99.8625 93.8353 99.154 94.3129 98.7579C94.7904 98.3619 95.7132 97.4864 96.3635 96.8124C97.0137 96.1384 97.8977 95.1259 98.3279 94.5623C98.7581 93.9988 99.407 93.068 99.7699 92.4939C100.133 91.9199 100.66 90.9967 100.942 90.4425C101.223 89.8883 101.531 89.2538 101.625 89.0326C101.719 88.8114 101.904 88.3572 102.036 88.0233C102.168 87.6894 102.333 87.2864 102.404 87.1278C102.474 86.9692 102.768 86.0825 103.057 85.1572C103.345 84.232 103.618 83.3054 103.662 83.0979C103.721 82.8219 103.819 82.6792 104.028 82.5655C104.186 82.48 104.615 82.2965 104.982 82.1575C105.349 82.0186 105.813 81.8486 106.012 81.7797C106.27 81.6906 106.394 81.6846 106.441 81.7588C106.478 81.8164 106.744 82.0124 107.032 82.1944C107.32 82.3765 107.822 82.6394 108.146 82.7785C108.47 82.9177 108.985 83.0593 109.29 83.0933C109.623 83.1304 109.955 83.1124 110.12 83.0483C110.271 82.9895 110.716 82.6288 111.108 82.2469C111.5 81.865 112.217 81.0551 112.701 80.4471C113.185 79.8391 113.848 78.9414 114.174 78.4525C114.5 77.9635 114.791 77.5633 114.82 77.5633C114.85 77.5633 114.848 77.6989 114.815 77.8646C114.782 78.0305 114.8 78.3338 114.854 78.5389C114.909 78.7438 115.088 79.0658 115.252 79.2542C115.417 79.4427 116.026 79.9441 116.607 80.3683C117.188 80.7926 117.866 81.2435 118.113 81.3702C118.361 81.4969 118.684 81.6006 118.832 81.6006C119.028 81.6006 119.218 81.4776 119.534 81.144C119.772 80.8929 120.161 80.4495 120.399 80.1587C120.636 79.8679 121.292 78.9811 121.857 78.1881C122.421 77.3951 123.206 76.3451 123.6 75.8547C123.995 75.3644 124.339 74.9847 124.365 75.0109C124.391 75.0371 124.353 75.2652 124.281 75.5178C124.187 75.8433 124.151 76.5235 124.157 77.8517C124.164 79.5622 124.182 79.7566 124.362 80.0742C124.47 80.2656 124.775 80.7268 125.038 81.0992C125.302 81.4715 125.581 81.8556 125.659 81.9527C125.737 82.0498 126.043 82.4208 126.338 82.7771C126.633 83.1334 127.059 83.5335 127.283 83.6662C127.508 83.799 127.776 83.9076 127.879 83.9076C127.983 83.9076 128.262 83.7827 128.501 83.6302C128.74 83.4776 129.09 83.164 129.28 82.9333C129.471 82.7026 130.06 81.8217 130.59 80.9758C131.121 80.1298 132.066 78.6698 132.69 77.7312C133.315 76.7926 134.031 75.7329 134.282 75.3761C134.533 75.0194 134.863 74.5113 135.016 74.2469C135.168 73.9826 135.407 73.5284 135.545 73.2376C135.684 72.9468 135.909 72.3845 136.045 71.988C136.182 71.5915 136.36 70.9336 136.442 70.5261C136.524 70.1186 136.591 69.4673 136.591 69.0787C136.591 68.6902 136.5 67.8989 136.39 67.3204C136.28 66.7418 136.154 66.0738 136.11 65.8359C136.066 65.598 135.942 64.8908 135.834 64.2644C135.725 63.6378 135.637 62.9628 135.637 62.7643C135.637 62.4518 135.705 62.34 136.142 61.9327C136.419 61.674 136.838 61.2892 137.073 61.0777C137.307 60.8662 137.842 60.3909 138.26 60.0215C138.679 59.6519 139.258 59.1341 139.546 58.8707C139.835 58.6072 140.521 57.9349 141.072 57.3765C141.623 56.8182 142.212 56.1898 142.381 55.98C142.551 55.7702 142.882 55.2092 143.118 54.7334C143.357 54.2513 143.611 53.5569 143.692 53.1651C143.772 52.7783 143.837 52.2077 143.837 51.8971C143.837 51.53 143.749 51.0864 143.587 50.6297C143.449 50.2432 143.186 49.6243 143.003 49.2542C142.819 48.8841 142.525 48.3622 142.35 48.0945C142.174 47.8267 141.854 47.4266 141.639 47.2054C141.369 46.9276 141.169 46.804 140.993 46.8062C140.817 46.8085 140.383 47.0947 139.594 47.7274ZM79.3355 50.7682C79.214 51.1514 79.0086 51.7679 78.879 52.138C78.7495 52.5081 78.484 53.2002 78.289 53.676C78.094 54.1518 77.5993 55.2131 77.1898 56.0345C76.7802 56.8558 76.176 57.9805 75.8472 58.5338C75.5183 59.087 74.919 60.0376 74.5153 60.6462C74.1117 61.2547 73.7055 61.8162 73.6127 61.894C73.4551 62.0257 73.4484 62.0128 73.5103 61.7006C73.5469 61.5166 73.6621 61.02 73.7664 60.597C73.8708 60.1741 74.1518 59.3306 74.391 58.7226C74.6302 58.1146 75.1285 57.0116 75.4984 56.2714C75.8682 55.5312 76.4256 54.5147 76.737 54.0124C77.0484 53.5102 77.7813 52.4188 78.3656 51.5872C78.95 50.7556 79.457 50.0742 79.4922 50.0732C79.5275 50.0721 79.457 50.3849 79.3355 50.7682ZM43.195 50.8039C42.9852 50.8258 42.4703 50.9338 42.0508 51.0437C41.6312 51.1536 40.816 51.4368 40.2391 51.673C39.6623 51.9092 38.754 52.3365 38.2207 52.6225C37.6873 52.9085 36.7862 53.4386 36.2183 53.8005C35.6503 54.1624 34.8638 54.6897 34.4704 54.9723C34.0771 55.255 33.468 55.717 33.1168 55.9991C32.7656 56.281 32.4437 56.5117 32.4015 56.5117C32.3593 56.5117 32.2219 56.3163 32.0962 56.0775C31.9706 55.8387 31.6164 55.3668 31.3092 55.0289C31.0021 54.6909 30.5516 54.2814 30.3084 54.1189C30.0651 53.9565 29.6349 53.7364 29.3523 53.6298C29.0699 53.5232 28.5075 53.3628 28.1028 53.2733C27.5571 53.1525 26.911 53.1108 25.6029 53.1116C24.1372 53.1127 23.674 53.1491 22.8633 53.327C22.3267 53.4449 21.5127 53.6722 21.0545 53.8323C20.5962 53.9923 19.991 54.2371 19.7094 54.3761C19.4277 54.5151 19.1187 54.7296 19.0226 54.8528C18.9265 54.976 18.7407 55.4321 18.6098 55.8663C18.4788 56.3006 18.3039 57.0063 18.221 57.4345C18.135 57.8788 18.0702 58.7071 18.0702 59.364C18.0702 60.1584 18.1167 60.6521 18.2202 60.9585C18.3027 61.2025 18.4286 61.4511 18.5002 61.5109C18.5971 61.5922 18.6861 61.5904 18.8508 61.504C18.9721 61.4405 19.3311 61.1392 19.6486 60.8347C19.9661 60.5301 20.5882 60.043 21.0311 59.7522C21.4741 59.4614 22.0725 59.0868 22.361 58.9198C22.6494 58.7528 23.3993 58.3599 24.0274 58.0466C24.6555 57.7335 25.3849 57.4137 25.6484 57.336C25.9118 57.2583 26.2824 57.17 26.4721 57.1397C26.6616 57.1094 26.8886 57.1123 26.9762 57.1462C27.0638 57.1802 27.1983 57.3302 27.275 57.4799C27.3627 57.6506 27.4144 58.0308 27.4142 58.5015C27.414 58.9139 27.348 59.6622 27.2675 60.1645C27.187 60.6667 26.9696 61.6616 26.7844 62.3754C26.5991 63.0891 26.2946 64.1489 26.1076 64.7305C25.9206 65.312 25.4577 66.7395 25.0789 67.9026C24.7003 69.0658 24.2929 70.3418 24.1736 70.7383C24.0543 71.1349 23.8949 71.6539 23.8193 71.8919C23.7437 72.1298 23.5091 72.93 23.2981 73.6702C23.0871 74.4104 22.8794 75.1457 22.8365 75.3043C22.7936 75.4629 22.6087 76.0902 22.4256 76.6982C22.2426 77.3061 22.0707 77.8685 22.0437 77.9478C22.0168 78.0271 21.664 79.1301 21.2597 80.399C20.8555 81.6679 20.2546 83.5279 19.9244 84.5324C19.5942 85.5369 19.0867 87.1609 18.7965 88.1412C18.5063 89.1215 18.2044 90.1596 18.1257 90.4482C18.047 90.7368 17.8692 91.3838 17.7307 91.886C17.5921 92.3883 17.4558 92.9074 17.4277 93.0396C17.3996 93.1717 17.0425 94.6208 16.6341 96.2598C16.2257 97.8987 15.6738 100.091 15.4076 101.131C15.0024 102.715 14.9237 103.163 14.9237 103.88C14.9237 104.465 14.9711 104.833 15.0725 105.038C15.1543 105.204 15.3367 105.42 15.4777 105.518C15.6188 105.617 15.9996 105.753 16.3241 105.821C16.6964 105.899 17.1536 105.92 17.5636 105.879C17.9209 105.843 18.4707 105.77 18.7853 105.717C19.1 105.664 19.8509 105.455 20.454 105.251C21.0571 105.048 21.773 104.792 22.0452 104.684C22.3172 104.575 22.9114 104.311 23.3657 104.098C23.8199 103.884 24.2128 103.71 24.2387 103.71C24.2645 103.71 24.6151 103.542 25.0174 103.338C25.4198 103.133 26.3276 102.589 27.0348 102.13C27.7418 101.67 28.5993 101.075 28.9401 100.809C29.281 100.542 29.7316 100.166 29.9415 99.9739C30.1514 99.7816 30.5375 99.4518 30.7997 99.241C31.0618 99.0303 31.5316 98.6194 31.8436 98.3278C32.1556 98.0363 32.5418 97.6676 32.7017 97.5085C32.8617 97.3496 33.25 96.9373 33.5646 96.5925C33.8793 96.2476 34.3298 95.7351 34.5658 95.4537C34.8018 95.1722 35.0943 94.8275 35.2158 94.6876C35.3374 94.5478 35.8355 93.9359 36.3227 93.3279C36.8099 92.7199 37.4234 91.9357 37.6862 91.5854C37.9489 91.2349 38.4632 90.5212 38.829 89.9993C39.1949 89.4773 39.8794 88.4231 40.3502 87.6565C40.8211 86.8899 41.3594 86.0031 41.5464 85.6859C41.7334 85.3687 42.0414 84.8081 42.2308 84.44C42.4203 84.0721 42.5752 83.7379 42.5752 83.6975C42.5752 83.6571 42.6981 83.3526 42.8483 83.0208C42.9985 82.6891 43.2617 82.0932 43.4334 81.6967C43.605 81.3002 43.8737 80.6946 44.0305 80.3509C44.1874 80.0073 44.6529 78.8514 45.0649 77.7823C45.4769 76.7132 45.9242 75.5236 46.0589 75.1388C46.1937 74.754 46.4669 73.9417 46.6663 73.3337C46.8656 72.7257 47.1453 71.7957 47.2875 71.267C47.4299 70.7383 47.5842 70.176 47.6306 70.0174C47.6769 69.8588 47.8088 69.2748 47.9237 68.7197C48.0385 68.1646 48.1637 67.5157 48.2019 67.2778C48.2401 67.0399 48.3598 66.2613 48.468 65.5475C48.5763 64.8338 48.711 63.8173 48.7673 63.2886C48.8238 62.7599 48.9128 61.3854 48.9652 60.2342C49.0307 58.795 49.029 57.7138 48.9597 56.7736C48.9043 56.0215 48.8195 55.2549 48.7714 55.0698C48.7233 54.8848 48.6142 54.4306 48.529 54.0605C48.4438 53.6904 48.2459 53.1601 48.0893 52.8821C47.9316 52.6022 47.569 52.1831 47.2769 51.9433C46.9868 51.705 46.4418 51.3609 46.0658 51.1786C45.4707 50.8901 45.2652 50.8417 44.4793 50.8056C43.9827 50.7828 43.4048 50.782 43.195 50.8039ZM139.571 52.6907C139.596 52.7568 139.584 53.0488 139.543 53.3395C139.503 53.6303 139.397 54.0845 139.308 54.3489C139.219 54.6132 138.982 55.0458 138.782 55.3101C138.581 55.5745 138.317 55.9026 138.195 56.0393C138.073 56.1761 137.694 56.4942 137.353 56.7462C137.012 56.9983 136.612 57.268 136.462 57.3458C136.313 57.4235 136.171 57.4664 136.146 57.441C136.121 57.4158 136.21 57.2187 136.345 57.0033C136.48 56.7879 136.591 56.59 136.591 56.5635C136.591 56.5371 136.741 56.2788 136.924 55.9895C137.108 55.7002 137.258 55.4407 137.258 55.4127C137.258 55.3848 137.415 55.1124 137.607 54.8073C137.799 54.5023 137.984 54.2311 138.017 54.2047C138.05 54.1782 138.283 53.8839 138.535 53.5505C138.787 53.2173 139.083 52.8604 139.193 52.7575C139.302 52.6546 139.422 52.5705 139.459 52.5705C139.496 52.5705 139.546 52.6246 139.571 52.6907ZM145.96 56.8722C145.596 57.3876 145.045 58.2017 144.735 58.6811C144.425 59.1605 144.119 59.6364 144.055 59.7385C143.991 59.8406 143.577 60.5298 143.135 61.2699C142.693 62.0101 142.248 62.7671 142.146 62.9521C142.045 63.1372 141.831 63.5265 141.672 63.8173C141.512 64.1081 141.036 65.0381 140.613 65.884C140.19 66.7299 139.656 67.8329 139.426 68.3352C139.196 68.8374 138.674 70.0703 138.266 71.0748C137.858 72.0793 137.47 73.0309 137.403 73.1896C137.336 73.3482 137.079 74.0186 136.832 74.6795C136.584 75.3404 136.347 75.9676 136.305 76.0733C136.262 76.1791 136.12 76.5468 135.988 76.8904C135.856 77.2341 135.591 77.9478 135.4 78.4765C135.209 79.0052 134.944 79.7189 134.811 80.0626C134.678 80.4062 134.534 80.7739 134.491 80.8796C134.448 80.9854 134.305 81.3747 134.174 81.7448C134.042 82.1149 133.778 82.8718 133.587 83.427C133.396 83.9821 133.139 84.7175 133.016 85.0611C132.893 85.4048 132.657 86.0752 132.493 86.5511C132.328 87.0269 131.879 88.3678 131.495 89.531C131.111 90.6941 130.646 92.1216 130.464 92.7031C130.281 93.2847 130.057 94.0201 129.966 94.3373C129.875 94.6545 129.766 95.0222 129.723 95.1543C129.68 95.2865 129.592 95.6303 129.528 95.9185L129.411 96.4424L129.943 96.9413C130.235 97.2158 130.789 97.6749 131.173 97.9617C131.556 98.2484 132.061 98.6208 132.295 98.7892C132.528 98.9577 132.791 99.0955 132.879 99.0955C132.967 99.0955 133.084 99.0409 133.139 98.9742C133.194 98.9075 133.325 98.6154 133.429 98.3253C133.534 98.0352 133.775 97.3436 133.966 96.7885C134.157 96.2333 134.348 95.6926 134.391 95.5869C134.434 95.4812 134.522 95.2649 134.587 95.1063C134.651 94.9477 134.782 94.58 134.877 94.2892C134.972 93.9984 135.185 93.3712 135.351 92.8954C135.517 92.4195 135.761 91.7274 135.893 91.3574C136.025 90.9873 136.284 90.2735 136.469 89.7713C136.653 89.269 137.016 88.3174 137.274 87.6565C137.533 86.9956 137.78 86.3684 137.825 86.2627C137.869 86.1569 138.017 85.8205 138.154 85.5151C138.29 85.2096 138.402 84.9395 138.402 84.9147C138.402 84.8899 138.552 84.5419 138.736 84.1413C138.919 83.7407 139.07 83.3993 139.07 83.3828C139.07 83.3661 139.288 82.8826 139.556 82.3083C139.823 81.734 140.248 80.8316 140.5 80.3029C140.753 79.7742 141.236 78.7576 141.573 78.0439C141.911 77.3302 142.391 76.3244 142.64 75.809C142.889 75.2936 143.122 74.8718 143.158 74.8718C143.194 74.8718 143.383 75.3888 143.578 76.0208C143.773 76.6528 143.932 77.2351 143.932 77.3149C143.932 77.3947 144.022 77.7002 144.131 77.9937C144.24 78.2873 144.436 78.6566 144.568 78.8145C144.769 79.0548 144.877 79.1013 145.238 79.1013C145.541 79.1013 145.91 78.9873 146.484 78.7162C146.932 78.5044 147.582 78.1521 147.928 77.9333C148.274 77.7145 148.929 77.2378 149.384 76.874C149.839 76.5102 150.735 75.6628 151.375 74.9909C152.015 74.3189 153.019 73.1198 153.606 72.3259C154.193 71.5321 154.944 70.45 155.277 69.9213C155.609 69.3926 156.239 68.3179 156.677 67.533C157.115 66.7483 157.765 65.5154 158.122 64.7934C158.479 64.0715 158.829 63.3294 158.899 63.1444C158.969 62.9594 159.089 62.6565 159.165 62.4715C159.241 62.2865 159.342 62.0486 159.389 61.9428C159.436 61.8371 159.605 61.3829 159.766 60.9335C159.926 60.4841 160.14 59.8691 160.243 59.5668C160.345 59.2644 160.428 58.9314 160.428 58.8266C160.428 58.7219 160.289 58.53 160.118 58.4C159.948 58.27 159.401 57.9541 158.902 57.6978C158.404 57.4416 157.782 57.1385 157.52 57.0242C157.258 56.91 156.738 56.7079 156.366 56.5751C155.993 56.4423 155.341 56.28 154.917 56.2146L154.145 56.0956L153.687 56.4707C153.435 56.6771 153.079 56.975 152.895 57.1326C152.712 57.2902 152.197 57.7891 151.751 58.2412C151.305 58.6934 150.746 59.2787 150.507 59.5418C150.269 59.805 149.667 60.5177 149.169 61.1257C148.672 61.7337 147.965 62.6205 147.598 63.0963C147.231 63.5722 146.715 64.2643 146.452 64.6343C146.188 65.0044 145.563 65.9344 145.061 66.701C144.56 67.4677 143.843 68.5827 143.469 69.1789C143.095 69.7751 142.788 70.2835 142.788 70.3087C142.788 70.3338 142.66 70.5597 142.504 70.8107C142.348 71.0617 142.219 71.2075 142.218 71.1349C142.217 71.0622 142.577 70.2619 143.018 69.3565C143.459 68.4511 144.042 67.2994 144.314 66.7972C144.586 66.2949 144.95 65.6244 145.122 65.3072C145.294 64.99 145.542 64.5358 145.671 64.2979C145.801 64.06 146.386 62.9956 146.971 61.9326C147.566 60.8501 148.348 59.5871 148.748 59.0613C149.229 58.4305 149.462 58.04 149.46 57.87C149.458 57.731 149.404 57.5486 149.341 57.4648C149.277 57.381 149.01 57.1906 148.748 57.0417C148.485 56.8927 147.92 56.5828 147.49 56.3529C147.061 56.1231 146.69 55.9349 146.665 55.9349C146.64 55.9349 146.323 56.3567 145.96 56.8722ZM40.8698 57.0887C41.1522 57.1418 41.4982 57.2323 41.6387 57.2897C41.779 57.3473 41.9983 57.5534 42.1259 57.7478C42.2535 57.9422 42.3984 58.3384 42.4478 58.6282C42.5078 58.9799 42.4998 59.6027 42.4237 60.5009C42.361 61.2411 42.1958 62.4955 42.0568 63.2886C41.9178 64.0816 41.7634 64.9684 41.7138 65.2592C41.6641 65.5499 41.5185 66.1988 41.39 66.701C41.2616 67.2033 41.1269 67.7224 41.091 67.8546C41.055 67.9867 40.8218 68.8086 40.5729 69.681C40.3239 70.5533 40.0982 71.3535 40.0712 71.4593C40.0442 71.565 39.7204 72.6464 39.3517 73.8624C38.9831 75.0784 38.529 76.5059 38.3428 77.0346C38.1566 77.5633 37.936 78.1875 37.8528 78.4218C37.7696 78.6561 37.6181 79.0322 37.5162 79.2576C37.4143 79.483 37.331 79.692 37.331 79.7219C37.331 79.7518 37.2478 79.9596 37.1463 80.1838C37.0446 80.4078 36.7179 81.1536 36.4204 81.8409C36.1228 82.5282 35.7924 83.2852 35.6862 83.5231C35.58 83.761 35.1403 84.6694 34.709 85.5417C34.2777 86.4141 33.6428 87.6121 33.2981 88.2039C32.9533 88.7959 32.5127 89.5313 32.3188 89.8381C32.1249 90.145 31.7475 90.6773 31.4802 91.0209C31.2128 91.3646 30.513 92.2337 29.9251 92.9525C29.3069 93.7082 28.4617 94.6036 27.9207 95.0761C27.4063 95.5254 26.6207 96.1715 26.175 96.5118C25.7292 96.8522 25.0319 97.3339 24.6255 97.5823C24.2192 97.8308 23.8866 97.9979 23.8866 97.9539C23.8866 97.9099 23.9721 97.3161 24.0767 96.6343C24.1813 95.9525 24.31 95.1459 24.3628 94.8419C24.4155 94.538 24.4985 94.0622 24.5473 93.7845C24.596 93.5069 24.7026 92.9122 24.7842 92.4628C24.8658 92.0134 25.0449 91.1267 25.1822 90.4922C25.3195 89.8578 25.4659 89.1873 25.5075 89.0023C25.5491 88.8172 25.7407 88.0602 25.9332 87.3201C26.1256 86.5799 26.3185 85.8445 26.3618 85.6859C26.4051 85.5273 26.5068 85.1596 26.5878 84.8689C26.6688 84.5781 26.8849 83.8427 27.0679 83.2347C27.2511 82.6267 27.5147 81.7616 27.6539 81.3122C27.7931 80.8628 28.0577 79.9977 28.2419 79.3897C28.4261 78.7817 28.6127 78.1545 28.6566 77.9959C28.7003 77.8372 28.7997 77.4912 28.8773 77.2268C28.9548 76.9625 29.133 76.3785 29.2731 75.9291C29.4133 75.4798 29.6058 74.8525 29.701 74.5353C29.7962 74.2181 30.3037 72.6609 30.8288 71.0748C31.3539 69.4887 31.875 67.8576 31.9867 67.4503C32.0983 67.0428 32.2953 66.3074 32.4245 65.8161C32.5536 65.3247 32.7253 64.6092 32.8059 64.2259C32.8866 63.8426 33.008 62.9857 33.0758 62.3217C33.1839 61.262 33.2272 61.0862 33.4295 60.8854C33.5562 60.7596 34.0676 60.3265 34.5658 59.923C35.064 59.5196 35.8344 58.9472 36.2779 58.6513C36.7214 58.3553 37.3759 57.966 37.7323 57.7862C38.0887 57.6065 38.5197 57.4151 38.69 57.3609C38.8603 57.3068 39.257 57.2068 39.5717 57.1388C39.8863 57.0709 40.1916 57.0101 40.25 57.0038C40.3084 56.9975 40.5873 57.0357 40.8698 57.0887ZM153.843 62.5325C153.677 62.8426 153.432 63.291 153.299 63.5289C153.166 63.7668 152.927 64.1777 152.767 64.4421C152.607 64.7064 152.178 65.3769 151.813 65.932C151.448 66.4872 150.738 67.4587 150.235 68.0911C149.732 68.7234 149.062 69.5226 148.748 69.867C148.433 70.2114 147.961 70.7052 147.699 70.9644C147.437 71.2236 146.867 71.7388 146.432 72.1093C145.998 72.4798 145.618 72.7576 145.587 72.7267C145.556 72.6958 145.818 72.2466 146.169 71.7284C146.52 71.2103 147.136 70.3082 147.539 69.7236C147.941 69.1391 148.55 68.2789 148.891 67.8121C149.232 67.3452 149.741 66.6771 150.023 66.3275C150.305 65.9778 150.734 65.4542 150.977 65.164C151.219 64.8737 151.674 64.3546 151.987 64.0105C152.3 63.6663 152.892 63.0441 153.302 62.6279C153.712 62.2116 154.07 61.8929 154.096 61.9197C154.123 61.9467 154.009 62.2223 153.843 62.5325ZM117.04 64.6103C117.038 64.6764 116.98 64.9684 116.911 65.2592C116.841 65.5499 116.643 66.1339 116.471 66.5569C116.298 66.9798 115.859 67.9098 115.496 68.6236C115.133 69.3373 114.469 70.4829 114.02 71.1694C113.571 71.8558 112.943 72.7642 112.624 73.188C112.305 73.6118 111.956 74.0461 111.85 74.1531C111.743 74.2601 111.378 74.581 111.037 74.8663C110.696 75.1515 110.194 75.529 109.921 75.7051C109.648 75.8812 109.401 76.0253 109.373 76.0253C109.344 76.0253 109.32 75.9196 109.32 75.7904C109.32 75.6613 109.467 75.1051 109.646 74.5544C109.825 74.0035 110.227 73.0544 110.539 72.4452C110.852 71.8358 111.334 70.997 111.61 70.5812C111.887 70.1653 112.509 69.3277 112.993 68.7197C113.477 68.1117 114.144 67.3115 114.474 66.9414C114.805 66.5713 115.474 65.8683 115.961 65.3793C116.448 64.8903 116.891 64.4902 116.945 64.4902C116.999 64.4902 117.042 64.5443 117.04 64.6103ZM131.812 66.677C131.863 66.8753 131.954 67.297 132.015 67.6143C132.075 67.9315 132.194 68.4289 132.278 68.7197C132.362 69.0105 132.425 69.4127 132.418 69.6136C132.411 69.8144 132.302 70.2037 132.177 70.4787C132.051 70.7536 131.577 71.6003 131.123 72.3601C130.669 73.1199 130.297 73.7637 130.297 73.7908C130.297 73.8179 129.941 74.321 129.505 74.9087C129.069 75.4964 128.583 76.1605 128.423 76.3845C128.264 76.6086 128.113 76.7706 128.087 76.7447C128.061 76.7187 128.094 76.3408 128.159 75.9047C128.224 75.4688 128.327 74.9174 128.388 74.6795C128.449 74.4416 128.581 73.8576 128.681 73.3818C128.782 72.906 128.912 72.322 128.971 72.0841C129.03 71.8462 129.184 71.2839 129.312 70.8345C129.441 70.3851 129.66 69.7146 129.8 69.3445C129.94 68.9744 130.242 68.2823 130.471 67.8065C130.699 67.3307 130.992 66.8008 131.121 66.629C131.25 66.4571 131.438 66.3166 131.538 66.3166C131.668 66.3166 131.746 66.4189 131.812 66.677ZM50.9187 67.509C50.7885 67.6403 50.4119 68.3016 50.0817 68.9787C49.7516 69.6557 49.2391 70.7504 48.9432 71.4112C48.6471 72.0721 48.144 73.2485 47.8253 74.0255C47.5065 74.8025 47.0572 76.0136 46.8267 76.717C46.5962 77.4203 46.2778 78.4501 46.1191 79.0052C45.9603 79.5603 45.6592 80.7282 45.4499 81.6006C45.2406 82.4729 45.02 83.4894 44.9596 83.8595C44.8992 84.2296 44.8099 84.7668 44.7613 85.0531C44.7127 85.3395 44.6729 85.9336 44.6729 86.3734C44.6729 86.8133 44.7215 87.3792 44.781 87.6311C44.8404 87.883 44.937 88.194 44.9956 88.3221C45.0541 88.4503 45.2518 88.645 45.435 88.7547C45.618 88.8644 45.9184 89.0075 46.1024 89.0725C46.2863 89.1377 46.8797 89.2642 47.4208 89.3537C48.3594 89.509 48.4363 89.5085 49.0894 89.3412C49.4661 89.2447 49.884 89.1105 50.0183 89.0429C50.1526 88.9753 50.5449 88.6183 50.89 88.2494C51.2352 87.8806 51.8918 87.056 52.3491 86.4172C52.8065 85.7782 53.2187 85.2791 53.2652 85.3082C53.3117 85.3371 53.3505 85.6719 53.3513 86.0521C53.3521 86.4323 53.4098 86.9876 53.4795 87.2861C53.5493 87.5848 53.7231 88.03 53.8658 88.2756C54.0086 88.5211 54.3048 88.854 54.5242 89.0154C54.7436 89.1767 55.1682 89.4343 55.4677 89.5876C55.7673 89.741 56.3465 90.0023 56.7549 90.1682C57.1634 90.3341 57.7115 90.5506 57.9729 90.6493C58.2344 90.7479 58.5508 90.8287 58.676 90.8287C58.8936 90.8287 58.9015 90.8064 58.8523 90.324C58.8241 90.0464 58.7248 89.2786 58.6315 88.6178C58.5049 87.7201 58.4612 86.784 58.459 84.9169C58.4572 83.4438 58.5071 81.9835 58.5805 81.3603C58.6491 80.7787 58.764 79.9568 58.836 79.5339C58.9081 79.1109 59.0088 78.5486 59.0598 78.2842C59.1109 78.0199 59.2616 77.3927 59.3946 76.8904C59.5277 76.3881 59.7485 75.6528 59.8855 75.2563C60.0224 74.8597 60.4314 73.7874 60.7945 72.8732C61.1575 71.959 61.4546 71.147 61.4546 71.0687C61.4546 70.9905 61.358 70.8871 61.24 70.839C61.1221 70.7909 60.8253 70.6792 60.5808 70.5909C60.3362 70.5024 59.6958 70.1534 59.1577 69.8152C58.6196 69.4771 58.1254 69.2003 58.0594 69.2003C57.9935 69.2003 57.8575 69.3192 57.7571 69.4647C57.6567 69.6101 57.4163 70.0223 57.2229 70.3808C57.0294 70.7393 56.7929 71.1719 56.6971 71.3421C56.6013 71.5123 56.1582 72.3004 55.7125 73.0934C55.2667 73.8865 54.7421 74.8165 54.5467 75.1601C54.3513 75.5038 54.1581 75.8282 54.1172 75.8811C54.0763 75.934 53.9354 76.1719 53.8042 76.4098C53.673 76.6477 53.1493 77.5312 52.6403 78.373C52.1312 79.215 51.5218 80.1764 51.286 80.5095C51.0502 80.8426 50.4759 81.5164 50.0098 82.0067C49.2336 82.8232 49.1619 82.8762 49.1583 82.6353C49.1562 82.4907 49.2043 82.1663 49.2654 81.9143C49.3264 81.6625 49.4938 81.0887 49.6374 80.6393C49.781 80.1899 50.4638 78.3515 51.1548 76.554C51.8458 74.7564 52.7137 72.5503 53.0834 71.6515C53.453 70.7528 53.8811 69.7409 54.0345 69.4031C54.1879 69.0652 54.2934 68.7361 54.2689 68.6717C54.2444 68.6074 54.098 68.5293 53.9435 68.4981C53.7892 68.4671 53.3886 68.3152 53.0533 68.1608C52.7182 68.0063 52.2294 67.7827 51.9672 67.6636C51.705 67.5446 51.415 67.4074 51.3229 67.3587C51.1972 67.2923 51.0966 67.3297 50.9187 67.509ZM142.121 85.0738C141.308 85.1223 140.285 85.1868 139.847 85.217L139.052 85.2721L138.908 85.6232C138.829 85.8163 138.688 86.1473 138.596 86.3588C138.503 86.5703 138.232 87.2624 137.994 87.8968C137.755 88.5313 137.449 89.3541 137.313 89.7252C137.178 90.0965 137.067 90.4749 137.067 90.5663C137.067 90.6578 137.121 90.7322 137.186 90.7318C137.252 90.7314 138.164 90.6671 139.213 90.5888C140.261 90.5106 141.549 90.4026 142.073 90.3488C142.598 90.2951 143.499 90.2084 144.075 90.1563C144.652 90.1041 145.275 90.039 145.458 90.0116C145.642 89.9842 146.714 89.9192 147.842 89.8671C148.969 89.8151 150.6 89.7294 151.465 89.6766C152.33 89.6239 153.661 89.5596 154.421 89.5339C155.181 89.5081 156.812 89.4665 158.044 89.4414C159.277 89.4163 160.628 89.4309 161.048 89.474C161.605 89.5312 161.862 89.5202 162.001 89.4334C162.106 89.368 162.415 88.8658 162.687 88.3173C162.96 87.7688 163.312 87.0297 163.471 86.6748C163.63 86.3198 163.786 85.9235 163.819 85.7939C163.86 85.6274 163.819 85.4996 163.678 85.3578C163.492 85.1701 163.361 85.1558 161.644 85.1342C160.634 85.1216 159.379 85.1032 158.855 85.0935C158.33 85.0839 154.683 85.0555 150.75 85.0307C146.817 85.0058 142.934 85.0253 142.121 85.0738ZM98.1644 85.4223C98.1644 85.4623 97.872 86.0354 97.5147 86.6959C97.1574 87.3564 96.5729 88.351 96.2157 88.9062C95.8586 89.4613 95.2829 90.2831 94.9363 90.7325C94.5897 91.1819 93.8977 91.965 93.3986 92.4727C92.8994 92.9804 92.2013 93.6381 91.847 93.9343C91.4928 94.2305 90.6776 94.8364 90.0354 95.2808C89.3932 95.7252 88.424 96.3576 87.8817 96.6862C87.3394 97.0148 86.8782 97.2659 86.8567 97.2443C86.8353 97.2228 87.0802 96.7112 87.4009 96.1076C87.7216 95.5041 88.2978 94.5343 88.6813 93.9528C89.0648 93.3712 89.827 92.333 90.3751 91.6457C90.9232 90.9584 91.8594 89.9184 92.4558 89.3345C93.052 88.7506 93.8402 88.0351 94.2073 87.7447C94.5744 87.4541 95.218 86.9982 95.6376 86.7316C96.0571 86.465 96.4648 86.218 96.5434 86.1826C96.6221 86.1472 96.9868 85.9494 97.3539 85.7428C97.721 85.5364 98.0536 85.3634 98.0929 85.3584C98.1321 85.3535 98.1644 85.3823 98.1644 85.4223ZM129.678 85.7445C129.101 85.7882 127.706 85.8912 126.579 85.9733C125.451 86.0553 124.014 86.167 123.384 86.2214C122.755 86.2758 121.554 86.3838 120.715 86.4613C119.876 86.5388 118.781 86.643 118.283 86.6929C117.785 86.7428 116.905 86.8308 116.329 86.8883C115.752 86.9458 114.422 87.0816 113.373 87.1901C112.324 87.2985 111.101 87.4229 110.655 87.4665C110.209 87.51 109.223 87.6157 108.462 87.7012C107.702 87.7868 106.715 87.8983 106.269 87.9489C105.823 87.9996 105.03 88.0848 104.505 88.1381C103.981 88.1916 103.464 88.255 103.357 88.2791C103.239 88.3057 103.093 88.4854 102.986 88.7347C102.889 88.9612 102.58 89.6223 102.3 90.2038C102.019 90.7854 101.692 91.4343 101.573 91.6457C101.455 91.8572 101.197 92.3183 101 92.6705C100.804 93.0226 100.3 93.7943 99.8808 94.3852C99.4611 94.9761 99.1179 95.5038 99.1179 95.5577C99.1179 95.6117 99.2145 95.632 99.3324 95.6028C99.4504 95.5736 99.976 95.4648 100.5 95.3609C101.025 95.257 101.926 95.0827 102.503 94.9735C103.08 94.8643 104.067 94.685 104.696 94.5749C105.325 94.4648 106.226 94.3113 106.698 94.2339C107.17 94.1565 107.964 94.0279 108.462 93.9484C108.96 93.8689 109.625 93.7638 109.94 93.7148C110.255 93.6657 110.92 93.5611 111.418 93.4823C111.916 93.4035 112.667 93.2932 113.087 93.2374C113.506 93.1816 114.557 93.0458 115.423 92.9357C116.288 92.8256 117.296 92.6974 117.663 92.6509C118.031 92.6044 118.889 92.4981 119.57 92.4146C120.252 92.3311 121.261 92.2207 121.811 92.1692C122.362 92.1178 123.306 92.0348 123.909 91.9847C124.512 91.9346 125.649 91.8252 126.436 91.7416C127.222 91.6578 128.337 91.5495 128.914 91.5007C129.726 91.4319 129.989 91.3746 130.082 91.246C130.148 91.1549 130.202 91.0219 130.202 90.9505C130.202 90.879 130.567 89.7175 131.013 88.3691C131.458 87.0207 131.823 85.8546 131.823 85.7777C131.823 85.67 131.697 85.6409 131.275 85.6514C130.973 85.6589 130.254 85.7008 129.678 85.7445ZM84.0525 90.9307C83.8166 90.9745 82.9799 91.1234 82.1932 91.2617C81.4066 91.3999 80.527 91.5522 80.2385 91.6001C79.9501 91.6479 79.4567 91.7281 79.142 91.7784C78.8274 91.8287 78.055 91.9607 77.4257 92.072C76.7964 92.1831 75.2732 92.4697 74.0408 92.7087C72.8084 92.9478 71.4353 93.2102 70.9896 93.2918C70.5438 93.3735 69.8787 93.5006 69.5116 93.5743C69.1445 93.648 68.5438 93.775 68.1767 93.8564C67.8096 93.938 67.3806 94.0288 67.2232 94.0584C67.0659 94.0879 66.4437 94.219 65.8407 94.3496C65.2376 94.4802 64.5725 94.6272 64.3627 94.6762C64.153 94.7251 63.19 94.9421 62.223 95.1583C61.2558 95.3745 59.797 95.7272 58.9811 95.9422C58.1651 96.1571 57.3473 96.3648 57.1638 96.4037C56.9802 96.4425 56.4224 96.5854 55.9242 96.7212C55.426 96.8569 54.6322 97.0737 54.1603 97.2028C53.6883 97.3319 52.9803 97.5256 52.587 97.6333C52.1937 97.741 51.0995 98.0528 50.1556 98.3261C49.2116 98.5995 48.0745 98.9313 47.6288 99.0634C47.183 99.1956 46.6896 99.3398 46.5322 99.3839C46.3749 99.428 45.8815 99.5718 45.4357 99.7034C44.99 99.835 44.2605 100.059 43.8148 100.2C43.369 100.341 42.7468 100.537 42.4322 100.634C42.1175 100.731 41.5061 100.922 41.0734 101.058C40.6408 101.195 39.9436 101.415 39.524 101.547C39.1045 101.679 38.4286 101.891 38.0222 102.019C37.6158 102.146 36.8113 102.403 36.2344 102.589C35.6576 102.775 33.834 103.381 32.182 103.935C30.5301 104.489 28.5564 105.166 27.7959 105.439C27.0355 105.713 26.3061 105.972 26.175 106.015C26.0439 106.059 25.5075 106.253 24.9831 106.448C24.4587 106.642 23.6649 106.933 23.2191 107.095C22.7734 107.257 21.6149 107.71 20.6447 108.101C19.6745 108.493 18.752 108.872 18.5946 108.942C18.4373 109.012 17.7937 109.276 17.1644 109.527C16.5351 109.778 15.7627 110.102 15.4481 110.246C15.1334 110.39 14.628 110.623 14.3249 110.762C14.0218 110.901 13.7566 111.015 13.7356 111.015C13.7146 111.015 13.4263 111.14 13.0948 111.293C12.7634 111.447 12.0417 111.765 11.4911 112.001C10.9404 112.237 10.0393 112.64 9.4887 112.897C8.93805 113.153 7.65083 113.785 6.6282 114.301C5.60556 114.817 4.23252 115.526 3.57699 115.876C2.92146 116.226 2.12767 116.672 1.81301 116.866C1.49836 117.061 0.990139 117.349 0.683778 117.506C0.377323 117.663 0.0867912 117.867 0.0381626 117.958C-0.0175219 118.062 -0.0119917 118.294 0.0529418 118.583C0.109675 118.835 0.194633 119.215 0.24164 119.426C0.288648 119.638 0.440541 120.286 0.579085 120.868C0.717724 121.45 1.04401 122.661 1.30422 123.56C1.56453 124.458 1.92734 125.626 2.1105 126.155C2.29377 126.684 2.47999 127.203 2.52432 127.308C2.56866 127.414 2.72561 127.804 2.87311 128.174C3.02062 128.544 3.27149 129.106 3.43063 129.423L3.72001 130L4.24444 129.986C4.56568 129.978 5.17525 129.834 5.81772 129.615C6.39459 129.419 7.55309 128.952 8.39217 128.578C9.23126 128.204 10.5399 127.576 11.3004 127.184C12.0608 126.791 13.0047 126.295 13.3981 126.081C13.7914 125.867 14.6495 125.391 15.3051 125.023C15.9606 124.656 16.7436 124.205 17.0451 124.023C17.3899 123.813 17.6142 123.606 17.6497 123.463C17.688 123.31 17.6083 123.056 17.4029 122.677C17.236 122.369 17.0324 122.042 16.9503 121.949C16.8682 121.857 16.6826 121.781 16.5378 121.781C16.3929 121.781 16.067 121.872 15.8136 121.984C15.5601 122.095 15.2455 122.221 15.1144 122.264C14.9833 122.307 14.3189 122.54 13.638 122.782C12.9571 123.025 12.3134 123.222 12.2077 123.221C12.102 123.22 12.5089 122.96 13.112 122.643C13.7151 122.326 14.8736 121.738 15.6865 121.335C16.4993 120.932 17.5291 120.431 17.9749 120.22C18.4206 120.01 19.0054 119.736 19.2743 119.611C19.5433 119.485 20.852 118.902 22.1825 118.315C23.5131 117.727 25.181 117.009 25.8889 116.72C26.5969 116.43 27.3049 116.134 27.4622 116.063C27.6195 115.991 27.9843 115.841 28.2727 115.728C28.5611 115.616 28.9258 115.465 29.0832 115.393C29.2405 115.32 29.9485 115.038 30.6564 114.766C31.3644 114.493 32.5873 114.032 33.3739 113.742C34.1606 113.451 34.9758 113.146 35.1856 113.065C35.3953 112.983 36.2964 112.659 37.1879 112.344C38.0795 112.029 40.0747 111.347 41.6217 110.828C43.1688 110.31 45.4429 109.558 46.6753 109.158C47.9077 108.758 49.2164 108.337 49.5835 108.222C49.9506 108.107 50.5513 107.914 50.9184 107.792C51.2855 107.671 52.0578 107.42 52.6347 107.236C53.2115 107.051 54.1984 106.74 54.8277 106.545C55.457 106.35 56.6584 105.975 57.4975 105.712C58.3366 105.449 59.1304 105.196 59.2615 105.149C59.3926 105.102 60.7442 104.697 62.265 104.249C63.7859 103.801 65.5844 103.278 66.2617 103.087C66.9391 102.895 68.162 102.565 68.9792 102.352C69.7965 102.139 70.8728 101.857 71.371 101.726C71.8692 101.595 72.7702 101.363 73.3733 101.211C73.9764 101.059 74.7487 100.87 75.0896 100.79C75.4305 100.711 76.3745 100.488 77.1873 100.295C78.0002 100.102 79.0085 99.8639 79.4281 99.7656C79.8476 99.6674 80.502 99.5161 80.8822 99.4296C81.4075 99.31 81.5734 99.2332 81.5734 99.1092C81.5734 99.0194 81.6807 98.6011 81.8117 98.1796C81.9428 97.7582 82.1212 97.197 82.2083 96.9327C82.2953 96.6683 82.4885 96.1806 82.6375 95.8488C82.7865 95.5171 82.9083 95.2244 82.9083 95.1986C82.9083 95.1726 83.1877 94.5862 83.5292 93.8954C83.8706 93.2045 84.3426 92.2801 84.578 91.8412C84.8134 91.4022 85.0061 90.9948 85.0061 90.9358C85.0061 90.8769 84.8881 90.8338 84.7438 90.84C84.5996 90.8462 84.2885 90.887 84.0525 90.9307Z" fill="#013C55"/>
</svg>
