<svg width="24" height="24" viewBox="0 0 24 24" xmlns="http://www.w3.org/2000/svg">
<path d="M22.9782 12.7061C23.5322 12.7078 23.9827 12.2628 23.9844 11.7122C23.9861 11.1616 23.5383 10.7139 22.9844 10.7122L22.9782 12.7061ZM1.91714 11.6443L1.21004 10.9372C1.02135 11.1236 0.914887 11.3768 0.91407 11.6412C0.913252 11.9056 1.01815 12.1595 1.20568 12.347L1.91714 11.6443ZM11.7057 22.8473C12.0962 23.2379 12.7313 23.2398 13.1242 22.8517C13.5172 22.4636 13.5191 21.8324 13.1286 21.4419L11.7057 22.8473ZM13.1887 1.91655C13.5816 1.52844 13.5836 0.897231 13.193 0.506702C12.8025 0.116172 12.1674 0.114208 11.7745 0.502314L13.1887 1.91655ZM22.9844 10.7122L1.92021 10.6474L1.91407 12.6412L22.9782 12.7061L22.9844 10.7122ZM13.1286 21.4419L2.62859 10.9416L1.20568 12.347L11.7057 22.8473L13.1286 21.4419ZM2.62424 12.3514L13.1887 1.91655L11.7745 0.502314L1.21004 10.9372L2.62424 12.3514Z"/>
</svg>
