<svg width="18" height="17" viewBox="0 0 18 17" xmlns="http://www.w3.org/2000/svg">
<path d="M0.869904 15.2162C0.47938 15.6067 0.479379 16.2399 0.869904 16.6304C1.26043 17.0209 1.89359 17.0209 2.28412 16.6304L0.869904 15.2162ZM16.426 1.07424L17.426 1.07426C17.4261 0.80904 17.3207 0.554685 17.1332 0.367146C16.9456 0.179607 16.6913 0.0742465 16.4261 0.0742427L16.426 1.07424ZM1.57661 0.0740355C1.02433 0.0740279 0.576606 0.521737 0.576598 1.07402C0.576591 1.62631 1.0243 2.07403 1.57658 2.07404L1.57661 0.0740355ZM15.4258 15.9233C15.4258 16.4756 15.8735 16.9233 16.4258 16.9233C16.9781 16.9233 17.4258 16.4756 17.4258 15.9233L15.4258 15.9233ZM2.28412 16.6304L17.1332 1.78135L15.7189 0.367136L0.869904 15.2162L2.28412 16.6304ZM1.57658 2.07404L16.426 2.07424L16.4261 0.0742427L1.57661 0.0740355L1.57658 2.07404ZM15.426 1.07423L15.4258 15.9233L17.4258 15.9233L17.426 1.07426L15.426 1.07423Z"/>
</svg>
