<svg width="23" height="23" viewBox="0 0 23 23"  xmlns="http://www.w3.org/2000/svg">
<path d="M11.3723 7.99846C9.37545 7.99846 7.74584 9.62809 7.74584 11.625C7.74584 13.6219 9.37545 15.2515 11.3723 15.2515C13.3692 15.2515 14.9988 13.6219 14.9988 11.625C14.9988 9.62809 13.3692 7.99846 11.3723 7.99846ZM22.249 11.625C22.249 10.1232 22.2626 8.63507 22.1783 7.13603C22.094 5.39485 21.6968 3.84956 20.4235 2.57632C19.1476 1.30037 17.6051 0.905883 15.8639 0.821544C14.3622 0.737206 12.8741 0.750809 11.375 0.750809C9.8733 0.750809 8.38517 0.737206 6.88615 0.821544C5.14501 0.905883 3.59975 1.30309 2.32653 2.57632C1.0506 3.85228 0.656124 5.39485 0.571787 7.13603C0.487451 8.63779 0.501053 10.126 0.501053 11.625C0.501053 13.124 0.487451 14.6149 0.571787 16.114C0.656124 17.8551 1.05332 19.4004 2.32653 20.6737C3.60247 21.9496 5.14501 22.3441 6.88615 22.4285C8.38789 22.5128 9.87602 22.4992 11.375 22.4992C12.8768 22.4992 14.3649 22.5128 15.8639 22.4285C17.6051 22.3441 19.1503 21.9469 20.4235 20.6737C21.6995 19.3977 22.094 17.8551 22.1783 16.114C22.2654 14.6149 22.249 13.1268 22.249 11.625ZM11.3723 17.2049C8.28451 17.2049 5.7925 14.7129 5.7925 11.625C5.7925 8.53713 8.28451 6.04507 11.3723 6.04507C14.4601 6.04507 16.9521 8.53713 16.9521 11.625C16.9521 14.7129 14.4601 17.2049 11.3723 17.2049ZM17.1807 7.11971C16.4597 7.11971 15.8775 6.5375 15.8775 5.81654C15.8775 5.09559 16.4597 4.51338 17.1807 4.51338C17.9016 4.51338 18.4838 5.09559 18.4838 5.81654C18.484 5.98774 18.4505 6.15729 18.385 6.3155C18.3196 6.4737 18.2237 6.61744 18.1026 6.7385C17.9816 6.85955 17.8378 6.95553 17.6796 7.02095C17.5214 7.08636 17.3519 7.11992 17.1807 7.11971Z"/>
</svg>
