<svg width="40" height="80" viewBox="0 0 40 80"  xmlns="http://www.w3.org/2000/svg">
<path fill-rule="evenodd" clip-rule="evenodd" d="M19.5928 2.24735C17.086 9.77262 15.332 18.7004 14.4093 28.6293C14.0328 32.6826 13.8771 43.9487 14.14 48.1248C14.744 57.7176 16.1589 66.1673 18.5146 74.2488C19.2424 76.7458 20.379 80 20.5234 80C20.8513 80 22.9397 73.1194 23.8829 68.9324C25.8826 60.0559 26.7754 51.4344 26.7748 41.0089C26.7739 28.4474 25.3914 17.1513 22.5393 6.40438C21.8396 3.76819 20.7334 0.247885 20.5285 0.00536076C20.4539 -0.082759 20.0328 0.926135 19.5928 2.24735ZM38.7704 29.3116C38.0351 30.5734 36.1343 35.0431 35.3298 37.4023C32.2039 46.5693 30.8022 57.1832 31.497 66.4258C31.683 68.8973 32.1577 72.3178 32.3771 72.766C32.6791 73.3828 35.5061 66.8415 36.7409 62.6683C38.2373 57.6115 39.3707 51.5408 39.8021 46.2727C40.203 41.3788 39.9721 33.4394 39.3148 29.5066L39.1681 28.6293L38.7704 29.3116ZM0.456527 29.6528C-0.584875 36.8057 0.196796 47.4312 2.37921 55.7856C3.77288 61.1209 6.01296 66.8863 8.20829 70.7884C9.20122 72.5535 9.55384 72.9358 9.55667 72.2505C9.55737 72.063 9.63841 71.1637 9.7366 70.2522C10.0032 67.78 9.96024 61.3603 9.65699 58.36C8.74952 49.3782 6.21767 40.1102 2.6331 32.6483C1.66176 30.6262 0.737486 28.9217 0.612397 28.9217C0.58515 28.9217 0.51509 29.2508 0.456527 29.6528Z"/>
</svg>
