<svg width="21" height="24" viewBox="0 0 21 24" xmlns="http://www.w3.org/2000/svg">
<path d="M18.1075 1.83897L16.9221 1.1812C15.8105 0.565077 14.4195 0.924736 13.6718 2.02112L12.183 4.2054C11.5353 5.15656 11.5358 6.42811 12.1841 7.34816L13.9914 9.90948C13.6007 11.1482 12.9258 12.3093 11.9677 13.393C11.0535 14.444 9.93771 15.3009 8.68639 15.913L6.18675 14.4836C5.23986 13.9432 4.05589 14.1117 3.25189 14.9019L1.37542 16.742C0.439188 17.6612 0.276881 19.1535 0.994664 20.2343L1.76306 21.3925C2.52887 22.5453 3.82762 23.1682 5.17163 23.0255C8.3468 22.6907 11.6449 20.4726 15.0706 16.3722C18.5013 12.2655 20.1688 8.53096 20.0712 5.17312C20.0304 3.76014 19.2841 2.49133 18.1075 1.83897Z"/>
</svg>
