<svg width="23" height="19" viewBox="0 0 23 19" xmlns="http://www.w3.org/2000/svg">
<path d="M20.164 0.921343C20.164 0.921343 22.1855 0.138763 22.0164 2.03917C21.9607 2.82174 21.4555 5.56103 21.0621 8.52347L19.7144 17.2997C19.7144 17.2997 19.602 18.5854 18.591 18.8091C17.5805 19.0322 16.0643 18.0265 15.7833 17.8028C15.5585 17.635 11.5717 15.1193 10.1679 13.8899C9.7745 13.5542 9.32493 12.8837 10.2241 12.1011L16.12 6.51097C16.7938 5.84049 17.4676 4.27533 14.6599 6.17573L6.79767 11.4859C6.79767 11.4859 5.89906 12.0453 4.21474 11.5422L0.564083 10.4239C0.564083 10.4239 -0.78358 9.5855 1.51889 8.74714C7.13485 6.11994 14.0423 3.43696 20.1629 0.921343H20.164Z"/>
</svg>
