<svg width="23" height="14" viewBox="0 0 23 14"  xmlns="http://www.w3.org/2000/svg">
<path fill-rule="evenodd" clip-rule="evenodd" d="M10.8975 12.9808H12.2225C12.2225 12.9808 12.6201 12.9147 12.8188 12.7162C13.0176 12.5177 13.0176 12.1208 13.0176 12.1208C13.0176 12.1208 13.0176 10.4006 13.8126 10.136C14.6076 9.87137 15.6676 11.8561 16.7277 12.5839C17.5227 13.1793 18.1189 13.047 18.1189 13.047L21.034 12.9808C21.034 12.9808 22.5578 12.9147 21.829 11.6577C21.7628 11.5915 21.4315 10.7976 19.6427 9.14363C17.7877 7.42349 18.0527 7.75429 20.239 4.77714C21.564 2.99085 22.094 1.93231 21.9615 1.40303C21.829 0.939922 20.8353 1.07224 20.8353 1.07224H17.5227C17.5227 1.07224 17.2577 1.00608 17.1252 1.1384C16.9264 1.27072 16.8602 1.46919 16.8602 1.46919C16.8602 1.46919 16.3301 2.85853 15.6676 4.04939C14.2101 6.49727 13.6138 6.62959 13.4151 6.49727C12.8851 6.16648 13.0176 5.04177 13.0176 4.31403C13.0176 1.9323 13.4151 0.939921 12.2888 0.675286C11.9575 0.609127 11.6925 0.542969 10.765 0.542969C9.57248 0.542969 8.57871 0.542968 8.0487 0.807604C7.65119 1.00608 7.38618 1.40303 7.58494 1.40303C7.78369 1.40303 8.31371 1.53535 8.57871 1.86615C8.84372 2.46158 8.84372 3.45396 8.84372 3.45396C8.84372 3.45396 9.04247 6.29879 8.37996 6.62959C7.91619 6.89422 7.31993 6.36495 5.9949 4.11555C5.33238 2.99085 4.80237 1.66767 4.80237 1.66767C4.80237 1.66767 4.73612 1.40303 4.53736 1.27072C4.33861 1.1384 4.00735 1.07224 4.00735 1.07224H0.893525C0.893525 1.07224 0.429764 1.07224 0.231009 1.27072C0.0985062 1.46919 0.231009 1.79999 0.231009 1.79999C0.231009 1.79999 2.68232 7.48965 5.46489 10.4006C8.0487 13.1793 10.8975 12.9808 10.8975 12.9808Z"/>
</svg>
