<svg width="56" height="56" viewBox="0 0 56 56" fill="none" xmlns="http://www.w3.org/2000/svg">
<rect width="56" height="56" rx="8" fill="#013C55"/>
<path fill-rule="evenodd" clip-rule="evenodd" d="M9.41984 5.70764C8.87236 5.90783 8.30701 6.42373 8.0238 6.98151L7.84 7.34338L7.85933 28.8715L7.87866 50.3996L14.9298 31.4263C18.8078 20.991 21.994 12.3809 22.0102 12.2928C22.0357 12.1537 21.335 11.7145 16.7005 8.96449C13.7641 7.22197 11.2337 5.75074 11.0776 5.69509C10.7051 5.56242 9.79833 5.56931 9.41984 5.70764ZM21.5242 26.276L17.6107 37.4721L18.9582 37.52C19.6993 37.5463 22.9936 37.5722 26.2788 37.5774L32.2519 37.5869L32.2167 37.4147C32.1278 36.9796 25.5276 15.08 25.4854 15.08C25.4592 15.08 23.6766 20.1182 21.5242 26.276ZM31.3884 17.2809C31.383 17.4516 37.7311 36.0543 37.795 36.055C37.8369 36.0555 40.1263 34.8268 42.8826 33.3247C47.5792 30.7651 47.9089 30.572 48.1306 30.2506C48.7083 29.4125 48.8164 28.4791 48.4291 27.6732C48.3077 27.4205 48.092 27.1073 47.9498 26.9771C47.724 26.7705 31.5617 17.2235 31.4376 17.2235C31.4116 17.2235 31.3894 17.2494 31.3884 17.2809ZM16.0718 41.9314C15.2622 43.8352 13.1622 49.1466 13.219 49.1466C13.2975 49.1466 26.8492 41.8189 26.9756 41.7082C27.0157 41.6731 24.6062 41.6443 21.6212 41.6443H16.1939L16.0718 41.9314Z" fill="#FCFCFC"/>
</svg>
