<svg width="56" height="56" viewBox="0 0 56 56" fill="none" xmlns="http://www.w3.org/2000/svg">
<rect width="56" height="56" rx="10" fill="#013C55"/>
<path fill-rule="evenodd" clip-rule="evenodd" d="M35.6708 23.7716L33.2115 25.1424V27.923V30.7037L33.3007 30.6545C33.6701 30.4509 38.1331 28.071 38.1444 28.0715C38.1523 28.0719 39.2517 28.6572 40.5876 29.3722C41.9235 30.0872 43.027 30.6763 43.0399 30.6812C43.0615 30.6894 43.063 30.4797 43.0596 27.9119L43.056 25.1337L40.6002 23.7663C39.2496 23.0143 38.1413 22.3994 38.1373 22.3999C38.1334 22.4004 37.0235 23.0177 35.6708 23.7716ZM15.3896 23.8081L12.9379 25.1731L12.9374 27.9514C12.9372 29.4794 12.9392 30.7296 12.9419 30.7296C12.9446 30.7296 14.0288 30.1508 15.3513 29.4434C16.6737 28.736 17.7815 28.1448 17.8129 28.1296L17.87 28.102L20.2737 29.3878C21.5957 30.0951 22.7024 30.6864 22.733 30.7019L22.7887 30.7302L22.7885 27.9516L22.7884 25.1731L20.3339 23.8071C18.984 23.0558 17.8709 22.4415 17.8604 22.442C17.85 22.4426 16.7381 23.0573 15.3896 23.8081ZM43.3487 28.058V30.8389L45.7935 32.2C47.1381 32.9486 48.2523 33.561 48.2694 33.561C48.2865 33.561 49.4028 32.9479 50.75 32.1985L53.1995 30.836L53.2 28.0578C53.2002 26.5298 53.198 25.2796 53.1951 25.2796C53.1921 25.2796 52.1079 25.8584 50.7857 26.5658C49.4635 27.2732 48.3553 27.8648 48.323 27.8804L48.2644 27.9089L45.8958 26.6422C44.5931 25.9456 43.487 25.3534 43.438 25.3263L43.3487 25.2771V28.058ZM2.80001 28.1004L2.80026 30.8786L5.25774 32.2461C7.35768 33.4146 7.71962 33.6114 7.74541 33.5994C7.762 33.5916 8.87104 32.9749 10.2099 32.2291L12.6443 30.873L12.6479 28.096C12.6513 25.4549 12.6503 25.3195 12.6265 25.3284C12.6063 25.3359 7.88002 27.8587 7.75416 27.9292C7.71992 27.9484 7.61868 27.8958 5.26341 26.6357C3.91315 25.9132 2.80643 25.3222 2.80406 25.3222C2.8017 25.3222 2.79988 26.5724 2.80001 28.1004ZM23.0635 28.0962L23.0671 30.8733L25.5015 32.2293C26.8404 32.9751 27.9494 33.5916 27.966 33.5994C27.9918 33.6114 28.3551 33.4138 30.4537 32.2461L32.9111 30.8786L32.9114 28.1004C32.9115 26.5724 32.9097 25.3222 32.9073 25.3222C32.9049 25.3222 31.7982 25.9132 30.448 26.6357C28.0926 27.8958 27.9915 27.9484 27.9573 27.9292C27.8327 27.8594 23.1051 25.336 23.0849 25.3284C23.0611 25.3195 23.0601 25.4549 23.0635 28.0962Z" fill="#FCFCFC"/>
</svg>
