<svg width="56" height="56" viewBox="0 0 56 56" fill="none" xmlns="http://www.w3.org/2000/svg">
<rect width="56" height="56" rx="10" fill="#013C55"/>
<path d="M20.0236 49.7555C20.3636 49.7555 20.6112 49.8302 20.7664 49.9796C20.9241 50.1264 21.0029 50.3295 21.0029 50.5884C21.0029 50.7057 20.9856 50.8178 20.9512 50.9246C20.9167 51.0292 20.8588 51.1241 20.7775 51.2085C20.6987 51.2907 20.5939 51.3558 20.4634 51.4028C20.3328 51.4503 20.1714 51.474 19.9793 51.474H19.7391V52.423H19.1811V49.7555H20.0236ZM19.9941 50.2187H19.7391V51.0107H19.9239C20.0298 51.0107 20.1209 50.9971 20.1973 50.9694C20.2737 50.9422 20.3328 50.8987 20.3747 50.8389C20.4166 50.7791 20.4375 50.7018 20.4375 50.6073C20.4375 50.4754 20.4018 50.3783 20.3303 50.3159C20.2589 50.2512 20.1468 50.2187 19.9941 50.2187ZM23.6058 49.7555V51.9522H23.9569V53.2001H23.4173V52.423H21.7655V53.2001H21.226V51.9522H21.4292C21.4982 51.8129 21.5647 51.6656 21.6288 51.5114C21.6928 51.3571 21.7519 51.1914 21.8061 51.0143C21.8628 50.8376 21.9133 50.6459 21.9577 50.4389C22.002 50.2297 22.039 50.002 22.0685 49.7555H23.6058ZM22.512 50.2262C22.4947 50.3559 22.4701 50.4939 22.4381 50.6407C22.406 50.7853 22.3678 50.9334 22.3235 51.0855C22.2816 51.2375 22.2348 51.387 22.1831 51.5338C22.1313 51.6806 22.0759 51.8204 22.0168 51.9522H23.0478V50.2262H22.512ZM27.5102 52.423H26.8746L25.9175 51.0705V52.423H25.3594V49.7555H25.9175V51.0481L26.8635 49.7555H27.4584L26.4976 51.0367L27.5102 52.423ZM28.1009 49.7555H28.6035V51.0442C28.6035 51.1066 28.6023 51.1765 28.5998 51.2534C28.5973 51.3307 28.5949 51.4068 28.5924 51.4815C28.5899 51.5536 28.5875 51.6173 28.585 51.6718C28.5826 51.7241 28.5801 51.7606 28.5776 51.7804H28.5887L29.8082 49.7555H30.4771V52.423H29.9782V51.1413C29.9782 51.074 29.9794 51.0006 29.9819 50.9211C29.9844 50.8389 29.9868 50.7602 29.9893 50.6855C29.9942 50.6108 29.9979 50.5462 30.0004 50.4912C30.0053 50.4341 30.009 50.3967 30.0115 50.3791H29.9967L28.7735 52.423H28.1009V49.7555ZM33.5636 52.423H33.0056V51.2723H31.9598V52.423H31.4018V49.7555H31.9598V50.8015H33.0056V49.7555H33.5636V52.423ZM36.8808 51.0855C36.8808 51.292 36.8549 51.4802 36.8032 51.6494C36.7539 51.8164 36.6775 51.961 36.574 52.0828C36.473 52.205 36.3425 52.2986 36.1823 52.3632C36.0247 52.4278 35.8387 52.4603 35.6243 52.4603C35.41 52.4603 35.2228 52.4278 35.0626 52.3632C34.905 52.2959 34.7744 52.2023 34.6709 52.0828C34.5699 51.961 34.4936 51.8151 34.4418 51.6459C34.3925 51.4766 34.3679 51.2885 34.3679 51.0815C34.3679 50.805 34.4123 50.5651 34.5009 50.3607C34.5921 50.1563 34.7301 49.9981 34.9148 49.886C35.102 49.7717 35.3398 49.7141 35.628 49.7141C35.9138 49.7141 36.1491 49.7717 36.3338 49.886C36.5186 49.9981 36.6553 50.1576 36.744 50.3646C36.8352 50.5686 36.8808 50.809 36.8808 51.0855ZM34.9555 51.0855C34.9555 51.2723 34.9789 51.4327 35.0257 51.5672C35.0725 51.7017 35.1452 51.8054 35.2437 51.8775C35.3422 51.9496 35.4691 51.9856 35.6243 51.9856C35.7845 51.9856 35.9126 51.9496 36.0087 51.8775C36.1072 51.8054 36.1786 51.7017 36.223 51.5672C36.2698 51.4327 36.2932 51.2723 36.2932 51.0855C36.2932 50.8042 36.2415 50.5835 36.138 50.424C36.0345 50.2649 35.8645 50.1849 35.628 50.1849C35.4703 50.1849 35.3422 50.2214 35.2437 50.2934C35.1452 50.3655 35.0725 50.4688 35.0257 50.6033C34.9789 50.7378 34.9555 50.8987 34.9555 51.0855Z" fill="#FCFCFC"/>
<path fill-rule="evenodd" clip-rule="evenodd" d="M27.8192 3.26454C25.1008 10.7668 23.9017 20.7849 24.5297 30.7481C24.8893 36.4533 25.8643 41.8922 27.3417 46.4334C27.6 47.2273 27.9787 48.2914 28.003 48.2914C28.0205 48.2914 28.3098 47.4901 28.5362 46.8146C31.0081 39.4407 32.0728 29.8466 31.4738 20.3434C31.1142 14.6381 30.1391 9.19921 28.6618 4.65803C28.4034 3.86403 28.0248 2.80005 28.0005 2.80005C27.9933 2.80005 27.9117 3.00908 27.8192 3.26454ZM16.387 21.2949C16.3808 21.3363 16.3629 21.511 16.3471 21.683C16.0042 25.4317 16.4908 29.9752 17.7193 34.4934C18.6622 37.9612 19.9798 41.1587 21.5556 43.8029C21.8464 44.2909 22.4339 45.1861 22.4509 45.1672C22.4648 45.1519 22.5115 44.6723 22.5457 44.194C22.626 43.0739 22.626 41.536 22.5455 40.2434C22.3066 36.4019 21.3982 32.1641 19.9987 28.362C19.1397 26.0286 18.1383 23.9465 16.998 22.1231C16.8184 21.836 16.4517 21.28 16.413 21.2363C16.4049 21.2272 16.3933 21.2535 16.387 21.2949ZM39.4295 21.4826C39.1907 21.8338 38.9111 22.2762 38.6478 22.7196C35.1144 28.669 32.9848 37.5186 33.4685 44.2421C33.502 44.7078 33.5463 45.1609 33.5596 45.1744C33.5711 45.1859 33.9763 44.5774 34.2451 44.1451C36.4367 40.6205 38.2229 35.7558 39.1139 30.885C39.438 29.1128 39.612 27.6822 39.7262 25.8489C39.7597 25.3118 39.772 23.5114 39.746 22.9445C39.7106 22.1691 39.635 21.243 39.6073 21.243C39.5991 21.243 39.5191 21.3508 39.4295 21.4826Z" fill="#FCFCFC"/>
</svg>
