<svg width="56" height="56" viewBox="0 0 56 56" fill="none" xmlns="http://www.w3.org/2000/svg">
<rect width="56" height="56" rx="10" fill="#013C55"/>
<path fill-rule="evenodd" clip-rule="evenodd" d="M28.0403 3.46081C25.2749 10.9035 24.0551 20.8422 24.694 30.7262C25.0598 36.3862 26.0517 41.7819 27.5546 46.2871C27.8173 47.0746 28.2026 48.1303 28.2272 48.1303C28.245 48.1303 28.5394 47.3354 28.7696 46.6652C31.2842 39.3498 32.3673 29.8319 31.758 20.4041C31.3922 14.7441 30.4003 9.34837 28.8974 4.84324C28.6346 4.05554 28.2494 3 28.2247 3C28.2174 3 28.1344 3.20737 28.0403 3.46081ZM16.4107 21.3481C16.4044 21.3891 16.3861 21.5624 16.3701 21.7331C16.0212 25.452 16.5163 29.9594 17.766 34.4418C18.7251 37.8821 20.0655 41.0543 21.6685 43.6774C21.9644 44.1615 22.562 45.0497 22.5793 45.0309C22.5934 45.0157 22.6409 44.54 22.6758 44.0655C22.7574 42.9542 22.7574 41.4285 22.6756 40.1462C22.4325 36.3352 21.5084 32.131 20.0847 28.3591C19.211 26.0442 18.1923 23.9787 17.0322 22.1697C16.8496 21.8849 16.4765 21.3333 16.4371 21.2899C16.4289 21.2809 16.417 21.307 16.4107 21.3481ZM39.851 21.5342C39.6081 21.8827 39.3237 22.3216 39.0559 22.7615C35.4614 28.6637 33.295 37.443 33.7871 44.1132C33.8212 44.5752 33.8662 45.0247 33.8798 45.0381C33.8915 45.0495 34.3037 44.4458 34.5771 44.0169C36.8066 40.5203 38.6236 35.6942 39.53 30.862C39.8597 29.1039 40.0367 27.6847 40.1529 25.8659C40.1869 25.3331 40.1995 23.547 40.1731 22.9846C40.137 22.2153 40.0601 21.2966 40.0319 21.2966C40.0236 21.2966 39.9422 21.4036 39.851 21.5342Z" fill="#FCFCFC"/>
<path d="M12.8571 49.5827C13.2029 49.5827 13.4548 49.6569 13.6127 49.8051C13.7731 49.9508 13.8533 50.1522 13.8533 50.409C13.8533 50.5255 13.8357 50.6367 13.8006 50.7426C13.7656 50.8464 13.7067 50.9406 13.624 51.0243C13.5438 51.1058 13.4373 51.1704 13.3044 51.217C13.1716 51.2641 13.0075 51.2877 12.812 51.2877H12.5676V52.2291H12V49.5827H12.8571ZM12.827 50.0423H12.5676V50.8281H12.7556C12.8634 50.8281 12.9561 50.8146 13.0338 50.7871C13.1115 50.7601 13.1716 50.7169 13.2142 50.6576C13.2568 50.5983 13.2781 50.5215 13.2781 50.4278C13.2781 50.297 13.2418 50.2006 13.1691 50.1387C13.0964 50.0746 12.9824 50.0423 12.827 50.0423ZM16.5011 49.5827V51.7621H16.8582V53H16.3094V52.2291H14.629V53H14.0802V51.7621H14.2869C14.3571 51.6239 14.4248 51.4778 14.4899 51.3247C14.5551 51.1717 14.6152 51.0073 14.6704 50.8316C14.728 50.6563 14.7794 50.4662 14.8245 50.2608C14.8696 50.0532 14.9072 49.8274 14.9373 49.5827H16.5011ZM15.3884 50.0497C15.3708 50.1784 15.3458 50.3153 15.3132 50.4609C15.2806 50.6044 15.2418 50.7513 15.1967 50.9022C15.1541 51.0531 15.1064 51.2013 15.0538 51.347C15.0012 51.4926 14.9448 51.6313 14.8846 51.7621H15.9335V50.0497H15.3884ZM20.409 52.2291H19.8414V50.0497H19.1835C19.1685 50.1636 19.1521 50.2869 19.1346 50.4204C19.1196 50.5538 19.102 50.6898 19.082 50.8281C19.0644 50.9641 19.0456 51.0936 19.0256 51.217C19.0055 51.3382 18.9855 51.4459 18.9655 51.5397C18.9329 51.6927 18.889 51.824 18.8339 51.9326C18.7813 52.0411 18.7073 52.124 18.6121 52.1807C18.5194 52.2378 18.3978 52.2661 18.2475 52.2661C18.1973 52.2661 18.1497 52.2627 18.1046 52.2552C18.0595 52.2478 18.0169 52.2378 17.9768 52.2252V51.766C18.0093 51.7756 18.0407 51.7843 18.0708 51.7917C18.1033 51.7991 18.1384 51.8026 18.176 51.8026C18.2261 51.8026 18.2675 51.7869 18.3001 51.7547C18.3326 51.7224 18.3615 51.6683 18.3865 51.5916C18.4116 51.5127 18.4367 51.4037 18.4617 51.2654C18.4742 51.2061 18.4893 51.122 18.5068 51.0134C18.5244 50.9022 18.5444 50.7723 18.567 50.624C18.592 50.4736 18.6171 50.3105 18.6422 50.1352C18.6672 49.9569 18.691 49.7729 18.7136 49.5827H20.409V52.2291ZM21.3492 49.5827H21.8605V50.8612C21.8605 50.9231 21.8592 50.9925 21.8567 51.0688C21.8542 51.1455 21.8517 51.2209 21.8492 51.2951C21.8467 51.3666 21.8442 51.4298 21.8417 51.4839C21.8392 51.5358 21.8366 51.572 21.8342 51.5916H21.8454L23.086 49.5827H23.7664V52.2291H23.2589V50.9576C23.2589 50.8909 23.2601 50.818 23.2627 50.7391C23.2651 50.6576 23.2676 50.5795 23.2702 50.5054C23.2752 50.4313 23.2789 50.3672 23.2814 50.3127C23.2864 50.256 23.2902 50.2189 23.2927 50.2015H23.2777L22.0334 52.2291H21.3492V49.5827ZM25.7408 52.2291H25.1732V50.0497H24.4439V49.5827H26.4701V50.0497H25.7408V52.2291ZM27.7637 50.8538L26.8615 49.5827H27.4479L28.3163 50.8651V49.5827H28.8463V50.8651L29.7147 49.5827H30.3011L29.3989 50.8538L30.3538 52.2291H29.7448L28.8463 50.8874V52.2291H28.3163V50.8874L27.4178 52.2291H26.8088L27.7637 50.8538ZM32.2798 51.4542C32.2046 51.6225 32.1244 51.7682 32.0392 51.8916C31.9565 52.0128 31.85 52.1057 31.7197 52.1698C31.5894 52.2339 31.4189 52.2661 31.2084 52.2661C31.1433 52.2661 31.0718 52.2613 30.9941 52.2513C30.9165 52.2413 30.8451 52.2278 30.7799 52.2103V51.7285C30.84 51.7534 30.9064 51.7708 30.9791 51.7804C31.0518 51.7904 31.1195 51.7952 31.1821 51.7952C31.2648 51.7952 31.3312 51.7817 31.3813 51.7547C31.434 51.7276 31.4753 51.6906 31.5054 51.6435C31.538 51.5942 31.5643 51.541 31.5843 51.4839L30.6558 49.5827H31.2573L31.7573 50.7278C31.7698 50.7526 31.7849 50.7849 31.8024 50.8242C31.8199 50.8638 31.8375 50.9048 31.855 50.9467C31.8726 50.9885 31.8864 51.0256 31.8963 51.0579H31.9151C31.9252 51.0282 31.9377 50.9925 31.9527 50.9502C31.9703 50.9057 31.9879 50.8612 32.0054 50.8167C32.0254 50.7701 32.043 50.7291 32.058 50.6946L32.5241 49.5827H33.1106L32.2798 51.4542ZM34.5695 49.5827C34.9153 49.5827 35.1672 49.6569 35.3251 49.8051C35.4854 49.9508 35.5657 50.1522 35.5657 50.409C35.5657 50.5255 35.5481 50.6367 35.513 50.7426C35.4779 50.8464 35.4191 50.9406 35.3364 51.0243C35.2561 51.1058 35.1496 51.1704 35.0168 51.217C34.884 51.2641 34.7199 51.2877 34.5244 51.2877H34.28V52.2291H33.7124V49.5827H34.5695ZM34.5394 50.0423H34.28V50.8281H34.468C34.5757 50.8281 34.6685 50.8146 34.7462 50.7871C34.8238 50.7601 34.884 50.7169 34.9266 50.6576C34.9692 50.5983 34.9905 50.5215 34.9905 50.4278C34.9905 50.297 34.9542 50.2006 34.8815 50.1387C34.8088 50.0746 34.6948 50.0423 34.5394 50.0423ZM38.5352 52.2291H37.9675V51.0875H36.9037V52.2291H36.336V49.5827H36.9037V50.6205H37.9675V49.5827H38.5352V52.2291ZM41.1164 52.2291L40.9209 51.599H39.9435L39.748 52.2291H39.1353L40.0826 49.5714H40.7781L41.7291 52.2291H41.1164ZM40.5901 50.5128C40.5776 50.471 40.5613 50.4178 40.5412 50.3537C40.5212 50.2896 40.5011 50.2237 40.4811 50.157C40.4611 50.0903 40.4447 50.0323 40.4322 49.983C40.4197 50.0323 40.4021 50.0942 40.3796 50.1683C40.3596 50.2399 40.3395 50.3092 40.3194 50.3759C40.3019 50.44 40.2881 50.4858 40.2781 50.5128L40.0864 51.1281H40.7856L40.5901 50.5128ZM44.4561 52.2291H43.8885V50.0497H43.2306C43.2156 50.1636 43.1993 50.2869 43.1818 50.4204C43.1667 50.5538 43.1492 50.6898 43.1291 50.8281C43.1116 50.9641 43.0928 51.0936 43.0728 51.217C43.0527 51.3382 43.0327 51.4459 43.0126 51.5397C42.9801 51.6927 42.9362 51.824 42.881 51.9326C42.8284 52.0411 42.7545 52.124 42.6592 52.1807C42.5665 52.2378 42.445 52.2661 42.2946 52.2661C42.2445 52.2661 42.1969 52.2627 42.1518 52.2552C42.1066 52.2478 42.0641 52.2378 42.0239 52.2252V51.766C42.0565 51.7756 42.0879 51.7843 42.1179 51.7917C42.1505 51.7991 42.1856 51.8026 42.2232 51.8026C42.2733 51.8026 42.3147 51.7869 42.3472 51.7547C42.3798 51.7224 42.4087 51.6683 42.4337 51.5916C42.4588 51.5127 42.4838 51.4037 42.5089 51.2654C42.5214 51.2061 42.5365 51.122 42.554 51.0134C42.5715 50.9022 42.5916 50.7723 42.6141 50.624C42.6392 50.4736 42.6643 50.3105 42.6893 50.1352C42.7144 49.9569 42.7382 49.7729 42.7607 49.5827H44.4561V52.2291Z" fill="#FCFCFC"/>
</svg>
