<svg width="56" height="56" viewBox="0 0 56 56" fill="none" xmlns="http://www.w3.org/2000/svg">
<rect width="56" height="56" rx="10" fill="#013C55"/>
<path fill-rule="evenodd" clip-rule="evenodd" d="M51.7868 6.59935C51.5097 6.8383 51.2471 7.01133 51.2032 6.98389C51.1594 6.95645 51.1467 6.9952 51.175 7.07005C51.2215 7.19242 51.1266 7.24843 50.9267 7.21644C50.8909 7.21074 50.8714 7.23887 50.8834 7.27893C50.8953 7.31899 50.1451 7.99524 49.2163 8.78167C48.2874 9.56801 47.3849 10.3484 47.2105 10.5157C47.0132 10.7052 46.853 10.7946 46.7858 10.7526C46.7223 10.7129 46.6999 10.7211 46.7314 10.7725C46.7608 10.8207 46.5279 11.0733 46.2137 11.334C45.8997 11.5947 45.5991 11.8488 45.5459 11.8987C45.4926 11.9486 45.1957 12.2008 44.8861 12.459C44.5765 12.7173 44.3037 12.9547 44.2799 12.9865C44.2561 13.0183 44.0965 13.1508 43.9253 13.2808L43.6139 13.5173L43.4489 13.3299C43.2917 13.1514 42.0841 12.0484 41.5475 11.5933C40.5423 10.7405 38.174 9.35133 36.4842 8.6231C34.6191 7.81932 32.0801 7.25649 29.7306 7.12571C23.5429 6.7815 17.6608 8.60715 13.3742 12.2021C12.6682 12.7943 11.2605 14.2042 10.8151 14.7654C10.6337 14.9939 10.4447 15.1554 10.395 15.1243C10.344 15.0924 10.3305 15.1099 10.3639 15.1648C10.3965 15.2181 10.2524 15.4904 10.0437 15.77C9.68728 16.2478 9.29584 16.8421 8.872 17.5492C8.77085 17.718 8.48835 18.2702 8.24422 18.7764C6.82376 21.7213 6.17233 24.6202 6.17605 27.98C6.17917 30.8287 6.52818 32.9112 7.40278 35.2991C7.7395 36.2184 8.63636 38.1428 8.77128 38.2355C8.80636 38.2596 8.90379 38.4174 8.9877 38.5862C9.18299 38.9787 10.2801 40.544 10.6516 40.9603L10.936 41.279L10.4389 41.6772C10.1655 41.8962 9.86387 42.149 9.7686 42.2389C9.67334 42.3288 9.20568 42.7283 8.72937 43.1266C8.25305 43.5249 7.78539 43.9201 7.69013 44.0046C7.59487 44.0892 7.26361 44.3739 6.95401 44.6374C6.6444 44.9008 6.3716 45.1366 6.34778 45.1614C6.32397 45.1861 6.09014 45.3817 5.82817 45.5959C5.56619 45.81 5.1938 46.1251 5.00068 46.2959C4.39714 46.8295 4.15725 46.9953 4.06848 46.9398C4.02137 46.9103 4.0076 46.9269 4.03808 46.9767C4.06848 47.0265 3.80166 47.3115 3.4452 47.6099C3.08874 47.9084 2.79836 48.1991 2.80001 48.256C2.80347 48.3778 3.59112 49.2799 3.69401 49.2799C3.73263 49.2799 4.29685 48.8164 4.94776 48.2498C5.59876 47.6833 6.40806 46.996 6.74633 46.7225C7.08469 46.4491 7.41595 46.172 7.48246 46.1067C7.58993 46.0013 8.04313 45.6128 9.58648 44.3031C9.82957 44.0969 10.3012 43.7064 10.6346 43.4352C10.9681 43.1642 11.3838 42.8055 11.5586 42.6379L11.8764 42.3335L12.7277 43.0722C14.2361 44.3809 15.2429 45.0454 17.1299 45.9777C20.3472 47.5676 23.5234 48.2532 27.6521 48.2492C31.924 48.2451 35.3158 47.4522 38.7837 45.6471C41.2385 44.3694 43.4989 42.4735 45.129 40.3253C47.1338 37.6831 48.4506 34.4012 48.9216 30.8726C49.1285 29.323 49.1297 26.4649 48.9241 24.9122C48.4555 21.3734 47.0621 17.9161 44.9939 15.1601C44.6816 14.7439 44.6351 14.6354 44.729 14.5412C44.8781 14.3916 45.688 13.6983 47.7007 11.9968C48.6057 11.2318 49.4631 10.5018 49.606 10.3746C49.7489 10.2474 50.197 9.87016 50.6019 9.53619C51.0068 9.20232 51.3575 8.90456 51.3813 8.87458C51.4052 8.84461 51.7754 8.52703 52.2041 8.16897C53.1035 7.41751 53.2 7.32811 53.2 7.2458C53.2 7.16753 52.391 6.15328 52.334 6.15994C52.3102 6.16266 52.0639 6.36041 51.7868 6.59935ZM30.2089 8.60198C30.8673 8.70006 31.6603 8.88563 32.1142 9.04787C32.5417 9.20074 33.028 9.36623 33.1947 9.41558C33.8464 9.60851 35.0263 10.2788 36.399 11.236C37.6614 12.1162 39.457 14.1302 40.3389 15.6552L40.5869 16.0841L40.2859 16.3564C39.8656 16.7369 39.1759 17.3226 38.8672 17.5614C38.7243 17.6719 38.5879 17.7843 38.5641 17.8111C38.5403 17.838 38.2875 18.0563 38.0024 18.2962C37.7173 18.5362 37.3471 18.8563 37.1797 19.0077C37.0123 19.159 36.6375 19.4746 36.347 19.7089C36.0563 19.9432 35.5829 20.3434 35.2948 20.598C35.0067 20.8526 34.6166 21.1878 34.428 21.3431C34.2393 21.4982 33.7435 21.921 33.3261 22.2825C32.9087 22.6441 32.4433 23.0386 32.2921 23.1591C32.1408 23.2796 31.6726 23.674 31.2515 24.0356C30.8304 24.3972 30.3183 24.8311 30.1135 24.9998C29.2492 25.7119 27.8622 26.8863 27.782 26.9739C27.7344 27.026 27.5006 27.222 27.2624 27.4095C27.0243 27.5969 26.6519 27.9104 26.435 28.1062C25.593 28.866 25.381 29.03 25.3034 28.9815C25.2591 28.9539 25.2336 28.9662 25.2467 29.009C25.2702 29.0856 24.2549 29.9785 21.6765 32.1489C21.1764 32.5699 20.6271 33.0368 20.456 33.1864C20.2849 33.336 20.0702 33.5176 19.9789 33.5899C19.7705 33.7551 18.7902 34.5826 18.732 34.6424C18.6457 34.7312 16.6033 36.4544 15.837 37.0851C15.4049 37.4406 14.906 37.8719 14.7282 38.0436C14.5505 38.2152 14.3877 38.338 14.3664 38.3165C14.2346 38.1831 13.7145 37.0566 13.3172 36.0442C12.802 34.7312 12.331 32.9967 12.0913 31.53C11.8653 30.1479 11.8658 26.1279 12.092 24.5615C12.2989 23.1286 12.534 21.9505 12.8036 20.9956C14.0514 16.5765 16.1935 13.1914 19.0784 11.0798C20.7917 9.82571 22.9765 8.90631 24.9674 8.60163C26.3878 8.38416 28.7475 8.38433 30.2089 8.60198ZM41.4479 17.7465C41.7568 18.4118 42.226 19.709 42.5052 20.6694C43.1297 22.8175 43.3984 24.6911 43.4717 27.4103C43.6353 33.4708 42.3986 38.264 39.7914 41.674C39.5803 41.9502 39.3676 42.1512 39.3188 42.1207C39.2657 42.0875 39.2568 42.1089 39.2967 42.1741C39.3794 42.3095 38.1688 43.5119 37.3084 44.149C35.4717 45.5088 33.2825 46.3941 30.8131 46.7755C26.416 47.4545 23.1118 46.8571 20.0311 44.8257C19.2728 44.3257 17.8745 43.1373 17.23 42.4451C16.7406 41.9195 15.3993 40.1807 15.1436 39.7405C15.1004 39.6662 15.1425 39.5768 15.2596 39.4938C15.3606 39.4222 15.7643 39.0857 16.1566 38.746C17.0521 37.9709 17.2443 37.8073 18.9736 36.3499C22.7144 33.197 25.7078 30.6614 25.7469 30.6125C25.7707 30.5827 26.1409 30.2652 26.5696 29.9071C26.9983 29.549 27.3934 29.2154 27.4476 29.1658C27.5019 29.1163 27.6188 29.0159 27.7074 28.9428C27.9392 28.7518 28.8696 27.966 29.1244 27.746C30.3347 26.7012 31.8252 25.4362 32.0691 25.2472C32.2358 25.118 32.4744 24.9207 32.5995 24.8089C32.7245 24.697 33.0154 24.4476 33.2458 24.2548C33.4762 24.0619 34.1727 23.47 34.7937 22.9393C36.8075 21.2183 37.9755 20.2272 38.251 20.0057C38.3994 19.8864 38.9134 19.4525 39.3932 19.0415C39.873 18.6305 40.4323 18.1562 40.6361 17.9875C40.8398 17.8188 41.0513 17.633 41.106 17.5745C41.2571 17.4132 41.3042 17.4369 41.4479 17.7465Z" fill="#FCFCFC"/>
</svg>
