<svg width="56" height="56" viewBox="0 0 56 56" fill="none" xmlns="http://www.w3.org/2000/svg">
<path d="M4 5L52.5 4L51 50.5L5 52L4 5Z" fill="#FCFCFC"/>
<path fill-rule="evenodd" clip-rule="evenodd" d="M7.53896 0.240942C4.91327 0.882823 2.18286 3.0465 1.04821 5.38474C-0.0622638 7.6731 -0.0343624 7.04481 0.021068 28.4698L0.0716623 48.0571L0.502085 49.2668C1.65124 52.4959 4.29219 54.9386 7.43629 55.68C9.24112 56.1056 46.9792 56.1071 48.612 55.6817C51.9801 54.804 54.8051 51.9774 55.6824 48.6076C56.1005 47.0013 56.1083 8.96413 55.6909 7.39432C54.8489 4.22827 52.5018 1.65814 49.3638 0.465759L48.2478 0.041622L28.4379 0.00812286C11.8041 -0.0199792 8.45338 0.0172421 7.53896 0.240942ZM37.9243 10.013C41.5532 11.6545 41.7589 15.8679 38.3758 19.2571L37.2147 20.4203H40.0579C42.2442 20.4203 42.9501 20.4795 43.1134 20.6764C43.262 20.8556 43.3108 22.1814 43.2756 25.0964L43.2256 29.2603L41.1795 29.4464L41.1322 36.8907C41.0895 43.6252 41.055 44.3571 40.7712 44.5676C40.5273 44.7483 37.637 44.8002 27.8126 44.8002C16.3074 44.8002 15.137 44.7725 14.8275 44.4922C14.5087 44.2036 14.4873 43.7163 14.4873 36.7688V29.3534H13.5945C13.1034 29.3534 12.6012 29.2529 12.4784 29.1301C12.1622 28.8137 12.1622 20.96 12.4784 20.6436C12.6328 20.4891 13.5883 20.4203 15.5754 20.4203H18.4493L17.7086 19.8834C16.0899 18.7103 15.316 17.2823 15.1041 15.0785C14.914 13.1 15.9534 11.5119 18.0668 10.5522C20.013 9.66817 22.4682 10.3558 24.305 12.299C25.1872 13.2323 26.8397 16.1622 27.4071 17.799L27.6273 18.4345L28.2225 16.9615C29.7056 13.2905 31.6551 10.8019 33.6462 10.038C35.0122 9.51389 36.7982 9.50346 37.9243 10.013ZM34.2012 12.9468C33.8214 13.1478 33.3154 13.6821 32.9786 14.2378C32.3632 15.2528 30.7831 19.1067 30.9243 19.248C31.0467 19.3703 33.3869 18.5013 35.0079 17.7316C35.7763 17.3668 36.6453 16.7882 36.9551 16.4352C37.9694 15.2795 37.8845 13.6767 36.7679 12.8943C36.2092 12.5028 34.9934 12.5275 34.2012 12.9468ZM19.1771 13.2565C18.7807 13.4286 18.4699 13.7513 18.2936 14.1736C17.9337 15.0355 17.9491 15.3143 18.4091 16.2651C18.7313 16.9312 18.99 17.1569 19.9437 17.6045C21.3638 18.2708 24.1452 19.194 24.2916 19.0476C24.438 18.9011 22.9179 15.1112 22.3549 14.219C21.6442 13.0925 20.4124 12.7194 19.1771 13.2565ZM14.8593 26.934H25.4618V23.0258H14.8593V26.934ZM30.112 26.934H40.9005V23.0258H30.112V26.934ZM17.0914 42.1947H25.4618V29.3534H17.0914V42.1947ZM30.112 42.1947H38.6684V29.3534H30.112V42.1947Z" fill="#013C55"/>
</svg>
